<svg width="120" height="120" viewBox="0 0 120 120" fill="none" xmlns="http://www.w3.org/2000/svg">
<g clip-path="url(#clip0_76_7205)">
<path d="M86.941 18.0692H20.1269C15.1984 18.0692 11.2031 22.0645 11.2031 26.9929V72.6951C11.2031 77.6236 15.1984 81.6189 20.1269 81.6189H86.941C91.8695 81.6189 95.8648 77.6236 95.8648 72.6951V26.9929C95.8648 22.0645 91.8695 18.0692 86.941 18.0692Z" stroke="#171921" stroke-width="1.2" stroke-miterlimit="10"/>
<path d="M58.5732 85.6104V90.5854" stroke="#171921" stroke-width="1.2" stroke-linecap="round" stroke-linejoin="round"/>
<path d="M46.1428 85.6104V90.5854" stroke="#171921" stroke-width="1.2" stroke-linecap="round" stroke-linejoin="round"/>
<path d="M74.4819 47.5632V39.4092H82.1512" stroke="#171921" stroke-width="1.2" stroke-miterlimit="10"/>
<path d="M69.1506 94.5768H35.5653C34.3214 94.5768 33.313 95.5852 33.313 96.8292V100.678C33.313 101.922 34.3214 102.93 35.5653 102.93H69.1506C70.3945 102.93 71.4029 101.922 71.4029 100.678V96.8292C71.4029 95.5852 70.3945 94.5768 69.1506 94.5768Z" stroke="#171921" stroke-width="1.2" stroke-miterlimit="10"/>
<path d="M12.1296 98.7394H28.6514" stroke="#171921" stroke-width="1.2" stroke-linecap="round" stroke-linejoin="round"/>
<path d="M7.06909 98.7394H9.05057" stroke="#171921" stroke-width="1.2" stroke-linecap="round" stroke-linejoin="round"/>
<path d="M92.7857 98.7394H76.2639" stroke="#171921" stroke-width="1.2" stroke-linecap="round" stroke-linejoin="round"/>
<path d="M97.8605 98.7394H95.8647" stroke="#171921" stroke-width="1.2" stroke-linecap="round" stroke-linejoin="round"/>
<path d="M19.186 47.5631H65.0023" stroke="#231F20" stroke-width="1.2" stroke-linecap="round" stroke-linejoin="round"/>
<path d="M11 29.5303L94.6103 29.5156" stroke="#171921" stroke-width="1.2" stroke-linecap="round" stroke-linejoin="round"/>
<path d="M19.0007 55.1327H54.2111" stroke="#231F20" stroke-width="1.2" stroke-linecap="round" stroke-linejoin="round"/>
<path d="M22.6643 62.0037H70.1056" stroke="#231F20" stroke-width="1.2" stroke-linecap="round" stroke-linejoin="round"/>
<path d="M33.0708 69.2311H75.48" stroke="#231F20" stroke-width="1.2" stroke-linecap="round" stroke-linejoin="round"/>
<path d="M95.8648 77.3708C105.556 77.3708 113.413 69.5142 113.413 59.8226C113.413 50.1311 105.556 42.2745 95.8648 42.2745C86.1732 42.2745 78.3167 50.1311 78.3167 59.8226C78.3167 69.5142 86.1732 77.3708 95.8648 77.3708Z" fill="white" stroke="#171921" stroke-width="1.2" stroke-miterlimit="10"/>
<path d="M95.8648 74.9902C104.242 74.9902 111.032 68.1994 111.032 59.8226C111.032 51.4458 104.242 44.6551 95.8648 44.6551C87.488 44.6551 80.6973 51.4458 80.6973 59.8226C80.6973 68.1994 87.488 74.9902 95.8648 74.9902Z" fill="#E5453D"/>
<path d="M101.253 56.1876H90.4907V66.6651H101.253V56.1876Z" stroke="white" stroke-width="1.2" stroke-linecap="round" stroke-linejoin="round"/>
<path d="M95.936 50.4998H95.8077C94.9684 50.4998 94.1635 50.8332 93.57 51.4267C92.9765 52.0201 92.6431 52.8251 92.6431 53.6644V56.2304H99.1007V53.6644C99.1007 52.8251 98.7673 52.0201 98.1738 51.4267C97.5803 50.8332 96.7753 50.4998 95.936 50.4998V50.4998Z" stroke="white" stroke-width="1.2" stroke-linecap="round" stroke-linejoin="round"/>
<path d="M95.8647 59.8226V62.6879" stroke="white" stroke-linecap="round" stroke-linejoin="round"/>
<path d="M55.8933 35.3036H18.9438V41.7613H55.8933V35.3036Z" fill="#171921"/>
<path d="M57.5754 55.1327H59.5712" stroke="#1A1B26" stroke-width="1.2" stroke-linecap="round" stroke-linejoin="round"/>
<path d="M63.0066 55.1327H65.0023" stroke="#1A1B26" stroke-width="1.2" stroke-linecap="round" stroke-linejoin="round"/>
<path d="M22.7073 69.1313H24.703" stroke="#1A1B26" stroke-width="1.2" stroke-linecap="round" stroke-linejoin="round"/>
<path d="M28.1382 69.1313H30.1339" stroke="#1A1B26" stroke-width="1.2" stroke-linecap="round" stroke-linejoin="round"/>
<path d="M21.3813 25.9381C22.3497 25.9381 23.1347 25.153 23.1347 24.1847C23.1347 23.2163 22.3497 22.4313 21.3813 22.4313C20.4129 22.4313 19.6279 23.2163 19.6279 24.1847C19.6279 25.153 20.4129 25.9381 21.3813 25.9381Z" fill="#171921"/>
<path d="M28.8225 25.9381C29.7909 25.9381 30.5759 25.153 30.5759 24.1847C30.5759 23.2163 29.7909 22.4313 28.8225 22.4313C27.8541 22.4313 27.0691 23.2163 27.0691 24.1847C27.0691 25.153 27.8541 25.9381 28.8225 25.9381Z" fill="#171921"/>
</g>
<defs>
<clipPath id="clip0_76_7205">
<rect width="108.14" height="86.9853" fill="white" transform="translate(6 17)"/>
</clipPath>
</defs>
</svg>
