<svg width="116" height="30" viewBox="0 0 116 30" fill="none" xmlns="http://www.w3.org/2000/svg">
<path d="M37.8809 8.48589V3.17677H58.8756V11.8558H52.9783V8.41814H47.2833V12.4677H52.17V17.368H47.2833V21.7587H53.0795V17.8791H58.9769V27H37.8809V21.691H40.3742V8.48589H37.8809Z" fill="#293330"/>
<path d="M60.2266 8.48589V3.17677H81.2215V11.8558H75.324V8.41814H69.629V12.4677H74.5157V17.368H69.629V21.7587H75.4252V17.8791H81.3225V27H60.2266V21.691H62.7199V8.48589H60.2266Z" fill="#293330"/>
<path d="M94.8688 13.5906C95.8455 13.5906 96.216 13.5228 96.4185 13.3185C96.722 12.9786 96.7891 12.4677 96.7891 11.005C96.7891 9.54099 96.722 9.03138 96.4185 8.69022C96.216 8.48589 95.8455 8.41814 94.8688 8.41814H91.9708V13.5906H94.8688ZM102.485 17.3347C101.575 18.2878 100.159 18.6276 98.0705 18.6276H91.9708V21.691H94.6324V27H82.5684V21.691H85.0615V8.48589H82.5684V3.17677H98.0705C100.159 3.17677 101.575 3.5178 102.485 4.47074C103.563 5.59373 104.001 6.78421 104.001 10.9029C104.001 15.0201 103.563 16.2119 102.485 17.3347Z" fill="#293330"/>
<path d="M36.6342 8.48589V3.17677H24.7383V8.41814H26.5914L22.918 12.7398H21.4026V8.41814H23.491V3.17677H20.6683V5.14227H19.1407V3.17677H16.3507V5.14227H14.823V3.17677H12V8.48589H14.4933V21.691H12V27H23.491V21.7587H21.4026V17.437H22.918L26.5914 21.7587H24.7383V27H36.6342V21.691H34.781L29.1814 15.0884L34.781 8.48589H36.6342Z" fill="#293330"/>
</svg>
