<svg
    width="40"
    height="27"
    viewBox="0 0 40 27"
    fill="none"
    xmlns="http://www.w3.org/2000/svg"
  >
    <g clipPath="url(#clip0_243_11045)">
      <path
        d="M37.049 0.895447H2.94067C1.81118 0.895447 0.895386 1.81124 0.895386 2.94073V23.6479C0.895386 24.7774 1.82136 25.7034 2.95084 25.7034H37.049C38.1785 25.7034 39.1045 24.7774 39.1045 23.6479V2.9509C39.1045 1.82142 38.1785 0.895447 37.049 0.895447Z"
        fill="white"
      />
      <path
        d="M37.0491 26.5988H2.9509C1.32282 26.5988 0 25.276 0 23.6479V2.94073C0 1.31264 1.31264 0 2.94073 0H37.0491C38.6772 0 40 1.32282 40 2.9509V23.6479C40 25.276 38.6772 26.5988 37.0491 26.5988ZM2.94073 1.80107C2.30984 1.80107 1.80107 2.30984 1.80107 2.94073V23.6479C1.80107 24.289 2.32002 24.7978 2.9509 24.7978H37.0491C37.6902 24.7978 38.1989 24.2788 38.1989 23.6479V2.9509C38.1989 2.32002 37.68 1.80107 37.0491 1.80107H2.94073Z"
        fill="#171921"
      />
      <path
        d="M6.16638 7.11269V8.42534H7.42815V19.476H10.9794L17.8988 8.47621H18.5805V7.11269H13.8082V8.47621L10.5927 13.2994V7.11269H6.16638Z"
        fill="#E5453D"
      />
      <path
        d="M33.4978 7.84533H24.462C24.3158 7.84533 24.1974 7.96378 24.1974 8.10989V9.70745C24.1974 9.85357 24.3158 9.97201 24.462 9.97201H33.4978C33.6439 9.97201 33.7624 9.85357 33.7624 9.70745V8.10989C33.7624 7.96378 33.6439 7.84533 33.4978 7.84533Z"
        fill="#171921"
      />
      <path
        d="M33.4978 12.5668H21.9893C21.8432 12.5668 21.7247 12.6852 21.7247 12.8313V14.4289C21.7247 14.575 21.8432 14.6935 21.9893 14.6935H33.4978C33.6439 14.6935 33.7624 14.575 33.7624 14.4289V12.8313C33.7624 12.6852 33.6439 12.5668 33.4978 12.5668Z"
        fill="#171921"
      />
      <path
        d="M33.4978 17.2882H19.3233C19.1772 17.2882 19.0587 17.4067 19.0587 17.5528V19.1503C19.0587 19.2965 19.1772 19.4149 19.3233 19.4149H33.4978C33.6439 19.4149 33.7624 19.2965 33.7624 19.1503V17.5528C33.7624 17.4067 33.6439 17.2882 33.4978 17.2882Z"
        fill="#171921"
      />
    </g>
    <defs>
      <clipPath id="clip0_243_11045">
        <rect width="40" height="26.5988" fill="white" />
      </clipPath>
    </defs>
  </svg>