<svg width="90" height="90" viewBox="0 0 90 90" fill="none" xmlns="http://www.w3.org/2000/svg">
<g clip-path="url(#clip0_146_615)">
<path d="M78.6556 31.1975L78.5295 30.895C77.0673 27.353 77.3573 23.332 79.3236 20.042L80.2942 18.416L71.5967 9.71851L70.0841 10.6261C66.7312 12.6303 62.622 12.9202 59.0169 11.4328L58.8278 11.3572C55.2354 9.86977 52.5631 6.76893 51.6178 3.01263L51.1766 1.27313H38.8741L38.4329 3.01263C37.4875 6.78154 34.8026 9.86977 31.2228 11.3572L31.0337 11.4328C27.4287 12.9328 23.3194 12.6303 19.9665 10.6261L18.4539 9.71851L9.75641 18.416L10.664 19.9286C12.6682 23.2815 12.9581 27.3908 11.4707 30.9958L11.3573 31.2731C9.89507 34.8025 6.84465 37.437 3.13877 38.3824L1.31104 38.8488V51.1513L3.05053 51.5925C6.81944 52.5378 9.90767 55.2227 11.3951 58.8026L11.4707 58.9916C12.9707 62.5967 12.6682 66.7059 10.664 70.0589L9.75641 71.5715L18.4539 80.2689L19.9665 79.3614C23.3194 77.3572 27.4287 77.0673 31.0337 78.5546L31.2228 78.6303C34.8152 80.1177 37.4875 83.2185 38.4329 86.9748L38.8741 88.7143H51.1766L51.6178 86.9748C52.5631 83.2059 55.248 80.1177 58.8278 78.6303L59.0169 78.5546C62.622 77.0546 66.7312 77.3572 70.0841 79.3614L71.5967 80.2689L80.2942 71.5715L79.3236 69.9454C77.3573 66.6555 77.0673 62.6345 78.5295 59.0925L78.6556 58.7899C80.143 55.1975 83.2438 52.5252 87.0001 51.5799L88.7396 51.1387V38.8362L87.0001 38.395C83.2312 37.4496 80.143 34.7647 78.6556 31.1849V31.1975Z" stroke="#20222A" stroke-width="1.5" stroke-miterlimit="10"/>
<path d="M39.9706 18.2521C41.6093 17.9496 43.2857 17.7857 45.0126 17.7857C60.0378 17.7857 72.2269 29.9748 72.2269 45C72.2269 60.0252 60.0378 72.2143 45.0126 72.2143C29.9874 72.2143 17.7983 60.0252 17.7983 45C17.7983 37.021 21.2395 29.8361 26.7101 24.8571" stroke="#20222A" stroke-width="1.5" stroke-linecap="round" stroke-linejoin="round"/>
<path d="M32.458 20.8487C33.3908 20.3571 34.3614 19.9286 35.3698 19.5504" stroke="#20222A" stroke-width="1.5" stroke-linecap="round" stroke-linejoin="round"/>
<path d="M44.9999 67.2479C57.287 67.2479 67.2477 57.2871 67.2477 45C67.2477 32.7128 57.287 22.7521 44.9999 22.7521C32.7127 22.7521 22.752 32.7128 22.752 45C22.752 57.2871 32.7127 67.2479 44.9999 67.2479Z" fill="#E5443C"/>
<path d="M28.3115 51V49.3381L32.1946 45.7425C32.5249 45.4229 32.8019 45.1353 33.0256 44.8796C33.2529 44.6239 33.4251 44.3736 33.5423 44.1286C33.6595 43.88 33.7181 43.6119 33.7181 43.3242C33.7181 43.0046 33.6453 42.7294 33.4997 42.4986C33.3541 42.2642 33.1552 42.0849 32.9031 41.9606C32.651 41.8327 32.3651 41.7688 32.0455 41.7688C31.7117 41.7688 31.4205 41.8363 31.1719 41.9712C30.9233 42.1062 30.7316 42.2997 30.5966 42.5518C30.4617 42.804 30.3942 43.104 30.3942 43.4521H28.2049C28.2049 42.7383 28.3665 42.1186 28.6897 41.593C29.0128 41.0675 29.4656 40.6609 30.048 40.3732C30.6304 40.0856 31.3015 39.9418 32.0615 39.9418C32.8427 39.9418 33.5228 40.0803 34.1016 40.3572C34.684 40.6307 35.1368 41.0107 35.4599 41.4972C35.7831 41.9837 35.9446 42.5412 35.9446 43.1697C35.9446 43.5817 35.863 43.9883 35.6996 44.3896C35.5398 44.7908 35.254 45.2365 34.842 45.7266C34.4301 46.2131 33.8495 46.7972 33.1002 47.479L31.5075 49.0398V49.1143H36.0885V51H28.3115ZM37.3602 49.0824V47.266L41.9146 40.0909H43.4806V42.6051H42.5538L39.6827 47.1488V47.234H46.1546V49.0824H37.3602ZM42.5964 51V48.5284L42.639 47.7241V40.0909H44.8016V51H42.5964ZM52.4641 39.5795L48.9485 52.6406H46.9936L50.5092 39.5795H52.4641ZM53.9676 51L58.4899 42.0511V41.9766H53.2218V40.0909H60.8763V42.0032L56.3486 51H53.9676Z" fill="white"/>
</g>
<defs>
<clipPath id="clip0_146_615">
<rect width="90" height="90" fill="white"/>
</clipPath>
</defs>
</svg>
