<svg width="83" height="100" viewBox="0 0 83 100" fill="none" xmlns="http://www.w3.org/2000/svg">
<g clip-path="url(#clip0_308_2926)">
<path d="M66.0745 0.994263H6.89377C3.63556 0.994263 0.994263 3.63556 0.994263 6.89377V87.8165C0.994263 91.0747 3.63556 93.716 6.89377 93.716H66.0745C69.3327 93.716 71.974 91.0747 71.974 87.8165V6.89377C71.974 3.63556 69.3327 0.994263 66.0745 0.994263Z" stroke="#231F20" stroke-width="1.97534" stroke-miterlimit="10"/>
<path d="M75.4474 9.22699H15.3255C12.0966 9.22699 9.479 11.8445 9.479 15.0735V93.1591C9.479 96.388 12.0966 99.0056 15.3255 99.0056H75.4474C78.6764 99.0056 81.2939 96.388 81.2939 93.1591V15.0735C81.2939 11.8445 78.6764 9.22699 75.4474 9.22699Z" fill="white" stroke="#231F20" stroke-width="1.97534" stroke-miterlimit="10"/>
<path d="M30.0809 57.5632H20.5621C19.7128 57.5632 19.0243 58.2517 19.0243 59.101V68.6198C19.0243 69.4691 19.7128 70.1576 20.5621 70.1576H30.0809C30.9302 70.1576 31.6188 69.4691 31.6188 68.6198V59.101C31.6188 58.2517 30.9302 57.5632 30.0809 57.5632Z" fill="#E5443C"/>
<path d="M36.4843 61.1298H69.7336" stroke="#231F20" stroke-width="1.65717" stroke-linecap="round" stroke-linejoin="round"/>
<path d="M36.4843 67.3739H70.1711" stroke="#231F20" stroke-width="1.65717" stroke-linecap="round" stroke-linejoin="round"/>
<path d="M24.2741 67.652C24.1415 67.652 24.009 67.599 23.9162 67.5062L20.4825 64.0726C20.2837 63.8737 20.2837 63.5688 20.4825 63.3699C20.6814 63.1711 20.9863 63.1711 21.1852 63.3699L24.2609 66.4456L29.4445 61.262C29.6433 61.0631 29.9482 61.0631 30.1471 61.262C30.346 61.4609 30.346 61.7658 30.1471 61.9646L24.6188 67.4929C24.526 67.5857 24.3934 67.6388 24.2609 67.6388L24.2741 67.652Z" fill="white"/>
<path d="M30.0014 19.0245H20.6417C19.7484 19.0245 19.0243 19.7486 19.0243 20.6419V30.0015C19.0243 30.8948 19.7484 31.6189 20.6417 31.6189H30.0014C30.8946 31.6189 31.6188 30.8948 31.6188 30.0015V20.6419C31.6188 19.7486 30.8946 19.0245 30.0014 19.0245Z" fill="#E5443C"/>
<path d="M36.4843 22.5905H55.8002" stroke="#231F20" stroke-width="1.65717" stroke-linecap="round" stroke-linejoin="round"/>
<path d="M36.4843 28.4634H61.0368" stroke="#231F20" stroke-width="1.65717" stroke-linecap="round" stroke-linejoin="round"/>
<path d="M24.2741 29.1131C24.1415 29.1131 24.009 29.0601 23.9162 28.9673L20.4825 25.5337C20.2837 25.3348 20.2837 25.0299 20.4825 24.831C20.6814 24.6322 20.9863 24.6322 21.1852 24.831L24.2609 27.9067L29.4445 22.7231C29.6433 22.5243 29.9482 22.5243 30.1471 22.7231C30.346 22.922 30.346 23.2269 30.1471 23.4258L24.6188 28.9541C24.526 29.0469 24.3934 29.0999 24.2609 29.0999L24.2741 29.1131Z" fill="white"/>
<path d="M30.0942 38.2076H20.5489C19.7069 38.2076 19.0243 38.8902 19.0243 39.7322V49.2775C19.0243 50.1195 19.7069 50.8021 20.5489 50.8021H30.0942C30.9362 50.8021 31.6188 50.1195 31.6188 49.2775V39.7322C31.6188 38.8902 30.9362 38.2076 30.0942 38.2076Z" fill="#E5443C"/>
<path d="M36.4843 41.111H72.4514" stroke="#231F20" stroke-width="1.65717" stroke-linecap="round" stroke-linejoin="round"/>
<path d="M36.4843 47.3551H71.7222" stroke="#231F20" stroke-width="1.65717" stroke-linecap="round" stroke-linejoin="round"/>
<path d="M24.2741 47.6337C24.1415 47.6337 24.009 47.5806 23.9162 47.4878L20.4825 44.0542C20.2837 43.8553 20.2837 43.5504 20.4825 43.3515C20.6814 43.1527 20.9863 43.1527 21.1852 43.3515L24.2609 46.4272L29.4445 41.2436C29.6433 41.0448 29.9482 41.0448 30.1471 41.2436C30.346 41.4425 30.346 41.7474 30.1471 41.9463L24.6188 47.4746C24.526 47.5674 24.3934 47.6204 24.2609 47.6204L24.2741 47.6337Z" fill="white"/>
<path d="M69.8927 78.0722H21.0262C19.6131 78.0722 18.4675 79.2178 18.4675 80.6309V89.1023C18.4675 90.5154 19.6131 91.661 21.0262 91.661H69.8927C71.3058 91.661 72.4514 90.5154 72.4514 89.1023V80.6309C72.4514 79.2178 71.3058 78.0722 69.8927 78.0722Z" fill="#ED1C24"/>
<path d="M24.6719 82.6196H67.6123" stroke="white" stroke-width="1.48482" stroke-linecap="round" stroke-linejoin="round"/>
<path d="M24.6719 87.1271H67.6123" stroke="white" stroke-width="1.48482" stroke-linecap="round" stroke-linejoin="round"/>
</g>
<defs>
<clipPath id="clip0_308_2926">
<rect width="82.275" height="100" fill="white"/>
</clipPath>
</defs>
</svg>
