<svg width="108" height="88" viewBox="0 0 108 88" fill="none" xmlns="http://www.w3.org/2000/svg">
<g clip-path="url(#clip0_308_2892)">
<path d="M2.46924 68.1697H105.623" stroke="#231F20" stroke-width="2.23535" stroke-linecap="round" stroke-linejoin="round"/>
<path d="M2.46924 12.1315H106.858" stroke="#231F20" stroke-width="2.26661" stroke-linecap="round" stroke-linejoin="round"/>
<path d="M8.28455 30.9366H18.2264" stroke="#231F20" stroke-width="2.23535" stroke-linecap="round" stroke-linejoin="round"/>
<path d="M22.8221 30.9368H53.5699" stroke="#231F20" stroke-width="2.23535" stroke-linecap="round" stroke-linejoin="round"/>
<path d="M8.28455 38.0004H49.5525" stroke="#231F20" stroke-width="2.23535" stroke-linecap="round" stroke-linejoin="round"/>
<path d="M10.1922 9.06536C11.3404 9.06536 12.2712 8.09256 12.2712 6.89254C12.2712 5.69253 11.3404 4.71973 10.1922 4.71973C9.04397 4.71973 8.11316 5.69253 8.11316 6.89254C8.11316 8.09256 9.04397 9.06536 10.1922 9.06536Z" stroke="#231F20" stroke-width="1.87581" stroke-miterlimit="10"/>
<path d="M17.7266 9.06536C18.8748 9.06536 19.8056 8.09256 19.8056 6.89254C19.8056 5.69253 18.8748 4.71973 17.7266 4.71973C16.5784 4.71973 15.6476 5.69253 15.6476 6.89254C15.6476 8.09256 16.5784 9.06536 17.7266 9.06536Z" stroke="#231F20" stroke-width="1.87581" stroke-miterlimit="10"/>
<path d="M100.622 1.03094H7.28494C3.83166 1.03094 1.03223 3.83038 1.03223 7.28366V71.499C1.03223 74.9523 3.83166 77.7518 7.28494 77.7518H100.622C104.076 77.7518 106.875 74.9523 106.875 71.499V7.28366C106.875 3.83038 104.076 1.03094 100.622 1.03094Z" stroke="#231F20" stroke-width="2.04776" stroke-miterlimit="10"/>
<path d="M36.5942 23.8704H30.5134" stroke="#231F20" stroke-width="2.23535" stroke-linecap="round" stroke-linejoin="round"/>
<path d="M59.776 23.8704H41.4399" stroke="#231F20" stroke-width="2.23535" stroke-linecap="round" stroke-linejoin="round"/>
<path d="M25.7765 23.8702H8.28455" stroke="#231F20" stroke-width="2.23535" stroke-linecap="round" stroke-linejoin="round"/>
<path d="M73.7344 77.9256H38.4222V86.1948H73.7344V77.9256Z" stroke="#231F20" stroke-width="1.87581" stroke-miterlimit="10"/>
<path d="M35.6405 86.35H75.9705" stroke="#1A1B26" stroke-width="1.87581" stroke-linecap="round" stroke-linejoin="round"/>
<path d="M26.6216 86.4607H31.4831" stroke="#1A1B26" stroke-width="1.87581" stroke-linecap="round" stroke-linejoin="round"/>
<path d="M80.6915 86.35H85.5374" stroke="#1A1B26" stroke-width="1.87581" stroke-linecap="round" stroke-linejoin="round"/>
<path d="M8.28455 45.051H16.0379" stroke="#231F20" stroke-width="2.23535" stroke-linecap="round" stroke-linejoin="round"/>
<path d="M20.7589 45.0509H42.8935" stroke="#231F20" stroke-width="2.23535" stroke-linecap="round" stroke-linejoin="round"/>
<path d="M72.3125 52.9917C72.4219 52.7572 72.5157 52.5071 72.6095 52.257L73.4693 52.4133C73.9851 52.5071 74.4697 52.1632 74.5635 51.663L74.7823 50.4593C74.8761 49.9435 74.5322 49.4589 74.032 49.3651L73.8757 49.3338C73.4693 49.2557 73.1566 48.9274 73.1097 48.521C73.0628 48.1145 73.0159 47.7081 72.9222 47.3173C72.8284 46.9265 73.0316 46.4888 73.4067 46.3013L73.5631 46.2231C74.0164 45.9886 74.204 45.4259 73.9695 44.9569L73.4067 43.8783C73.1723 43.425 72.6095 43.2374 72.1406 43.4719L71.953 43.5657C71.5934 43.7533 71.1245 43.6907 70.8588 43.3937C70.593 43.0967 70.3116 42.831 69.999 42.5809C69.6864 42.3308 69.5926 41.8618 69.7645 41.4867L69.8583 41.2835C70.0772 40.8145 69.874 40.2518 69.405 40.0329L68.2951 39.5171C67.8262 39.2982 67.2634 39.5014 67.0446 39.9704L66.9508 40.1736C66.7789 40.5488 66.3724 40.7832 65.9504 40.7051C65.6065 40.6426 65.2626 40.5957 64.903 40.58C64.4966 40.5488 64.1527 40.2518 64.0589 39.8453L64.012 39.6265C63.9026 39.1263 63.4024 38.798 62.9022 38.9074L61.7142 39.1575C61.2139 39.267 60.8857 39.7672 60.9951 40.2674L61.0264 40.455C61.1045 40.8614 60.9169 41.2835 60.5418 41.471C60.4011 41.5492 60.2448 41.6117 60.1041 41.7055C59.7446 41.9087 59.2912 41.8306 59.0099 41.5336L58.8848 41.4085C58.5253 41.0333 57.9313 41.0333 57.5561 41.4085L56.6964 42.2683C56.3368 42.6278 56.3212 43.2218 56.6964 43.597L56.7902 43.6907C57.0872 43.9878 57.1497 44.4567 56.9308 44.8162C56.7745 45.082 56.6338 45.3477 56.5088 45.6291C56.4306 45.801 56.3525 45.973 56.2899 46.1606L55.4458 46.0043C54.93 45.9105 54.4454 46.2544 54.3516 46.7546L54.1327 47.9582C54.039 48.4741 54.3829 48.9587 54.8831 49.0524H54.93C55.3364 49.1306 55.6647 49.4745 55.6959 49.8966C55.7272 50.3186 55.7897 50.7563 55.8679 51.1784C55.946 51.6004 55.7428 51.9912 55.3833 52.1788H55.352C54.8987 52.4289 54.7111 53.0073 54.9456 53.4606L55.5083 54.5392C55.7428 54.9925 56.3056 55.1801 56.7745 54.9456C57.1497 54.7424 57.6186 54.8362 57.9 55.1488C58.1814 55.4615 58.494 55.7585 58.8223 56.0399C59.1506 56.3212 59.2443 56.7589 59.0724 57.1497C58.8535 57.6187 59.0568 58.1814 59.5257 58.4003L60.6356 58.9161C61.1045 59.1349 61.6673 58.9317 61.8861 58.4628C62.0581 58.0876 62.4645 57.8531 62.8709 57.9313C63.2773 58.0095 63.6525 58.0407 64.0433 58.0564C64.4654 58.072 64.8093 58.3846 64.8874 58.7911C64.9968 59.3069 65.4971 59.6195 65.9973 59.5257L67.1853 59.2756C67.6855 59.1662 68.0138 58.666 67.9043 58.1658V58.1189C67.8106 57.7125 67.9981 57.2904 68.3577 57.1028C68.5296 57.0247 68.6859 56.9309 68.8579 56.8214C69.2174 56.6026 69.6864 56.6808 69.9677 56.9778L69.999 57.009C70.3585 57.3686 70.9525 57.3842 71.3277 57.009L72.1875 56.1493C72.547 55.7897 72.5626 55.1957 72.1875 54.8206L72.1093 54.7424C71.8123 54.4454 71.7498 53.9921 71.9686 53.6169C72.078 53.4137 72.1875 53.1949 72.2969 52.9917H72.3125Z" fill="#E5443C"/>
<path d="M8.28455 52.1174H47.5203" stroke="#231F20" stroke-width="2.23535" stroke-linecap="round" stroke-linejoin="round"/>
<path d="M8.28455 59.1653H49.5525" stroke="#231F20" stroke-width="2.23535" stroke-linecap="round" stroke-linejoin="round"/>
<path d="M85.2558 57.993C83.927 57.993 82.7859 57.0551 82.5046 55.7576C82.4577 55.5388 82.3013 55.3981 82.1138 55.3825C81.3791 55.3512 80.6287 55.273 79.894 55.1324C79.6908 55.1324 79.5345 55.2418 79.4564 55.3981C79.003 56.3829 78.0026 57.0238 76.9084 57.0238C76.502 57.0238 76.0955 56.93 75.7204 56.7581L73.782 55.8514C72.3752 55.1949 71.7655 53.5223 72.4221 52.1154C72.5158 51.9278 72.4689 51.709 72.3126 51.5683C71.703 51.0525 71.1246 50.4897 70.5775 49.8957C70.4681 49.7707 70.3274 49.755 70.2492 49.755C70.1711 49.755 70.1085 49.7707 70.0304 49.8019C69.624 50.0051 69.1706 50.1146 68.733 50.1146C67.67 50.1146 66.7165 49.5362 66.2319 48.5983L65.2471 46.7068C64.9032 46.0347 64.8406 45.2843 65.0595 44.5653C65.294 43.8462 65.7785 43.2678 66.4507 42.9239C66.7008 42.7989 66.8102 42.5957 66.7633 42.4394C66.5914 41.6578 66.482 40.8449 66.4195 40.0321C66.4195 39.8601 66.2475 39.7038 66.0443 39.6569C64.4186 39.3599 63.4025 37.8905 63.6839 36.3742L64.059 34.2796C64.3092 32.9352 65.4659 31.9661 66.8259 31.9661C66.9978 31.9661 67.1698 31.9661 67.3261 32.013L67.8732 32.1067C67.8732 32.1067 67.9045 32.0442 67.9201 32.013C68.1702 31.4815 68.436 30.9813 68.733 30.4967C68.8424 30.3247 68.8111 30.0902 68.6548 29.9496L68.4985 29.7932C67.4043 28.699 67.4199 26.917 68.4985 25.8228L70.0148 24.3221C70.5462 23.7906 71.2497 23.5093 72 23.5093C72.7503 23.5093 73.4694 23.8063 74.0009 24.3377L74.2197 24.5566C74.3135 24.6504 74.4386 24.6973 74.548 24.6973C74.6105 24.6973 74.673 24.6973 74.7356 24.6504C75.0013 24.4941 75.2827 24.3534 75.5484 24.2283C75.7204 24.1502 75.7985 23.947 75.7673 23.7437L75.7047 23.4311C75.5484 22.6964 75.7047 21.9461 76.1112 21.3208C76.5176 20.6955 77.1585 20.2579 77.8932 20.1015L79.9878 19.6638C80.1754 19.617 80.3786 19.6013 80.5662 19.6013C81.8793 19.6013 83.036 20.5392 83.3174 21.8367L83.3956 22.2118C83.4425 22.415 83.5988 22.5557 83.7864 22.5714C84.4429 22.6026 85.1151 22.6964 85.756 22.8058H85.7716C85.9904 22.8058 86.1468 22.6964 86.2093 22.5401L86.3656 22.1962C86.8189 21.2114 87.8194 20.5705 88.9136 20.5705C89.32 20.5705 89.7264 20.6643 90.1016 20.8362L92.0399 21.7429C92.7277 22.0555 93.2436 22.6183 93.4937 23.3217C93.7438 24.0251 93.7125 24.7911 93.3999 25.4789L93.2436 25.8228C93.1498 26.0104 93.1967 26.2292 93.3374 26.3386C93.9158 26.8076 94.4472 27.3391 94.9631 27.8862C95.0569 27.9956 95.1819 28.0112 95.2601 28.0112C95.3382 28.0112 95.4164 27.9956 95.4946 27.9487L95.8228 27.7767C96.2136 27.5735 96.667 27.4641 97.1203 27.4641C98.1832 27.4641 99.1368 28.0425 99.6214 28.9804L100.606 30.8718C101.325 32.2474 100.778 33.9513 99.4025 34.6547L99.1211 34.7954C98.9336 34.8892 98.8241 35.0924 98.871 35.2644C99.043 35.9991 99.168 36.765 99.2306 37.5153C99.2306 37.6873 99.4025 37.8436 99.6057 37.8749L99.8871 37.9218C101.419 38.2031 102.435 39.6725 102.154 41.1888L101.779 43.2835C101.528 44.6278 100.372 45.597 99.0117 45.597C98.8398 45.597 98.6678 45.597 98.5115 45.5501L97.9644 45.4563C97.9019 45.597 97.8393 45.7533 97.7612 45.894C97.5736 46.3004 97.3704 46.7068 97.1359 47.082C97.0265 47.2696 97.0577 47.4884 97.1984 47.6447L97.3235 47.7698C97.855 48.3013 98.1363 49.0047 98.1363 49.755C98.1363 50.5054 97.8393 51.2088 97.3079 51.7403L95.7916 53.2409C95.2601 53.7724 94.5567 54.0538 93.8063 54.0538C93.056 54.0538 92.3369 53.7568 91.8055 53.2253C91.6491 53.069 91.5397 53.0221 91.4147 53.0221C91.3521 53.0221 91.2896 53.0377 91.2271 53.069C90.9145 53.2565 90.6018 53.4285 90.2892 53.5848C90.1329 53.663 90.0547 53.8662 90.086 54.0694C90.2579 54.8823 90.1172 55.6326 89.6952 56.2579C89.2888 56.8831 88.6479 57.3208 87.9132 57.4771L85.8185 57.9148C85.6309 57.9617 85.4277 57.9773 85.2401 57.9773L85.2558 57.993Z" fill="#E5443C"/>
<path d="M80.5667 20.7912C81.3327 20.7912 82.0049 21.3227 82.1612 22.0887L82.2393 22.4638C82.3957 23.1673 82.9897 23.7144 83.7087 23.7613C84.3184 23.7925 84.928 23.8707 85.5376 23.9801C85.6314 23.9958 85.7252 24.0114 85.819 24.0114C86.4443 24.0114 87.007 23.6362 87.2728 23.0578L87.4291 22.7139C87.7105 22.1199 88.3045 21.7604 88.9141 21.7604C89.1486 21.7604 89.3831 21.8073 89.6019 21.9167L91.5402 22.8234C92.3531 23.1985 92.7126 24.1833 92.3375 24.9962L92.1811 25.3401C91.8685 25.9966 92.0248 26.7938 92.5876 27.2628C93.1191 27.7005 93.6193 28.1851 94.0882 28.6853C94.3852 29.0136 94.8229 29.1855 95.245 29.1855C95.5107 29.1855 95.7765 29.123 96.0109 28.9979L96.3392 28.826C96.5737 28.7009 96.8394 28.6384 97.0895 28.6384C97.6835 28.6384 98.2619 28.9667 98.5433 29.5294L99.5281 31.4209C99.9501 32.2181 99.6219 33.2185 98.8247 33.6249L98.5433 33.7656C97.9024 34.0939 97.5272 34.8286 97.6992 35.5476C97.8555 36.2354 97.9649 36.9389 98.0274 37.6423C98.09 38.3614 98.6527 38.9241 99.3561 39.0492L99.6375 39.0961C100.529 39.2524 101.123 40.1121 100.951 41.0031L100.575 43.0978C100.435 43.895 99.7469 44.4421 98.9653 44.4421C98.8716 44.4421 98.7621 44.4421 98.6683 44.4109L97.1677 44.1451C97.0114 44.5672 96.8394 44.9892 96.6518 45.4113C96.4799 45.7865 96.2767 46.1616 96.0735 46.5212C95.7139 47.1621 95.8077 47.9593 96.3236 48.4908L96.4486 48.6158C97.0895 49.2567 97.0895 50.2884 96.4486 50.9293L94.9323 52.43C94.6197 52.7426 94.1976 52.8989 93.7756 52.8989C93.3535 52.8989 92.9315 52.7426 92.6188 52.4143L92.5563 52.3518C92.2437 52.0392 91.8216 51.8672 91.3839 51.8672C91.1182 51.8672 90.8368 51.9298 90.6023 52.0861C90.321 52.258 90.024 52.4143 89.727 52.5707C89.0861 52.8989 88.7734 53.6336 88.9141 54.3371V54.4152C89.1173 55.3062 88.5389 56.166 87.6636 56.3535L85.5689 56.7912C85.4595 56.8225 85.3501 56.8225 85.225 56.8225C84.459 56.8225 83.7869 56.291 83.6306 55.5251C83.4742 54.806 82.8802 54.2589 82.1455 54.2276C81.4577 54.1964 80.7699 54.1182 80.0821 53.9932C79.9884 53.9775 79.8946 53.9619 79.8164 53.9619C79.2068 53.9619 78.6284 54.3371 78.3626 54.9154C78.0813 55.5094 77.4873 55.869 76.8776 55.869C76.6432 55.869 76.4087 55.8221 76.1898 55.7127L74.2515 54.806C73.4386 54.4308 73.0791 53.446 73.4543 52.6332C73.7669 51.961 73.595 51.1638 73.0322 50.6948C72.4538 50.2103 71.9224 49.6944 71.4221 49.1473C71.1095 48.7878 70.6718 48.6158 70.2185 48.6158C69.9684 48.6158 69.7026 48.6783 69.4682 48.8034C69.2337 48.9285 68.9679 48.991 68.7178 48.991C68.1238 48.991 67.5455 48.6627 67.2641 48.1L66.2793 46.2085C65.8572 45.4113 66.1855 44.4109 66.9827 44.0044L67.0452 43.9732C67.6861 43.6449 68.0613 42.9258 67.905 42.2224C67.7487 41.4877 67.6392 40.7374 67.5924 39.9871C67.5455 39.2524 66.9827 38.674 66.2636 38.5333H66.1699C65.2788 38.3614 64.6848 37.5016 64.8568 36.6106L65.2319 34.5159C65.3726 33.7187 66.0604 33.1716 66.842 33.1716C66.9358 33.1716 67.0452 33.1716 67.139 33.2029L68.6084 33.4686C68.7335 33.156 68.8585 32.859 68.9992 32.5463C69.2337 32.0618 69.4838 31.5928 69.7495 31.1395C70.1403 30.4986 70.0309 29.6857 69.4994 29.1542L69.3431 28.9979C68.7022 28.357 68.7022 27.3253 69.3431 26.6844L70.8594 25.1838C71.172 24.8711 71.5941 24.7148 72.0161 24.7148C72.4382 24.7148 72.8603 24.8711 73.1729 25.1994L73.3917 25.4182C73.7044 25.7309 74.1264 25.9028 74.5641 25.9028C74.8299 25.9028 75.08 25.8403 75.3145 25.6996C75.5646 25.5589 75.8147 25.4339 76.0804 25.2932C76.7369 24.9649 77.0808 24.2302 76.9245 23.5112L76.862 23.1985C76.6744 22.3075 77.2372 21.4478 78.1282 21.2602L80.2228 20.8225C80.3323 20.7912 80.4417 20.7912 80.5667 20.7912ZM80.5667 18.4465C80.2854 18.4465 80.0196 18.4777 79.7539 18.5246L77.6592 18.9623C75.6583 19.3844 74.3296 21.2289 74.5016 23.2142C73.7982 22.6514 72.9384 22.3544 72.0161 22.3544C70.9532 22.3544 69.9527 22.7608 69.2024 23.5112L67.6861 25.0118C66.2168 26.4812 66.123 28.826 67.436 30.3892C67.3579 30.5298 67.2797 30.6705 67.2016 30.8268C67.0765 30.8268 66.9514 30.8112 66.8264 30.8112C64.9037 30.8112 63.2467 32.1868 62.9028 34.0783L62.5276 36.1729C62.3401 37.2202 62.5589 38.2832 63.1686 39.1586C63.6844 39.9089 64.4347 40.4404 65.2945 40.7061C65.3414 41.1907 65.4039 41.6753 65.4977 42.1443C64.7317 42.6601 64.2003 43.3792 63.9345 44.2233C63.6062 45.2394 63.7 46.3179 64.1846 47.2559L65.1694 49.1473C65.8572 50.476 67.2172 51.3045 68.7022 51.3045C69.1555 51.3045 69.6088 51.2263 70.0309 51.07C70.3748 51.4452 70.75 51.7891 71.1251 52.133C70.875 52.9615 70.8907 53.8368 71.1877 54.6653C71.5472 55.6658 72.2819 56.463 73.2511 56.9163L75.1894 57.8229C75.7209 58.0731 76.2836 58.1981 76.8776 58.1981C78.2376 58.1981 79.4881 57.4947 80.2228 56.3848C80.6449 56.4473 81.0669 56.4942 81.489 56.5255C82.0518 58.0887 83.5524 59.1673 85.2406 59.1673C85.522 59.1673 85.7877 59.136 86.0535 59.0891L88.1481 58.6514C90.149 58.2294 91.4777 56.3848 91.3058 54.3996C92.0092 54.9623 92.8689 55.2593 93.7756 55.2593C94.8386 55.2593 95.839 54.8529 96.5893 54.1026L98.1056 52.6019C98.8559 51.8516 99.278 50.8512 99.278 49.7882C99.278 48.8503 98.9653 47.9593 98.3713 47.2402C98.4495 47.0839 98.5277 46.9432 98.6058 46.7869C98.7309 46.7869 98.8403 46.8025 98.9653 46.8025C100.888 46.8025 102.545 45.4269 102.889 43.5355L103.264 41.4408C103.639 39.3618 102.326 37.3609 100.294 36.8607C100.247 36.4387 100.169 36.0166 100.091 35.6102C101.888 34.5472 102.576 32.2337 101.591 30.3579L100.607 28.4664C99.9189 27.1377 98.5589 26.3093 97.0739 26.3093C96.4955 26.3093 95.9171 26.4343 95.3857 26.6844C95.1043 26.403 94.8073 26.1217 94.5103 25.8559C94.9011 24.9337 94.9323 23.902 94.5728 22.9484C94.2133 21.948 93.4786 21.1508 92.5094 20.6974L90.5711 19.7908C90.0396 19.5407 89.4768 19.4156 88.8828 19.4156C87.3978 19.4156 86.0222 20.2598 85.3344 21.5728C85.0218 21.5259 84.7092 21.4947 84.3809 21.4634C83.9432 19.7126 82.3331 18.4465 80.5198 18.4465H80.5667Z" fill="white"/>
<path d="M90.2584 33.0933L90.3522 33.6717C90.3522 33.6717 90.4616 34.3126 90.4616 35.2818C90.4616 36.2041 90.3678 37.439 90.0396 38.7989C89.7113 40.0964 89.1329 41.6439 88.07 43.1758C87.007 44.6921 85.4751 46.1928 83.2554 47.3964L82.9896 47.5371L82.7239 47.3964C80.4885 46.1928 78.9566 44.6921 77.9093 43.1758C76.8463 41.6595 76.268 40.0964 75.9397 38.7989C75.5958 37.4233 75.5176 36.1884 75.5176 35.2818C75.5176 34.3126 75.6114 33.703 75.6271 33.6717L75.7208 33.0933C75.7521 32.9057 75.6271 32.7182 75.4238 32.6869C75.2363 32.6556 75.0487 32.7807 75.0174 32.9839L74.9236 33.5623C74.9236 33.5623 74.8142 34.2657 74.8142 35.2818C74.8142 36.2509 74.908 37.5328 75.2675 38.9709C75.6114 40.3465 76.2211 41.9722 77.3466 43.5823C78.4564 45.1923 80.0821 46.7711 82.4113 48.0217L82.8489 48.2562C82.9584 48.3187 83.0834 48.3187 83.1928 48.2562L83.6305 48.0217C85.9597 46.7711 87.5854 45.1923 88.6952 43.5823C89.8207 41.9722 90.4304 40.3465 90.7743 38.9709C91.1338 37.5328 91.2276 36.2353 91.2276 35.2818C91.2276 34.2657 91.1182 33.6248 91.1182 33.5623L91.0244 32.9839C90.9931 32.7963 90.8055 32.6556 90.6179 32.6869C90.4304 32.7182 90.2897 32.9057 90.3209 33.0933H90.2584Z" fill="white"/>
<path d="M77.6426 32.7003L82.9731 31.0746L88.4129 32.7316C88.6005 32.7941 88.8037 32.6847 88.8662 32.4971C88.9288 32.3096 88.8193 32.1063 88.6318 32.0438L83.0825 30.3556C83.0825 30.3556 82.9418 30.3399 82.8793 30.3556L77.4394 32.0125C77.2518 32.0751 77.1424 32.2783 77.2049 32.4659C77.2674 32.6535 77.4707 32.7629 77.6582 32.7003H77.6426Z" fill="white"/>
<path d="M75.0174 33.2016L82.6614 48.1143C82.7239 48.2394 82.849 48.3019 82.974 48.3019C83.1147 48.3019 83.2241 48.2237 83.2866 48.1143L87.9449 39.4074L90.9306 33.2016C91.0087 33.0296 90.9306 32.8108 90.7586 32.717C90.5867 32.6388 90.3678 32.717 90.2741 32.889L87.2884 39.0791L82.9584 47.1764L75.6271 32.8733C75.5333 32.7014 75.3144 32.6232 75.1425 32.717C74.9705 32.8108 74.8924 33.0296 74.9862 33.2016H75.0174Z" fill="white"/>
<path d="M78.6753 39.8295H87.1634C87.3666 39.8295 87.5229 39.6732 87.5229 39.47C87.5229 39.2668 87.3666 39.1105 87.1634 39.1105H78.6753C78.4721 39.1105 78.3158 39.2668 78.3158 39.47C78.3158 39.6732 78.4721 39.8295 78.6753 39.8295Z" fill="white"/>
</g>
<defs>
<clipPath id="clip0_308_2892">
<rect width="108" height="87.3973" fill="white"/>
</clipPath>
</defs>
</svg>
