<svg width="120" height="120" viewBox="0 0 120 120" fill="none" xmlns="http://www.w3.org/2000/svg">
<g clip-path="url(#clip0_146_8436)">
<path d="M15.373 88.1405H101.006" stroke="#171921" stroke-width="0.930626" stroke-linecap="round" stroke-linejoin="round"/>
<path d="M13.7754 32.9391L101.006 32.5362" stroke="#171921" stroke-width="0.930626" stroke-linecap="round" stroke-linejoin="round"/>
<path d="M23.4849 49.4413H33.365" stroke="#171921" stroke-width="0.930626" stroke-linecap="round" stroke-linejoin="round"/>
<path d="M37.3047 49.4413H67.519" stroke="#171921" stroke-width="0.930626" stroke-linecap="round" stroke-linejoin="round"/>
<path d="M23.4849 55.1183H72.8546" stroke="#171921" stroke-width="0.930626" stroke-linecap="round" stroke-linejoin="round"/>
<path d="M24.6947 29.4958C25.834 29.4958 26.7576 28.5305 26.7576 27.3398C26.7576 26.1492 25.834 25.1839 24.6947 25.1839C23.5554 25.1839 22.6318 26.1492 22.6318 27.3398C22.6318 28.5305 23.5554 29.4958 24.6947 29.4958Z" fill="#E5453D" stroke="#171921" stroke-width="0.930626" stroke-miterlimit="10"/>
<path d="M32.1708 29.4958C33.3101 29.4958 34.2337 28.5305 34.2337 27.3398C34.2337 26.1492 33.3101 25.1839 32.1708 25.1839C31.0315 25.1839 30.1079 26.1492 30.1079 27.3398C30.1079 28.5305 31.0315 29.4958 32.1708 29.4958Z" fill="#E5453D" stroke="#171921" stroke-width="0.930626" stroke-miterlimit="10"/>
<path d="M92.6311 21.5225H23.2374C18.0977 21.5225 13.9312 25.689 13.9312 30.8287V88.3414C13.9312 93.4811 18.0977 97.6477 23.2374 97.6477H92.6311C97.7708 97.6477 101.937 93.4811 101.937 88.3414V30.8287C101.937 25.689 97.7708 21.5225 92.6311 21.5225Z" stroke="#171921" stroke-width="0.930626" stroke-miterlimit="10"/>
<path d="M87.8842 62.4392H26.587C24.8737 62.4392 23.4849 63.8281 23.4849 65.5413V75.2353C23.4849 76.9486 24.8737 78.3374 26.587 78.3374H87.8842C89.5974 78.3374 90.9863 76.9486 90.9863 75.2353V65.5413C90.9863 63.8281 89.5974 62.4392 87.8842 62.4392Z" fill="#E5453D"/>
<path d="M49.2635 43.4238H43.23" stroke="#171921" stroke-width="0.930626" stroke-linecap="round" stroke-linejoin="round"/>
<path d="M40.8566 43.4238H23.4849" stroke="#171921" stroke-width="0.930626" stroke-linecap="round" stroke-linejoin="round"/>
<path d="M104.93 12.93H79.1055C78.009 12.93 77.1201 13.8189 77.1201 14.9153V52.1714C77.1201 53.2679 78.009 54.1567 79.1055 54.1567H104.93C106.027 54.1567 106.916 53.2679 106.916 52.1714V14.9153C106.916 13.8189 106.027 12.93 104.93 12.93Z" fill="white" stroke="#171921" stroke-width="0.930626" stroke-miterlimit="10"/>
<path d="M104.961 20.8094H79.0744C77.9951 20.8094 77.1201 21.6844 77.1201 22.7638V43.1445C77.1201 44.2238 77.9951 45.0988 79.0744 45.0988H104.961C106.041 45.0988 106.916 44.2238 106.916 43.1445V22.7638C106.916 21.6844 106.041 20.8094 104.961 20.8094Z" fill="white" stroke="#171921" stroke-width="0.930626" stroke-miterlimit="10"/>
<path d="M85.1239 51.2104C85.8606 51.2104 86.4578 50.5923 86.4578 49.83C86.4578 49.0676 85.8606 48.4495 85.1239 48.4495C84.3872 48.4495 83.79 49.0676 83.79 49.83C83.79 50.5923 84.3872 51.2104 85.1239 51.2104Z" fill="#231F20"/>
<path d="M92.0107 51.2104C92.7473 51.2104 93.3445 50.5923 93.3445 49.83C93.3445 49.0676 92.7473 48.4495 92.0107 48.4495C91.274 48.4495 90.6768 49.0676 90.6768 49.83C90.6768 50.5923 91.274 51.2104 92.0107 51.2104Z" fill="#231F20"/>
<path d="M98.8974 51.2104C99.6341 51.2104 100.231 50.5923 100.231 49.83C100.231 49.0676 99.6341 48.4495 98.8974 48.4495C98.1607 48.4495 97.5635 49.0676 97.5635 49.83C97.5635 50.5923 98.1607 51.2104 98.8974 51.2104Z" fill="#231F20"/>
<path d="M92.0107 18.0489C92.7473 18.0489 93.3445 17.4308 93.3445 16.6685C93.3445 15.9061 92.7473 15.288 92.0107 15.288C91.274 15.288 90.6768 15.9061 90.6768 16.6685C90.6768 17.4308 91.274 18.0489 92.0107 18.0489Z" fill="#231F20"/>
<path d="M84.1152 25.8201H99.9049" stroke="#171921" stroke-width="0.930626" stroke-linecap="round" stroke-linejoin="round"/>
<path d="M84.0996 35.3281H86.7364" stroke="#231F20" stroke-width="0.930626" stroke-linecap="round" stroke-linejoin="round"/>
<path d="M89.5908 35.3281H99.9208" stroke="#171921" stroke-width="0.930626" stroke-linecap="round" stroke-linejoin="round"/>
<path d="M84.0371 30.5822H89.0004" stroke="#231F20" stroke-width="0.930626" stroke-linecap="round" stroke-linejoin="round"/>
<path d="M91.917 30.5822H99.9824" stroke="#171921" stroke-width="0.930626" stroke-linecap="round" stroke-linejoin="round"/>
<path d="M84.1924 40.0903H99.8269" stroke="#231F20" stroke-width="0.930626" stroke-linecap="round" stroke-linejoin="round"/>
<path d="M76.081 98.0829H41.043V106.288H76.081V98.0829Z" stroke="#171921" stroke-width="0.930626" stroke-miterlimit="10"/>
<path d="M38.2817 106.442H78.2987" stroke="#171921" stroke-width="0.930626" stroke-linecap="round" stroke-linejoin="round"/>
<path d="M29.3325 106.537H34.1563" stroke="#171921" stroke-width="0.930626" stroke-linecap="round" stroke-linejoin="round"/>
<path d="M82.9834 106.442H87.7916" stroke="#171921" stroke-width="0.930626" stroke-linecap="round" stroke-linejoin="round"/>
<path d="M27.7349 67.5426H37.5995" stroke="white" stroke-width="0.930626" stroke-linecap="round" stroke-linejoin="round"/>
<path d="M41.5552 67.5426H71.754" stroke="white" stroke-width="0.930626" stroke-linecap="round" stroke-linejoin="round"/>
<path d="M27.7349 73.2359H77.0891" stroke="white" stroke-width="0.930626" stroke-linecap="round" stroke-linejoin="round"/>
</g>
<defs>
<clipPath id="clip0_146_8436">
<rect width="94.8308" height="95.4667" fill="white" transform="translate(13 12)"/>
</clipPath>
</defs>
</svg>
