<svg width="121" height="120" viewBox="0 0 121 120" fill="none" xmlns="http://www.w3.org/2000/svg">
<path d="M60.3312 98.132C60.23 98.132 60.1299 98.112 60.0364 98.073C59.943 98.0341 59.858 97.977 59.7865 97.9051C59.715 97.8331 59.6582 97.7476 59.6195 97.6536C59.5808 97.5596 59.5609 97.4588 59.5609 97.357V89.0526C59.565 88.8498 59.6479 88.6567 59.792 88.5147C59.936 88.3728 60.1296 88.2933 60.3312 88.2933C60.5313 88.2933 60.7232 88.3733 60.8647 88.5157C61.0062 88.6581 61.0857 88.8512 61.0857 89.0526V97.357C61.0878 97.458 61.0698 97.5584 61.0328 97.6524C60.9958 97.7463 60.9407 97.8319 60.8704 97.9041C60.8001 97.9763 60.7162 98.0337 60.6236 98.0728C60.531 98.1119 60.4316 98.1321 60.3312 98.132Z" fill="#414042"/>
<path d="M60.3312 31.2859C60.2308 31.288 60.1309 31.27 60.0376 31.2327C59.9442 31.1955 59.8592 31.1399 59.7874 31.0692C59.7157 30.9985 59.6587 30.9141 59.6198 30.8209C59.5809 30.7278 59.5609 30.6277 59.5609 30.5267V22.2223C59.5609 22.0167 59.642 21.8196 59.7865 21.6742C59.9309 21.5289 60.1269 21.4472 60.3312 21.4472C60.4316 21.4472 60.531 21.4673 60.6236 21.5065C60.7162 21.5456 60.8001 21.603 60.8704 21.6751C60.9407 21.7473 60.9958 21.8329 61.0328 21.9269C61.0698 22.0208 61.0878 22.1212 61.0857 22.2223V30.5267C61.0878 30.627 61.0698 30.7267 61.0326 30.8197C60.9955 30.9128 60.94 30.9974 60.8695 31.0684C60.799 31.1393 60.715 31.1951 60.6225 31.2325C60.5299 31.2699 60.4308 31.2881 60.3312 31.2859Z" fill="#414042"/>
<path d="M85.4361 45.7908C85.3025 45.792 85.171 45.7575 85.055 45.6908C84.939 45.6241 84.8427 45.5276 84.7759 45.4111C84.6777 45.232 84.6523 45.0214 84.705 44.8238C84.7578 44.6262 84.8846 44.4568 85.0589 44.3513L92.2901 40.1596C92.4658 40.0616 92.6725 40.0364 92.8663 40.0896C93.0602 40.1428 93.2257 40.2701 93.3276 40.4443C93.4258 40.6235 93.4512 40.834 93.3985 41.0316C93.3457 41.2293 93.2189 41.3986 93.0446 41.5041L85.8291 45.6959C85.7076 45.7589 85.5728 45.7914 85.4361 45.7908Z" fill="#414042"/>
<path d="M27.8862 79.1508C27.7179 79.1535 27.5535 79.0995 27.4192 78.9974C27.2849 78.8953 27.1884 78.7509 27.145 78.5873C27.1016 78.4236 27.1139 78.25 27.1798 78.0942C27.2458 77.9383 27.3616 77.8091 27.5089 77.7272L34.6614 73.5829C34.8371 73.4848 35.044 73.4597 35.2378 73.5129C35.4316 73.5661 35.5971 73.6934 35.699 73.8676C35.7973 74.0468 35.8227 74.2573 35.7699 74.4549C35.7171 74.6526 35.5902 74.8219 35.416 74.9274L28.2634 79.0559C28.1469 79.117 28.0176 79.1495 27.8862 79.1508Z" fill="#414042"/>
<path d="M92.8412 79.1666C92.6632 79.1695 92.4902 79.1078 92.3539 78.9926L85.2957 74.9115C85.1214 74.806 84.9946 74.6367 84.9418 74.4391C84.8891 74.2414 84.9145 74.0309 85.0127 73.8518C85.1173 73.676 85.2869 73.549 85.4842 73.4986C85.6816 73.4482 85.8907 73.4785 86.0659 73.5828L93.1556 77.7904C93.2725 77.8563 93.3692 77.953 93.4357 78.07C93.5021 78.187 93.5358 78.32 93.5329 78.4548C93.5221 78.6374 93.4462 78.8099 93.3191 78.9406C93.192 79.0714 93.0224 79.1516 92.8412 79.1666Z" fill="#414042"/>
<path d="M35.2116 45.7751C35.08 45.7758 34.9502 45.7431 34.8343 45.6802L27.6032 41.5042C27.426 41.4015 27.2966 41.2321 27.2436 41.0333C27.1905 40.8346 27.2181 40.6227 27.3202 40.4445C27.4224 40.2662 27.5907 40.136 27.7883 40.0826C27.9858 40.0292 28.1962 40.057 28.3734 40.1597L35.5889 44.3515C35.7362 44.4334 35.852 44.5626 35.918 44.7185C35.9839 44.8743 35.9962 45.0479 35.9528 45.2116C35.9095 45.3752 35.8129 45.5196 35.6786 45.6217C35.5443 45.7239 35.38 45.7778 35.2116 45.7751Z" fill="#414042"/>
<path d="M28.8601 30.4159C28.7247 30.4152 28.5918 30.38 28.4736 30.3136C28.3554 30.2472 28.2558 30.1518 28.1841 30.0362C28.0859 29.8571 28.0605 29.6465 28.1132 29.4489C28.166 29.2513 28.2928 29.0819 28.4671 28.9764L49.8147 16.591C49.9006 16.5381 49.9964 16.5035 50.0961 16.4893C50.1958 16.475 50.2973 16.4814 50.3945 16.508C50.4916 16.5347 50.5824 16.5811 50.6611 16.6443C50.7398 16.7075 50.8048 16.7863 50.8521 16.8757C50.9031 16.9618 50.9367 17.0572 50.9509 17.1564C50.965 17.2557 50.9595 17.3567 50.9347 17.4537C50.9098 17.5508 50.8661 17.6419 50.8061 17.7219C50.7461 17.8019 50.6709 17.8691 50.5849 17.9197L29.2373 30.3368C29.1216 30.3986 28.9907 30.426 28.8601 30.4159Z" fill="#414042"/>
<path d="M70.4703 103.099C70.3331 103.098 70.1985 103.061 70.08 102.992C69.9614 102.922 69.8629 102.823 69.7943 102.704C69.6969 102.527 69.6719 102.319 69.7248 102.124C69.7776 101.929 69.9041 101.762 70.0773 101.66L91.4877 89.2267C91.6628 89.126 91.8705 89.0994 92.065 89.1528C92.2596 89.2062 92.4251 89.3352 92.5252 89.5114C92.6253 89.6876 92.6517 89.8966 92.5986 90.0923C92.5455 90.2881 92.4174 90.4547 92.2423 90.5554L70.8318 102.988C70.7238 103.058 70.5987 103.097 70.4703 103.099Z" fill="#414042"/>
<path d="M102.004 73.045C101.903 73.0471 101.803 73.0291 101.71 72.9918C101.617 72.9546 101.532 72.8991 101.46 72.8283C101.388 72.7576 101.331 72.6732 101.292 72.58C101.253 72.4869 101.233 72.3868 101.233 72.2858V47.1828C101.233 46.9772 101.314 46.7801 101.459 46.6347C101.603 46.4894 101.799 46.4077 102.004 46.4077C102.104 46.4077 102.203 46.4279 102.296 46.467C102.389 46.5061 102.472 46.5635 102.543 46.6357C102.613 46.7078 102.668 46.7934 102.705 46.8873C102.742 46.9813 102.76 47.0817 102.758 47.1828V72.2225C102.769 72.3279 102.758 72.4345 102.725 72.5352C102.692 72.6358 102.638 72.7282 102.566 72.8061C102.495 72.884 102.408 72.9457 102.311 72.9869C102.214 73.0281 102.109 73.0479 102.004 73.045Z" fill="#414042"/>
<path d="M18.6417 73.045C18.5413 73.0471 18.4415 73.029 18.3481 72.9918C18.2548 72.9546 18.1697 72.899 18.098 72.8283C18.0262 72.7576 17.9693 72.6732 17.9304 72.58C17.8915 72.4868 17.8714 72.3868 17.8715 72.2857V47.1827C17.8715 46.973 17.9542 46.7718 18.1016 46.6235C18.249 46.4752 18.449 46.3918 18.6575 46.3918C18.8659 46.3918 19.0659 46.4752 19.2133 46.6235C19.3607 46.7718 19.4434 46.973 19.4434 47.1827V72.2225C19.4527 72.3315 19.4385 72.4413 19.4017 72.5442C19.3649 72.6472 19.3065 72.7409 19.2303 72.819C19.1542 72.8972 19.0622 72.9578 18.9606 72.9968C18.859 73.0358 18.7502 73.0522 18.6417 73.045Z" fill="#414042"/>
<path d="M50.1928 103.099C50.0588 103.102 49.9272 103.063 49.8155 102.988L28.3893 90.5714C28.2121 90.4686 28.0828 90.2992 28.0297 90.1005C27.9766 89.9017 28.0042 89.6899 28.1064 89.5116C28.2085 89.3333 28.3769 89.2031 28.5744 89.1497C28.7719 89.0963 28.9824 89.1241 29.1596 89.2269L50.57 101.66C50.6589 101.707 50.7372 101.773 50.8 101.852C50.8629 101.931 50.909 102.022 50.9355 102.12C50.962 102.218 50.9684 102.32 50.9542 102.421C50.94 102.521 50.9055 102.617 50.853 102.704C50.7882 102.823 50.6928 102.923 50.5767 102.992C50.4605 103.062 50.3279 103.099 50.1928 103.099Z" fill="#414042"/>
<path d="M91.7864 30.4158C91.6527 30.4164 91.5216 30.3779 91.4092 30.3051L70.0773 17.9197C69.9041 17.8172 69.7776 17.6506 69.7248 17.4556C69.6719 17.2606 69.6969 17.0525 69.7943 16.8757C69.8433 16.7858 69.9098 16.7067 69.9899 16.6433C70.07 16.5799 70.162 16.5335 70.2604 16.5069C70.3589 16.4803 70.4617 16.4741 70.5626 16.4885C70.6635 16.503 70.7604 16.5378 70.8475 16.591L92.1794 28.9764C92.3541 29.0816 92.4803 29.2522 92.5304 29.4508C92.5805 29.6494 92.5503 29.8599 92.4466 30.0362C92.3786 30.1516 92.282 30.2472 92.1663 30.3137C92.0506 30.3803 91.9197 30.4155 91.7864 30.4158Z" fill="#414042"/>
<path d="M102.005 91.3621C100.559 91.3621 99.1459 90.9307 97.9438 90.1225C96.7418 89.3143 95.8048 88.1656 95.2516 86.8216C94.6983 85.4775 94.5536 83.9986 94.8357 82.5718C95.1177 81.1451 95.8139 79.8345 96.8361 78.8058C97.8584 77.7772 99.161 77.0766 100.579 76.7928C101.997 76.509 103.467 76.6547 104.802 77.2114C106.138 77.7681 107.28 78.7108 108.083 79.9204C108.886 81.13 109.315 82.552 109.315 84.0068C109.311 85.9563 108.539 87.8247 107.169 89.2032C105.799 90.5817 103.942 91.3579 102.005 91.3621ZM102.005 78.1858C100.86 78.1827 99.7401 78.5214 98.7867 79.1591C97.8333 79.7968 97.0894 80.7048 96.6491 81.7682C96.2089 82.8316 96.0921 84.0025 96.3135 85.1327C96.535 86.2629 97.0847 87.3016 97.8931 88.1172C98.7015 88.9329 99.7323 89.4889 100.855 89.7148C101.977 89.9406 103.141 89.8263 104.199 89.3862C105.257 88.9461 106.162 88.2 106.798 87.2424C107.434 86.2848 107.774 85.1587 107.774 84.0068C107.774 82.4657 107.167 80.9875 106.085 79.8963C105.004 78.8052 103.537 78.19 102.005 78.1858Z" fill="white"/>
<path d="M60.3312 115.564C58.8841 115.567 57.4687 115.138 56.2642 114.331C55.0597 113.524 54.1203 112.375 53.5651 111.03C53.0099 109.686 52.8639 108.205 53.1454 106.777C53.427 105.349 54.1235 104.037 55.1467 103.007C56.1699 101.978 57.4738 101.277 58.8932 100.993C60.3126 100.71 61.7837 100.857 63.12 101.416C64.4564 101.974 65.5978 102.92 66.3998 104.132C67.2018 105.344 67.6283 106.768 67.6252 108.224C67.6211 110.169 66.8513 112.034 65.4843 113.409C64.1173 114.785 62.2644 115.559 60.3312 115.564ZM60.3312 102.403C59.1864 102.4 58.0663 102.739 57.1129 103.376C56.1595 104.014 55.4157 104.922 54.9754 105.985C54.5352 107.049 54.4184 108.22 54.6398 109.35C54.8612 110.48 55.4109 111.519 56.2193 112.334C57.0277 113.15 58.0585 113.706 59.1811 113.932C60.3036 114.158 61.4676 114.043 62.5256 113.603C63.5835 113.163 64.4879 112.417 65.1243 111.46C65.7606 110.502 66.1003 109.376 66.1003 108.224C66.1003 106.683 65.4931 105.205 64.4116 104.114C63.3301 103.022 61.8627 102.407 60.3312 102.403Z" fill="white"/>
<path d="M60.3318 18.7105C58.8881 18.7011 57.4795 18.2618 56.2836 17.4479C55.0878 16.634 54.1582 15.482 53.6122 14.1372C53.0662 12.7924 52.9281 11.315 53.2155 9.89137C53.5028 8.46771 54.2027 7.16155 55.2269 6.13763C56.251 5.11371 57.5535 4.41788 58.9701 4.1379C60.3868 3.85792 61.8541 4.00633 63.1871 4.56441C64.52 5.12248 65.6589 6.06522 66.46 7.27375C67.2611 8.48227 67.6887 9.90246 67.6887 11.3552C67.6887 12.3251 67.4981 13.2855 67.1278 14.1809C66.7575 15.0764 66.2148 15.8894 65.5311 16.573C64.8473 17.2567 64.0359 17.7975 63.1436 18.1643C62.2513 18.5311 61.2957 18.7168 60.3318 18.7105ZM60.3318 5.55001C59.187 5.55002 58.0679 5.89182 57.1163 6.53214C56.1646 7.17246 55.4232 8.08251 54.9858 9.14708C54.5484 10.2116 54.4348 11.3828 54.6593 12.5124C54.8838 13.642 55.4362 14.6792 56.2468 15.4927C57.0574 16.3061 58.0897 16.8592 59.2129 17.082C60.3361 17.3049 61.4997 17.1873 62.5565 16.7443C63.6133 16.3013 64.5157 15.5528 65.1495 14.5934C65.7832 13.6341 66.1198 12.5071 66.1167 11.3552C66.1125 9.8141 65.5013 8.33757 64.4168 7.24934C63.3324 6.16112 61.8633 5.55001 60.3318 5.55001Z" fill="white"/>
<path d="M102.005 42.7538C100.559 42.7538 99.1459 42.3224 97.9438 41.5142C96.7418 40.706 95.8048 39.5572 95.2516 38.2132C94.6983 36.8692 94.5536 35.3903 94.8357 33.9635C95.1177 32.5367 95.8139 31.2261 96.8361 30.1975C97.8584 29.1688 99.161 28.4683 100.579 28.1845C101.997 27.9006 103.467 28.0463 104.802 28.603C106.138 29.1597 107.28 30.1025 108.083 31.312C108.886 32.5216 109.315 33.9437 109.315 35.3984C109.311 37.3479 108.539 39.2163 107.169 40.5948C105.799 41.9733 103.942 42.7496 102.005 42.7538ZM102.005 29.5933C100.859 29.5902 99.7388 29.9293 98.7851 30.5677C97.8314 31.2061 97.0875 32.1151 96.6477 33.1794C96.2079 34.2437 96.0921 35.4154 96.3148 36.546C96.5375 37.6766 97.0887 38.7153 97.8987 39.5303C98.7086 40.3453 99.7409 40.9001 100.865 41.1242C101.988 41.3483 103.153 41.2317 104.21 40.7891C105.268 40.3466 106.171 39.598 106.806 38.6384C107.44 37.6787 107.777 36.5511 107.774 35.3984C107.774 33.8588 107.166 32.3823 106.084 31.2936C105.002 30.2049 103.535 29.5933 102.005 29.5933Z" fill="white"/>
<path d="M18.6431 91.3621C17.1974 91.3621 15.7842 90.9307 14.5821 90.1225C13.38 89.3143 12.4431 88.1656 11.8898 86.8216C11.3366 85.4775 11.1918 83.9986 11.4738 82.5718C11.7559 81.1451 12.4521 79.8345 13.4744 78.8058C14.4967 77.7772 15.7991 77.0766 17.2171 76.7928C18.635 76.509 20.1048 76.6547 21.4404 77.2114C22.7761 77.7681 23.9178 78.7108 24.721 79.9204C25.5242 81.13 25.9529 82.552 25.9529 84.0068C25.9488 85.9563 25.1773 87.8247 23.8074 89.2032C22.4374 90.5817 20.5805 91.3579 18.6431 91.3621ZM18.6431 78.1858C17.499 78.1858 16.3805 78.5272 15.4292 79.1668C14.4779 79.8064 13.7365 80.7156 13.2986 81.7792C12.8608 82.8429 12.7462 84.0132 12.9694 85.1424C13.1926 86.2716 13.7436 87.3088 14.5526 88.1229C15.3617 88.937 16.3924 89.4913 17.5146 89.7159C18.6368 89.9405 19.7998 89.8252 20.8569 89.3847C21.914 88.9441 22.8175 88.198 23.4531 87.2408C24.0888 86.2835 24.428 85.1581 24.428 84.0068C24.428 83.2424 24.2785 82.4854 23.9877 81.7792C23.697 81.073 23.2709 80.4313 22.7337 79.8907C22.1965 79.3502 21.5588 78.9214 20.8569 78.6289C20.155 78.3364 19.4028 78.1858 18.6431 78.1858Z" fill="white"/>
<path d="M18.6431 42.7538C17.1974 42.7538 15.7842 42.3224 14.5821 41.5142C13.38 40.706 12.4431 39.5572 11.8898 38.2132C11.3366 36.8692 11.1918 35.3903 11.4738 33.9635C11.7559 32.5367 12.4521 31.2261 13.4744 30.1975C14.4967 29.1688 15.7991 28.4683 17.2171 28.1845C18.635 27.9006 20.1048 28.0463 21.4404 28.603C22.7761 29.1597 23.9178 30.1025 24.721 31.312C25.5242 32.5216 25.9529 33.9437 25.9529 35.3984C25.9488 37.3479 25.1773 39.2163 23.8074 40.5948C22.4374 41.9733 20.5805 42.7496 18.6431 42.7538ZM18.6431 29.5933C17.4983 29.5933 16.3792 29.9351 15.4276 30.5754C14.4759 31.2157 13.7345 32.1258 13.2971 33.1903C12.8597 34.2549 12.7461 35.4261 12.9706 36.5557C13.1951 37.6853 13.7476 38.7225 14.5582 39.5359C15.3688 40.3494 16.401 40.9025 17.5242 41.1253C18.6474 41.3482 19.8111 41.2306 20.8678 40.7876C21.9246 40.3446 22.827 39.5961 23.4608 38.6367C24.0946 37.6774 24.4311 36.5504 24.428 35.3984C24.428 34.6348 24.2784 33.8786 23.9874 33.1733C23.6965 32.4679 23.2701 31.8272 22.7328 31.288C22.1954 30.7487 21.5575 30.3214 20.8558 30.0306C20.154 29.7398 19.4021 29.5912 18.6431 29.5933Z" fill="white"/>
<path d="M18.6424 42.0577C22.2974 42.0577 25.2604 39.0763 25.2604 35.3984C25.2604 31.7206 22.2974 28.7391 18.6424 28.7391C14.9873 28.7391 12.0243 31.7206 12.0243 35.3984C12.0243 39.0763 14.9873 42.0577 18.6424 42.0577Z" fill="#171921"/>
<path d="M60.3147 18.0305C63.9698 18.0305 66.9328 15.049 66.9328 11.3712C66.9328 7.69331 63.9698 4.71182 60.3147 4.71182C56.6597 4.71182 53.6967 7.69331 53.6967 11.3712C53.6967 15.049 56.6597 18.0305 60.3147 18.0305Z" fill="#C7C8CA"/>
<path d="M102.004 42.0577C105.659 42.0577 108.622 39.0763 108.622 35.3984C108.622 31.7206 105.659 28.7391 102.004 28.7391C98.3491 28.7391 95.3861 31.7206 95.3861 35.3984C95.3861 39.0763 98.3491 42.0577 102.004 42.0577Z" fill="#171921"/>
<path d="M102.004 90.6661C105.659 90.6661 108.622 87.6846 108.622 84.0068C108.622 80.329 105.659 77.3475 102.004 77.3475C98.3491 77.3475 95.3861 80.329 95.3861 84.0068C95.3861 87.6846 98.3491 90.6661 102.004 90.6661Z" fill="#C7C8CA"/>
<path d="M60.3147 114.883C63.9698 114.883 66.9328 111.902 66.9328 108.224C66.9328 104.546 63.9698 101.565 60.3147 101.565C56.6597 101.565 53.6967 104.546 53.6967 108.224C53.6967 111.902 56.6597 114.883 60.3147 114.883Z" fill="#171921"/>
<path d="M18.6424 90.6661C22.2974 90.6661 25.2604 87.6846 25.2604 84.0068C25.2604 80.329 22.2974 77.3475 18.6424 77.3475C14.9873 77.3475 12.0243 80.329 12.0243 84.0068C12.0243 87.6846 14.9873 90.6661 18.6424 90.6661Z" fill="#C7C8CA"/>
<circle cx="61.3334" cy="60" r="20" fill="#E5453D"/>
<mask id="mask0_143_1034" style="mask-type:alpha" maskUnits="userSpaceOnUse" x="41" y="40" width="41" height="40">
<circle cx="61.3334" cy="60" r="20" fill="#E5453D"/>
</mask>
<g mask="url(#mask0_143_1034)">
<path d="M53.4857 65.056C53.8745 69.0259 57.22 72.124 61.2958 72.124C65.3717 72.124 68.7172 69.0259 69.1059 65.056" stroke="white" stroke-linecap="round" stroke-linejoin="round"/>
<path d="M51.692 74.9156C49.0886 74.9156 47.3334 75.7991 47.3334 78.4025" stroke="white" stroke-linecap="round" stroke-linejoin="round"/>
<path d="M75.254 78.4025C75.254 75.7991 73.4988 74.9156 70.8954 74.9156" stroke="white" stroke-linecap="round" stroke-linejoin="round"/>
<path d="M56.1932 74.0911L60.222 77.3659C61.0348 78.0256 62.2128 78.0256 63.0256 77.3659L66.9248 74.2913" stroke="white" stroke-linecap="round" stroke-linejoin="round"/>
<path d="M53.4373 60.0847H51.4818C51.1166 60.0847 50.8221 60.3792 50.8221 60.7444V64.726C50.8221 65.5271 51.4818 66.1867 52.2829 66.1867H53.4373" stroke="white" stroke-linecap="round" stroke-linejoin="round"/>
<path d="M69.14 60.0847H71.0955C71.4607 60.0847 71.7552 60.3792 71.7552 60.7444V64.726C71.7552 65.5271 71.0955 66.1867 70.2945 66.1867H69.14" stroke="white" stroke-linecap="round" stroke-linejoin="round"/>
<path d="M48.2074 58.3416H74.3824" stroke="white" stroke-linecap="round" stroke-linejoin="round"/>
<path d="M53.4369 54.8546H69.1396" stroke="white" stroke-linecap="round" stroke-linejoin="round"/>
<path d="M52.4481 57.9999L52.884 55.9856L54.5449 49.0236C54.8866 47.4569 56.5711 46.5734 58.0436 47.2095L60.1404 48.1048C60.7883 48.3757 61.5069 48.3757 62.1548 48.1048L64.2516 47.2095C65.7241 46.5734 67.4204 47.4451 67.7503 49.0236L69.4584 56.2094L69.8353 57.9882" stroke="white" stroke-linecap="round" stroke-linejoin="round"/>
<path d="M57.3716 65.3149C58.5751 65.3149 59.5508 64.3392 59.5508 63.1356C59.5508 61.932 58.5751 60.9563 57.3716 60.9563C56.168 60.9563 55.1923 61.932 55.1923 63.1356C55.1923 64.3392 56.168 65.3149 57.3716 65.3149Z" stroke="white" stroke-linecap="round" stroke-linejoin="round"/>
<path d="M65.2158 65.3149C66.4194 65.3149 67.3951 64.3392 67.3951 63.1356C67.3951 61.932 66.4194 60.9563 65.2158 60.9563C64.0122 60.9563 63.0365 61.932 63.0365 63.1356C63.0365 64.3392 64.0122 65.3149 65.2158 65.3149Z" stroke="white" stroke-linecap="round" stroke-linejoin="round"/>
<path d="M51.6937 74.9157V70.5571H56.0641" stroke="white" stroke-linecap="round" stroke-linejoin="round"/>
<path d="M66.5228 70.5571H70.8814V74.9157" stroke="white" stroke-linecap="round" stroke-linejoin="round"/>
<path d="M56.9364 71.4287V72.218C56.9364 73.4666 55.9234 74.4797 54.6747 74.4797" stroke="white" stroke-linecap="round" stroke-linejoin="round"/>
<path d="M67.9154 74.4797C66.6668 74.4797 65.6537 73.4666 65.6537 72.218V71.4287" stroke="white" stroke-linecap="round" stroke-linejoin="round"/>
</g>
</svg>
