<svg width="120" height="121" viewBox="0 0 120 121" fill="none" xmlns="http://www.w3.org/2000/svg">
<g clip-path="url(#clip0_27_365)">
<path d="M43.53 70.481H11.8338C8.82292 70.481 6.38214 72.9217 6.38214 75.9326V107.629C6.38214 110.64 8.82292 113.08 11.8338 113.08H43.53C46.5408 113.08 48.9816 110.64 48.9816 107.629V75.9326C48.9816 72.9217 46.5408 70.481 43.53 70.481Z" fill="#E5453D" stroke="#20222A" stroke-width="2.28" stroke-miterlimit="10"/>
<path d="M36.8036 87.7265H18.5599V105.51H36.8036V87.7265Z" stroke="white" stroke-width="2.28" stroke-linecap="round" stroke-linejoin="round"/>
<path d="M27.7892 78.0672H27.5896C24.6258 78.0672 22.2148 80.4475 22.2148 83.396V87.7266H33.1641V83.396C33.1641 80.4475 30.7531 78.0672 27.7892 78.0672Z" stroke="white" stroke-width="2.28" stroke-linecap="round" stroke-linejoin="round"/>
<path d="M27.6816 93.8846V98.7527" stroke="white" stroke-width="2.28" stroke-linecap="round" stroke-linejoin="round"/>
<path d="M26.8987 59.3474V11.7109C26.8987 8.77779 29.2789 6.38214 32.2274 6.38214H108.304C111.238 6.38214 113.633 8.76243 113.633 11.7109V89.339C113.633 92.2721 111.253 94.6678 108.304 94.6678H60.3609" stroke="#20222A" stroke-width="2.28" stroke-linecap="round" stroke-linejoin="round"/>
<path d="M65.6436 34.6882H86.7283V55.3122" stroke="#20222A" stroke-width="2.28" stroke-linecap="round" stroke-linejoin="round"/>
<path d="M86.7285 34.6882L56.1226 65.2941" stroke="#20222A" stroke-width="2.28" stroke-linecap="round" stroke-linejoin="round"/>
</g>
<defs>
<clipPath id="clip0_27_365">
<rect width="110" height="109.478" fill="white" transform="translate(5 5)"/>
</clipPath>
</defs>
</svg>
