<svg width="121" height="120" viewBox="0 0 121 120" fill="none" xmlns="http://www.w3.org/2000/svg">
<path d="M113.448 29.459H7.21875V86.1147H113.448V29.459Z" fill="#E5453D" fill-opacity="0.2"/>
<path d="M49.7104 105.59C49.2218 105.59 48.8252 105.194 48.8252 104.705V98.5082C48.8252 98.0195 49.2218 97.6229 49.7104 97.6229C50.1991 97.6229 50.5957 98.0195 50.5957 98.5082V104.705C50.5957 105.194 50.1991 105.59 49.7104 105.59Z" fill="#171921"/>
<path d="M70.9565 105.59C70.4679 105.59 70.0713 105.194 70.0713 104.705V98.5082C70.0713 98.0195 70.4679 97.6229 70.9565 97.6229C71.4452 97.6229 71.8418 98.0195 71.8418 98.5082V104.705C71.8418 105.194 71.4452 105.59 70.9565 105.59Z" fill="#171921"/>
<path d="M78.0382 116.213H42.6284C41.1642 116.213 39.9727 115.022 39.9727 113.557V110.016C39.9727 108.552 41.1642 107.361 42.6284 107.361H78.0382C79.5024 107.361 80.694 108.552 80.694 110.016V113.557C80.694 115.022 79.5024 116.213 78.0382 116.213ZM42.6284 109.131C42.1415 109.131 41.7431 109.528 41.7431 110.016V113.557C41.7431 114.046 42.1415 114.443 42.6284 114.443H78.0382C78.5251 114.443 78.9235 114.046 78.9235 113.557V110.016C78.9235 109.528 78.5251 109.131 78.0382 109.131H42.6284Z" fill="#171921"/>
<path d="M9.87449 107.803H8.104C7.61534 107.803 7.21875 107.407 7.21875 106.918C7.21875 106.429 7.61534 106.033 8.104 106.033H9.87449C10.3631 106.033 10.7597 106.429 10.7597 106.918C10.7597 107.407 10.3631 107.803 9.87449 107.803Z" fill="#171921"/>
<path d="M32.0057 107.803H13.4155C12.9269 107.803 12.5303 107.407 12.5303 106.918C12.5303 106.429 12.9269 106.033 13.4155 106.033H32.0057C32.4943 106.033 32.8909 106.429 32.8909 106.918C32.8909 107.407 32.4943 107.803 32.0057 107.803Z" fill="#171921"/>
<path d="M112.563 107.803H110.792C110.304 107.803 109.907 107.407 109.907 106.918C109.907 106.429 110.304 106.033 110.792 106.033H112.563C113.052 106.033 113.448 106.429 113.448 106.918C113.448 107.407 113.052 107.803 112.563 107.803Z" fill="#171921"/>
<path d="M107.251 107.803H88.6611C88.1725 107.803 87.7759 107.407 87.7759 106.918C87.7759 106.429 88.1725 106.033 88.6611 106.033H107.251C107.74 106.033 108.137 106.429 108.137 106.918C108.137 107.407 107.74 107.803 107.251 107.803Z" fill="#171921"/>
<path d="M28.4648 80.8033V9.09835C28.4648 6.6533 30.446 4.67212 32.8911 4.67212H87.7763C90.2214 4.67212 92.2025 6.6533 92.2025 9.09835V80.8033" fill="white"/>
<path d="M92.2025 81.6885C91.7139 81.6885 91.3173 81.2919 91.3173 80.8033V9.09834C91.3173 7.14549 89.7292 5.55736 87.7763 5.55736H32.8911C30.9382 5.55736 29.3501 7.14549 29.3501 9.09834V80.8033C29.3501 81.2919 28.9535 81.6885 28.4648 81.6885C27.9762 81.6885 27.5796 81.2919 27.5796 80.8033V9.09834C27.5796 6.16995 29.9627 3.78687 32.8911 3.78687H87.7763C90.7047 3.78687 93.0878 6.16995 93.0878 9.09834V80.8033C93.0878 81.2919 92.6912 81.6885 92.2025 81.6885Z" fill="#171921"/>
<path d="M104.596 95.8525H16.0712C10.7031 95.8525 6.3335 91.4847 6.3335 86.1148V29.459C6.3335 24.0891 10.7031 19.7213 16.0712 19.7213H24.9237C25.4123 19.7213 25.8089 20.1179 25.8089 20.6066C25.8089 21.0952 25.4123 21.4918 24.9237 21.4918H16.0712C11.6786 21.4918 8.10399 25.0664 8.10399 29.459V86.1148C8.10399 90.5073 11.6786 94.082 16.0712 94.082H104.596C108.988 94.082 112.563 90.5073 112.563 86.1148V29.459C112.563 25.0664 108.988 21.4918 104.596 21.4918H95.7433C95.2547 21.4918 94.8581 21.0952 94.8581 20.6066C94.8581 20.1179 95.2547 19.7213 95.7433 19.7213H104.596C109.964 19.7213 114.333 24.0891 114.333 29.459V86.1148C114.333 91.4847 109.964 95.8525 104.596 95.8525Z" fill="#171921"/>
<path d="M64.0971 39.1968H57.0151V53.3607H64.0971V39.1968Z" fill="#E5453D"/>
<path d="M50.9653 39.1968H43.8833V53.3607H50.9653V39.1968Z" fill="#E5453D"/>
<path d="M77.3759 29.459H70.2939V53.3606H77.3759V29.459Z" fill="#E5453D"/>
<path d="M78.2614 13.5247H42.8516V20.6066H78.2614V13.5247Z" fill="#E5453D"/>
<path d="M78.2633 64.8689H42.8535C42.3649 64.8689 41.9683 64.4723 41.9683 63.9836C41.9683 63.495 42.3649 63.0984 42.8535 63.0984H78.2633C78.752 63.0984 79.1486 63.495 79.1486 63.9836C79.1486 64.4723 78.752 64.8689 78.2633 64.8689Z" fill="#171921"/>
<path d="M78.2633 70.1803H42.8535C42.3649 70.1803 41.9683 69.7837 41.9683 69.295C41.9683 68.8064 42.3649 68.4098 42.8535 68.4098H78.2633C78.752 68.4098 79.1486 68.8064 79.1486 69.295C79.1486 69.7837 78.752 70.1803 78.2633 70.1803Z" fill="#171921"/>
<path d="M60.5584 75.4918H42.8535C42.3649 75.4918 41.9683 75.0952 41.9683 74.6066C41.9683 74.1179 42.3649 73.7213 42.8535 73.7213H60.5584C61.0471 73.7213 61.4437 74.1179 61.4437 74.6066C61.4437 75.0952 61.0471 75.4918 60.5584 75.4918Z" fill="#171921"/>
<path d="M108.137 44.5082C107.648 44.5082 107.251 44.1116 107.251 43.623V35.6557H99.2842C98.7955 35.6557 98.3989 35.2592 98.3989 34.7705C98.3989 34.2818 98.7955 33.8853 99.2842 33.8853H108.137C108.625 33.8853 109.022 34.2818 109.022 34.7705V43.623C109.022 44.1116 108.625 44.5082 108.137 44.5082Z" fill="#171921"/>
<path d="M78 55.4235V72.2587C77.9996 73.967 78.4349 75.6477 79.2656 77.1453C80.0963 78.6429 81.2955 79.9088 82.7521 80.8259L90.4855 85.7039C90.778 85.897 91.1217 86 91.4733 86C91.8249 86 92.1686 85.897 92.4611 85.7039L100.203 80.8259C101.667 79.9122 102.873 78.6481 103.712 77.1506C104.55 75.6531 104.993 73.9706 105 72.2587V55.4235L91.9805 53.0462C91.6094 52.9846 91.2304 52.9846 90.8593 53.0462L78 55.4235Z" fill="#E5453D"/>
<path d="M90.4957 74.9997C90.2428 74.9976 90.0004 74.9013 89.819 74.7307L83.2837 68.4529C83.194 68.3693 83.1226 68.269 83.0739 68.158C83.0251 68.0471 83 67.9278 83 67.8072C83 67.6867 83.0251 67.5674 83.0739 67.4564C83.1226 67.3455 83.194 67.2452 83.2837 67.1615C83.3703 67.0733 83.4745 67.0031 83.5901 66.9551C83.7056 66.9071 83.83 66.8824 83.9558 66.8824C84.0815 66.8824 84.2059 66.9071 84.3215 66.9551C84.437 67.0031 84.5412 67.0733 84.6278 67.1615L90.4957 72.8294L100.377 63.2693C100.556 63.0969 100.797 63 101.05 63C101.302 63 101.543 63.0969 101.722 63.2693C101.9 63.4418 102 63.6756 102 63.9195C102 64.1634 101.9 64.3973 101.722 64.5697L91.1631 74.7486C91.0747 74.8312 90.9701 74.8959 90.8555 74.939C90.7409 74.9821 90.6186 75.0028 90.4957 74.9997Z" fill="white"/>
</svg>
