<svg
    width="42"
    height="42"
    viewBox="4 4 38 38"
    fill="none"
    xmlns="http://www.w3.org/2000/svg"
  >
    <rect width="45" height="45" rx="8" />
    <path
      fillRule="evenodd"
      clipRule="evenodd"
      d="M33.5977 26.2112L32.7828 28.3271C32.6293 28.729 32.2164 28.9702 31.7889 28.9081L30.8168 28.7656C30.5026 28.7181 30.1846 28.8313 29.9837 29.0798C29.6804 29.4526 29.3442 29.807 28.9824 30.1359C28.7449 30.3479 28.6499 30.6767 28.712 30.9873L28.902 31.9484C28.9861 32.3687 28.7668 32.7925 28.3721 32.9679L26.3002 33.8888C25.9055 34.0642 25.4451 33.9436 25.1893 33.5965L24.601 32.8072C24.4109 32.5514 24.104 32.4052 23.7897 32.4381C23.3037 32.4892 22.8177 32.5002 22.3353 32.4746C22.0211 32.4564 21.7214 32.6208 21.546 32.8802L20.9979 33.6988C20.7567 34.0569 20.3036 34.1994 19.9016 34.046L17.7858 33.2311C17.3838 33.0776 17.1427 32.6646 17.2048 32.2371L17.3473 31.2614C17.3948 30.9471 17.2779 30.6256 17.033 30.4282C16.6603 30.1249 16.3058 29.7924 15.9806 29.427C15.7687 29.1895 15.4398 29.0944 15.1292 29.1566L14.1681 29.3466C13.7479 29.4306 13.324 29.2114 13.1486 28.8167L12.2277 26.7448C12.0523 26.3501 12.1729 25.8897 12.52 25.6339L13.3057 25.0492C13.5615 24.8592 13.7077 24.5522 13.6748 24.2343C13.6236 23.7483 13.6126 23.2623 13.6419 22.7799C13.6602 22.462 13.4994 22.1623 13.2326 21.9869L12.4141 21.4388C12.0559 21.1976 11.9134 20.7445 12.0669 20.3425L12.8818 18.2304C13.0353 17.8284 13.4482 17.5872 13.8721 17.6494L14.8478 17.7919C15.162 17.8357 15.48 17.7224 15.681 17.4776C15.9843 17.1049 16.3168 16.7504 16.6822 16.4252C16.9197 16.2132 17.0148 15.8844 16.9526 15.5737L16.7626 14.609C16.6786 14.1851 16.8978 13.7649 17.2925 13.5895L19.3644 12.6723C19.7591 12.4969 20.2195 12.6175 20.4753 12.9646L21.06 13.7503C21.25 14.0061 21.557 14.1522 21.8749 14.1194C22.3609 14.0682 22.8469 14.0572 23.3293 14.0865C23.6472 14.1047 23.9469 13.9439 24.1223 13.6772L24.6704 12.8586C24.9116 12.5005 25.3647 12.358 25.7667 12.5115L27.8825 13.3264C28.2844 13.4799 28.5256 13.8928 28.4635 14.3203L28.321 15.2924C28.2735 15.6066 28.3868 15.9245 28.6352 16.1255C29.008 16.4288 29.3624 16.765 29.6877 17.1268C29.8996 17.3643 30.2248 17.4593 30.5355 17.3972L31.5002 17.2072C31.9241 17.1231 32.3443 17.3424 32.5197 17.7371L33.4369 19.809C33.6123 20.2037 33.4917 20.6641 33.1446 20.9199L32.3589 21.5046C32.1031 21.6946 31.957 22.0016 31.9898 22.3195C32.041 22.8055 32.052 23.2915 32.0227 23.7739C32.0045 24.0918 32.1652 24.3914 32.4284 24.5668L33.2469 25.115C33.605 25.3562 33.7475 25.8093 33.5941 26.2112H33.5977Z"
      stroke="#263238"
      strokeWidth="1.38159"
      strokeMiterlimit="10"
    />
    <path
      d="M5.67932 25.4985C6.71347 32.1895 11.7308 37.8791 18.7359 39.4358C26.8666 41.241 34.9279 36.8669 38.0194 29.4378"
      stroke="#20222A"
      strokeWidth="1.38159"
      strokeLinecap="round"
      strokeLinejoin="round"
    />
    <path
      d="M39.0543 19.8857C37.8667 13.3957 32.9189 7.92534 26.0745 6.40517C17.7866 4.56708 9.57189 9.14585 6.61926 16.838"
      stroke="#20222A"
      strokeWidth="1.38159"
      strokeLinecap="round"
      strokeLinejoin="round"
    />
    <path
      d="M9.24623 16.6552L6.2461 17.8976L5 14.8975L9.24623 16.6552Z"
      fill="#20222A"
    />
    <path
      d="M22.8361 26.2482C24.4769 26.2482 25.807 24.9181 25.807 23.2773C25.807 21.6365 24.4769 20.3064 22.8361 20.3064C21.1954 20.3064 19.8652 21.6365 19.8652 23.2773C19.8652 24.9181 21.1954 26.2482 22.8361 26.2482Z"
      fill="#E5453D"
    />
    <path
      d="M22.8363 18.2157C23.3671 18.2157 23.7974 17.7854 23.7974 17.2546C23.7974 16.7239 23.3671 16.2936 22.8363 16.2936C22.3055 16.2936 21.8752 16.7239 21.8752 17.2546C21.8752 17.7854 22.3055 18.2157 22.8363 18.2157Z"
      fill="#20222A"
    />
    <path
      d="M18.5756 19.9802C19.1064 19.9802 19.5366 19.55 19.5366 19.0192C19.5366 18.4884 19.1064 18.0581 18.5756 18.0581C18.0448 18.0581 17.6145 18.4884 17.6145 19.0192C17.6145 19.55 18.0448 19.9802 18.5756 19.9802Z"
      fill="#E5453D"
    />
    <path
      d="M16.8143 24.2377C17.3451 24.2377 17.7754 23.8074 17.7754 23.2766C17.7754 22.7458 17.3451 22.3156 16.8143 22.3156C16.2836 22.3156 15.8533 22.7458 15.8533 23.2766C15.8533 23.8074 16.2836 24.2377 16.8143 24.2377Z"
      fill="#20222A"
    />
    <path
      d="M18.5756 28.4954C19.1064 28.4954 19.5366 28.0651 19.5366 27.5343C19.5366 27.0035 19.1064 26.5732 18.5756 26.5732C18.0448 26.5732 17.6145 27.0035 17.6145 27.5343C17.6145 28.0651 18.0448 28.4954 18.5756 28.4954Z"
      fill="#E5453D"
    />
    <path
      d="M22.8363 30.2599C23.3671 30.2599 23.7974 29.8296 23.7974 29.2988C23.7974 28.7681 23.3671 28.3378 22.8363 28.3378C22.3055 28.3378 21.8752 28.7681 21.8752 29.2988C21.8752 29.8296 22.3055 30.2599 22.8363 30.2599Z"
      fill="#20222A"
    />
    <path
      d="M27.094 28.4954C27.6248 28.4954 28.0551 28.0651 28.0551 27.5343C28.0551 27.0035 27.6248 26.5732 27.094 26.5732C26.5632 26.5732 26.1329 27.0035 26.1329 27.5343C26.1329 28.0651 26.5632 28.4954 27.094 28.4954Z"
      fill="#E5453D"
    />
    <path
      d="M28.8552 24.2377C29.386 24.2377 29.8163 23.8074 29.8163 23.2766C29.8163 22.7458 29.386 22.3156 28.8552 22.3156C28.3244 22.3156 27.8942 22.7458 27.8942 23.2766C27.8942 23.8074 28.3244 24.2377 28.8552 24.2377Z"
      fill="#20222A"
    />
    <path
      d="M27.094 19.9802C27.6248 19.9802 28.0551 19.55 28.0551 19.0192C28.0551 18.4884 27.6248 18.0581 27.094 18.0581C26.5632 18.0581 26.1329 18.4884 26.1329 19.0192C26.1329 19.55 26.5632 19.9802 27.094 19.9802Z"
      fill="#E5453D"
    />
    <path
      d="M35.7428 28.912L38.7356 27.6476L40 30.6404L35.7428 28.912Z"
      fill="#20222A"
    />
  </svg>