<svg width="24" height="27" viewBox="0 0 24 27" fill="none" xmlns="http://www.w3.org/2000/svg">
<g id="Layer 1">
<path id="Vector" d="M12.0024 22.5751C11.9789 22.5751 11.9557 22.5705 11.9339 22.5614C11.9122 22.5524 11.8925 22.5391 11.8759 22.5224C11.8593 22.5057 11.8461 22.4858 11.8371 22.464C11.8281 22.4421 11.8235 22.4187 11.8235 22.3951V20.466C11.8244 20.4189 11.8437 20.374 11.8772 20.341C11.9106 20.3081 11.9556 20.2896 12.0024 20.2896C12.0489 20.2896 12.0935 20.3082 12.1264 20.3413C12.1592 20.3743 12.1777 20.4192 12.1777 20.466V22.3951C12.1782 22.4185 12.174 22.4419 12.1654 22.4637C12.1568 22.4855 12.144 22.5054 12.1277 22.5222C12.1114 22.5389 12.0919 22.5523 12.0704 22.5614C12.0488 22.5704 12.0257 22.5751 12.0024 22.5751Z" fill="#171921"/>
<path id="Vector_2" d="M12.0024 7.0468C11.9791 7.04729 11.9559 7.04309 11.9342 7.03444C11.9125 7.0258 11.8928 7.01288 11.8761 6.99646C11.8594 6.98003 11.8462 6.96042 11.8372 6.93878C11.8281 6.91714 11.8235 6.8939 11.8235 6.87042V4.94134C11.8235 4.89358 11.8423 4.84779 11.8759 4.81402C11.9094 4.78026 11.955 4.76129 12.0024 4.76129C12.0257 4.76129 12.0488 4.76596 12.0704 4.77506C12.0919 4.78415 12.1114 4.79747 12.1277 4.81424C12.144 4.83101 12.1568 4.85089 12.1654 4.87271C12.174 4.89454 12.1782 4.91787 12.1777 4.94134V6.87042C12.1782 6.89372 12.174 6.91688 12.1654 6.9385C12.1567 6.96013 12.1439 6.97978 12.1275 6.99625C12.1111 7.01273 12.0916 7.0257 12.0701 7.03439C12.0486 7.04308 12.0256 7.0473 12.0024 7.0468Z" fill="#171921"/>
<path id="Vector_3" d="M17.8336 10.4167C17.8025 10.417 17.772 10.409 17.745 10.3935C17.7181 10.378 17.6957 10.3556 17.6802 10.3285C17.6574 10.2869 17.6515 10.238 17.6637 10.1921C17.676 10.1462 17.7054 10.1068 17.7459 10.0823L19.4257 9.1086C19.4665 9.08582 19.5146 9.07999 19.5596 9.09234C19.6046 9.1047 19.6431 9.13427 19.6667 9.17474C19.6896 9.21636 19.6955 9.26526 19.6832 9.31117C19.671 9.35708 19.6415 9.39642 19.601 9.42093L17.9249 10.3947C17.8966 10.4093 17.8653 10.4169 17.8336 10.4167Z" fill="#171921"/>
<path id="Vector_4" d="M4.46838 18.1657C4.42928 18.1663 4.3911 18.1538 4.3599 18.13C4.3287 18.1063 4.30628 18.0728 4.2962 18.0348C4.28613 17.9968 4.28897 17.9564 4.30429 17.9202C4.31961 17.884 4.34652 17.854 4.38074 17.835L6.04227 16.8723C6.08309 16.8495 6.13114 16.8437 6.17616 16.856C6.22119 16.8684 6.25963 16.8979 6.2833 16.9384C6.30613 16.98 6.31203 17.0289 6.29977 17.0748C6.28752 17.1208 6.25803 17.1601 6.21755 17.1846L4.55602 18.1436C4.52894 18.1578 4.49891 18.1654 4.46838 18.1657Z" fill="#171921"/>
<path id="Vector_5" d="M19.5554 18.1694C19.514 18.1701 19.4739 18.1557 19.4422 18.129L17.8026 17.181C17.7621 17.1565 17.7326 17.1171 17.7204 17.0712C17.7081 17.0253 17.714 16.9764 17.7368 16.9348C17.7611 16.894 17.8005 16.8645 17.8464 16.8528C17.8922 16.8411 17.9408 16.8481 17.9815 16.8723L19.6284 17.8497C19.6556 17.865 19.6781 17.8875 19.6935 17.9147C19.7089 17.9419 19.7167 17.9728 19.7161 18.0041C19.7136 18.0465 19.6959 18.0866 19.6664 18.1169C19.6369 18.1473 19.5975 18.1659 19.5554 18.1694Z" fill="#171921"/>
<path id="Vector_6" d="M6.16693 10.4131C6.13635 10.4132 6.10619 10.4056 6.07927 10.391L4.39949 9.42095C4.35832 9.39707 4.32828 9.35773 4.31595 9.31156C4.30362 9.26539 4.31003 9.21618 4.33376 9.17476C4.35749 9.13335 4.3966 9.10311 4.44248 9.09071C4.48836 9.0783 4.53726 9.08475 4.57842 9.10863L6.25457 10.0823C6.2888 10.1014 6.3157 10.1314 6.33102 10.1676C6.34634 10.2038 6.34919 10.2441 6.33911 10.2821C6.32904 10.3202 6.30661 10.3537 6.27541 10.3774C6.24421 10.4012 6.20604 10.4137 6.16693 10.4131Z" fill="#171921"/>
<path id="Vector_7" d="M4.69269 6.8448C4.66124 6.84463 4.63036 6.83646 4.60291 6.82104C4.57545 6.80562 4.55231 6.78345 4.53566 6.75661C4.51284 6.71499 4.50694 6.66609 4.51919 6.62018C4.53145 6.57427 4.56091 6.53493 4.60139 6.51042L9.56045 3.63333C9.58041 3.62105 9.60266 3.61301 9.62582 3.60969C9.64898 3.60638 9.67256 3.60786 9.69514 3.61405C9.71771 3.62025 9.73879 3.63102 9.75708 3.64571C9.77536 3.6604 9.79045 3.6787 9.80145 3.69947C9.81329 3.71947 9.8211 3.74164 9.82439 3.76468C9.82768 3.78772 9.82639 3.81119 9.82062 3.83374C9.81485 3.85628 9.8047 3.87746 9.79075 3.89604C9.77681 3.91461 9.75935 3.93023 9.73938 3.94198L4.78032 6.82643C4.75343 6.84078 4.72304 6.84715 4.69269 6.8448Z" fill="#171921"/>
<path id="Vector_8" d="M14.3566 23.729C14.3247 23.7288 14.2935 23.7202 14.2659 23.7041C14.2384 23.688 14.2155 23.6649 14.1996 23.6371C14.1769 23.5961 14.1711 23.5477 14.1834 23.5024C14.1957 23.4571 14.2251 23.4184 14.2653 23.3946L19.239 20.5065C19.2797 20.4831 19.3279 20.477 19.3731 20.4894C19.4183 20.5018 19.4567 20.5317 19.48 20.5727C19.5032 20.6136 19.5094 20.6621 19.497 20.7076C19.4847 20.7531 19.4549 20.7918 19.4142 20.8152L14.4406 23.7033C14.4155 23.7195 14.3864 23.7284 14.3566 23.729Z" fill="#171921"/>
<path id="Vector_9" d="M21.6841 16.7474C21.6607 16.7479 21.6375 16.7437 21.6159 16.735C21.5942 16.7264 21.5744 16.7135 21.5578 16.6971C21.5411 16.6806 21.5278 16.661 21.5188 16.6394C21.5098 16.6177 21.5051 16.5945 21.5051 16.571V10.7397C21.5051 10.6919 21.524 10.6461 21.5575 10.6124C21.5911 10.5786 21.6366 10.5596 21.6841 10.5596C21.7074 10.5596 21.7305 10.5643 21.752 10.5734C21.7735 10.5825 21.793 10.5958 21.8093 10.6126C21.8256 10.6294 21.8385 10.6492 21.8471 10.671C21.8557 10.6929 21.8598 10.7162 21.8593 10.7397V16.5563C21.862 16.5808 21.8593 16.6056 21.8517 16.629C21.844 16.6523 21.8314 16.6738 21.8148 16.6919C21.7982 16.71 21.778 16.7243 21.7554 16.7339C21.7329 16.7435 21.7085 16.7481 21.6841 16.7474Z" fill="#171921"/>
<path id="Vector_10" d="M2.31687 16.7477C2.29355 16.7481 2.27036 16.7439 2.24867 16.7353C2.22698 16.7267 2.20723 16.7137 2.19056 16.6973C2.1739 16.6809 2.16066 16.6613 2.15162 16.6396C2.14259 16.618 2.13793 16.5948 2.13794 16.5713V10.7399C2.13794 10.6912 2.15717 10.6445 2.19141 10.61C2.22565 10.5756 2.2721 10.5562 2.32053 10.5562C2.36895 10.5562 2.4154 10.5756 2.44964 10.61C2.48388 10.6445 2.50311 10.6912 2.50311 10.7399V16.5566C2.50527 16.5819 2.50196 16.6074 2.49342 16.6313C2.48487 16.6552 2.4713 16.677 2.45361 16.6952C2.43592 16.7133 2.41456 16.7274 2.39096 16.7365C2.36736 16.7455 2.34208 16.7493 2.31687 16.7477Z" fill="#171921"/>
<path id="Vector_11" d="M9.64804 23.7295C9.6169 23.7301 9.58634 23.7212 9.5604 23.7038L4.58308 20.8194C4.54192 20.7955 4.51187 20.7562 4.49954 20.71C4.48722 20.6638 4.49362 20.6146 4.51735 20.5732C4.54108 20.5318 4.58019 20.5015 4.62607 20.4891C4.67196 20.4767 4.72085 20.4832 4.76201 20.5071L9.73567 23.3952C9.75632 23.4062 9.7745 23.4214 9.7891 23.4398C9.8037 23.4582 9.81441 23.4794 9.82057 23.5021C9.82673 23.5249 9.82821 23.5486 9.82492 23.5719C9.82162 23.5952 9.81361 23.6176 9.8014 23.6377C9.78636 23.6654 9.76419 23.6886 9.73721 23.7047C9.71023 23.7209 9.67943 23.7295 9.64804 23.7295Z" fill="#171921"/>
<path id="Vector_12" d="M19.3082 6.84501C19.2772 6.84514 19.2467 6.8362 19.2206 6.81928L14.2652 3.94219C14.225 3.91838 14.1956 3.87969 14.1833 3.83439C14.171 3.78908 14.1768 3.74075 14.1995 3.69968C14.2108 3.67878 14.2263 3.66042 14.2449 3.64569C14.2635 3.63097 14.2849 3.62019 14.3077 3.61401C14.3306 3.60783 14.3545 3.60637 14.3779 3.60973C14.4014 3.61309 14.4239 3.62118 14.4441 3.63354L19.3995 6.51063C19.4401 6.53508 19.4694 6.5747 19.4811 6.62083C19.4927 6.66697 19.4857 6.71586 19.4616 6.75682C19.4458 6.78362 19.4234 6.80583 19.3965 6.82129C19.3696 6.83674 19.3392 6.84492 19.3082 6.84501Z" fill="#171921"/>
<path id="Vector_13" d="M21.6817 21.0023C21.3459 21.0023 21.0176 20.902 20.7383 20.7143C20.4591 20.5266 20.2414 20.2597 20.1129 19.9475C19.9844 19.6353 19.9508 19.2917 20.0163 18.9603C20.0818 18.6289 20.2435 18.3244 20.481 18.0855C20.7185 17.8465 21.021 17.6838 21.3504 17.6179C21.6798 17.5519 22.0212 17.5858 22.3315 17.7151C22.6418 17.8444 22.907 18.0634 23.0936 18.3444C23.2802 18.6254 23.3798 18.9557 23.3798 19.2936C23.3788 19.7465 23.1996 20.1805 22.8813 20.5007C22.5631 20.821 22.1318 21.0013 21.6817 21.0023ZM21.6817 17.9414C21.4158 17.9407 21.1556 18.0194 20.9341 18.1675C20.7126 18.3157 20.5398 18.5266 20.4375 18.7736C20.3353 19.0206 20.3081 19.2926 20.3596 19.5552C20.411 19.8177 20.5387 20.059 20.7265 20.2485C20.9143 20.438 21.1538 20.5671 21.4145 20.6196C21.6753 20.6721 21.9457 20.6455 22.1915 20.5432C22.4372 20.441 22.6473 20.2677 22.7951 20.0453C22.943 19.8228 23.0219 19.5612 23.0219 19.2936C23.0219 18.9356 22.8808 18.5923 22.6296 18.3388C22.3784 18.0853 22.0375 17.9424 21.6817 17.9414Z" fill="white"/>
<path id="Vector_14" d="M12.0037 26.6248C11.6675 26.6255 11.3387 26.5259 11.0589 26.3384C10.7791 26.1509 10.5609 25.8841 10.4319 25.5718C10.303 25.2594 10.2691 24.9155 10.3345 24.5838C10.3999 24.252 10.5617 23.9472 10.7993 23.708C11.037 23.4688 11.3399 23.306 11.6697 23.2402C11.9994 23.1744 12.3411 23.2086 12.6516 23.3383C12.962 23.4681 13.2271 23.6877 13.4134 23.9692C13.5997 24.2508 13.6988 24.5816 13.6981 24.9199C13.6971 25.3717 13.5183 25.8048 13.2008 26.1244C12.8832 26.4439 12.4528 26.6238 12.0037 26.6248ZM12.0037 23.5677C11.7378 23.5669 11.4776 23.6456 11.2561 23.7938C11.0346 23.9419 10.8618 24.1528 10.7596 24.3998C10.6573 24.6469 10.6302 24.9189 10.6816 25.1814C10.733 25.444 10.8607 25.6852 11.0485 25.8747C11.2363 26.0642 11.4758 26.1933 11.7365 26.2458C11.9973 26.2983 12.2677 26.2717 12.5135 26.1695C12.7592 26.0672 12.9693 25.8939 13.1171 25.6715C13.265 25.449 13.3439 25.1875 13.3439 24.9199C13.3439 24.5619 13.2028 24.2185 12.9516 23.965C12.7004 23.7115 12.3595 23.5686 12.0037 23.5677Z" fill="white"/>
<path id="Vector_15" d="M12.0028 4.12576C11.6674 4.12358 11.3402 4.02153 11.0624 3.83246C10.7846 3.6434 10.5687 3.37579 10.4418 3.0634C10.315 2.751 10.2829 2.40781 10.3496 2.0771C10.4164 1.74639 10.579 1.44298 10.8169 1.20512C11.0548 0.967269 11.3574 0.805629 11.6865 0.74059C12.0155 0.675552 12.3564 0.710029 12.6661 0.839668C12.9757 0.969306 13.2403 1.1883 13.4264 1.46904C13.6125 1.74978 13.7118 2.07968 13.7118 2.41714C13.7118 2.64245 13.6675 2.86554 13.5815 3.07356C13.4955 3.28158 13.3694 3.47043 13.2106 3.62923C13.0517 3.78804 12.8632 3.91366 12.656 3.99888C12.4487 4.08409 12.2267 4.12721 12.0028 4.12576ZM12.0028 1.06862C11.7368 1.06862 11.4769 1.14802 11.2558 1.29676C11.0347 1.44551 10.8625 1.65691 10.7609 1.90421C10.6593 2.1515 10.6329 2.42357 10.685 2.68597C10.7372 2.94837 10.8655 3.1893 11.0538 3.37826C11.2421 3.56723 11.4819 3.69572 11.7429 3.74748C12.0038 3.79923 12.2741 3.77193 12.5196 3.66903C12.7651 3.56612 12.9747 3.39223 13.1219 3.16938C13.2691 2.94653 13.3473 2.68474 13.3466 2.41714C13.3456 2.05915 13.2036 1.71616 12.9517 1.46337C12.6998 1.21058 12.3586 1.06862 12.0028 1.06862Z" fill="white"/>
<path id="Vector_16" d="M21.6817 9.71076C21.3459 9.71076 21.0176 9.61055 20.7383 9.42281C20.4591 9.23506 20.2414 8.96821 20.1129 8.656C19.9844 8.34379 19.9508 8.00024 20.0163 7.6688C20.0818 7.33736 20.2435 7.03292 20.481 6.79396C20.7185 6.55501 21.021 6.39228 21.3504 6.32635C21.6798 6.26042 22.0212 6.29426 22.3315 6.42358C22.6418 6.5529 22.907 6.7719 23.0936 7.05288C23.2802 7.33386 23.3798 7.6642 23.3798 8.00214C23.3788 8.45499 23.1996 8.88902 22.8813 9.20924C22.5631 9.52946 22.1318 9.70979 21.6817 9.71076ZM21.6817 6.65362C21.4156 6.65289 21.1553 6.73167 20.9337 6.87997C20.7122 7.02827 20.5394 7.23942 20.4372 7.48665C20.335 7.73388 20.3081 8.00607 20.3599 8.26871C20.4116 8.53135 20.5397 8.77262 20.7278 8.96195C20.916 9.15128 21.1558 9.28014 21.4168 9.3322C21.6778 9.38426 21.9483 9.35717 22.194 9.25437C22.4397 9.15157 22.6495 8.97769 22.7969 8.75476C22.9443 8.53183 23.0226 8.26989 23.0219 8.00214C23.0219 7.64449 22.8807 7.30149 22.6294 7.04859C22.378 6.79569 22.0371 6.65362 21.6817 6.65362Z" fill="white"/>
<path id="Vector_17" d="M2.31842 21.0023C1.98258 21.0023 1.65429 20.902 1.37504 20.7143C1.0958 20.5266 0.878151 20.2597 0.749629 19.9475C0.621107 19.6353 0.587466 19.2917 0.652986 18.9603C0.718506 18.6289 0.880244 18.3244 1.11772 18.0855C1.3552 17.8465 1.65776 17.6838 1.98715 17.6179C2.31654 17.5519 2.65796 17.5858 2.96824 17.7151C3.27852 17.8444 3.54372 18.0634 3.7303 18.3444C3.91689 18.6254 4.01648 18.9557 4.01648 19.2936C4.01552 19.7465 3.83631 20.1805 3.51807 20.5007C3.19983 20.821 2.76848 21.0013 2.31842 21.0023ZM2.31842 17.9414C2.05263 17.9414 1.79282 18.0207 1.57183 18.1693C1.35083 18.3179 1.1786 18.5291 1.07689 18.7762C0.975178 19.0233 0.948566 19.2951 1.00042 19.5574C1.05227 19.8197 1.18026 20.0607 1.3682 20.2498C1.55614 20.4389 1.79559 20.5677 2.05626 20.6198C2.31694 20.672 2.58713 20.6452 2.83268 20.5429C3.07824 20.4406 3.28812 20.2672 3.43578 20.0449C3.58345 19.8225 3.66226 19.5611 3.66226 19.2936C3.66226 19.1161 3.62751 18.9402 3.55997 18.7762C3.49244 18.6121 3.39345 18.4631 3.26866 18.3375C3.14388 18.2119 2.99572 18.1123 2.83268 18.0444C2.66964 17.9764 2.4949 17.9414 2.31842 17.9414Z" fill="white"/>
<path id="Vector_18" d="M2.31842 9.71076C1.98258 9.71076 1.65429 9.61055 1.37504 9.42281C1.0958 9.23506 0.878151 8.96821 0.749629 8.656C0.621107 8.34379 0.587466 8.00024 0.652986 7.6688C0.718506 7.33736 0.880244 7.03292 1.11772 6.79396C1.3552 6.55501 1.65776 6.39228 1.98715 6.32635C2.31654 6.26042 2.65796 6.29426 2.96824 6.42358C3.27852 6.5529 3.54372 6.7719 3.7303 7.05288C3.91689 7.33386 4.01648 7.6642 4.01648 8.00214C4.01552 8.45499 3.83631 8.88902 3.51807 9.20924C3.19983 9.52946 2.76848 9.70979 2.31842 9.71076ZM2.31842 6.65362C2.05248 6.65362 1.79252 6.73302 1.57145 6.88176C1.35038 7.0305 1.17814 7.24191 1.07653 7.4892C0.974929 7.7365 0.948536 8.00857 1.00069 8.27097C1.05283 8.53337 1.18119 8.7743 1.36949 8.96326C1.5578 9.15222 1.79757 9.28072 2.05849 9.33248C2.31941 9.38424 2.58973 9.35693 2.83522 9.25402C3.08071 9.15111 3.29034 8.97723 3.43757 8.75438C3.58479 8.53153 3.66298 8.26973 3.66226 8.00214C3.66226 7.82474 3.62749 7.64908 3.55991 7.48523C3.49233 7.32138 3.39328 7.17256 3.26844 7.04729C3.14361 6.92202 2.99543 6.82276 2.83241 6.75521C2.66939 6.68766 2.49472 6.65313 2.31842 6.65362Z" fill="white"/>
<path id="Vector_19" d="M7.68079 9.12689V14.859C7.68012 15.4382 7.82467 16.0082 8.10106 16.5163C8.37745 17.0243 8.77675 17.454 9.262 17.7655L11.8474 19.4264C11.9463 19.4894 12.0609 19.5229 12.1779 19.5229C12.2949 19.5229 12.4096 19.4894 12.5084 19.4264L15.0902 17.7655C15.5766 17.4549 15.9769 17.0255 16.254 16.5174C16.5312 16.0092 16.676 15.4387 16.675 14.859V9.12689L12.3477 8.33689C12.2268 8.31633 12.1034 8.31633 11.9825 8.33689L7.68079 9.12689Z" fill="#E5443C"/>
<path id="Vector_20" d="M2.31985 9.54902C3.16892 9.54902 3.85723 8.85643 3.85723 8.00208C3.85723 7.14773 3.16892 6.45514 2.31985 6.45514C1.47078 6.45514 0.782471 7.14773 0.782471 8.00208C0.782471 8.85643 1.47078 9.54902 2.31985 9.54902Z" fill="#171921"/>
<path id="Vector_21" d="M11.9995 3.96797C12.8486 3.96797 13.5369 3.27538 13.5369 2.42103C13.5369 1.56667 12.8486 0.874084 11.9995 0.874084C11.1505 0.874084 10.4622 1.56667 10.4622 2.42103C10.4622 3.27538 11.1505 3.96797 11.9995 3.96797Z" fill="#171921"/>
<path id="Vector_22" d="M21.6831 9.54915C22.5322 9.54915 23.2205 8.85656 23.2205 8.0022C23.2205 7.14785 22.5322 6.45526 21.6831 6.45526C20.8341 6.45526 20.1458 7.14785 20.1458 8.0022C20.1458 8.85656 20.8341 9.54915 21.6831 9.54915Z" fill="#171921"/>
<path id="Vector_23" d="M21.6831 20.8407C22.5322 20.8407 23.2205 20.1481 23.2205 19.2938C23.2205 18.4394 22.5322 17.7468 21.6831 17.7468C20.8341 17.7468 20.1458 18.4394 20.1458 19.2938C20.1458 20.1481 20.8341 20.8407 21.6831 20.8407Z" fill="#171921"/>
<path id="Vector_24" d="M11.9995 26.4665C12.8486 26.4665 13.5369 25.7739 13.5369 24.9196C13.5369 24.0652 12.8486 23.3726 11.9995 23.3726C11.1505 23.3726 10.4622 24.0652 10.4622 24.9196C10.4622 25.7739 11.1505 26.4665 11.9995 26.4665Z" fill="#171921"/>
<path id="Vector_25" d="M2.31985 20.8405C3.16892 20.8405 3.85723 20.1479 3.85723 19.2936C3.85723 18.4392 3.16892 17.7466 2.31985 17.7466C1.47078 17.7466 0.782471 18.4392 0.782471 19.2936C0.782471 20.1479 1.47078 20.8405 2.31985 20.8405Z" fill="#171921"/>
<path id="Vector_26" d="M13.8278 12.3199H10.5266V15.5571H13.8278V12.3199Z" stroke="white" stroke-width="0.278758" stroke-linecap="round" stroke-linejoin="round"/>
<path id="Vector_27" d="M12.1966 10.5596H12.1601C11.9021 10.5606 11.655 10.6644 11.473 10.8483C11.2909 11.0322 11.1887 11.2811 11.1887 11.5407V12.3381H13.1716V11.5444C13.1716 11.2838 13.069 11.0339 12.8862 10.8494C12.7035 10.6648 12.4555 10.5606 12.1966 10.5596V10.5596Z" stroke="white" stroke-width="0.278758" stroke-linecap="round" stroke-linejoin="round"/>
<path id="Vector_28" d="M12.179 13.4405V14.3297" stroke="white" stroke-width="0.278758" stroke-linecap="round" stroke-linejoin="round"/>
</g>
</svg>
