<svg width="45" height="45" viewBox="0 0 45 45" fill="none" xmlns="http://www.w3.org/2000/svg">
<path d="M25.4883 0.703125C21.6049 0.703125 18.457 3.85102 18.457 7.73438C18.457 8.04234 18.4837 8.34328 18.5217 8.64C21.6091 9.32063 24.0546 11.6916 24.852 14.7333C25.0615 14.7523 25.2731 14.7656 25.4883 14.7656C29.3716 14.7656 32.5195 11.6177 32.5195 7.73438C32.5195 3.85102 29.3716 0.703125 25.4883 0.703125Z" fill="#E5453D"/>
<path d="M25.4883 15.1172C25.2633 15.1172 25.0404 15.1031 24.8203 15.0834C24.6277 15.0659 24.4842 14.895 24.5018 14.7016C24.5187 14.5076 24.6902 14.3613 24.8836 14.3831C25.0833 14.4007 25.2837 14.4141 25.4883 14.4141C29.1713 14.4141 32.168 11.4173 32.168 7.73438C32.168 4.05141 29.1713 1.05469 25.4883 1.05469C21.8053 1.05469 18.8086 4.05141 18.8086 7.73438C18.8086 7.99031 18.8283 8.26453 18.8705 8.59641C18.8951 8.78906 18.7587 8.96484 18.566 8.98945C18.3755 9.01055 18.1976 8.87766 18.1723 8.685C18.1266 8.32289 18.1055 8.02125 18.1055 7.73438C18.1055 3.66328 21.4172 0.351562 25.4883 0.351562C29.5594 0.351562 32.8711 3.66328 32.8711 7.73438C32.8711 11.8055 29.5594 15.1172 25.4883 15.1172Z" fill="#171921"/>
<path d="M39.0234 26.0156C38.8294 26.0156 38.6719 25.8581 38.6719 25.6641V20.3906C38.6719 18.6462 37.2523 17.2266 35.5078 17.2266H25.1367C24.9427 17.2266 24.7852 17.0691 24.7852 16.875C24.7852 16.6809 24.9427 16.5234 25.1367 16.5234H35.5078C37.6397 16.5234 39.375 18.258 39.375 20.3906V25.6641C39.375 25.8581 39.2175 26.0156 39.0234 26.0156Z" fill="#171921"/>
<path d="M35.5078 44.6484H4.92188C2.79 44.6484 1.05469 42.9138 1.05469 40.7812V20.3906C1.05469 18.258 2.79 16.5234 4.92188 16.5234H8.26172C8.45578 16.5234 8.61328 16.6809 8.61328 16.875C8.61328 17.0691 8.45578 17.2266 8.26172 17.2266H4.92188C3.17742 17.2266 1.75781 18.6462 1.75781 20.3906V40.7812C1.75781 42.5257 3.17742 43.9453 4.92188 43.9453H35.5078C37.2523 43.9453 38.6719 42.5257 38.6719 40.7812V35.5078C38.6719 35.3137 38.8294 35.1562 39.0234 35.1562C39.2175 35.1562 39.375 35.3137 39.375 35.5078V40.7812C39.375 42.9138 37.6397 44.6484 35.5078 44.6484Z" fill="#171921"/>
<path d="M41.8359 34.4531H31.6406C30.4777 34.4531 29.5312 33.5067 29.5312 32.3438V28.8281C29.5312 27.6652 30.4777 26.7188 31.6406 26.7188H41.8359C42.9989 26.7188 43.9453 27.6652 43.9453 28.8281V32.3438C43.9453 33.5067 42.9989 34.4531 41.8359 34.4531ZM31.6406 27.4219C30.8651 27.4219 30.2344 28.0526 30.2344 28.8281V32.3438C30.2344 33.1193 30.8651 33.75 31.6406 33.75H41.8359C42.6115 33.75 43.2422 33.1193 43.2422 32.3438V28.8281C43.2422 28.0526 42.6115 27.4219 41.8359 27.4219H31.6406Z" fill="#171921"/>
<path d="M33.3984 32.6953C32.2355 32.6953 31.2891 31.7489 31.2891 30.5859C31.2891 29.423 32.2355 28.4766 33.3984 28.4766C34.5614 28.4766 35.5078 29.423 35.5078 30.5859C35.5078 31.7489 34.5614 32.6953 33.3984 32.6953ZM33.3984 29.1797C32.6229 29.1797 31.9922 29.8104 31.9922 30.5859C31.9922 31.3615 32.6229 31.9922 33.3984 31.9922C34.174 31.9922 34.8047 31.3615 34.8047 30.5859C34.8047 29.8104 34.174 29.1797 33.3984 29.1797Z" fill="#171921"/>
<path d="M8.78906 9.84375C8.595 9.84375 8.4375 9.68625 8.4375 9.49219V6.67969C8.4375 6.48562 8.595 6.32812 8.78906 6.32812C8.98312 6.32812 9.14062 6.48562 9.14062 6.67969V9.49219C9.14062 9.68625 8.98312 9.84375 8.78906 9.84375Z" fill="#171921"/>
<path d="M10.1953 8.4375H7.38281C7.18875 8.4375 7.03125 8.28 7.03125 8.08594C7.03125 7.89187 7.18875 7.73438 7.38281 7.73438H10.1953C10.3894 7.73438 10.5469 7.89187 10.5469 8.08594C10.5469 8.28 10.3894 8.4375 10.1953 8.4375Z" fill="#171921"/>
<path d="M4.21875 6.67969C4.02469 6.67969 3.86719 6.52219 3.86719 6.32812V3.51562C3.86719 3.32156 4.02469 3.16406 4.21875 3.16406C4.41281 3.16406 4.57031 3.32156 4.57031 3.51562V6.32812C4.57031 6.52219 4.41281 6.67969 4.21875 6.67969Z" fill="#171921"/>
<path d="M5.625 5.27344H2.8125C2.61844 5.27344 2.46094 5.11594 2.46094 4.92188C2.46094 4.72781 2.61844 4.57031 2.8125 4.57031H5.625C5.81906 4.57031 5.97656 4.72781 5.97656 4.92188C5.97656 5.11594 5.81906 5.27344 5.625 5.27344Z" fill="#171921"/>
<path d="M25.4883 12.6562L22.3242 7.73438L25.4883 2.8125L28.6523 7.73438L25.4883 12.6562Z" fill="white"/>
<path d="M25.4881 13.0078C25.3686 13.0078 25.2575 12.9473 25.1921 12.8468L22.028 7.92492C21.9542 7.8089 21.9542 7.66054 22.028 7.54453L25.1921 2.62265C25.3229 2.42156 25.6533 2.42156 25.7841 2.62265L28.9482 7.54453C29.022 7.66054 29.022 7.8089 28.9482 7.92492L25.7841 12.8468C25.7187 12.9473 25.6076 13.0078 25.4881 13.0078ZM22.7424 7.73437L25.4881 12.0059L28.2338 7.73437L25.4881 3.46289L22.7424 7.73437Z" fill="#171921"/>
<path d="M25.4883 9.49219C25.4398 9.49219 25.3905 9.48234 25.3455 9.46195L22.1815 8.0557C22.0542 7.99875 21.9727 7.87359 21.9727 7.73438C21.9727 7.59516 22.0542 7.47 22.1815 7.41305L25.3455 6.0068C25.4363 5.96602 25.5403 5.96602 25.631 6.0068L28.7951 7.41305C28.9223 7.47 29.0039 7.59516 29.0039 7.73438C29.0039 7.87359 28.9223 7.99875 28.7951 8.0557L25.631 9.46195C25.586 9.48234 25.5368 9.49219 25.4883 9.49219ZM23.1898 7.73438L25.4883 8.75602L27.7868 7.73438L25.4883 6.71273L23.1898 7.73438Z" fill="#171921"/>
<path d="M25.4883 12.6562C25.2942 12.6562 25.1367 12.4987 25.1367 12.3047V3.16406C25.1367 2.97 25.2942 2.8125 25.4883 2.8125C25.6823 2.8125 25.8398 2.97 25.8398 3.16406V12.3047C25.8398 12.4987 25.6823 12.6562 25.4883 12.6562Z" fill="#171921"/>
<path d="M16.6992 23.9062C20.5825 23.9062 23.7305 20.7583 23.7305 16.875C23.7305 12.9917 20.5825 9.84375 16.6992 9.84375C12.816 9.84375 9.66797 12.9917 9.66797 16.875C9.66797 20.7583 12.816 23.9062 16.6992 23.9062Z" fill="#E5453D" fill-opacity="0.2"/>
<path d="M16.6992 24.2578C12.6281 24.2578 9.31641 20.9461 9.31641 16.875C9.31641 12.8039 12.6281 9.49219 16.6992 9.49219C20.7703 9.49219 24.082 12.8039 24.082 16.875C24.082 20.9461 20.7703 24.2578 16.6992 24.2578ZM16.6992 10.1953C13.0163 10.1953 10.0195 13.192 10.0195 16.875C10.0195 20.558 13.0163 23.5547 16.6992 23.5547C20.3822 23.5547 23.3789 20.558 23.3789 16.875C23.3789 13.192 20.3822 10.1953 16.6992 10.1953Z" fill="#171921"/>
<path d="M14.9414 14.4141H13.8867C13.6927 14.4141 13.5352 14.2566 13.5352 14.0625C13.5352 13.8684 13.6927 13.7109 13.8867 13.7109H14.9414C15.1355 13.7109 15.293 13.8684 15.293 14.0625C15.293 14.2566 15.1355 14.4141 14.9414 14.4141Z" fill="#171921"/>
<path d="M14.9414 20.0391H13.8867C13.6927 20.0391 13.5352 19.8816 13.5352 19.6875C13.5352 19.4934 13.6927 19.3359 13.8867 19.3359H14.9414C15.1355 19.3359 15.293 19.4934 15.293 19.6875C15.293 19.8816 15.1355 20.0391 14.9414 20.0391Z" fill="#171921"/>
<path d="M15.9961 14.4141C15.802 14.4141 15.6445 14.2566 15.6445 14.0625V12.6562C15.6445 12.4622 15.802 12.3047 15.9961 12.3047C16.1902 12.3047 16.3477 12.4622 16.3477 12.6562V14.0625C16.3477 14.2566 16.1902 14.4141 15.9961 14.4141Z" fill="#171921"/>
<path d="M17.4023 14.4141C17.2083 14.4141 17.0508 14.2566 17.0508 14.0625V12.6562C17.0508 12.4622 17.2083 12.3047 17.4023 12.3047C17.5964 12.3047 17.7539 12.4622 17.7539 12.6562V14.0625C17.7539 14.2566 17.5964 14.4141 17.4023 14.4141Z" fill="#171921"/>
<path d="M17.4023 17.2266H14.9414C14.7473 17.2266 14.5898 17.0691 14.5898 16.875V14.0625C14.5898 13.8684 14.7473 13.7109 14.9414 13.7109H17.4023C18.372 13.7109 19.1602 14.4998 19.1602 15.4688C19.1602 16.4377 18.372 17.2266 17.4023 17.2266ZM15.293 16.5234H17.4023C17.9838 16.5234 18.457 16.0502 18.457 15.4688C18.457 14.8873 17.9838 14.4141 17.4023 14.4141H15.293V16.5234Z" fill="#171921"/>
<path d="M18.1055 20.0391H14.9414C14.7473 20.0391 14.5898 19.8816 14.5898 19.6875V16.875C14.5898 16.6809 14.7473 16.5234 14.9414 16.5234H18.1055C19.0751 16.5234 19.8633 17.3123 19.8633 18.2812C19.8633 19.2502 19.0751 20.0391 18.1055 20.0391ZM15.293 19.3359H18.1055C18.687 19.3359 19.1602 18.8627 19.1602 18.2812C19.1602 17.6998 18.687 17.2266 18.1055 17.2266H15.293V19.3359Z" fill="#171921"/>
<path d="M15.9961 21.4453C15.802 21.4453 15.6445 21.2878 15.6445 21.0938V19.6875C15.6445 19.4934 15.802 19.3359 15.9961 19.3359C16.1902 19.3359 16.3477 19.4934 16.3477 19.6875V21.0938C16.3477 21.2878 16.1902 21.4453 15.9961 21.4453Z" fill="#171921"/>
<path d="M17.4023 21.4453C17.2083 21.4453 17.0508 21.2878 17.0508 21.0938V19.6875C17.0508 19.4934 17.2083 19.3359 17.4023 19.3359C17.5964 19.3359 17.7539 19.4934 17.7539 19.6875V21.0938C17.7539 21.2878 17.5964 21.4453 17.4023 21.4453Z" fill="#171921"/>
<path d="M5.27344 41.1328H3.51562C3.32156 41.1328 3.16406 40.9753 3.16406 40.7812C3.16406 40.5872 3.32156 40.4297 3.51562 40.4297H5.27344C5.4675 40.4297 5.625 40.5872 5.625 40.7812C5.625 40.9753 5.4675 41.1328 5.27344 41.1328Z" fill="#171921"/>
<path d="M8.78906 41.1328H7.03125C6.83719 41.1328 6.67969 40.9753 6.67969 40.7812C6.67969 40.5872 6.83719 40.4297 7.03125 40.4297H8.78906C8.98312 40.4297 9.14062 40.5872 9.14062 40.7812C9.14062 40.9753 8.98312 41.1328 8.78906 41.1328Z" fill="#171921"/>
<path d="M12.3047 41.1328H10.5469C10.3528 41.1328 10.1953 40.9753 10.1953 40.7812C10.1953 40.5872 10.3528 40.4297 10.5469 40.4297H12.3047C12.4987 40.4297 12.6562 40.5872 12.6562 40.7812C12.6562 40.9753 12.4987 41.1328 12.3047 41.1328Z" fill="#171921"/>
<path d="M15.8203 41.1328H14.0625C13.8684 41.1328 13.7109 40.9753 13.7109 40.7812C13.7109 40.5872 13.8684 40.4297 14.0625 40.4297H15.8203C16.0144 40.4297 16.1719 40.5872 16.1719 40.7812C16.1719 40.9753 16.0144 41.1328 15.8203 41.1328Z" fill="#171921"/>
<path d="M19.3359 41.1328H17.5781C17.3841 41.1328 17.2266 40.9753 17.2266 40.7812C17.2266 40.5872 17.3841 40.4297 17.5781 40.4297H19.3359C19.53 40.4297 19.6875 40.5872 19.6875 40.7812C19.6875 40.9753 19.53 41.1328 19.3359 41.1328Z" fill="#171921"/>
<path d="M22.8516 41.1328H21.0938C20.8997 41.1328 20.7422 40.9753 20.7422 40.7812C20.7422 40.5872 20.8997 40.4297 21.0938 40.4297H22.8516C23.0456 40.4297 23.2031 40.5872 23.2031 40.7812C23.2031 40.9753 23.0456 41.1328 22.8516 41.1328Z" fill="#171921"/>
<path d="M26.3672 41.1328H24.6094C24.4153 41.1328 24.2578 40.9753 24.2578 40.7812C24.2578 40.5872 24.4153 40.4297 24.6094 40.4297H26.3672C26.5612 40.4297 26.7188 40.5872 26.7188 40.7812C26.7188 40.9753 26.5612 41.1328 26.3672 41.1328Z" fill="#171921"/>
<path d="M29.8828 41.1328H28.125C27.9309 41.1328 27.7734 40.9753 27.7734 40.7812C27.7734 40.5872 27.9309 40.4297 28.125 40.4297H29.8828C30.0769 40.4297 30.2344 40.5872 30.2344 40.7812C30.2344 40.9753 30.0769 41.1328 29.8828 41.1328Z" fill="#171921"/>
<path d="M33.3984 41.1328H31.6406C31.4466 41.1328 31.2891 40.9753 31.2891 40.7812C31.2891 40.5872 31.4466 40.4297 31.6406 40.4297H33.3984C33.5925 40.4297 33.75 40.5872 33.75 40.7812C33.75 40.9753 33.5925 41.1328 33.3984 41.1328Z" fill="#171921"/>
<path d="M36.9141 41.1328H35.1562C34.9622 41.1328 34.8047 40.9753 34.8047 40.7812C34.8047 40.5872 34.9622 40.4297 35.1562 40.4297H36.9141C37.1081 40.4297 37.2656 40.5872 37.2656 40.7812C37.2656 40.9753 37.1081 41.1328 36.9141 41.1328Z" fill="#171921"/>
<path d="M36.9141 22.8516C36.72 22.8516 36.5625 22.6941 36.5625 22.5V20.7422C36.5625 19.9666 35.9318 19.3359 35.1562 19.3359H33.3984C33.2044 19.3359 33.0469 19.1784 33.0469 18.9844C33.0469 18.7903 33.2044 18.6328 33.3984 18.6328H35.1562C36.3192 18.6328 37.2656 19.5792 37.2656 20.7422V22.5C37.2656 22.6941 37.1081 22.8516 36.9141 22.8516Z" fill="#171921"/>
</svg>
