<svg xmlns="http://www.w3.org/2000/svg" width="116" height="30" viewBox="0 0 116 30" fill="none">
  <g clip-path="url(#clip0_2008_418)">
    <path d="M33.1172 6.7856V0.181265H59.2338V10.9776H51.8977V6.70132H44.8135V11.7388H50.8923V17.8346H44.8135V23.2964H52.0237V18.4704H59.3598V29.8164H33.1172V23.2123H36.2188V6.7856H33.1172Z" fill="#293330"/>
    <path d="M60.9102 6.7856V0.181265H87.027V10.9776H79.6907V6.70132H72.6065V11.7388H78.6853V17.8346H72.6065V23.2964H79.8167V18.4704H87.1526V29.8164H60.9102V23.2123H64.0117V6.7856H60.9102Z" fill="#293330"/>
    <path d="M104.008 13.1356C105.223 13.1356 105.684 13.0513 105.936 12.7971C106.314 12.3744 106.397 11.7388 106.397 9.91929C106.397 8.0981 106.314 7.46417 105.936 7.03977C105.684 6.7856 105.223 6.70132 104.008 6.70132H100.403V13.1356H104.008ZM113.483 17.7931C112.35 18.9787 110.589 19.4015 107.991 19.4015H100.403V23.2123H103.714V29.8164H88.707V23.2123H91.8085V6.7856H88.707V0.181265H107.991C110.589 0.181265 112.35 0.605495 113.483 1.79091C114.824 3.18787 115.368 4.66877 115.368 9.7922C115.368 14.9139 114.824 16.3965 113.483 17.7931Z" fill="#293330"/>
    <path d="M31.5658 6.7856V0.181265H16.7679V6.70132H19.073L14.5035 12.0773H12.6183V6.70132H15.2163V0.181265H11.7049V2.62626H9.80465V0.181265H6.334V2.62626H4.43359V0.181265H0.921875V6.7856H4.02345V23.2123H0.921875V29.8164H15.2163V23.2964H12.6183V17.9204H14.5035L19.073 23.2964H16.7679V29.8164H31.5658V23.2123H29.2605L22.2949 14.9989L29.2605 6.7856H31.5658Z" fill="#293330"/>
  </g>
  <defs>
    <clipPath id="clip0_2008_418">
      <rect width="114.444" height="30" fill="white" transform="translate(0.921875)"/>
    </clipPath>
  </defs>
</svg>