<svg width="120" height="120" viewBox="0 0 120 120" fill="none" xmlns="http://www.w3.org/2000/svg">
<g clip-path="url(#clip0_146_8411)">
<path d="M103.019 61.6725V94.7562C103.019 97.6358 101.875 100.397 99.8385 102.434C97.8024 104.47 95.0408 105.614 92.1612 105.614H15.7723C12.8928 105.614 10.1312 104.47 8.09507 102.434C6.05893 100.397 4.91504 97.6358 4.91504 94.7562V35.4598C4.91504 32.5803 6.05893 29.8187 8.09507 27.7826C10.1312 25.7464 12.8928 24.6025 15.7723 24.6025H67.8254" stroke="#171921" stroke-width="0.930626" stroke-linecap="round" stroke-linejoin="round"/>
<path d="M5.58252 40.7026H67.3451" stroke="#171921" stroke-width="0.930626" stroke-linecap="round" stroke-linejoin="round"/>
<path d="M31.8413 98.8667H88.2683" stroke="#171921" stroke-width="0.930626" stroke-linecap="round" stroke-linejoin="round"/>
<path d="M18.0674 98.7255H20.7042" stroke="#171921" stroke-width="0.930626" stroke-linecap="round" stroke-linejoin="round"/>
<path d="M25.2803 98.7255H27.9326" stroke="#171921" stroke-width="0.930626" stroke-linecap="round" stroke-linejoin="round"/>
<path d="M41.1323 33.8925H30.5542" stroke="#171921" stroke-width="0.930626" stroke-linecap="round" stroke-linejoin="round"/>
<path d="M52.6099 34.0319H50.2988" stroke="#171921" stroke-width="0.930626" stroke-linecap="round" stroke-linejoin="round"/>
<path d="M46.3125 34.0319H44.0015" stroke="#171921" stroke-width="0.930626" stroke-linecap="round" stroke-linejoin="round"/>
<path d="M14.5937 35.5526C15.8786 35.5526 16.9202 34.511 16.9202 33.226C16.9202 31.9411 15.8786 30.8995 14.5937 30.8995C13.3087 30.8995 12.2671 31.9411 12.2671 33.226C12.2671 34.511 13.3087 35.5526 14.5937 35.5526Z" fill="#E5453D" stroke="#171921" stroke-width="0.930626" stroke-miterlimit="10"/>
<path d="M23.0155 35.5526C24.3005 35.5526 25.3421 34.511 25.3421 33.226C25.3421 31.9411 24.3005 30.8995 23.0155 30.8995C21.7306 30.8995 20.689 31.9411 20.689 33.226C20.689 34.511 21.7306 35.5526 23.0155 35.5526Z" fill="#E5453D" stroke="#171921" stroke-width="0.930626" stroke-miterlimit="10"/>
<path d="M109.782 44.6578C110.03 44.115 110.263 43.5721 110.449 43.1068L112.372 43.448C112.644 43.4995 112.924 43.4965 113.194 43.4391C113.465 43.3818 113.722 43.2714 113.95 43.1141C114.178 42.9569 114.372 42.756 114.522 42.5232C114.672 42.2903 114.774 42.03 114.823 41.7574L115.319 39.0586C115.414 38.51 115.291 37.946 114.975 37.4877C114.658 37.0294 114.175 36.7135 113.628 36.6079H113.256C112.787 36.5228 112.362 36.279 112.051 35.9176C111.741 35.5562 111.564 35.099 111.55 34.6226C111.467 33.7141 111.322 32.8124 111.116 31.9238C111.022 31.4755 111.08 31.009 111.279 30.5967C111.478 30.1844 111.808 29.8494 112.217 29.6437L112.574 29.4576C113.069 29.1997 113.441 28.7562 113.61 28.2242C113.778 27.6922 113.729 27.1151 113.473 26.6192L112.217 24.1996C111.962 23.7019 111.519 23.326 110.987 23.1544C110.455 22.9828 109.876 23.0296 109.378 23.2845L108.944 23.5171C108.546 23.729 108.089 23.8042 107.643 23.7314C107.198 23.6585 106.788 23.4416 106.478 23.1138C105.883 22.4674 105.246 21.8612 104.57 21.2991C104.227 21.0007 103.991 20.5979 103.898 20.1524C103.806 19.7069 103.862 19.2434 104.058 18.833L104.276 18.3832C104.508 17.8769 104.531 17.2992 104.339 16.7762C104.147 16.2531 103.757 15.8271 103.252 15.5913L100.739 14.459C100.231 14.2257 99.6507 14.2024 99.1251 14.394C98.5995 14.5857 98.1707 14.9769 97.9317 15.4827L97.7301 15.9325C97.541 16.3487 97.2191 16.6903 96.8148 16.9036C96.4106 17.117 95.9469 17.19 95.4966 17.1113C94.7222 16.9715 93.9401 16.8783 93.1545 16.8321C92.7021 16.8023 92.2723 16.6232 91.9327 16.3229C91.593 16.0225 91.3627 15.6179 91.2778 15.1725L91.1692 14.7072C91.0436 14.1737 90.7124 13.7113 90.2476 13.4208C89.7828 13.1304 89.2221 13.0352 88.6875 13.1561L85.9577 13.6059C85.423 13.735 84.9605 14.0693 84.6703 14.5366C84.3801 15.0039 84.2853 15.5666 84.4066 16.1031V16.5064C84.5011 16.9529 84.446 17.4181 84.2498 17.8302C84.0535 18.2423 83.7271 18.5783 83.3209 18.7864L82.3438 19.2983C81.9491 19.5165 81.4934 19.5983 81.0475 19.531C80.6015 19.4637 80.1903 19.251 79.8776 18.926L79.5984 18.6468C79.203 18.2528 78.6676 18.0316 78.1094 18.0316C77.5512 18.0316 77.0158 18.2528 76.6204 18.6468L74.6661 20.5856C74.2721 20.981 74.0508 21.5165 74.0508 22.0746C74.0508 22.6328 74.2721 23.1683 74.6661 23.5636L74.8522 23.7653C75.1819 24.0893 75.3932 24.5146 75.4523 24.973C75.5114 25.4315 75.4148 25.8965 75.1779 26.2935C74.8219 26.8816 74.4958 27.4872 74.2008 28.1082C74.0302 28.496 73.8595 28.8992 73.7044 29.287L71.8277 28.9458C71.2786 28.8461 70.7125 28.9681 70.2532 29.285C69.7939 29.6018 69.4788 30.0878 69.377 30.6364L68.8962 33.3197C68.7966 33.8687 68.9185 34.4349 69.2354 34.8942C69.5523 35.3535 70.0382 35.6685 70.5868 35.7704H70.7109C71.1833 35.8448 71.6156 36.0798 71.9349 36.4358C72.2541 36.7918 72.4409 37.247 72.4636 37.7247C72.5273 38.6949 72.662 39.6591 72.8669 40.6096C72.9544 41.0512 72.8939 41.5093 72.6949 41.913C72.4958 42.3168 72.1692 42.6437 71.7656 42.8431H71.6726C71.1777 43.101 70.8051 43.5445 70.6365 44.0765C70.4679 44.6085 70.5169 45.1856 70.773 45.6815L71.9983 48.0856C72.2592 48.5776 72.7028 48.9475 73.2336 49.1157C73.7644 49.284 74.3401 49.2371 74.8367 48.9852C75.2453 48.7674 75.7152 48.6932 76.171 48.7748C76.6267 48.8564 77.0418 49.089 77.3494 49.4351C77.9904 50.1485 78.6796 50.817 79.4123 51.4359C79.7649 51.7309 80.0106 52.1337 80.1115 52.5822C80.2124 53.0307 80.1629 53.5 79.9707 53.9176C79.8507 54.1666 79.7817 54.4371 79.7676 54.7131C79.7534 54.9892 79.7945 55.2653 79.8884 55.5252C79.9823 55.7852 80.1271 56.0239 80.3143 56.2272C80.5016 56.4305 80.7275 56.5945 80.9788 56.7094L83.4605 57.8727C83.712 57.9903 83.9842 58.0571 84.2615 58.0693C84.5389 58.0815 84.8159 58.0388 85.0767 57.9437C85.3375 57.8486 85.577 57.7029 85.7814 57.5151C85.9858 57.3273 86.1511 57.1009 86.2679 56.849C86.4541 56.4341 86.7733 56.093 87.1749 55.8795C87.5765 55.6661 88.0378 55.5925 88.4859 55.6702C89.3579 55.8229 90.2385 55.9213 91.1227 55.9649C91.5789 55.9933 92.0131 56.1712 92.358 56.4713C92.7029 56.7713 92.9392 57.1766 93.0304 57.6246C93.1631 58.1572 93.4981 58.6171 93.9644 58.9067C94.4306 59.1963 94.9914 59.2928 95.5276 59.1756L98.2109 58.6017C98.7403 58.469 99.1976 58.1364 99.4868 57.6736C99.776 57.2108 99.8747 56.654 99.762 56.12V56.027C99.6649 55.5839 99.7154 55.1213 99.9059 54.7096C100.096 54.2979 100.416 53.9598 100.817 53.747C101.189 53.5608 101.561 53.3592 101.933 53.142C102.333 52.9156 102.796 52.8278 103.251 52.8924C103.705 52.9569 104.126 53.1701 104.446 53.4988C104.641 53.6957 104.873 53.8521 105.128 53.9588C105.384 54.0656 105.658 54.1205 105.935 54.1205C106.212 54.1205 106.486 54.0656 106.742 53.9588C106.998 53.8521 107.229 53.6957 107.424 53.4988L109.534 51.6841C109.928 51.2887 110.149 50.7533 110.149 50.1951C110.149 49.6369 109.928 49.1014 109.534 48.7061L109.378 48.5354C109.057 48.2097 108.851 47.7877 108.792 47.334C108.734 46.8802 108.825 46.4196 109.053 46.0228C109.316 45.6195 109.565 45.1387 109.782 44.6578Z" fill="#E5453D"/>
<path d="M26.7388 76.7639V64.6347H79.5983V76.7639" stroke="#171921" stroke-width="0.930626" stroke-linecap="round" stroke-linejoin="round"/>
<path d="M53.1685 58.1965V69.3175" stroke="#171921" stroke-width="0.930626" stroke-linecap="round" stroke-linejoin="round"/>
<path d="M26.7383 87.3873C28.8542 87.3873 30.5694 85.6721 30.5694 83.5562C30.5694 81.4404 28.8542 79.7252 26.7383 79.7252C24.6225 79.7252 22.9072 81.4404 22.9072 83.5562C22.9072 85.6721 24.6225 87.3873 26.7383 87.3873Z" stroke="#171921" stroke-width="0.930626" stroke-linecap="round" stroke-linejoin="round"/>
<path d="M79.5982 87.3873C81.714 87.3873 83.4292 85.6721 83.4292 83.5562C83.4292 81.4404 81.714 79.7252 79.5982 79.7252C77.4823 79.7252 75.7671 81.4404 75.7671 83.5562C75.7671 85.6721 77.4823 87.3873 79.5982 87.3873Z" stroke="#171921" stroke-width="0.930626" stroke-linecap="round" stroke-linejoin="round"/>
<path d="M53.168 77.3995C55.2838 77.3995 56.9991 75.6842 56.9991 73.5684C56.9991 71.4525 55.2838 69.7373 53.168 69.7373C51.0521 69.7373 49.3369 71.4525 49.3369 73.5684C49.3369 75.6842 51.0521 77.3995 53.168 77.3995Z" stroke="#171921" stroke-width="0.930626" stroke-linecap="round" stroke-linejoin="round"/>
<path d="M57.7438 50.1625H48.5771V59.3292H57.7438V50.1625Z" fill="#171921"/>
<path d="M13.1357 56.4607V48.0075H21.0926" stroke="#171921" stroke-width="0.930626" stroke-linecap="round" stroke-linejoin="round"/>
<path d="M101.561 28.8056L101.685 29.5501C101.771 30.2342 101.812 30.9233 101.809 31.6129C101.813 33.1493 101.631 34.6806 101.266 36.173C100.693 38.5325 99.6175 40.7406 98.1132 42.6465C96.6088 44.5523 94.7109 46.1111 92.549 47.2164L92.1922 47.4181L91.851 47.2164C89.3766 45.9389 87.248 44.0817 85.6468 41.8033C84.4694 40.0975 83.6175 38.1886 83.1341 36.173C82.7728 34.6957 82.5905 33.1803 82.5913 31.6595C82.5877 30.9699 82.6292 30.2808 82.7154 29.5966L82.8394 28.8521C82.8505 28.7918 82.8491 28.7299 82.8353 28.6701C82.8215 28.6104 82.7957 28.5541 82.7594 28.5047C82.7231 28.4553 82.677 28.4139 82.6241 28.383C82.5712 28.352 82.5125 28.3322 82.4517 28.3247C82.3304 28.3069 82.207 28.3376 82.1083 28.4102C82.0096 28.4828 81.9435 28.5914 81.9243 28.7125L81.8158 29.4415C81.7036 30.1753 81.6517 30.9171 81.6607 31.6595C81.6704 33.2276 81.863 34.7892 82.2345 36.3126C82.7498 38.4356 83.6544 40.4445 84.9023 42.2376C86.5831 44.6405 88.8174 46.6035 91.4167 47.9609L91.9751 48.2556C92.044 48.2937 92.1213 48.3136 92.2 48.3136C92.2787 48.3136 92.356 48.2937 92.4249 48.2556L92.9833 47.9609C95.5825 46.6035 97.8169 44.6405 99.4977 42.2376C100.746 40.4445 101.65 38.4356 102.165 36.3126C102.537 34.7892 102.73 33.2276 102.739 31.6595C102.748 30.9171 102.696 30.1753 102.584 29.4415L102.476 28.7125C102.453 28.5902 102.384 28.4815 102.282 28.4091C102.181 28.3368 102.056 28.3066 101.933 28.3247C101.873 28.3341 101.816 28.3553 101.765 28.387C101.714 28.4188 101.67 28.4605 101.635 28.5097C101.6 28.5589 101.576 28.6145 101.563 28.6733C101.55 28.7321 101.549 28.7929 101.561 28.8521V28.8056Z" fill="white"/>
<path d="M85.3524 28.3079L92.1615 26.214L99.2032 28.4165C99.3205 28.4504 99.4463 28.4368 99.5536 28.3788C99.661 28.3208 99.7413 28.2229 99.7771 28.1063C99.807 27.9892 99.7917 27.8651 99.7342 27.7587C99.6767 27.6523 99.5813 27.5716 99.4669 27.5324L92.3321 25.3144C92.2469 25.2836 92.1536 25.2836 92.0684 25.3144L85.0887 27.4393C84.9721 27.4752 84.8743 27.5555 84.8162 27.6628C84.7582 27.7702 84.7447 27.896 84.7785 28.0132C84.7945 28.0722 84.8222 28.1272 84.8601 28.1751C84.898 28.2229 84.9452 28.2626 84.9989 28.2916C85.0526 28.3206 85.1116 28.3384 85.1724 28.3439C85.2331 28.3493 85.2944 28.3424 85.3524 28.3234V28.3079Z" fill="white"/>
<path d="M81.9712 28.9454L91.7893 48.1008C91.8268 48.1755 91.8844 48.2384 91.9556 48.2822C92.0269 48.3261 92.1089 48.3492 92.1926 48.3489C92.2778 48.347 92.3611 48.3232 92.4345 48.2797C92.5078 48.2362 92.5687 48.1746 92.6114 48.1008L98.5829 36.9177L102.414 28.9454C102.44 28.8915 102.455 28.833 102.458 28.7732C102.461 28.7134 102.453 28.6536 102.433 28.5973C102.412 28.541 102.381 28.4892 102.341 28.4451C102.3 28.401 102.251 28.3654 102.197 28.3405C102.086 28.2871 101.958 28.28 101.842 28.3208C101.725 28.3615 101.63 28.4466 101.576 28.5576L97.7763 36.4834L92.1615 46.891L82.8553 28.5266C82.799 28.4184 82.7024 28.3366 82.5863 28.2988C82.4703 28.2611 82.3441 28.2705 82.2349 28.325C82.1294 28.3841 82.0501 28.4808 82.0127 28.5957C81.9754 28.7107 81.9827 28.8356 82.0332 28.9454H81.9712Z" fill="white"/>
<path d="M86.6705 37.4752H97.5278C97.6347 37.4554 97.7314 37.3988 97.8009 37.3152C97.8705 37.2317 97.9085 37.1263 97.9085 37.0176C97.9085 36.9089 97.8705 36.8036 97.8009 36.72C97.7314 36.6364 97.6347 36.5798 97.5278 36.5601H86.6705C86.6034 36.5476 86.5343 36.5502 86.4683 36.5674C86.4022 36.5847 86.3408 36.6163 86.2883 36.6599C86.2358 36.7036 86.1936 36.7583 86.1646 36.8201C86.1356 36.8819 86.1206 36.9493 86.1206 37.0176C86.1206 37.0859 86.1356 37.1533 86.1646 37.2151C86.1936 37.277 86.2358 37.3316 86.2883 37.3753C86.3408 37.419 86.4022 37.4506 86.4683 37.4678C86.5343 37.4851 86.6034 37.4876 86.6705 37.4752Z" fill="white"/>
</g>
<defs>
<clipPath id="clip0_146_8411">
<rect width="111.349" height="93.5279" fill="white" transform="translate(4 13)"/>
</clipPath>
</defs>
</svg>
