<svg width="121" height="120" viewBox="0 0 121 120" fill="none" xmlns="http://www.w3.org/2000/svg">
<path d="M104.992 82.6332V100.641C104.992 103.765 102.192 106.292 98.73 106.292H24.9524C21.4908 106.292 18.6906 103.765 18.6906 100.641V12.697C18.6906 9.57295 21.4908 7.04575 24.9524 7.04575H98.73C102.192 7.04575 104.992 9.57295 104.992 12.697V82.6332Z" stroke="#171921" stroke-width="1.8" stroke-linecap="round" stroke-linejoin="round"/>
<path d="M96.363 89.3411V107.349C96.363 110.473 93.6094 113 90.2055 113H17.6575C14.2536 113 11.5 110.473 11.5 107.349V19.405C11.5 16.2809 14.2536 13.7537 17.6575 13.7537H90.2055C93.6094 13.7537 96.363 16.2809 96.363 19.405V89.3411Z" fill="white" stroke="#171921" stroke-width="1.8" stroke-linecap="round" stroke-linejoin="round"/>
<path d="M74.787 66.9726C82.7308 66.9726 89.1706 60.5328 89.1706 52.589C89.1706 44.6452 82.7308 38.2054 74.787 38.2054C66.8432 38.2054 60.4034 44.6452 60.4034 52.589C60.4034 60.5328 66.8432 66.9726 74.787 66.9726Z" fill="#E5443C"/>
<path d="M78.7993 48.4699C78.7993 50.6849 77.0037 52.4805 74.7886 52.4805C72.5736 52.4805 70.778 50.6849 70.778 48.4699C70.778 46.2548 72.5736 44.4592 74.7886 44.4592C77.0037 44.4592 78.7993 46.2548 78.7993 48.4699Z" stroke="white"/>
<path d="M68.5714 56.2303L68.5714 56.2303L68.573 56.2284C71.4695 52.7877 76.6141 52.3655 80.0383 55.2624C81.196 56.2488 82.0122 57.4817 82.4734 58.8183C82.6669 59.3793 82.5213 59.8979 82.1627 60.2958C81.7951 60.7037 81.202 60.9795 80.542 60.9795H69.0085C68.3529 60.9795 67.7625 60.7069 67.3958 60.3033C67.0383 59.9098 66.8922 59.397 67.082 58.8407C67.3986 57.9128 67.8937 57.027 68.5714 56.2303Z" stroke="white"/>
<path d="M21.1156 54.8008H45.6544" stroke="#171921" stroke-width="1.8" stroke-linecap="round" stroke-linejoin="round"/>
<path d="M21.5693 64.0959H51.7748" stroke="#171921" stroke-width="1.8" stroke-linecap="round" stroke-linejoin="round"/>
<path d="M21.5693 72.7258H61.8433" stroke="#171921" stroke-width="1.8" stroke-linecap="round" stroke-linejoin="round"/>
<path d="M86.2939 83.1765H74.7126" stroke="#E5453D" stroke-width="1.8" stroke-linecap="round" stroke-linejoin="round"/>
<path d="M67.4814 83.0253H21.1412" stroke="#171921" stroke-width="1.8" stroke-linecap="round" stroke-linejoin="round"/>
<path d="M21.1156 92.7825H34.1968" stroke="#E5453D" stroke-width="1.8" stroke-linecap="round" stroke-linejoin="round"/>
<path d="M39.9368 92.6319H86.2949" stroke="#171921" stroke-width="1.8" stroke-linecap="round" stroke-linejoin="round"/>
<path d="M86.2939 102.931H74.7126" stroke="#E5453D" stroke-width="1.8" stroke-linecap="round" stroke-linejoin="round"/>
<path d="M67.4814 102.931H21.1412" stroke="#171921" stroke-width="1.8" stroke-linecap="round" stroke-linejoin="round"/>
<path d="M46.963 38.026H21.3822C20.2312 38.026 19.2981 38.9591 19.2981 40.1101V45.0534C19.2981 46.2044 20.2312 47.1375 21.3822 47.1375H46.963C48.114 47.1375 49.0471 46.2044 49.0471 45.0534V40.1101C49.0471 38.9591 48.114 38.026 46.963 38.026Z" fill="#E5453D"/>
<path d="M11.5 29.5755H96.363" stroke="#171921" stroke-width="1.8" stroke-miterlimit="10"/>
<path d="M58.2659 22.3837H43.1436" stroke="#171921" stroke-width="1.8" stroke-linecap="round" stroke-linejoin="round"/>
<path d="M65.4455 22.3837H63.6283" stroke="#171921" stroke-width="1.8" stroke-linecap="round" stroke-linejoin="round"/>
</svg>
