<svg width="120" height="120" viewBox="0 0 120 120" fill="none" xmlns="http://www.w3.org/2000/svg">
<path d="M101.969 101.969C78.7845 125.154 41.1972 125.154 18.0308 101.969C-2.64213 81.3142 -4.87503 49.1976 11.2949 26.0498" stroke="#53545A" stroke-width="1.28392" stroke-linecap="round" stroke-linejoin="round"/>
<path d="M18.0308 18.0333C41.2158 -5.15172 78.803 -5.15172 101.969 18.0333C123.033 39.097 124.95 72.0323 107.756 95.2732" stroke="#53545A" stroke-width="1.28392" stroke-linecap="round" stroke-linejoin="round"/>
<path d="M2.60498 28.4688L11.0156 26.0498L13.416 34.4604" stroke="#53545A" stroke-width="1.28392" stroke-linecap="round" stroke-linejoin="round"/>
<path d="M115.832 93.9662L107.421 96.3852L105.021 87.9932" stroke="#20222A" stroke-width="1.15367" stroke-linecap="round" stroke-linejoin="round"/>
<g clip-path="url(#clip0_60_564)">
<path d="M37.5649 45.7753L44.821 40.6077L47.5182 32.2775H56.2542L63.2596 27.1458L70.3367 32.2775H79.0965L81.7101 40.6077L88.8111 45.7514L86.1259 54.0816L88.835 62.4118L81.7101 67.5436L79.001 75.8737H70.2651L63.2596 81.0055L56.1587 75.8737H47.3631L44.821 67.5436L37.7082 62.4118L40.2621 54.0816L37.5649 45.7753Z" stroke="#171921" stroke-width="1.024" stroke-miterlimit="10"/>
<path d="M60.0968 37.648C61.0993 37.457 62.1376 37.3616 63.1878 37.3616C72.425 37.3616 79.9079 44.8444 79.9079 54.0816C79.9079 63.3188 72.425 70.8017 63.1878 70.8017C53.9506 70.8017 46.4678 63.3188 46.4678 54.0816C46.4678 49.1766 48.5802 44.7609 51.9456 41.7057" stroke="#171921" stroke-width="1.024" stroke-linecap="round" stroke-linejoin="round"/>
<path d="M55.4902 39.2353C56.0631 38.9369 56.6598 38.6624 57.2804 38.4357" stroke="#171921" stroke-width="1.024" stroke-linecap="round" stroke-linejoin="round"/>
<path d="M63.2 67.7464C70.7469 67.7464 76.8648 61.6285 76.8648 54.0816C76.8648 46.5347 70.7469 40.4167 63.2 40.4167C55.6531 40.4167 49.5352 46.5347 49.5352 54.0816C49.5352 61.6285 55.6531 67.7464 63.2 67.7464Z" fill="#E5453D"/>
<path d="M69.2624 49.8927L69.3459 50.3701C69.3459 50.3701 69.4295 50.9072 69.4295 51.7068C69.4295 52.4706 69.3578 53.4969 69.0714 54.6307C68.8089 55.7167 68.3196 57.0056 67.4364 58.2707C66.5533 59.5357 65.2763 60.7888 63.4265 61.7794L63.1997 61.8987L62.973 61.7794C61.1112 60.7769 59.8462 59.5357 58.963 58.2707C58.0799 57.0056 57.5906 55.7167 57.328 54.6307C57.0416 53.4969 56.97 52.4586 56.97 51.7068C56.97 50.9072 57.0535 50.394 57.0535 50.3701L57.1371 49.8927C57.1609 49.7257 57.0535 49.5824 56.8864 49.5466C56.7194 49.5228 56.5761 49.6302 56.5403 49.7973L56.4568 50.2746C56.4568 50.2746 56.3613 50.8714 56.3613 51.7068C56.3613 52.5064 56.4329 53.5805 56.7313 54.7739C57.0177 55.9077 57.519 57.2682 58.4498 58.6048C59.3807 59.9415 60.7293 61.2543 62.6627 62.3045L63.0326 62.5074C63.1162 62.5551 63.2236 62.5551 63.3191 62.5074L63.689 62.3045C65.6224 61.2543 66.9829 59.9415 67.9019 58.6048C68.8327 57.2682 69.3459 55.9077 69.6204 54.7739C69.9188 53.5805 69.9904 52.5064 69.9904 51.7068C69.9904 50.8594 69.9068 50.3224 69.8949 50.2746L69.8114 49.7973C69.7875 49.6302 69.6323 49.5228 69.4653 49.5466C69.2982 49.5705 69.1908 49.7257 69.2146 49.8927H69.2624Z" fill="white"/>
<path d="M58.7602 49.5705L63.1878 48.2219L67.7229 49.6063C67.878 49.654 68.0451 49.5705 68.0929 49.4034C68.1406 49.2483 68.0571 49.0812 67.89 49.0334L63.2714 47.6252C63.2714 47.6252 63.152 47.6132 63.0924 47.6252L58.5692 49.0096C58.4141 49.0573 58.3186 49.2244 58.3664 49.3795C58.4141 49.5347 58.5812 49.6301 58.7363 49.5824L58.7602 49.5705Z" fill="white"/>
<path d="M56.576 49.9881L62.937 62.3879C62.9847 62.4834 63.0921 62.555 63.1995 62.555C63.3069 62.555 63.4144 62.4953 63.4621 62.3999L67.3408 55.1557L69.8231 49.9881C69.8947 49.8449 69.8231 49.6659 69.6799 49.5943C69.5367 49.5227 69.3577 49.5943 69.2861 49.7375L66.8037 54.8812L63.1995 61.6241L57.1011 49.7256C57.0295 49.5824 56.8505 49.5227 56.6953 49.5943C56.5521 49.6659 56.4924 49.8449 56.564 50.0001L56.576 49.9881Z" fill="white"/>
<path d="M59.6196 55.5137H66.6848C66.8519 55.5137 66.9831 55.3824 66.9831 55.2154C66.9831 55.0483 66.8519 54.917 66.6848 54.917H59.6196C59.4526 54.917 59.3213 55.0483 59.3213 55.2154C59.3213 55.3824 59.4526 55.5137 59.6196 55.5137Z" fill="white"/>
<path d="M31.7895 56.9129L21.9634 58.7749L28.607 93.8347L38.4331 91.9727L31.7895 56.9129Z" stroke="#171921" stroke-width="1.024" stroke-linecap="round" stroke-linejoin="round"/>
<path d="M85.9111 73.6538C79.4068 79.2153 74.466 81.9244 65.933 83.5474C57.3999 85.1705 49.917 81.2918 45.7161 81.1128C41.4914 80.9457 36.5386 81.8886 36.5386 81.8886L32.7793 62.0298L45.4536 59.631C46.8857 59.3565 48.3656 59.619 49.6187 60.359L59.2378 66.0278L70.3248 63.9273C71.9121 63.629 73.4397 64.6673 73.738 66.2545L74.2631 69.0353C75.1582 68.725 76.0175 68.4027 76.8171 68.0328C78.3447 67.3883 79.6694 66.6484 80.7316 65.801C81.6266 65.073 82.4978 64.357 83.2975 63.6648C89.1334 58.6404 92.654 54.5827 95.924 57.7811C99.6714 61.3973 92.4153 68.0805 85.923 73.6538H85.9111Z" fill="white" stroke="#171921" stroke-width="1.024" stroke-linecap="round" stroke-linejoin="round"/>
<path d="M52.3276 72.7946C52.3276 72.7946 65.1213 72.1263 74.263 69.0353" stroke="#171921" stroke-width="1.024" stroke-linecap="round" stroke-linejoin="round"/>
</g>
<defs>
<clipPath id="clip0_60_564">
<rect width="76.917" height="68.8016" fill="white" transform="translate(21 26)"/>
</clipPath>
</defs>
</svg>
