<svg width="151" height="150" viewBox="0 0 151 150" fill="none" xmlns="http://www.w3.org/2000/svg">
<path d="M41.2312 99V86.2159H49.2463V87.8763H43.1601V91.7715H48.828V93.4257H43.1601V97.3396H49.3212V99H41.2312ZM56.236 89.4119V90.9101H50.8177V89.4119H56.236ZM52.3034 99V88.3008C52.3034 87.7016 52.4345 87.2043 52.6967 86.8089C52.9588 86.4094 53.3063 86.1119 53.7391 85.9163C54.1719 85.7165 54.6421 85.6167 55.1498 85.6167C55.5244 85.6167 55.8448 85.6479 56.1112 85.7103C56.3775 85.7685 56.5752 85.8226 56.7042 85.8726L56.2672 87.3832C56.1798 87.3582 56.0675 87.3291 55.9301 87.2958C55.7928 87.2584 55.6263 87.2396 55.4307 87.2396C54.9771 87.2396 54.6525 87.352 54.457 87.5767C54.2655 87.8014 54.1698 88.126 54.1698 88.5505V99H52.3034ZM62.7248 89.4119V90.9101H57.3065V89.4119H62.7248ZM58.7922 99V88.3008C58.7922 87.7016 58.9233 87.2043 59.1855 86.8089C59.4476 86.4094 59.7951 86.1119 60.2279 85.9163C60.6607 85.7165 61.1309 85.6167 61.6386 85.6167C62.0132 85.6167 62.3336 85.6479 62.6 85.7103C62.8663 85.7685 63.064 85.8226 63.193 85.8726L62.756 87.3832C62.6686 87.3582 62.5563 87.3291 62.4189 87.2958C62.2816 87.2584 62.1151 87.2396 61.9195 87.2396C61.4659 87.2396 61.1413 87.352 60.9458 87.5767C60.7543 87.8014 60.6586 88.126 60.6586 88.5505V99H58.7922ZM68.4052 99.1935C67.4606 99.1935 66.647 98.9917 65.9645 98.588C65.2862 98.1802 64.7618 97.608 64.3915 96.8714C64.0253 96.1307 63.8422 95.263 63.8422 94.2684C63.8422 93.2863 64.0253 92.4207 64.3915 91.6716C64.7618 90.9226 65.2779 90.3379 65.9395 89.9176C66.6054 89.4972 67.3836 89.2871 68.2741 89.2871C68.8151 89.2871 69.3395 89.3766 69.8472 89.5555C70.3549 89.7344 70.8106 90.0153 71.2142 90.3982C71.6179 90.7811 71.9362 91.2784 72.1693 91.8901C72.4023 92.4977 72.5189 93.2363 72.5189 94.1061V94.7678H64.8971V93.3695H70.6899C70.6899 92.8785 70.59 92.4436 70.3903 92.0649C70.1905 91.682 69.9096 91.3803 69.5476 91.1598C69.1897 90.9392 68.7694 90.8289 68.2866 90.8289C67.7623 90.8289 67.3045 90.9579 66.9133 91.2159C66.5263 91.4698 66.2267 91.8027 66.0145 92.2147C65.8064 92.6225 65.7023 93.0657 65.7023 93.5443V94.6367C65.7023 95.2775 65.8147 95.8227 66.0394 96.2721C66.2683 96.7216 66.5867 97.0649 66.9945 97.3021C67.4023 97.5352 67.8788 97.6517 68.424 97.6517C68.7777 97.6517 69.1002 97.6017 69.3915 97.5019C69.6828 97.3978 69.9346 97.2439 70.1468 97.0399C70.359 96.836 70.5213 96.5843 70.6337 96.2846L72.4003 96.603C72.2588 97.1232 72.0049 97.5789 71.6387 97.97C71.2767 98.3571 70.821 98.6588 70.2717 98.8752C69.7265 99.0874 69.1044 99.1935 68.4052 99.1935ZM78.6284 99.1935C77.7004 99.1935 76.9014 98.9834 76.2314 98.563C75.5656 98.1386 75.0537 97.5539 74.6958 96.809C74.3379 96.0641 74.159 95.211 74.159 94.2497C74.159 93.2759 74.3421 92.4165 74.7083 91.6716C75.0745 90.9226 75.5906 90.3379 76.2564 89.9176C76.9222 89.4972 77.7067 89.2871 78.6097 89.2871C79.338 89.2871 79.9872 89.4223 80.5573 89.6928C81.1274 89.9592 81.5873 90.3337 81.9368 90.8164C82.2906 91.2992 82.5007 91.863 82.5673 92.5081H80.7508C80.6509 92.0586 80.422 91.6716 80.0642 91.347C79.7104 91.0224 79.236 90.8601 78.6409 90.8601C78.1207 90.8601 77.6651 90.9975 77.2739 91.2721C76.8869 91.5426 76.5852 91.9296 76.3688 92.4332C76.1524 92.9326 76.0442 93.5235 76.0442 94.206C76.0442 94.9051 76.1503 95.5085 76.3625 96.0162C76.5747 96.5239 76.8744 96.9172 77.2614 97.196C77.6526 97.4748 78.1124 97.6142 78.6409 97.6142C78.9947 97.6142 79.3151 97.5497 79.6022 97.4207C79.8935 97.2875 80.137 97.0982 80.3326 96.8527C80.5323 96.6071 80.6717 96.3117 80.7508 95.9663H82.5673C82.5007 96.5863 82.2989 97.1398 81.9618 97.6267C81.6247 98.1136 81.1732 98.4965 80.6072 98.7753C80.0454 99.0541 79.3858 99.1935 78.6284 99.1935ZM89.0389 89.4119V90.9101H83.8017V89.4119H89.0389ZM85.2062 87.1148H87.0726V96.1848C87.0726 96.5468 87.1267 96.8194 87.2349 97.0025C87.3431 97.1814 87.4825 97.3042 87.6531 97.3708C87.8279 97.4332 88.0173 97.4644 88.2212 97.4644C88.371 97.4644 88.5021 97.454 88.6145 97.4332C88.7268 97.4124 88.8142 97.3957 88.8766 97.3833L89.2137 98.9251C89.1055 98.9667 88.9515 99.0083 88.7518 99.0499C88.552 99.0957 88.3023 99.1207 88.0027 99.1248C87.5117 99.1332 87.0539 99.0458 86.6294 98.8627C86.205 98.6796 85.8616 98.3966 85.5995 98.0137C85.3373 97.6309 85.2062 97.1502 85.2062 96.5718V87.1148ZM91.1035 99V89.4119H92.97V99H91.1035ZM92.0461 87.9325C91.7215 87.9325 91.4427 87.8243 91.2097 87.6079C90.9808 87.3874 90.8663 87.1252 90.8663 86.8214C90.8663 86.5135 90.9808 86.2513 91.2097 86.0349C91.4427 85.8143 91.7215 85.704 92.0461 85.704C92.3707 85.704 92.6475 85.8143 92.8763 86.0349C93.1094 86.2513 93.2259 86.5135 93.2259 86.8214C93.2259 87.1252 93.1094 87.3874 92.8763 87.6079C92.6475 87.8243 92.3707 87.9325 92.0461 87.9325ZM103.683 89.4119L100.206 99H98.2088L94.7256 89.4119H96.7294L99.1576 96.7902H99.2575L101.679 89.4119H103.683ZM109.243 99.1935C108.299 99.1935 107.485 98.9917 106.803 98.588C106.124 98.1802 105.6 97.608 105.23 96.8714C104.864 96.1307 104.68 95.263 104.68 94.2684C104.68 93.2863 104.864 92.4207 105.23 91.6716C105.6 90.9226 106.116 90.3379 106.778 89.9176C107.444 89.4972 108.222 89.2871 109.112 89.2871C109.653 89.2871 110.178 89.3766 110.685 89.5555C111.193 89.7344 111.649 90.0153 112.052 90.3982C112.456 90.7811 112.774 91.2784 113.008 91.8901C113.241 92.4977 113.357 93.2363 113.357 94.1061V94.7678H105.735V93.3695H111.528C111.528 92.8785 111.428 92.4436 111.228 92.0649C111.029 91.682 110.748 91.3803 110.386 91.1598C110.028 90.9392 109.608 90.8289 109.125 90.8289C108.601 90.8289 108.143 90.9579 107.752 91.2159C107.365 91.4698 107.065 91.8027 106.853 92.2147C106.645 92.6225 106.541 93.0657 106.541 93.5443V94.6367C106.541 95.2775 106.653 95.8227 106.878 96.2721C107.107 96.7216 107.425 97.0649 107.833 97.3021C108.241 97.5352 108.717 97.6517 109.262 97.6517C109.616 97.6517 109.938 97.6017 110.23 97.5019C110.521 97.3978 110.773 97.2439 110.985 97.0399C111.197 96.836 111.36 96.5843 111.472 96.2846L113.238 96.603C113.097 97.1232 112.843 97.5789 112.477 97.97C112.115 98.3571 111.659 98.6588 111.11 98.8752C110.565 99.0874 109.943 99.1935 109.243 99.1935Z" fill="#A7A7AB"/>
<path d="M150.5 75C150.5 116.421 116.921 150 75.5 150C34.0786 150 0.5 116.421 0.5 75C0.5 33.5786 34.0786 0 75.5 0C116.921 0 150.5 33.5786 150.5 75ZM13.5644 75C13.5644 109.206 41.2939 136.936 75.5 136.936C109.706 136.936 137.436 109.206 137.436 75C137.436 40.7939 109.706 13.0644 75.5 13.0644C41.2939 13.0644 13.5644 40.7939 13.5644 75Z" fill="url(#paint0_radial_27_478)"/>
<path d="M53.065 56.5455V74H48.8548V60.483H48.7525L44.8491 62.8693V59.2216L49.1531 56.5455H53.065ZM64.1424 74.4261C62.6197 74.4261 61.3072 74.0653 60.2049 73.3438C59.1026 72.6165 58.2532 71.5739 57.6566 70.2159C57.06 68.8523 56.7646 67.2131 56.7702 65.2983C56.7759 63.3835 57.0742 61.7585 57.6651 60.4233C58.2617 59.0824 59.1083 58.0625 60.2049 57.3636C61.3072 56.6591 62.6197 56.3068 64.1424 56.3068C65.6651 56.3068 66.9776 56.6591 68.0799 57.3636C69.1879 58.0625 70.0401 59.0824 70.6367 60.4233C71.2333 61.7642 71.5288 63.3892 71.5231 65.2983C71.5231 67.2187 71.2248 68.8608 70.6282 70.2244C70.0316 71.5881 69.1822 72.6307 68.0799 73.3523C66.9833 74.0682 65.6708 74.4261 64.1424 74.4261ZM64.1424 70.9744C65.0515 70.9744 65.7873 70.5114 66.3498 69.5852C66.9123 68.6534 67.1907 67.2244 67.185 65.2983C67.185 64.0369 67.0572 62.9972 66.8015 62.179C66.5458 61.3551 66.1907 60.7415 65.7362 60.3381C65.2816 59.9347 64.7504 59.733 64.1424 59.733C63.239 59.733 62.5089 60.1903 61.9521 61.1051C61.3952 62.0142 61.114 63.4119 61.1083 65.2983C61.1026 66.5767 61.2248 67.6364 61.4748 68.4773C61.7305 69.3182 62.0884 69.946 62.5487 70.3608C63.0089 70.7699 63.5401 70.9744 64.1424 70.9744ZM81.158 74.4261C79.6353 74.4261 78.3228 74.0653 77.2205 73.3438C76.1183 72.6165 75.2688 71.5739 74.6722 70.2159C74.0756 68.8523 73.7802 67.2131 73.7859 65.2983C73.7915 63.3835 74.0898 61.7585 74.6808 60.4233C75.2773 59.0824 76.1239 58.0625 77.2205 57.3636C78.3228 56.6591 79.6353 56.3068 81.158 56.3068C82.6808 56.3068 83.9933 56.6591 85.0955 57.3636C86.2035 58.0625 87.0558 59.0824 87.6523 60.4233C88.2489 61.7642 88.5444 63.3892 88.5387 65.2983C88.5387 67.2187 88.2404 68.8608 87.6438 70.2244C87.0472 71.5881 86.1978 72.6307 85.0955 73.3523C83.9989 74.0682 82.6864 74.4261 81.158 74.4261ZM81.158 70.9744C82.0671 70.9744 82.8029 70.5114 83.3654 69.5852C83.9279 68.6534 84.2063 67.2244 84.2006 65.2983C84.2006 64.0369 84.0728 62.9972 83.8171 62.179C83.5614 61.3551 83.2063 60.7415 82.7518 60.3381C82.2972 59.9347 81.766 59.733 81.158 59.733C80.2546 59.733 79.5245 60.1903 78.9677 61.1051C78.4109 62.0142 78.1296 63.4119 78.1239 65.2983C78.1183 66.5767 78.2404 67.6364 78.4904 68.4773C78.7461 69.3182 79.104 69.946 79.5643 70.3608C80.0245 70.7699 80.5558 70.9744 81.158 70.9744ZM100.73 70.7273V69.8068C100.73 69.0909 100.884 68.429 101.191 67.821C101.503 67.2131 101.955 66.7244 102.546 66.3551C103.137 65.9858 103.858 65.8011 104.711 65.8011C105.58 65.8011 106.31 65.9858 106.901 66.3551C107.498 66.7188 107.946 67.2045 108.248 67.8125C108.554 68.4148 108.708 69.0795 108.708 69.8068V70.7273C108.708 71.4432 108.554 72.1051 108.248 72.7131C107.941 73.321 107.489 73.8097 106.892 74.179C106.296 74.5483 105.569 74.733 104.711 74.733C103.847 74.733 103.12 74.5483 102.529 74.179C101.938 73.8097 101.489 73.321 101.182 72.7131C100.881 72.1051 100.73 71.4432 100.73 70.7273ZM103.449 69.8068V70.7273C103.449 71.0909 103.537 71.4403 103.713 71.7756C103.895 72.1108 104.228 72.2784 104.711 72.2784C105.205 72.2784 105.537 72.1165 105.708 71.7926C105.878 71.4631 105.963 71.108 105.963 70.7273V69.8068C105.963 69.4261 105.881 69.0682 105.716 68.733C105.557 68.392 105.222 68.2216 104.711 68.2216C104.233 68.2216 103.904 68.392 103.722 68.733C103.54 69.0682 103.449 69.4261 103.449 69.8068ZM91.6793 60.7386V59.8182C91.6793 59.0909 91.8356 58.4261 92.1481 57.8239C92.4663 57.2159 92.9208 56.7301 93.5117 56.3665C94.1026 55.9972 94.8185 55.8125 95.6594 55.8125C96.5288 55.8125 97.2589 55.9972 97.8498 56.3665C98.4464 56.7301 98.8981 57.2159 99.2049 57.8239C99.5117 58.4261 99.6651 59.0909 99.6651 59.8182V60.7386C99.6651 61.4659 99.5089 62.1307 99.1964 62.733C98.8896 63.3352 98.4379 63.8153 97.8413 64.1733C97.2447 64.5312 96.5174 64.7102 95.6594 64.7102C94.8015 64.7102 94.0742 64.5284 93.4776 64.1648C92.8867 63.8011 92.4379 63.3182 92.131 62.7159C91.8299 62.1136 91.6793 61.4545 91.6793 60.7386ZM94.4237 59.8182V60.7386C94.4237 61.1193 94.5117 61.4744 94.6879 61.804C94.8697 62.1278 95.1935 62.2898 95.6594 62.2898C96.1594 62.2898 96.4918 62.1278 96.6566 61.804C96.8271 61.4744 96.9123 61.1193 96.9123 60.7386V59.8182C96.9123 59.4375 96.8327 59.0795 96.6737 58.7443C96.5146 58.4034 96.1765 58.233 95.6594 58.233C95.1822 58.233 94.8555 58.4062 94.6793 58.7528C94.5089 59.0994 94.4237 59.4545 94.4237 59.8182ZM92.9663 74L104.966 56.5455H107.293L95.293 74H92.9663Z" fill="#E5453D"/>
<defs>
<radialGradient id="paint0_radial_27_478" cx="0" cy="0" r="1" gradientUnits="userSpaceOnUse" gradientTransform="translate(76 75) rotate(11.5048) scale(115.317)">
<stop offset="0.444674" stop-color="#C63932"/>
<stop offset="1" stop-color="#E5453D" stop-opacity="0"/>
</radialGradient>
</defs>
</svg>
