<svg width="151" height="150" viewBox="0 0 151 150" fill="none" xmlns="http://www.w3.org/2000/svg">
<path d="M41.2313 99V86.2159H49.2463V87.8763H43.1602V91.7715H48.8281V93.4257H43.1602V97.3396H49.3213V99H41.2313ZM56.2361 89.4119V90.9101H50.8178V89.4119H56.2361ZM52.3035 99V88.3008C52.3035 87.7016 52.4346 87.2043 52.6967 86.8089C52.9589 86.4094 53.3064 86.1119 53.7392 85.9163C54.172 85.7165 54.6422 85.6167 55.1499 85.6167C55.5245 85.6167 55.8449 85.6479 56.1112 85.7103C56.3776 85.7685 56.5752 85.8226 56.7043 85.8726L56.2673 87.3832C56.1799 87.3582 56.0675 87.3291 55.9302 87.2958C55.7929 87.2584 55.6264 87.2396 55.4308 87.2396C54.9772 87.2396 54.6526 87.352 54.4571 87.5767C54.2656 87.8014 54.1699 88.126 54.1699 88.5505V99H52.3035ZM62.7249 89.4119V90.9101H57.3066V89.4119H62.7249ZM58.7923 99V88.3008C58.7923 87.7016 58.9234 87.2043 59.1855 86.8089C59.4477 86.4094 59.7952 86.1119 60.228 85.9163C60.6608 85.7165 61.131 85.6167 61.6387 85.6167C62.0133 85.6167 62.3337 85.6479 62.6 85.7103C62.8664 85.7685 63.064 85.8226 63.1931 85.8726L62.7561 87.3832C62.6687 87.3582 62.5563 87.3291 62.419 87.2958C62.2817 87.2584 62.1152 87.2396 61.9196 87.2396C61.466 87.2396 61.1414 87.352 60.9459 87.5767C60.7544 87.8014 60.6587 88.126 60.6587 88.5505V99H58.7923ZM68.4053 99.1935C67.4607 99.1935 66.6471 98.9917 65.9646 98.588C65.2863 98.1802 64.7619 97.608 64.3916 96.8714C64.0254 96.1307 63.8422 95.263 63.8422 94.2684C63.8422 93.2863 64.0254 92.4207 64.3916 91.6716C64.7619 90.9226 65.278 90.3379 65.9396 89.9176C66.6055 89.4972 67.3837 89.2871 68.2742 89.2871C68.8152 89.2871 69.3396 89.3766 69.8473 89.5555C70.355 89.7344 70.8107 90.0153 71.2143 90.3982C71.618 90.7811 71.9363 91.2784 72.1694 91.8901C72.4024 92.4977 72.519 93.2363 72.519 94.1061V94.7678H64.8972V93.3695H70.69C70.69 92.8785 70.5901 92.4436 70.3903 92.0649C70.1906 91.682 69.9097 91.3803 69.5476 91.1598C69.1898 90.9392 68.7694 90.8289 68.2867 90.8289C67.7624 90.8289 67.3046 90.9579 66.9134 91.2159C66.5264 91.4698 66.2268 91.8027 66.0145 92.2147C65.8065 92.6225 65.7024 93.0657 65.7024 93.5443V94.6367C65.7024 95.2775 65.8148 95.8227 66.0395 96.2721C66.2684 96.7216 66.5867 97.0649 66.9946 97.3021C67.4024 97.5352 67.8789 97.6517 68.424 97.6517C68.7778 97.6517 69.1003 97.6017 69.3916 97.5019C69.6829 97.3978 69.9347 97.2439 70.1469 97.0399C70.3591 96.836 70.5214 96.5843 70.6338 96.2846L72.4003 96.603C72.2589 97.1232 72.005 97.5789 71.6388 97.97C71.2767 98.3571 70.8211 98.6588 70.2717 98.8752C69.7266 99.0874 69.1044 99.1935 68.4053 99.1935ZM78.6285 99.1935C77.7005 99.1935 76.9015 98.9834 76.2315 98.563C75.5657 98.1386 75.0538 97.5539 74.6959 96.809C74.338 96.0641 74.1591 95.211 74.1591 94.2497C74.1591 93.2759 74.3422 92.4165 74.7084 91.6716C75.0746 90.9226 75.5906 90.3379 76.2565 89.9176C76.9223 89.4972 77.7068 89.2871 78.6098 89.2871C79.3381 89.2871 79.9873 89.4223 80.5574 89.6928C81.1275 89.9592 81.5874 90.3337 81.9369 90.8164C82.2906 91.2992 82.5008 91.863 82.5674 92.5081H80.7509C80.651 92.0586 80.4221 91.6716 80.0642 91.347C79.7105 91.0224 79.2361 90.8601 78.641 90.8601C78.1208 90.8601 77.6651 90.9975 77.274 91.2721C76.887 91.5426 76.5852 91.9296 76.3688 92.4332C76.1524 92.9326 76.0442 93.5235 76.0442 94.206C76.0442 94.9051 76.1504 95.5085 76.3626 96.0162C76.5748 96.5239 76.8745 96.9172 77.2615 97.196C77.6527 97.4748 78.1125 97.6142 78.641 97.6142C78.9947 97.6142 79.3152 97.5497 79.6023 97.4207C79.8936 97.2875 80.1371 97.0982 80.3327 96.8527C80.5324 96.6071 80.6718 96.3117 80.7509 95.9663H82.5674C82.5008 96.5863 82.299 97.1398 81.9619 97.6267C81.6248 98.1136 81.1733 98.4965 80.6073 98.7753C80.0455 99.0541 79.3859 99.1935 78.6285 99.1935ZM89.039 89.4119V90.9101H83.8018V89.4119H89.039ZM85.2063 87.1148H87.0727V96.1848C87.0727 96.5468 87.1268 96.8194 87.235 97.0025C87.3432 97.1814 87.4826 97.3042 87.6532 97.3708C87.828 97.4332 88.0174 97.4644 88.2213 97.4644C88.3711 97.4644 88.5022 97.454 88.6145 97.4332C88.7269 97.4124 88.8143 97.3957 88.8767 97.3833L89.2138 98.9251C89.1056 98.9667 88.9516 99.0083 88.7519 99.0499C88.5521 99.0957 88.3024 99.1207 88.0028 99.1248C87.5118 99.1332 87.054 99.0458 86.6295 98.8627C86.205 98.6796 85.8617 98.3966 85.5995 98.0137C85.3374 97.6309 85.2063 97.1502 85.2063 96.5718V87.1148ZM91.1036 99V89.4119H92.9701V99H91.1036ZM92.0462 87.9325C91.7216 87.9325 91.4428 87.8243 91.2098 87.6079C90.9809 87.3874 90.8664 87.1252 90.8664 86.8214C90.8664 86.5135 90.9809 86.2513 91.2098 86.0349C91.4428 85.8143 91.7216 85.704 92.0462 85.704C92.3708 85.704 92.6475 85.8143 92.8764 86.0349C93.1095 86.2513 93.226 86.5135 93.226 86.8214C93.226 87.1252 93.1095 87.3874 92.8764 87.6079C92.6475 87.8243 92.3708 87.9325 92.0462 87.9325ZM103.683 89.4119L100.206 99H98.2089L94.7257 89.4119H96.7294L99.1577 96.7902H99.2575L101.68 89.4119H103.683ZM109.244 99.1935C108.299 99.1935 107.485 98.9917 106.803 98.588C106.125 98.1802 105.6 97.608 105.23 96.8714C104.864 96.1307 104.68 95.263 104.68 94.2684C104.68 93.2863 104.864 92.4207 105.23 91.6716C105.6 90.9226 106.116 90.3379 106.778 89.9176C107.444 89.4972 108.222 89.2871 109.112 89.2871C109.653 89.2871 110.178 89.3766 110.686 89.5555C111.193 89.7344 111.649 90.0153 112.053 90.3982C112.456 90.7811 112.775 91.2784 113.008 91.8901C113.241 92.4977 113.357 93.2363 113.357 94.1061V94.7678H105.735V93.3695H111.528C111.528 92.8785 111.428 92.4436 111.229 92.0649C111.029 91.682 110.748 91.3803 110.386 91.1598C110.028 90.9392 109.608 90.8289 109.125 90.8289C108.601 90.8289 108.143 90.9579 107.752 91.2159C107.365 91.4698 107.065 91.8027 106.853 92.2147C106.645 92.6225 106.541 93.0657 106.541 93.5443V94.6367C106.541 95.2775 106.653 95.8227 106.878 96.2721C107.107 96.7216 107.425 97.0649 107.833 97.3021C108.241 97.5352 108.717 97.6517 109.262 97.6517C109.616 97.6517 109.939 97.6017 110.23 97.5019C110.521 97.3978 110.773 97.2439 110.985 97.0399C111.197 96.836 111.36 96.5843 111.472 96.2846L113.239 96.603C113.097 97.1232 112.843 97.5789 112.477 97.97C112.115 98.3571 111.659 98.6588 111.11 98.8752C110.565 99.0874 109.943 99.1935 109.244 99.1935Z" fill="#A7A7AB"/>
<path d="M53.6926 67.0966L41.3517 72.2784V68.4091L49.4994 65.358L49.3801 65.554V65.1023L49.4994 65.2898L41.3517 62.2472V58.3693L53.6926 63.5511V67.0966ZM68.7799 56.3068C69.7345 56.3068 70.6464 56.4631 71.5157 56.7756C72.385 57.0824 73.1606 57.5739 73.8424 58.25C74.5242 58.9205 75.0612 59.804 75.4532 60.9006C75.8453 61.9972 76.0413 63.3352 76.0413 64.9148C76.047 66.3693 75.8765 67.6733 75.5299 68.8267C75.1833 69.9744 74.6862 70.9517 74.0384 71.7585C73.3964 72.5653 72.6237 73.1818 71.7203 73.608C70.8169 74.0284 69.8083 74.2386 68.6947 74.2386C67.4674 74.2386 66.385 74.0028 65.4475 73.5312C64.5157 73.054 63.7686 72.4119 63.2061 71.6051C62.6492 70.7983 62.3169 69.8949 62.2089 68.8949H66.3595C66.4901 69.4744 66.7657 69.9119 67.1862 70.2074C67.6066 70.4972 68.1095 70.642 68.6947 70.642C69.7629 70.642 70.5612 70.179 71.0896 69.2528C71.618 68.3267 71.8822 67.0682 71.8822 65.4773H71.7799C71.5356 66 71.189 66.4489 70.7401 66.8239C70.297 67.1989 69.7828 67.4858 69.1975 67.6847C68.6123 67.8835 67.9958 67.983 67.3481 67.983C66.3026 67.983 65.3794 67.7443 64.5782 67.267C63.7828 66.7898 63.1578 66.1335 62.7032 65.2983C62.2544 64.4631 62.0271 63.5085 62.0214 62.4347C62.0157 61.2301 62.297 60.1676 62.8651 59.2472C63.4333 58.321 64.2259 57.5994 65.243 57.0824C66.26 56.5597 67.439 56.3011 68.7799 56.3068ZM68.8055 59.5455C68.2828 59.5455 67.8169 59.6676 67.4078 59.9119C67.0044 60.1562 66.6862 60.4858 66.4532 60.9006C66.2203 61.3153 66.1066 61.7812 66.1123 62.2983C66.118 62.8153 66.2345 63.2812 66.4617 63.696C66.6947 64.1108 67.01 64.4403 67.4078 64.6847C67.8112 64.929 68.2714 65.0511 68.7884 65.0511C69.1748 65.0511 69.5328 64.9801 69.8623 64.8381C70.1919 64.696 70.4788 64.5 70.7231 64.25C70.9674 63.9943 71.1578 63.6989 71.2941 63.3636C71.4362 63.0284 71.5044 62.6705 71.4987 62.2898C71.493 61.7841 71.3737 61.3239 71.1407 60.9091C70.9078 60.4943 70.5867 60.1648 70.1776 59.9205C69.7742 59.6705 69.3169 59.5455 68.8055 59.5455ZM85.5761 74.4261C84.0534 74.4261 82.7409 74.0653 81.6386 73.3438C80.5363 72.6165 79.6869 71.5739 79.0903 70.2159C78.4937 68.8523 78.1982 67.2131 78.2039 65.2983C78.2096 63.3835 78.5079 61.7585 79.0988 60.4233C79.6954 59.0824 80.542 58.0625 81.6386 57.3636C82.7409 56.6591 84.0534 56.3068 85.5761 56.3068C87.0988 56.3068 88.4113 56.6591 89.5136 57.3636C90.6215 58.0625 91.4738 59.0824 92.0704 60.4233C92.667 61.7642 92.9624 63.3892 92.9568 65.2983C92.9568 67.2187 92.6585 68.8608 92.0619 70.2244C91.4653 71.5881 90.6159 72.6307 89.5136 73.3523C88.417 74.0682 87.1045 74.4261 85.5761 74.4261ZM85.5761 70.9744C86.4852 70.9744 87.221 70.5114 87.7835 69.5852C88.346 68.6534 88.6244 67.2244 88.6187 65.2983C88.6187 64.0369 88.4909 62.9972 88.2352 62.179C87.9795 61.3551 87.6244 60.7415 87.1698 60.3381C86.7153 59.9347 86.184 59.733 85.5761 59.733C84.6727 59.733 83.9426 60.1903 83.3857 61.1051C82.8289 62.0142 82.5477 63.4119 82.542 65.2983C82.5363 66.5767 82.6585 67.6364 82.9085 68.4773C83.1642 69.3182 83.5221 69.946 83.9823 70.3608C84.4426 70.7699 84.9738 70.9744 85.5761 70.9744ZM105.149 70.7273V69.8068C105.149 69.0909 105.302 68.429 105.609 67.821C105.921 67.2131 106.373 66.7244 106.964 66.3551C107.555 65.9858 108.276 65.8011 109.129 65.8011C109.998 65.8011 110.728 65.9858 111.319 66.3551C111.916 66.7188 112.364 67.2045 112.666 67.8125C112.972 68.4148 113.126 69.0795 113.126 69.8068V70.7273C113.126 71.4432 112.972 72.1051 112.666 72.7131C112.359 73.321 111.907 73.8097 111.31 74.179C110.714 74.5483 109.987 74.733 109.129 74.733C108.265 74.733 107.538 74.5483 106.947 74.179C106.356 73.8097 105.907 73.321 105.6 72.7131C105.299 72.1051 105.149 71.4432 105.149 70.7273ZM107.867 69.8068V70.7273C107.867 71.0909 107.955 71.4403 108.131 71.7756C108.313 72.1108 108.646 72.2784 109.129 72.2784C109.623 72.2784 109.955 72.1165 110.126 71.7926C110.296 71.4631 110.381 71.108 110.381 70.7273V69.8068C110.381 69.4261 110.299 69.0682 110.134 68.733C109.975 68.392 109.64 68.2216 109.129 68.2216C108.651 68.2216 108.322 68.392 108.14 68.733C107.958 69.0682 107.867 69.4261 107.867 69.8068ZM96.0974 60.7386V59.8182C96.0974 59.0909 96.2536 58.4261 96.5661 57.8239C96.8843 57.2159 97.3389 56.7301 97.9298 56.3665C98.5207 55.9972 99.2366 55.8125 100.078 55.8125C100.947 55.8125 101.677 55.9972 102.268 56.3665C102.864 56.7301 103.316 57.2159 103.623 57.8239C103.93 58.4261 104.083 59.0909 104.083 59.8182V60.7386C104.083 61.4659 103.927 62.1307 103.614 62.733C103.308 63.3352 102.856 63.8153 102.259 64.1733C101.663 64.5312 100.935 64.7102 100.078 64.7102C99.2196 64.7102 98.4923 64.5284 97.8957 64.1648C97.3048 63.8011 96.8559 63.3182 96.5491 62.7159C96.248 62.1136 96.0974 61.4545 96.0974 60.7386ZM98.8417 59.8182V60.7386C98.8417 61.1193 98.9298 61.4744 99.1059 61.804C99.2877 62.1278 99.6116 62.2898 100.078 62.2898C100.578 62.2898 100.91 62.1278 101.075 61.804C101.245 61.4744 101.33 61.1193 101.33 60.7386V59.8182C101.33 59.4375 101.251 59.0795 101.092 58.7443C100.933 58.4034 100.595 58.233 100.078 58.233C99.6002 58.233 99.2735 58.4062 99.0974 58.7528C98.9269 59.0994 98.8417 59.4545 98.8417 59.8182ZM97.3843 74L109.384 56.5455H111.711L99.711 74H97.3843Z" fill="#E5453D"/>
<path fill-rule="evenodd" clip-rule="evenodd" d="M26.7914 17.9696C40.3705 6.37188 57.6423 0 75.5 0V13.0644C60.7529 13.0644 46.4898 18.3263 35.276 27.9038C24.0623 37.4812 16.6339 50.7456 14.3269 65.3111C12.02 79.8766 14.9859 94.7873 22.6912 107.361C30.3965 119.935 42.3356 129.347 56.3609 133.904C70.3861 138.461 85.5772 137.865 99.2018 132.221C112.826 126.578 123.99 116.258 130.685 103.118C137.38 89.9785 139.167 74.881 135.724 60.5414C132.69 47.9043 125.771 36.5866 116.004 28.1446L113.06 31.7107L107.442 12.7793L127.095 14.71L124.323 18.0676C136.268 28.3106 144.731 42.0921 148.428 57.4916C152.597 74.8559 150.433 93.1379 142.326 109.049C134.218 124.961 120.7 137.457 104.201 144.291C87.7029 151.125 69.3074 151.848 52.3237 146.329C35.34 140.811 20.8826 129.414 11.552 114.187C2.22136 98.9612 -1.37017 80.9053 1.42339 63.2674C4.21696 45.6295 13.2123 29.5672 26.7914 17.9696Z" fill="url(#paint0_radial_27_442)"/>
<defs>
<radialGradient id="paint0_radial_27_442" cx="0" cy="0" r="1" gradientUnits="userSpaceOnUse" gradientTransform="translate(75.5001 77.5) rotate(17.5993) scale(97.5665 97.5667)">
<stop offset="0.0104167" stop-color="#E5453D"/>
<stop offset="1" stop-color="#E5453D" stop-opacity="0.17"/>
</radialGradient>
</defs>
</svg>
