<svg width="151" height="150" viewBox="0 0 151 150" fill="none" xmlns="http://www.w3.org/2000/svg">
<path d="M41.2312 99V86.2159H49.2462V87.8763H43.1601V91.7715H48.828V93.4257H43.1601V97.3396H49.3211V99H41.2312ZM56.236 89.4119V90.9101H50.8177V89.4119H56.236ZM52.3034 99V88.3008C52.3034 87.7016 52.4344 87.2043 52.6966 86.8089C52.9588 86.4094 53.3063 86.1119 53.7391 85.9163C54.1719 85.7165 54.6421 85.6167 55.1498 85.6167C55.5244 85.6167 55.8448 85.6479 56.1111 85.7103C56.3775 85.7685 56.5751 85.8226 56.7041 85.8726L56.2672 87.3832C56.1798 87.3582 56.0674 87.3291 55.9301 87.2958C55.7928 87.2584 55.6263 87.2396 55.4307 87.2396C54.9771 87.2396 54.6525 87.352 54.4569 87.5767C54.2655 87.8014 54.1698 88.126 54.1698 88.5505V99H52.3034ZM62.7248 89.4119V90.9101H57.3065V89.4119H62.7248ZM58.7922 99V88.3008C58.7922 87.7016 58.9232 87.2043 59.1854 86.8089C59.4476 86.4094 59.7951 86.1119 60.2279 85.9163C60.6607 85.7165 61.1309 85.6167 61.6386 85.6167C62.0132 85.6167 62.3336 85.6479 62.5999 85.7103C62.8663 85.7685 63.0639 85.8226 63.1929 85.8726L62.756 87.3832C62.6686 87.3582 62.5562 87.3291 62.4189 87.2958C62.2816 87.2584 62.1151 87.2396 61.9195 87.2396C61.4659 87.2396 61.1413 87.352 60.9457 87.5767C60.7543 87.8014 60.6586 88.126 60.6586 88.5505V99H58.7922ZM68.4052 99.1935C67.4605 99.1935 66.647 98.9917 65.9645 98.588C65.2862 98.1802 64.7618 97.608 64.3914 96.8714C64.0252 96.1307 63.8421 95.263 63.8421 94.2684C63.8421 93.2863 64.0252 92.4207 64.3914 91.6716C64.7618 90.9226 65.2778 90.3379 65.9395 89.9176C66.6054 89.4972 67.3836 89.2871 68.2741 89.2871C68.8151 89.2871 69.3395 89.3766 69.8472 89.5555C70.3549 89.7344 70.8105 90.0153 71.2142 90.3982C71.6179 90.7811 71.9362 91.2784 72.1693 91.8901C72.4023 92.4977 72.5188 93.2363 72.5188 94.1061V94.7678H64.8971V93.3695H70.6899C70.6899 92.8785 70.59 92.4436 70.3902 92.0649C70.1905 91.682 69.9096 91.3803 69.5475 91.1598C69.1896 90.9392 68.7693 90.8289 68.2866 90.8289C67.7622 90.8289 67.3045 90.9579 66.9133 91.2159C66.5263 91.4698 66.2267 91.8027 66.0144 92.2147C65.8063 92.6225 65.7023 93.0657 65.7023 93.5443V94.6367C65.7023 95.2775 65.8147 95.8227 66.0394 96.2721C66.2683 96.7216 66.5866 97.0649 66.9945 97.3021C67.4023 97.5352 67.8788 97.6517 68.4239 97.6517C68.7776 97.6517 69.1002 97.6017 69.3915 97.5019C69.6828 97.3978 69.9345 97.2439 70.1468 97.0399C70.359 96.836 70.5213 96.5843 70.6337 96.2846L72.4002 96.603C72.2587 97.1232 72.0049 97.5789 71.6387 97.97C71.2766 98.3571 70.8209 98.6588 70.2716 98.8752C69.7265 99.0874 69.1043 99.1935 68.4052 99.1935ZM78.6284 99.1935C77.7004 99.1935 76.9014 98.9834 76.2314 98.563C75.5656 98.1386 75.0537 97.5539 74.6958 96.809C74.3379 96.0641 74.159 95.211 74.159 94.2497C74.159 93.2759 74.3421 92.4165 74.7083 91.6716C75.0745 90.9226 75.5905 90.3379 76.2564 89.9176C76.9222 89.4972 77.7066 89.2871 78.6097 89.2871C79.3379 89.2871 79.9871 89.4223 80.5573 89.6928C81.1274 89.9592 81.5872 90.3337 81.9368 90.8164C82.2905 91.2992 82.5007 91.863 82.5673 92.5081H80.7508C80.6509 92.0586 80.422 91.6716 80.0641 91.347C79.7104 91.0224 79.236 90.8601 78.6409 90.8601C78.1207 90.8601 77.665 90.9975 77.2738 91.2721C76.8868 91.5426 76.5851 91.9296 76.3687 92.4332C76.1523 92.9326 76.0441 93.5235 76.0441 94.206C76.0441 94.9051 76.1502 95.5085 76.3625 96.0162C76.5747 96.5239 76.8743 96.9172 77.2614 97.196C77.6525 97.4748 78.1124 97.6142 78.6409 97.6142C78.9946 97.6142 79.3151 97.5497 79.6022 97.4207C79.8935 97.2875 80.137 97.0982 80.3325 96.8527C80.5323 96.6071 80.6717 96.3117 80.7508 95.9663H82.5673C82.5007 96.5863 82.2988 97.1398 81.9618 97.6267C81.6247 98.1136 81.1732 98.4965 80.6072 98.7753C80.0454 99.0541 79.3858 99.1935 78.6284 99.1935ZM89.0389 89.4119V90.9101H83.8017V89.4119H89.0389ZM85.2062 87.1148H87.0726V96.1848C87.0726 96.5468 87.1267 96.8194 87.2349 97.0025C87.3431 97.1814 87.4825 97.3042 87.6531 97.3708C87.8279 97.4332 88.0172 97.4644 88.2212 97.4644C88.371 97.4644 88.5021 97.454 88.6144 97.4332C88.7268 97.4124 88.8142 97.3957 88.8766 97.3833L89.2137 98.9251C89.1055 98.9667 88.9515 99.0083 88.7518 99.0499C88.552 99.0957 88.3023 99.1207 88.0027 99.1248C87.5116 99.1332 87.0539 99.0458 86.6294 98.8627C86.2049 98.6796 85.8616 98.3966 85.5994 98.0137C85.3373 97.6309 85.2062 97.1502 85.2062 96.5718V87.1148ZM91.1035 99V89.4119H92.9699V99H91.1035ZM92.0461 87.9325C91.7215 87.9325 91.4427 87.8243 91.2096 87.6079C90.9807 87.3874 90.8663 87.1252 90.8663 86.8214C90.8663 86.5135 90.9807 86.2513 91.2096 86.0349C91.4427 85.8143 91.7215 85.704 92.0461 85.704C92.3707 85.704 92.6474 85.8143 92.8763 86.0349C93.1093 86.2513 93.2259 86.5135 93.2259 86.8214C93.2259 87.1252 93.1093 87.3874 92.8763 87.6079C92.6474 87.8243 92.3707 87.9325 92.0461 87.9325ZM103.683 89.4119L100.206 99H98.2087L94.7256 89.4119H96.7293L99.1576 96.7902H99.2574L101.679 89.4119H103.683ZM109.243 99.1935C108.299 99.1935 107.485 98.9917 106.803 98.588C106.124 98.1802 105.6 97.608 105.23 96.8714C104.863 96.1307 104.68 95.263 104.68 94.2684C104.68 93.2863 104.863 92.4207 105.23 91.6716C105.6 90.9226 106.116 90.3379 106.778 89.9176C107.444 89.4972 108.222 89.2871 109.112 89.2871C109.653 89.2871 110.178 89.3766 110.685 89.5555C111.193 89.7344 111.649 90.0153 112.052 90.3982C112.456 90.7811 112.774 91.2784 113.008 91.8901C113.241 92.4977 113.357 93.2363 113.357 94.1061V94.7678H105.735V93.3695H111.528C111.528 92.8785 111.428 92.4436 111.228 92.0649C111.029 91.682 110.748 91.3803 110.386 91.1598C110.028 90.9392 109.608 90.8289 109.125 90.8289C108.6 90.8289 108.143 90.9579 107.752 91.2159C107.365 91.4698 107.065 91.8027 106.853 92.2147C106.645 92.6225 106.541 93.0657 106.541 93.5443V94.6367C106.541 95.2775 106.653 95.8227 106.878 96.2721C107.107 96.7216 107.425 97.0649 107.833 97.3021C108.241 97.5352 108.717 97.6517 109.262 97.6517C109.616 97.6517 109.938 97.6017 110.23 97.5019C110.521 97.3978 110.773 97.2439 110.985 97.0399C111.197 96.836 111.36 96.5843 111.472 96.2846L113.238 96.603C113.097 97.1232 112.843 97.5789 112.477 97.97C112.115 98.3571 111.659 98.6588 111.11 98.8752C110.565 99.0874 109.943 99.1935 109.243 99.1935Z" fill="#A7A7AB"/>
<path d="M54.3135 67.0966L41.9726 72.2784V68.4091L50.1204 65.358L50.001 65.554V65.1023L50.1204 65.2898L41.9726 62.2472V58.3693L54.3135 63.5511V67.0966ZM69.4009 56.3068C70.3554 56.3068 71.2674 56.4631 72.1367 56.7756C73.006 57.0824 73.7816 57.5739 74.4634 58.25C75.1452 58.9205 75.6821 59.804 76.0742 60.9006C76.4662 61.9972 76.6623 63.3352 76.6623 64.9148C76.6679 66.3693 76.4975 67.6733 76.1509 68.8267C75.8043 69.9744 75.3071 70.9517 74.6594 71.7585C74.0174 72.5653 73.2446 73.1818 72.3412 73.608C71.4378 74.0284 70.4293 74.2386 69.3157 74.2386C68.0884 74.2386 67.006 74.0028 66.0685 73.5312C65.1367 73.054 64.3895 72.4119 63.827 71.6051C63.2702 70.7983 62.9378 69.8949 62.8299 68.8949H66.9804C67.1111 69.4744 67.3867 69.9119 67.8071 70.2074C68.2276 70.4972 68.7304 70.642 69.3157 70.642C70.3838 70.642 71.1821 70.179 71.7106 69.2528C72.239 68.3267 72.5032 67.0682 72.5032 65.4773H72.4009C72.1566 66 71.81 66.4489 71.3611 66.8239C70.9179 67.1989 70.4037 67.4858 69.8185 67.6847C69.2333 67.8835 68.6168 67.983 67.9691 67.983C66.9236 67.983 66.0003 67.7443 65.1992 67.267C64.4037 66.7898 63.7787 66.1335 63.3242 65.2983C62.8753 64.4631 62.6481 63.5085 62.6424 62.4347C62.6367 61.2301 62.9179 60.1676 63.4861 59.2472C64.0543 58.321 64.8469 57.5994 65.864 57.0824C66.881 56.5597 68.06 56.3011 69.4009 56.3068ZM69.4265 59.5455C68.9037 59.5455 68.4378 59.6676 68.0287 59.9119C67.6253 60.1562 67.3071 60.4858 67.0742 60.9006C66.8412 61.3153 66.7276 61.7812 66.7333 62.2983C66.739 62.8153 66.8554 63.2812 67.0827 63.696C67.3157 64.1108 67.631 64.4403 68.0287 64.6847C68.4321 64.929 68.8924 65.0511 69.4094 65.0511C69.7958 65.0511 70.1537 64.9801 70.4833 64.8381C70.8128 64.696 71.0998 64.5 71.3441 64.25C71.5884 63.9943 71.7787 63.6989 71.9151 63.3636C72.0571 63.0284 72.1253 62.6705 72.1196 62.2898C72.114 61.7841 71.9946 61.3239 71.7617 60.9091C71.5287 60.4943 71.2077 60.1648 70.7986 59.9205C70.3952 59.6705 69.9378 59.5455 69.4265 59.5455ZM85.6601 74.2386C84.3874 74.2386 83.2567 74.0085 82.2681 73.5483C81.2794 73.0881 80.4982 72.4545 79.9243 71.6477C79.3561 70.8409 79.0607 69.9148 79.038 68.8693H83.1289C83.163 69.5114 83.4243 70.0284 83.913 70.4205C84.4016 70.8068 84.984 71 85.6601 71C86.1885 71 86.6573 70.8835 87.0664 70.6506C87.4755 70.4176 87.7965 70.0909 88.0294 69.6705C88.2624 69.2443 88.376 68.7557 88.3704 68.2045C88.376 67.642 88.2596 67.1506 88.0209 66.7301C87.788 66.3097 87.4641 65.983 87.0493 65.75C86.6402 65.5114 86.1686 65.392 85.6346 65.392C85.1289 65.3864 84.6488 65.4972 84.1942 65.7244C83.7454 65.9517 83.4044 66.2614 83.1715 66.6534L79.4471 65.9545L80.2056 56.5455H91.4044V59.946H83.6743L83.2738 64.0625H83.376C83.6658 63.5795 84.1317 63.1818 84.7738 62.8693C85.4215 62.5511 86.1573 62.392 86.9811 62.392C88.0266 62.392 88.9584 62.6364 89.7766 63.125C90.6005 63.608 91.2482 64.2784 91.7198 65.1364C92.1971 65.9943 92.4357 66.9773 92.4357 68.0852C92.4357 69.2841 92.1516 70.3466 91.5834 71.2727C91.0209 72.1989 90.2311 72.9261 89.2141 73.4545C88.2027 73.9773 87.0181 74.2386 85.6601 74.2386ZM104.527 70.7273V69.8068C104.527 69.0909 104.681 68.429 104.988 67.821C105.3 67.2131 105.752 66.7244 106.343 66.3551C106.934 65.9858 107.655 65.8011 108.507 65.8011C109.377 65.8011 110.107 65.9858 110.698 66.3551C111.294 66.7188 111.743 67.2045 112.044 67.8125C112.351 68.4148 112.505 69.0795 112.505 69.8068V70.7273C112.505 71.4432 112.351 72.1051 112.044 72.7131C111.738 73.321 111.286 73.8097 110.689 74.179C110.093 74.5483 109.365 74.733 108.507 74.733C107.644 74.733 106.917 74.5483 106.326 74.179C105.735 73.8097 105.286 73.321 104.979 72.7131C104.678 72.1051 104.527 71.4432 104.527 70.7273ZM107.246 69.8068V70.7273C107.246 71.0909 107.334 71.4403 107.51 71.7756C107.692 72.1108 108.024 72.2784 108.507 72.2784C109.002 72.2784 109.334 72.1165 109.505 71.7926C109.675 71.4631 109.76 71.108 109.76 70.7273V69.8068C109.76 69.4261 109.678 69.0682 109.513 68.733C109.354 68.392 109.019 68.2216 108.507 68.2216C108.03 68.2216 107.701 68.392 107.519 68.733C107.337 69.0682 107.246 69.4261 107.246 69.8068ZM95.4762 60.7386V59.8182C95.4762 59.0909 95.6324 58.4261 95.9449 57.8239C96.2631 57.2159 96.7177 56.7301 97.3086 56.3665C97.8995 55.9972 98.6154 55.8125 99.4563 55.8125C100.326 55.8125 101.056 55.9972 101.647 56.3665C102.243 56.7301 102.695 57.2159 103.002 57.8239C103.309 58.4261 103.462 59.0909 103.462 59.8182V60.7386C103.462 61.4659 103.306 62.1307 102.993 62.733C102.686 63.3352 102.235 63.8153 101.638 64.1733C101.042 64.5312 100.314 64.7102 99.4563 64.7102C98.5983 64.7102 97.8711 64.5284 97.2745 64.1648C96.6836 63.8011 96.2347 63.3182 95.9279 62.7159C95.6267 62.1136 95.4762 61.4545 95.4762 60.7386ZM98.2205 59.8182V60.7386C98.2205 61.1193 98.3086 61.4744 98.4847 61.804C98.6665 62.1278 98.9904 62.2898 99.4563 62.2898C99.9563 62.2898 100.289 62.1278 100.453 61.804C100.624 61.4744 100.709 61.1193 100.709 60.7386V59.8182C100.709 59.4375 100.63 59.0795 100.47 58.7443C100.311 58.4034 99.9733 58.233 99.4563 58.233C98.979 58.233 98.6523 58.4062 98.4762 58.7528C98.3057 59.0994 98.2205 59.4545 98.2205 59.8182ZM96.7631 74L108.763 56.5455H111.09L99.0898 74H96.7631Z" fill="#E5453D"/>
<path fill-rule="evenodd" clip-rule="evenodd" d="M24.5899 19.9258C38.4485 7.11508 56.6274 0 75.5 0V13.0644C59.9148 13.0644 44.9026 18.9401 33.458 29.5193C22.0135 40.0985 14.9781 54.6035 13.7553 70.1406C12.5325 85.6777 17.2122 101.105 26.8609 113.344C36.5096 125.583 50.4178 133.735 65.8111 136.173C81.2044 138.611 96.951 135.156 109.91 126.498C122.868 117.839 132.086 104.613 135.724 89.4586C139.363 74.304 137.154 58.3349 129.539 44.7369C122.725 32.5698 112.03 23.1014 99.2369 17.7934L97.6448 22.0941L86.1059 6.06871L105.298 1.41991L103.775 5.534C119.475 11.9238 132.603 23.4715 140.937 38.3534C150.159 54.8197 152.833 74.1572 148.428 92.5084C144.022 110.86 132.86 126.875 117.168 137.36C101.476 147.845 82.4077 152.029 63.7674 149.077C45.1272 146.124 28.2851 136.253 16.6012 121.432C4.9173 106.611 -0.749542 87.93 0.731186 69.1156C2.21191 50.3011 10.7314 32.7365 24.5899 19.9258Z" fill="url(#paint0_radial_27_460)"/>
<defs>
<radialGradient id="paint0_radial_27_460" cx="0" cy="0" r="1" gradientUnits="userSpaceOnUse" gradientTransform="translate(75.5 75.0001) rotate(44.4884) scale(79.199 79.199)">
<stop stop-color="#E5453D"/>
<stop offset="1" stop-color="#E5453D" stop-opacity="0.31"/>
</radialGradient>
</defs>
</svg>
