<svg width="45" height="45" viewBox="0 0 45 45" fill="none" xmlns="http://www.w3.org/2000/svg">
<path d="M22.7628 37.9692C22.722 37.9692 22.6816 37.9611 22.6439 37.9454C22.6063 37.9297 22.572 37.9067 22.5431 37.8776C22.5143 37.8486 22.4914 37.8142 22.4758 37.7762C22.4602 37.7383 22.4521 37.6976 22.4521 37.6566V34.3069C22.4538 34.2251 22.4873 34.1472 22.5453 34.09C22.6034 34.0327 22.6815 34.0007 22.7628 34.0007C22.8436 34.0007 22.921 34.0329 22.9781 34.0904C23.0351 34.1478 23.0672 34.2257 23.0672 34.3069V37.6566C23.068 37.6973 23.0608 37.7378 23.0459 37.7757C23.0309 37.8136 23.0087 37.8481 22.9803 37.8773C22.952 37.9064 22.9181 37.9295 22.8808 37.9453C22.8435 37.9611 22.8033 37.9692 22.7628 37.9692Z" fill="#171921"/>
<path d="M22.7628 11.0062C22.7223 11.007 22.6821 10.9997 22.6444 10.9847C22.6068 10.9697 22.5725 10.9473 22.5435 10.9188C22.5146 10.8902 22.4916 10.8562 22.4759 10.8186C22.4602 10.781 22.4521 10.7407 22.4521 10.6999V7.35027C22.4521 7.26736 22.4849 7.18784 22.5431 7.12921C22.6014 7.07058 22.6804 7.03764 22.7628 7.03764C22.8033 7.03763 22.8435 7.04576 22.8808 7.06154C22.9181 7.07733 22.952 7.10047 22.9803 7.12959C23.0087 7.1587 23.0309 7.19322 23.0459 7.23112C23.0608 7.26901 23.068 7.30952 23.0672 7.35027V10.6999C23.068 10.7404 23.0608 10.7806 23.0458 10.8181C23.0308 10.8557 23.0084 10.8898 22.98 10.9184C22.9516 10.947 22.9177 10.9696 22.8803 10.9846C22.843 10.9997 22.803 11.0071 22.7628 11.0062Z" fill="#171921"/>
<path d="M32.889 16.8568C32.8351 16.8573 32.7821 16.8434 32.7353 16.8165C32.6885 16.7896 32.6497 16.7507 32.6227 16.7037C32.5831 16.6314 32.5728 16.5465 32.5941 16.4668C32.6154 16.3871 32.6665 16.3188 32.7368 16.2762L35.6536 14.5855C35.7245 14.5459 35.8079 14.5358 35.8861 14.5572C35.9642 14.5787 36.031 14.63 36.0721 14.7003C36.1117 14.7726 36.122 14.8575 36.1007 14.9372C36.0794 15.0169 36.0282 15.0852 35.958 15.1278L33.0475 16.8185C32.9985 16.844 32.9441 16.8571 32.889 16.8568Z" fill="#171921"/>
<path d="M9.67741 30.3125C9.60951 30.3136 9.54323 30.2919 9.48905 30.2507C9.43487 30.2095 9.39594 30.1513 9.37844 30.0853C9.36095 30.0192 9.36589 29.9492 9.39249 29.8864C9.41909 29.8235 9.46581 29.7714 9.52523 29.7383L12.4103 28.0667C12.4811 28.0271 12.5646 28.017 12.6427 28.0385C12.7209 28.0599 12.7877 28.1113 12.8288 28.1815C12.8684 28.2538 12.8787 28.3387 12.8574 28.4184C12.8361 28.4982 12.7849 28.5665 12.7146 28.609L9.82958 30.2743C9.78256 30.2989 9.73042 30.312 9.67741 30.3125Z" fill="#171921"/>
<path d="M35.8771 30.319C35.8053 30.3202 35.7355 30.2953 35.6805 30.2489L32.8335 28.6027C32.7632 28.5602 32.7121 28.4919 32.6908 28.4122C32.6695 28.3325 32.6798 28.2475 32.7194 28.1753C32.7616 28.1044 32.83 28.0532 32.9096 28.0328C32.9892 28.0125 33.0735 28.0247 33.1442 28.0668L36.0039 29.764C36.051 29.7906 36.0901 29.8295 36.1169 29.8767C36.1437 29.9239 36.1572 29.9776 36.1561 30.0319C36.1517 30.1056 36.1211 30.1752 36.0698 30.2279C36.0186 30.2807 35.9501 30.313 35.8771 30.319Z" fill="#171921"/>
<path d="M12.6314 16.8506C12.5783 16.8509 12.5259 16.8377 12.4792 16.8124L9.56244 15.1279C9.49097 15.0865 9.43879 15.0182 9.41739 14.938C9.39599 14.8578 9.40711 14.7724 9.44831 14.7005C9.48951 14.6285 9.55742 14.576 9.6371 14.5545C9.71677 14.533 9.80166 14.5442 9.87313 14.5856L12.7836 16.2764C12.843 16.3095 12.8897 16.3616 12.9163 16.4244C12.9429 16.4873 12.9478 16.5573 12.9303 16.6233C12.9129 16.6893 12.8739 16.7476 12.8197 16.7888C12.7656 16.83 12.6993 16.8517 12.6314 16.8506Z" fill="#171921"/>
<path d="M10.0687 10.6553C10.0141 10.655 9.96049 10.6408 9.91281 10.614C9.86513 10.5872 9.82495 10.5488 9.79605 10.5021C9.75642 10.4299 9.74617 10.345 9.76745 10.2653C9.78873 10.1855 9.83989 10.1172 9.91018 10.0747L18.5209 5.0789C18.5556 5.05758 18.5942 5.04361 18.6344 5.03786C18.6747 5.0321 18.7156 5.03467 18.7548 5.04543C18.794 5.05619 18.8306 5.07489 18.8623 5.1004C18.8941 5.1259 18.9203 5.15767 18.9394 5.19375C18.96 5.22848 18.9735 5.26696 18.9792 5.30698C18.9849 5.34699 18.9827 5.38774 18.9727 5.42689C18.9627 5.46604 18.945 5.5028 18.9208 5.53506C18.8966 5.56732 18.8663 5.59443 18.8316 5.61484L10.2209 10.6234C10.1742 10.6483 10.1214 10.6594 10.0687 10.6553Z" fill="#171921"/>
<path d="M26.8524 39.9721C26.7971 39.9718 26.7428 39.9569 26.695 39.9289C26.6472 39.9009 26.6074 39.8609 26.5798 39.8126C26.5405 39.7413 26.5304 39.6574 26.5517 39.5787C26.573 39.5001 26.6241 39.4329 26.6939 39.3915L35.33 34.3766C35.4006 34.336 35.4844 34.3253 35.5629 34.3468C35.6413 34.3684 35.7081 34.4204 35.7485 34.4915C35.7888 34.5625 35.7995 34.6468 35.7781 34.7258C35.7567 34.8048 35.705 34.872 35.6343 34.9126L26.9982 39.9275C26.9547 39.9557 26.9042 39.9712 26.8524 39.9721Z" fill="#171921"/>
<path d="M39.5734 27.85C39.5329 27.8508 39.4926 27.8435 39.455 27.8285C39.4173 27.8135 39.383 27.7911 39.3541 27.7626C39.3251 27.734 39.3021 27.7 39.2864 27.6624C39.2707 27.6248 39.2627 27.5845 39.2627 27.5437V17.4182C39.2627 17.3353 39.2954 17.2558 39.3537 17.1971C39.412 17.1385 39.491 17.1056 39.5734 17.1056C39.6139 17.1056 39.654 17.1137 39.6914 17.1295C39.7287 17.1453 39.7625 17.1684 39.7909 17.1975C39.8192 17.2266 39.8415 17.2611 39.8564 17.299C39.8713 17.3369 39.8786 17.3774 39.8777 17.4182V27.5182C39.8823 27.5607 39.8777 27.6037 39.8644 27.6443C39.8511 27.6849 39.8292 27.7222 39.8004 27.7536C39.7716 27.785 39.7364 27.8099 39.6973 27.8265C39.6581 27.8431 39.6159 27.8511 39.5734 27.85Z" fill="#171921"/>
<path d="M5.94717 27.8497C5.90667 27.8506 5.8664 27.8433 5.82874 27.8283C5.79108 27.8132 5.75678 27.7908 5.72785 27.7623C5.69891 27.7338 5.67593 27.6997 5.66024 27.6621C5.64455 27.6246 5.63647 27.5842 5.63647 27.5434V17.4179C5.63647 17.3333 5.66986 17.2522 5.72932 17.1924C5.78877 17.1325 5.86943 17.0989 5.95351 17.0989C6.0376 17.0989 6.11825 17.1325 6.17771 17.1924C6.23716 17.2522 6.27055 17.3333 6.27055 17.4179V27.5179C6.2743 27.5619 6.26855 27.6062 6.25371 27.6477C6.23888 27.6892 6.21531 27.7271 6.18459 27.7586C6.15388 27.7901 6.11679 27.8145 6.07581 27.8303C6.03483 27.846 5.99093 27.8526 5.94717 27.8497Z" fill="#171921"/>
<path d="M18.6732 39.9727C18.6192 39.9737 18.5661 39.9581 18.5211 39.9281L9.8786 34.9195C9.80713 34.8781 9.75496 34.8098 9.73355 34.7296C9.71215 34.6494 9.72327 34.564 9.76447 34.4921C9.80568 34.4201 9.87359 34.3676 9.95326 34.3461C10.0329 34.3246 10.1178 34.3358 10.1893 34.3772L18.8254 39.3921C18.8613 39.4113 18.8928 39.4377 18.9182 39.4697C18.9435 39.5016 18.9621 39.5384 18.9728 39.5779C18.9835 39.6173 18.9861 39.6585 18.9804 39.699C18.9746 39.7395 18.9607 39.7783 18.9395 39.8132C18.9134 39.8614 18.8749 39.9016 18.8281 39.9296C18.7812 39.9577 18.7277 39.9726 18.6732 39.9727Z" fill="#171921"/>
<path d="M35.4505 10.6551C35.3965 10.6553 35.3437 10.6398 35.2983 10.6104L26.6939 5.61462C26.6241 5.57327 26.573 5.5061 26.5517 5.42744C26.5304 5.34877 26.5405 5.26484 26.5798 5.19353C26.5995 5.15724 26.6263 5.12535 26.6586 5.09979C26.691 5.07422 26.7281 5.0555 26.7678 5.04477C26.8075 5.03404 26.849 5.03151 26.8897 5.03734C26.9304 5.04317 26.9694 5.05723 27.0046 5.07868L35.609 10.0745C35.6795 10.1169 35.7304 10.1857 35.7506 10.2658C35.7708 10.3459 35.7586 10.4308 35.7168 10.5019C35.6894 10.5485 35.6504 10.587 35.6037 10.6139C35.557 10.6407 35.5042 10.6549 35.4505 10.6551Z" fill="#171921"/>
<path d="M39.5722 35.2383C38.9891 35.2383 38.419 35.0643 37.9342 34.7383C37.4493 34.4123 37.0714 33.949 36.8482 33.4069C36.625 32.8648 36.5667 32.2682 36.6804 31.6927C36.7942 31.1172 37.075 30.5886 37.4874 30.1737C37.8997 29.7587 38.4251 29.4762 38.997 29.3617C39.569 29.2472 40.1618 29.306 40.7006 29.5305C41.2393 29.7551 41.6998 30.1353 42.0238 30.6232C42.3478 31.1111 42.5207 31.6847 42.5207 32.2715C42.519 33.0578 42.2078 33.8115 41.6552 34.3675C41.1027 34.9235 40.3537 35.2367 39.5722 35.2383ZM39.5722 29.9236C39.1105 29.9223 38.6587 30.0589 38.2741 30.3162C37.8896 30.5734 37.5895 30.9396 37.4119 31.3686C37.2343 31.7975 37.1872 32.2698 37.2765 32.7257C37.3659 33.1815 37.5876 33.6005 37.9137 33.9295C38.2398 34.2585 38.6555 34.4828 39.1083 34.5739C39.5611 34.665 40.0306 34.6189 40.4574 34.4413C40.8841 34.2638 41.2489 33.9629 41.5056 33.5766C41.7623 33.1904 41.8993 32.7362 41.8993 32.2715C41.8993 31.6499 41.6543 31.0537 41.2181 30.6135C40.7819 30.1734 40.19 29.9253 39.5722 29.9236Z" fill="white"/>
<path d="M22.7631 45C22.1794 45.0012 21.6085 44.8281 21.1227 44.5026C20.6368 44.1771 20.2579 43.7138 20.034 43.1714C19.81 42.6291 19.7511 42.032 19.8647 41.4559C19.9783 40.8798 20.2592 40.3506 20.6719 39.9353C21.0847 39.52 21.6106 39.2373 22.1831 39.123C22.7556 39.0087 23.349 39.068 23.888 39.2934C24.4271 39.5187 24.8875 39.9 25.211 40.3888C25.5345 40.8777 25.7065 41.4522 25.7052 42.0395C25.7036 42.8242 25.3931 43.5762 24.8417 44.131C24.2903 44.6859 23.5429 44.9983 22.7631 45ZM22.7631 39.6916C22.3014 39.6903 21.8496 39.8269 21.465 40.0842C21.0805 40.3414 20.7804 40.7076 20.6028 41.1366C20.4253 41.5655 20.3782 42.0378 20.4675 42.4937C20.5568 42.9495 20.7785 43.3685 21.1046 43.6975C21.4306 44.0265 21.8464 44.2508 22.2992 44.3419C22.752 44.433 23.2215 44.3869 23.6483 44.2093C24.075 44.0318 24.4398 43.7309 24.6965 43.3446C24.9531 42.9584 25.0902 42.5042 25.0902 42.0395C25.0902 41.4179 24.8452 40.8217 24.409 40.3815C23.9728 39.9414 23.3809 39.6933 22.7631 39.6916Z" fill="white"/>
<path d="M22.7644 5.93361C22.1821 5.92983 21.6139 5.75262 21.1315 5.42433C20.6492 5.09604 20.2742 4.63138 20.054 4.08894C19.8337 3.5465 19.778 2.95058 19.894 2.37634C20.0099 1.80209 20.2922 1.27524 20.7053 0.862233C21.1184 0.449226 21.6437 0.168556 22.2152 0.0556225C22.7866 -0.0573107 23.3784 0.00255516 23.9161 0.227659C24.4537 0.452764 24.9131 0.833025 25.2363 1.32049C25.5594 1.80797 25.7318 2.38081 25.7319 2.96678C25.7319 3.358 25.655 3.74537 25.5056 4.10658C25.3563 4.46778 25.1374 4.7957 24.8616 5.07145C24.5857 5.3472 24.2585 5.56533 23.8986 5.71329C23.5386 5.86126 23.1532 5.93613 22.7644 5.93361ZM22.7644 0.625211C22.3026 0.625212 21.8512 0.763081 21.4674 1.02136C21.0835 1.27964 20.7844 1.64672 20.608 2.07612C20.4316 2.50552 20.3858 2.97794 20.4763 3.43357C20.5669 3.8892 20.7897 4.30755 21.1167 4.63566C21.4436 4.96378 21.86 5.18689 22.3131 5.27676C22.7661 5.36663 23.2355 5.31923 23.6618 5.14054C24.088 4.96185 24.452 4.65991 24.7076 4.27296C24.9633 3.886 25.099 3.43143 25.0978 2.96678C25.0961 2.34517 24.8495 1.7496 24.4121 1.31065C23.9747 0.871706 23.3822 0.625208 22.7644 0.625211Z" fill="white"/>
<path d="M39.5722 15.6319C38.9891 15.6319 38.419 15.4579 37.9342 15.1319C37.4493 14.8059 37.0714 14.3426 36.8482 13.8005C36.625 13.2583 36.5667 12.6618 36.6804 12.0863C36.7942 11.5108 37.075 10.9821 37.4874 10.5672C37.8997 10.1523 38.4251 9.86974 38.997 9.75526C39.569 9.64079 40.1618 9.69955 40.7006 9.9241C41.2393 10.1487 41.6998 10.5289 42.0238 11.0168C42.3478 11.5047 42.5207 12.0783 42.5207 12.6651C42.519 13.4514 42.2078 14.2051 41.6552 14.7611C41.1027 15.3171 40.3537 15.6303 39.5722 15.6319ZM39.5722 10.3235C39.1102 10.3223 38.6582 10.4591 38.2735 10.7166C37.8888 10.9741 37.5887 11.3407 37.4113 11.77C37.2339 12.1993 37.1872 12.6719 37.2771 13.128C37.3669 13.584 37.5892 14.003 37.9159 14.3317C38.2426 14.6605 38.659 14.8842 39.1122 14.9746C39.5655 15.065 40.0352 15.018 40.4618 14.8395C40.8884 14.661 41.2528 14.359 41.5087 13.9719C41.7646 13.5849 41.9005 13.13 41.8993 12.6651C41.8993 12.0441 41.6541 11.4485 41.2177 11.0094C40.7813 10.5702 40.1894 10.3235 39.5722 10.3235Z" fill="white"/>
<path d="M5.94846 35.2383C5.36531 35.2383 4.79527 35.0643 4.3104 34.7383C3.82553 34.4123 3.44762 33.949 3.22446 33.4069C3.00129 32.8648 2.94288 32.2682 3.05665 31.6927C3.17042 31.1172 3.45125 30.5886 3.8636 30.1737C4.27595 29.7587 4.8013 29.4762 5.37324 29.3617C5.94519 29.2472 6.53802 29.306 7.07678 29.5305C7.61554 29.7551 8.07602 30.1353 8.4 30.6232C8.72398 31.1111 8.89692 31.6847 8.89692 32.2715C8.89525 33.0578 8.58407 33.8115 8.03149 34.3675C7.47891 34.9235 6.72992 35.2367 5.94846 35.2383ZM5.94846 29.9236C5.48695 29.9236 5.03582 30.0613 4.65209 30.3193C4.26837 30.5773 3.96931 30.944 3.7927 31.373C3.61609 31.802 3.56988 32.2741 3.65992 32.7296C3.74995 33.185 3.97219 33.6034 4.29852 33.9318C4.62485 34.2601 5.04062 34.4837 5.49326 34.5743C5.94589 34.6649 6.41503 34.6184 6.8414 34.4407C7.26777 34.263 7.63221 33.9621 7.88861 33.576C8.145 33.1898 8.28185 32.7359 8.28185 32.2715C8.28185 31.9632 8.22151 31.6579 8.10425 31.373C7.98698 31.0881 7.8151 30.8293 7.59843 30.6113C7.38175 30.3932 7.1245 30.2203 6.8414 30.1023C6.5583 29.9843 6.25488 29.9236 5.94846 29.9236Z" fill="white"/>
<path d="M5.94846 15.6319C5.36531 15.6319 4.79527 15.4579 4.3104 15.1319C3.82553 14.8059 3.44762 14.3426 3.22446 13.8005C3.00129 13.2583 2.94288 12.6618 3.05665 12.0863C3.17042 11.5108 3.45125 10.9821 3.8636 10.5672C4.27595 10.1523 4.8013 9.86974 5.37324 9.75526C5.94519 9.64079 6.53802 9.69955 7.07678 9.9241C7.61554 10.1487 8.07602 10.5289 8.4 11.0168C8.72398 11.5047 8.89692 12.0783 8.89692 12.6651C8.89525 13.4514 8.58407 14.2051 8.03149 14.7611C7.47891 15.3171 6.72992 15.6303 5.94846 15.6319ZM5.94846 10.3235C5.48668 10.3235 5.0353 10.4614 4.65143 10.7197C4.26757 10.978 3.9685 11.345 3.79208 11.7744C3.61566 12.2038 3.56983 12.6763 3.66038 13.1319C3.75093 13.5875 3.9738 14.0059 4.30077 14.334C4.62773 14.6621 5.04407 14.8852 5.49713 14.9751C5.95018 15.065 6.41955 15.0175 6.84581 14.8389C7.27207 14.6602 7.63607 14.3582 7.8917 13.9713C8.14734 13.5843 8.2831 13.1297 8.28185 12.6651C8.28185 12.3571 8.22147 12.0521 8.10413 11.7675C7.98679 11.483 7.8148 11.2246 7.59804 11.0071C7.38128 10.7896 7.124 10.6172 6.84094 10.4999C6.55787 10.3826 6.25458 10.3227 5.94846 10.3235Z" fill="white"/>
<path d="M15.2612 14.6174V24.5707C15.2601 25.5764 15.5111 26.5661 15.991 27.4483C16.4709 28.3305 17.1642 29.0766 18.0068 29.6175L22.4961 32.5014C22.6677 32.6109 22.8667 32.669 23.0699 32.669C23.2731 32.669 23.4721 32.6109 23.6437 32.5014L28.1266 29.6175C28.9712 29.0782 29.6664 28.3326 30.1476 27.4502C30.6287 26.5678 30.8802 25.5772 30.8785 24.5707V14.6174L23.3647 13.2457C23.1549 13.21 22.9405 13.21 22.7307 13.2457L15.2612 14.6174Z" fill="#E5453D"/>
<path d="M5.94924 15.3509C7.42354 15.3509 8.6187 14.1483 8.6187 12.6648C8.6187 11.1813 7.42354 9.97871 5.94924 9.97871C4.47494 9.97871 3.27979 11.1813 3.27979 12.6648C3.27979 14.1483 4.47494 15.3509 5.94924 15.3509Z" fill="#171921"/>
<path d="M22.7576 5.65925C24.2319 5.65925 25.427 4.45665 25.427 2.97315C25.427 1.48966 24.2319 0.287048 22.7576 0.287048C21.2833 0.287048 20.0881 1.48966 20.0881 2.97315C20.0881 4.45665 21.2833 5.65925 22.7576 5.65925Z" fill="#171921"/>
<path d="M39.573 15.3509C41.0473 15.3509 42.2425 14.1483 42.2425 12.6648C42.2425 11.1813 41.0473 9.97871 39.573 9.97871C38.0987 9.97871 36.9036 11.1813 36.9036 12.6648C36.9036 14.1483 38.0987 15.3509 39.573 15.3509Z" fill="#171921"/>
<path d="M39.573 34.9574C41.0473 34.9574 42.2425 33.7547 42.2425 32.2713C42.2425 30.7878 41.0473 29.5852 39.573 29.5852C38.0987 29.5852 36.9036 30.7878 36.9036 32.2713C36.9036 33.7547 38.0987 34.9574 39.573 34.9574Z" fill="#171921"/>
<path d="M22.7576 44.7256C24.2319 44.7256 25.427 43.523 25.427 42.0395C25.427 40.556 24.2319 39.3534 22.7576 39.3534C21.2833 39.3534 20.0881 40.556 20.0881 42.0395C20.0881 43.523 21.2833 44.7256 22.7576 44.7256Z" fill="#171921"/>
<path d="M5.94924 34.9574C7.42354 34.9574 8.6187 33.7547 8.6187 32.2713C8.6187 30.7878 7.42354 29.5852 5.94924 29.5852C4.47494 29.5852 3.27979 30.7878 3.27979 32.2713C3.27979 33.7547 4.47494 34.9574 5.94924 34.9574Z" fill="#171921"/>
<path d="M25.9335 20.1618H20.2014V25.7829H25.9335V20.1618Z" stroke="white" stroke-width="0.484031" stroke-linecap="round" stroke-linejoin="round"/>
<path d="M23.0996 17.1056H23.0362C22.5883 17.1072 22.1593 17.2875 21.8432 17.6068C21.5271 17.9261 21.3496 18.3584 21.3496 18.8091V20.1936H24.7926V18.8155C24.7926 18.3631 24.6145 17.9291 24.2971 17.6086C23.9798 17.2881 23.5492 17.1072 23.0996 17.1056V17.1056Z" stroke="white" stroke-width="0.484031" stroke-linecap="round" stroke-linejoin="round"/>
<path d="M23.0696 22.1079V23.6519" stroke="white" stroke-width="0.484031" stroke-linecap="round" stroke-linejoin="round"/>
</svg>
