<svg
    width="38"
    height="39"
    viewBox="0 0 38 39"
    fill="none"
    xmlns="http://www.w3.org/2000/svg"
  >
    <g clipPath="url(#clip0_224_908)">
      <path
        d="M24.1133 2.40839C29.9503 4.22356 34.4942 8.96318 36.0424 14.907"
        stroke="#1A1B26"
        strokeWidth="1.8"
        strokeLinecap="square"
        strokeLinejoin="round"
      />
      <path
        d="M1.83301 14.1061C3.64818 8.2691 8.3878 3.72524 14.3316 2.177"
        stroke="#1A1B26"
        strokeWidth="1.8"
        strokeLinecap="square"
        strokeLinejoin="round"
      />
      <path
        d="M13.5307 36.3806C7.69366 34.5654 3.1498 29.8258 1.60156 23.882"
        stroke="#1A1B26"
        strokeWidth="1.8"
        strokeLinecap="square"
        strokeLinejoin="round"
      />
      <path
        d="M35.8111 24.6828C33.9959 30.5198 29.2563 35.0637 23.3125 36.6119"
        stroke="#1A1B26"
        strokeWidth="1.8"
        strokeLinecap="square"
        strokeLinejoin="round"
      />
      <path
        d="M19.2194 3.21511C20.1072 3.21511 20.8269 2.49538 20.8269 1.60756C20.8269 0.719727 20.1072 0 19.2194 0C18.3315 0 17.6118 0.719727 17.6118 1.60756C17.6118 2.49538 18.3315 3.21511 19.2194 3.21511Z"
        fill="#E5443C"
      />
      <path
        d="M1.60756 20.9931C2.49538 20.9931 3.21511 20.2734 3.21511 19.3856C3.21511 18.4977 2.49538 17.778 1.60756 17.778C0.719727 17.778 0 18.4977 0 19.3856C0 20.2734 0.719727 20.9931 1.60756 20.9931Z"
        fill="#E5443C"
      />
      <path
        d="M36.3922 20.9931C37.2801 20.9931 37.9998 20.2734 37.9998 19.3856C37.9998 18.4977 37.2801 17.778 36.3922 17.778C35.5044 17.778 34.7847 18.4977 34.7847 19.3856C34.7847 20.2734 35.5044 20.9931 36.3922 20.9931Z"
        fill="#E5443C"
      />
      <path
        d="M19.2194 38.7771C20.1072 38.7771 20.8269 38.0573 20.8269 37.1695C20.8269 36.2817 20.1072 35.562 19.2194 35.562C18.3315 35.562 17.6118 36.2817 17.6118 37.1695C17.6118 38.0573 18.3315 38.7771 19.2194 38.7771Z"
        fill="#E5443C"
      />
      <path
        d="M24.3743 4.78708L23.271 2.12957L25.9285 1.03217"
        stroke="#010101"
        strokeWidth="1.2"
        strokeLinecap="round"
        strokeLinejoin="round"
      />
      <path
        d="M4.21743 13.6375L1.62517 14.8951L0.373535 12.3029"
        stroke="#010101"
        strokeWidth="1.2"
        strokeLinecap="round"
        strokeLinejoin="round"
      />
      <path
        d="M13.0798 34.1027L14.3314 36.695L11.7451 37.9466"
        stroke="#010101"
        strokeWidth="1.2"
        strokeLinecap="round"
        strokeLinejoin="round"
      />
      <path
        d="M33.4087 25.4955L35.995 24.2379L37.2526 26.8242"
        stroke="#010101"
        strokeWidth="1.2"
        strokeLinecap="round"
        strokeLinejoin="round"
      />
      <path
        d="M27.9748 24.5642L19.5099 9.90633C19.3142 9.56228 18.9582 9.3606 18.5608 9.3606C18.1634 9.3606 17.8134 9.56228 17.6117 9.90633L9.14682 24.5642C8.95106 24.9082 8.95106 25.3175 9.14682 25.6556C9.34257 25.9997 9.69849 26.2014 10.0959 26.2014H27.0257C27.4231 26.2014 27.7731 25.9997 27.9748 25.6556C28.1705 25.3116 28.1705 24.9023 27.9748 24.5642V24.5642Z"
        stroke="#1A1B26"
        strokeLinecap="round"
        strokeLinejoin="round"
      />
      <path
        d="M19.8004 15.4171L19.7766 15.6662L19.2309 21.266L19.219 21.3787C19.1716 21.699 18.8928 21.9422 18.5606 21.9422C18.2284 21.9422 17.9674 21.7109 17.9081 21.4083L17.8962 21.2778L17.3445 15.6722L17.3208 15.4171C17.3208 14.7349 17.8784 14.1773 18.5606 14.1773C19.2427 14.1773 19.8004 14.7349 19.8004 15.4171Z"
        fill="#E5443C"
      />
      <path
        d="M19.3673 23.3777C19.3673 23.8226 19.0055 24.1785 18.5606 24.1785C18.1157 24.1785 17.7598 23.8226 17.7598 23.3777C17.7598 22.9328 18.1216 22.571 18.5606 22.571C18.9995 22.571 19.3673 22.9328 19.3673 23.3777Z"
        fill="#E5443C"
      />
    </g>
    <defs>
      <clipPath id="clip0_224_908">
        <rect width="38" height="38.7771" fill="white" />
      </clipPath>
    </defs>
  </svg>