<svg
    width="42"
    height="42"
    viewBox="4 4 40 40"
    fill="none"
    xmlns="http://www.w3.org/2000/svg"
  >
    <g clipPath="url(#clip0_333_11088)">
      <path
        d="M37.7195 28.1566C39.9164 29.4243 39.9321 31.4794 37.7431 32.755L27.1998 38.881C25.0187 40.1487 21.4597 40.1487 19.2707 38.881L8.65653 32.755C6.45968 31.4873 6.44393 29.4322 8.63291 28.1566L19.1762 22.0306C21.3573 20.7629 24.9085 20.7629 27.1053 22.0306L37.7195 28.1566Z"
        stroke="#302E2E"
        strokeWidth="1.5"
        strokeMiterlimit="10"
      />
      <path
        d="M37.7195 21.6131C39.9164 22.8809 39.9242 24.9439 37.7431 26.2116L27.1998 32.3376C25.0187 33.6053 21.4597 33.6053 19.2707 32.3376L8.65653 26.2116C6.45968 24.9439 6.44393 22.8887 8.63291 21.6131L19.1762 15.4872C21.3573 14.2194 24.9085 14.2194 27.1053 15.4872L37.7195 21.6131Z"
        stroke="#323232"
        strokeWidth="1.5"
        strokeMiterlimit="10"
      />
      <path
        d="M37.7195 15.0778C39.9164 16.3455 39.9321 18.4006 37.751 19.6683L27.2077 25.7943C25.0266 27.062 21.4676 27.062 19.2786 25.7943L8.65653 19.6683C6.45968 18.4006 6.44393 16.3455 8.63291 15.0699L19.1762 8.9439C21.3573 7.68406 24.9085 7.68406 27.1054 8.95177L37.7195 15.0778Z"
        fill="#E5453D"
        stroke="white"
        strokeWidth="1.5"
        strokeMiterlimit="10"
      />
      <path
        d="M30.9793 17.1724C30.9793 17.1724 30.9399 17.1724 30.9242 17.1802H30.9163C30.9163 17.1802 30.9635 17.1802 30.9872 17.1724H30.9793Z"
        fill="white"
      />
      <path
        d="M25.7037 18.1881C25.7037 18.1881 25.7431 18.2117 25.7588 18.2275C25.8139 18.2905 25.7982 18.3692 25.7037 18.4165C25.5935 18.4795 25.4123 18.4795 25.3021 18.4165L25.1525 18.3298L20.8612 15.8495L20.5541 15.6684C20.4438 15.6054 20.4438 15.5031 20.5541 15.4401C20.6643 15.3771 20.8454 15.3771 20.9557 15.4401L21.058 15.4952L25.7037 18.1802V18.1881Z"
        fill="white"
      />
      <path
        d="M22.5541 12.2511C22.4754 12.2354 22.3887 12.2511 22.3179 12.2669C22.4045 12.2354 22.499 12.2354 22.5856 12.259C22.5777 12.259 22.562 12.259 22.5541 12.259V12.2511Z"
        fill="white"
      />
      <path
        d="M28.2391 13.9991C28.2391 13.9991 28.2785 14.0227 28.2863 14.0385L30.4517 16.3771C30.5304 16.4558 30.4753 16.5582 30.3415 16.5976C30.2312 16.629 30.0895 16.6212 30.0029 16.5661C29.9871 16.5582 29.9635 16.5424 29.9556 16.5267L27.8375 14.2275L23.9556 13.0306C23.9556 13.0306 23.9084 13.0149 23.8848 12.9991C23.7982 12.9519 23.7745 12.8731 23.8375 12.8023C23.9084 12.7235 24.0816 12.692 24.2155 12.7393L28.1761 13.9598C28.1761 13.9598 28.2234 13.9755 28.2391 13.9913V13.9991Z"
        fill="white"
      />
      <path
        d="M18.1919 19.6369C18.1919 19.6369 18.1761 19.6999 18.1919 19.7235L18.0816 19.5109C17.4753 18.3535 17.4517 17.322 17.7194 16.4401C17.9871 15.5582 18.5541 14.8338 19.121 14.2826C19.7194 13.6999 20.3887 13.2511 20.9242 12.944C21.4596 12.6369 21.9005 12.4401 21.9399 12.4243L22.31 12.2747C22.2627 12.2905 22.2234 12.322 22.2076 12.3613L21.9399 12.8574C21.7746 12.9361 21.5698 13.0464 21.3257 13.1881C20.8139 13.4873 20.1761 13.9125 19.6092 14.4637C19.0659 14.9913 18.5305 15.6763 18.2785 16.5109C18.0501 17.2668 18.0501 18.1487 18.4832 19.1409L18.1997 19.6527L18.1919 19.6369Z"
        fill="white"
      />
      <path
        d="M30.9793 17.6448C30.9793 17.6448 30.6486 17.9125 30.0895 18.2354C29.5305 18.5582 28.7824 18.9361 27.7903 19.2826C26.8454 19.6133 25.5856 19.944 24.0738 20.1015C22.5541 20.259 20.7667 20.2511 18.7667 19.9046L18.4202 19.8417C18.4596 19.8417 18.5068 19.8417 18.5462 19.8417L19.4675 19.6763C21.1604 19.9204 22.6643 19.9204 23.9714 19.7787C25.4124 19.6291 26.6013 19.3141 27.499 18.9991C28.4517 18.6684 29.184 18.2983 29.6958 17.9991C29.9163 17.8653 30.0974 17.755 30.2313 17.6606L31.1131 17.4795C31.1761 17.4637 31.2234 17.4401 31.2549 17.4165L30.9872 17.6369L30.9793 17.6448Z"
        fill="white"
      />
      <path
        d="M22.6722 12.2905C22.6722 12.2905 22.7352 12.3377 22.7509 12.3692C22.7509 12.3928 22.7588 12.4007 22.7509 12.4086L21.058 15.5031L20.9557 15.4479C20.8454 15.385 20.6643 15.385 20.5541 15.4479C20.4438 15.5109 20.4438 15.6133 20.5541 15.6763L20.8612 15.8574L18.8848 19.4401L25.1525 18.3377L25.3021 18.4243C25.4124 18.4873 25.5935 18.4873 25.7037 18.4243C25.7903 18.3692 25.8139 18.2983 25.7588 18.2354H25.8139L30.9084 17.1881C30.9084 17.1881 30.9557 17.1802 30.9793 17.1802C31.1131 17.1802 31.1683 17.2039 31.2155 17.2275C31.31 17.3377 31.3021 17.385 31.2627 17.4243C31.2234 17.4637 31.1761 17.4873 31.1131 17.4952L30.2313 17.6763L26.0029 18.5346L19.4675 19.6842L18.5462 19.8495C18.5068 19.8495 18.4596 19.8574 18.4202 19.8495C18.3651 19.8495 18.31 19.8259 18.2627 19.8023C18.2234 19.7787 18.1998 19.755 18.1919 19.7235C18.184 19.692 18.184 19.6684 18.1919 19.6369L18.4753 19.1251L21.932 12.8495L22.1998 12.3535C22.1998 12.3535 22.2549 12.2905 22.31 12.2668C22.3966 12.2354 22.4753 12.2275 22.562 12.2432C22.625 12.259 22.6564 12.2668 22.6722 12.2826V12.2905Z"
        fill="white"
      />
    </g>
    <defs>
      <clipPath id="clip0_333_11088">
        <rect width="48" height="48" rx="8" fill="white" />
      </clipPath>
    </defs>
  </svg>