<svg width="120" height="123" viewBox="0 0 120 123" fill="none" xmlns="http://www.w3.org/2000/svg">
<g clip-path="url(#clip0_60_591)">
<path d="M76.1411 7.60815C94.5648 13.3366 108.916 28.2994 113.809 47.0811" stroke="#171921" stroke-width="1.28" stroke-linecap="round" stroke-linejoin="round"/>
<path d="M5.78809 44.545C11.5166 26.1214 26.4793 11.7703 45.261 6.8772" stroke="#171921" stroke-width="1.28" stroke-linecap="round" stroke-linejoin="round"/>
<path d="M42.7401 114.898C24.3164 109.17 9.96535 94.2069 5.07227 75.4252" stroke="#171921" stroke-width="1.28" stroke-linecap="round" stroke-linejoin="round"/>
<path d="M113.078 77.9463C107.349 96.37 92.3867 110.721 73.605 115.614" stroke="#171921" stroke-width="1.28" stroke-linecap="round" stroke-linejoin="round"/>
<path d="M59.0721 10.1442C61.8733 10.1442 64.1442 7.87335 64.1442 5.0721C64.1442 2.27086 61.8733 0 59.0721 0C56.2709 0 54 2.27086 54 5.0721C54 7.87335 56.2709 10.1442 59.0721 10.1442Z" fill="#171921"/>
<path d="M5.0721 66.1442C7.87335 66.1442 10.1442 63.8734 10.1442 61.0721C10.1442 58.2709 7.87335 56 5.0721 56C2.27086 56 0 58.2709 0 61.0721C0 63.8734 2.27086 66.1442 5.0721 66.1442Z" fill="#171921"/>
<path d="M114.928 66.1442C117.729 66.1442 120 63.8734 120 61.0721C120 58.2709 117.729 56 114.928 56C112.127 56 109.856 58.2709 109.856 61.0721C109.856 63.8734 112.127 66.1442 114.928 66.1442Z" fill="#171921"/>
<path d="M59.0721 122.447C61.8733 122.447 64.1442 120.176 64.1442 117.374C64.1442 114.573 61.8733 112.302 59.0721 112.302C56.2709 112.302 54 114.573 54 117.374C54 120.176 56.2709 122.447 59.0721 122.447Z" fill="#171921"/>
<g clip-path="url(#clip1_60_591)">
<path d="M87.0011 75.992H66.512C63.5314 75.992 61.2183 73.5234 61.5931 70.7348L63.3669 57.4868C64.0983 52.0011 69.0537 47.8868 74.9326 47.8868H78.1326C83.8651 47.8868 88.7474 51.8183 89.6434 57.1486L91.9017 70.5977C92.3771 73.432 90.0549 75.992 87.0103 75.992H87.0011Z" fill="white" stroke="black" stroke-width="1.46286" stroke-miterlimit="10"/>
<path d="M76.7151 51.032C82.0575 51.032 86.3883 46.7011 86.3883 41.3588C86.3883 36.0165 82.0575 31.6857 76.7151 31.6857C71.3728 31.6857 67.042 36.0165 67.042 41.3588C67.042 46.7011 71.3728 51.032 76.7151 51.032Z" fill="white" stroke="black" stroke-width="1.46286" stroke-miterlimit="10"/>
<path d="M52.1392 75.992H31.6409C28.6603 75.992 26.3472 73.5234 26.722 70.7348L28.4958 57.4868C29.2272 52.0011 34.1826 47.8868 40.0615 47.8868H43.2615C48.994 47.8868 53.8763 51.8183 54.7723 57.1486L57.0306 70.5977C57.506 73.432 55.1838 75.992 52.1392 75.992Z" fill="white" stroke="black" stroke-width="1.46286" stroke-miterlimit="10"/>
<path d="M41.8445 51.032C47.1869 51.032 51.5177 46.7011 51.5177 41.3588C51.5177 36.0165 47.1869 31.6857 41.8445 31.6857C36.5022 31.6857 32.1714 36.0165 32.1714 41.3588C32.1714 46.7011 36.5022 51.032 41.8445 51.032Z" fill="white" stroke="black" stroke-width="1.46286" stroke-miterlimit="10"/>
<path d="M69.4287 89.7611H48.9305C45.9499 89.7611 43.6367 87.2926 44.0116 84.504L45.7853 71.256C46.5167 65.7703 51.4722 61.656 57.351 61.656H60.551C66.2836 61.656 71.1659 65.5874 72.0619 70.9177L74.3202 84.3669C74.7956 87.2012 72.4733 89.7611 69.4287 89.7611Z" fill="#E5443C" stroke="#171921" stroke-width="1.46286" stroke-miterlimit="10"/>
<path d="M59.1341 64.792C64.4764 64.792 68.8072 60.4611 68.8072 55.1188C68.8072 49.7765 64.4764 45.4457 59.1341 45.4457C53.7918 45.4457 49.4609 49.7765 49.4609 55.1188C49.4609 60.4611 53.7918 64.792 59.1341 64.792Z" fill="#E5443C" stroke="#171921" stroke-width="1.46286" stroke-miterlimit="10"/>
<path d="M57.7896 83.2789C57.6158 83.2789 57.4421 83.2058 57.3233 83.0869L52.7701 78.5338C52.5141 78.2778 52.5141 77.8572 52.7701 77.6012C53.0261 77.3452 53.4467 77.3452 53.7027 77.6012L57.7896 81.688L64.665 74.8126C64.921 74.5566 65.3416 74.5566 65.5976 74.8126C65.8536 75.0686 65.8536 75.4892 65.5976 75.7452L58.2558 83.0869C58.1278 83.2058 57.9633 83.2789 57.7896 83.2789Z" fill="white"/>
</g>
</g>
<defs>
<clipPath id="clip0_60_591">
<rect width="120" height="122.447" fill="white"/>
</clipPath>
<clipPath id="clip1_60_591">
<rect width="66.6423" height="59.4469" fill="white" transform="translate(26 31)"/>
</clipPath>
</defs>
</svg>
