<svg width="45" height="45" viewBox="0 0 45 45" fill="none" xmlns="http://www.w3.org/2000/svg">
<path d="M5 4.12415V26.2821C5 30.8328 7.32301 35.0738 11.159 37.5159L21.2134 43.925C21.9997 44.4254 23.0003 44.4254 23.7747 43.925L33.8291 37.5159C37.6651 35.0738 39.9881 30.8328 39.9881 26.2821V4.12415L23.1552 1.06254C22.6668 0.979152 22.1784 0.979152 21.6899 1.06254L5 4.12415Z" stroke="#EB5757"/>
<g style="mix-blend-mode:screen" opacity="0.2">
<g style="mix-blend-mode:screen" opacity="0.2">
<path d="M5 4.12415V26.2821C5 30.8328 7.32301 35.0738 11.159 37.5159L21.2134 43.925C21.9997 44.4254 23.0003 44.4254 23.7747 43.925L33.8291 37.5159C37.6651 35.0738 39.9881 30.8328 39.9881 26.2821V4.12415L23.1552 1.06254C22.6668 0.979152 22.1784 0.979152 21.6899 1.06254L5 4.12415Z" stroke="#E5453D"/>
</g>
</g>
<g clip-path="url(#clip0_60_708)">
<path d="M21.6141 11.692C21.9884 10.9772 23.0116 10.9771 23.3859 11.692L25.6338 15.9852C25.7786 16.2618 26.0444 16.4549 26.3522 16.5072L31.1155 17.3163C31.9114 17.4515 32.2273 18.4252 31.6625 19.0019L28.2868 22.4483C28.0679 22.6718 27.9662 22.9848 28.0119 23.2942L28.7205 28.0923C28.8385 28.8912 28.0098 29.4932 27.2865 29.1341L22.9452 26.9786C22.6648 26.8394 22.3353 26.8395 22.055 26.979L17.7255 29.1337C17.003 29.4932 16.1741 28.893 16.2903 28.0944L16.9893 23.2931C17.0342 22.9843 16.9325 22.6722 16.7141 22.4493L13.3375 19.0019C12.7727 18.4252 13.0886 17.4515 13.8845 17.3163L18.6478 16.5072C18.9556 16.4549 19.2214 16.2618 19.3662 15.9852L21.6141 11.692Z" fill="#E5453D"/>
</g>
<defs>
<clipPath id="clip0_60_708">
<rect width="21" height="19.9848" fill="white" transform="translate(12 10)"/>
</clipPath>
</defs>
</svg>
