<svg width="45" height="45" viewBox="0 0 45 45" fill="none" xmlns="http://www.w3.org/2000/svg">
<path d="M44 13.9739H2V35.9277H44V13.9739Z" fill="#CECECE" fill-opacity="0.2"/>
<path d="M39.8308 11.0265H6.16921C3.86662 11.0265 2 12.8884 2 15.1851V34.7187C2 37.0154 3.86662 38.8772 6.16921 38.8772H39.8308C42.1334 38.8772 44 37.0154 44 34.7187V15.1851C44 12.8884 42.1334 11.0265 39.8308 11.0265Z" stroke="#171921" stroke-width="0.536547" stroke-miterlimit="10"/>
<path d="M10.034 31.5158V7.86662C10.0316 7.41789 10.118 6.97309 10.2883 6.55775C10.4585 6.1424 10.7094 5.76467 11.0263 5.44623C11.3433 5.12779 11.7202 4.87489 12.1354 4.70205C12.5505 4.52921 12.9958 4.43983 13.4457 4.43903H32.4135C33.3189 4.44552 34.1847 4.8101 34.8209 5.45272C35.4571 6.09535 35.8116 6.9635 35.8067 7.86662V19.6912V31.5158" fill="white"/>
<path d="M10.1211 31.192V7.80695C10.1211 6.9093 10.4786 6.04842 11.115 5.41369C11.7513 4.77895 12.6144 4.42236 13.5143 4.42236H32.4944C33.3949 4.42236 34.2586 4.77875 34.896 5.41331C35.5333 6.04787 35.8922 6.90874 35.8938 7.80695V31.192" stroke="#171921" stroke-width="0.536547" stroke-linecap="round" stroke-linejoin="round"/>
<path d="M16.4272 25.4256H29.8409" stroke="#E5453D" stroke-width="0.536547" stroke-linecap="round" stroke-linejoin="round"/>
<path d="M16.4272 27.2142H29.8409" stroke="#E5453D" stroke-width="0.536547" stroke-linecap="round" stroke-linejoin="round"/>
<path d="M16.4272 29.0029H23.1341" stroke="#E5453D" stroke-width="0.536547" stroke-linecap="round" stroke-linejoin="round"/>
<path d="M38.1104 16.3643H41.6884V20.0069" stroke="#171921" stroke-width="0.357698" stroke-miterlimit="10"/>
<path d="M29.8409 8.88217H16.4272V9.77642H29.8409V8.88217Z" fill="#171921"/>
<path d="M2.01025 34.4496H43.8772" stroke="#171921" stroke-width="0.378276" stroke-linecap="round" stroke-linejoin="round"/>
<circle cx="23" cy="18" r="5" fill="#E5453D"/>
<path d="M21.3748 16.0013C21.5502 16.0015 21.7241 16.0332 21.8883 16.095C22.063 16.1626 22.2211 16.267 22.3517 16.401C22.5005 16.5669 22.6116 16.763 22.6773 16.9757C22.7676 17.2668 22.8099 17.5705 22.8025 17.8751C22.8044 18.182 22.7708 18.488 22.7023 18.7871C22.6456 19.0288 22.5436 19.2577 22.4018 19.4617C22.2824 19.6355 22.1236 19.7789 21.9384 19.8802C21.7447 19.9787 21.5296 20.0281 21.3121 20.0238C21.0956 20.0266 20.8813 19.9796 20.6859 19.8864C20.5083 19.7982 20.3555 19.6672 20.2413 19.5054C20.1275 19.3371 20.0546 19.1446 20.0284 18.9432H20.617C20.6463 19.1007 20.7279 19.2437 20.8487 19.3492C20.9108 19.4042 20.9831 19.4463 21.0616 19.4731C21.1401 19.4999 21.2231 19.5109 21.3059 19.5054C21.4409 19.5082 21.5742 19.4749 21.6921 19.409C21.8099 19.3431 21.9079 19.247 21.9759 19.1306C22.1554 18.8132 22.2401 18.4513 22.2202 18.0875H22.2076C22.1059 18.2519 21.9628 18.3869 21.7925 18.479C21.6222 18.571 21.4306 18.617 21.237 18.6122C21.0169 18.6195 20.7994 18.5631 20.6108 18.4498C20.4239 18.3407 20.2703 18.1831 20.1662 17.9938C20.057 17.7879 20 17.5584 20 17.3255C20 17.0925 20.057 16.8631 20.1662 16.6571C20.2759 16.455 20.4409 16.2882 20.6421 16.1762C20.8652 16.0508 21.119 15.9902 21.3748 16.0013ZM21.3748 16.4947C21.2331 16.4928 21.0939 16.5318 20.974 16.6072C20.8558 16.6813 20.7588 16.7846 20.6922 16.907C20.6231 17.0355 20.5886 17.1797 20.592 17.3255C20.5887 17.4673 20.6233 17.6074 20.6922 17.7315C20.7524 17.8527 20.8458 17.9544 20.9615 18.025C21.0813 18.1004 21.2206 18.1394 21.3622 18.1375C21.4743 18.1376 21.5851 18.1144 21.6876 18.0692C21.79 18.024 21.8819 17.9579 21.9572 17.8751C22.0277 17.7977 22.0849 17.709 22.1262 17.6128C22.1686 17.5164 22.1899 17.412 22.1888 17.3067C22.1884 17.1654 22.154 17.0262 22.0887 16.9007C22.0221 16.7783 21.925 16.6751 21.8069 16.6009C21.678 16.5201 21.5265 16.4829 21.3748 16.4947Z" fill="white"/>
<path d="M24.7819 16.0008C24.9573 16.001 25.1313 16.0328 25.2954 16.0945C25.4709 16.1606 25.6293 16.2652 25.7588 16.4006C25.9077 16.5665 26.0187 16.7625 26.0845 16.9752C26.1748 17.2663 26.2171 17.5701 26.2097 17.8747C26.2146 18.1816 26.181 18.488 26.1095 18.7866C26.052 19.027 25.9523 19.2554 25.8152 19.4612C25.692 19.634 25.5315 19.777 25.3455 19.8797C25.1521 19.979 24.9368 20.0284 24.7193 20.0234C24.5027 20.0262 24.2885 19.9792 24.0931 19.886C23.9173 19.7975 23.7666 19.6665 23.6547 19.5049C23.5356 19.3394 23.4621 19.1456 23.4418 18.9428H24.0242C24.0535 19.1003 24.1351 19.2433 24.2559 19.3488C24.3179 19.4037 24.3903 19.4458 24.4688 19.4726C24.5472 19.4994 24.6303 19.5104 24.713 19.5049C24.8482 19.5084 24.9818 19.4754 25.0997 19.4094C25.2176 19.3435 25.3155 19.247 25.3831 19.1302C25.5625 18.8128 25.6472 18.4509 25.6273 18.0871C25.5616 18.1932 25.4791 18.2881 25.3831 18.3681C25.2818 18.4442 25.17 18.5052 25.0512 18.5493C24.9242 18.5922 24.7908 18.6134 24.6567 18.6117C24.4366 18.6191 24.2191 18.5627 24.0305 18.4493C23.8453 18.3382 23.6921 18.1811 23.5858 17.9934C23.4767 17.7874 23.4197 17.558 23.4197 17.325C23.4197 17.0921 23.4767 16.8626 23.5858 16.6567C23.6956 16.4546 23.8606 16.2878 24.0618 16.1757C24.2812 16.0526 24.5303 15.9921 24.7819 16.0008ZM24.7819 16.4943C24.6403 16.493 24.5013 16.532 24.3811 16.6067C24.263 16.6809 24.166 16.7841 24.0993 16.9065C24.0302 17.035 23.9957 17.1792 23.9991 17.325C23.9958 17.4668 24.0304 17.607 24.0993 17.731C24.1601 17.8539 24.256 17.956 24.3749 18.0246C24.4943 18.101 24.6338 18.1401 24.7757 18.137C24.8837 18.1359 24.9903 18.1125 25.0888 18.0683C25.1845 18.0269 25.27 17.9651 25.3393 17.8872C25.4139 17.8129 25.4716 17.7234 25.5083 17.6248C25.5507 17.5284 25.5721 17.4241 25.571 17.3188C25.5712 17.1804 25.5364 17.0443 25.4696 16.923C25.4027 16.8018 25.3062 16.6994 25.189 16.6254C25.0705 16.5401 24.9281 16.4942 24.7819 16.4943Z" fill="white"/>
</svg>
