<svg width="120" height="120" viewBox="0 0 120 120" fill="none" xmlns="http://www.w3.org/2000/svg">
<path d="M24.2747 42.1882C26.3457 38.6011 25.1168 34.0143 21.5297 31.9432C17.9426 29.8722 13.3557 31.1011 11.2847 34.6882C9.2136 38.2753 10.4426 42.8622 14.0297 44.9332C17.6168 47.0043 22.2036 45.7753 24.2747 42.1882Z" fill="#FF5252"/>
<path d="M87.6055 79.6875C87.4462 79.6875 87.2849 79.6481 87.1368 79.5619L27.0562 44.8744C26.608 44.6156 26.4543 44.0419 26.713 43.5937C26.9718 43.1437 27.5455 42.9956 27.9937 43.2506L88.0743 77.9381C88.5224 78.1969 88.6762 78.7706 88.4174 79.2187C88.243 79.5206 87.928 79.6875 87.6055 79.6875Z" fill="#171921"/>
<path d="M105.966 44.9312C109.553 42.8601 110.782 38.2733 108.711 34.6862C106.64 31.0991 102.053 29.8701 98.4662 31.9412C94.8791 34.0122 93.6501 38.5991 95.7212 42.1862C97.7923 45.7733 102.379 47.0022 105.966 44.9312Z" fill="#FF5252"/>
<path d="M32.3943 79.6875C32.0718 79.6875 31.755 79.5206 31.5825 79.2187C31.3218 78.7706 31.4756 78.1968 31.9256 77.9381L92.0062 43.2506C92.4525 42.9937 93.0281 43.1437 93.2868 43.5937C93.5475 44.0418 93.3937 44.6156 92.9437 44.8743L32.8631 79.5618C32.715 79.6481 32.5537 79.6875 32.3943 79.6875Z" fill="#171921"/>
<path d="M60 119.062C64.1421 119.062 67.5 115.705 67.5 111.562C67.5 107.42 64.1421 104.062 60 104.062C55.8579 104.062 52.5 107.42 52.5 111.562C52.5 115.705 55.8579 119.062 60 119.062Z" fill="#FF5252"/>
<path d="M60 101.25C59.4825 101.25 59.0625 100.83 59.0625 100.312V30.9375C59.0625 30.42 59.4825 30 60 30C60.5175 30 60.9375 30.42 60.9375 30.9375V100.312C60.9375 100.83 60.5175 101.25 60 101.25Z" fill="#171921"/>
<path d="M19.6386 101.25H15.9261C15.0354 101.25 14.2629 100.616 14.0886 99.7444L13.7154 97.8731C13.1361 97.6538 12.5829 97.3931 12.0654 97.0913C11.5442 96.7913 11.0342 96.4387 10.5486 96.0413L8.75607 96.6656C7.9142 96.9488 6.9767 96.5981 6.52857 95.8275L4.6742 92.6119C4.22795 91.8375 4.39107 90.8512 5.06232 90.2644L6.49857 89.0044C6.29982 87.7781 6.29607 86.5519 6.49295 85.3463L5.06045 84.1106C4.39107 83.5256 4.22795 82.5375 4.67232 81.765L6.53045 78.5494C6.97295 77.7806 7.90482 77.4244 8.7542 77.7094L10.5561 78.3188C11.5048 77.5481 12.5661 76.9406 13.7286 76.5037L14.0848 74.6325C14.2611 73.7588 15.0354 73.125 15.9242 73.125H19.6367C20.5273 73.125 21.2998 73.7588 21.4742 74.6306L21.8473 76.5019C22.4267 76.7212 22.9798 76.9819 23.4973 77.2837C24.0148 77.5819 24.5192 77.9306 24.9973 78.3225L26.8048 77.7112C27.6504 77.4225 28.5861 77.7806 29.0323 78.5494L30.8848 81.765C31.3311 82.5338 31.1698 83.5219 30.5004 84.1106L29.0623 85.3725C29.2611 86.5988 29.2648 87.825 29.0679 89.0306L30.5004 90.2662C31.1679 90.8531 31.3292 91.8394 30.8867 92.6119L29.0304 95.8275C28.5861 96.6 27.6523 96.9525 26.8029 96.6656L25.0048 96.0562C24.0579 96.8269 22.9948 97.4344 21.8323 97.8713L21.4761 99.7425C21.2998 100.616 20.5273 101.25 19.6386 101.25ZM10.6854 93.9844C10.9142 93.9844 11.1411 94.0669 11.3192 94.23C11.8479 94.7138 12.4142 95.13 12.9992 95.4675C13.5879 95.8088 14.2329 96.09 14.9136 96.3037C15.3036 96.4275 15.5698 96.7894 15.5698 97.1981V97.6875L15.9242 99.375H19.6367L20.0098 97.5037L19.9911 97.1906C19.9911 96.7819 20.2573 96.4181 20.6473 96.2963C22.0123 95.8669 23.2236 95.1731 24.2473 94.2337C24.5492 93.9581 24.9936 93.9094 25.3498 94.1119L25.7679 94.3519L27.4067 94.8881L29.2629 91.6725L27.5604 90.2775C27.2079 90.0731 27.0279 89.6606 27.1161 89.2612C27.4198 87.9037 27.4161 86.5088 27.1048 85.1138C27.0167 84.7144 27.1967 84.3038 27.5492 84.0994L27.9786 83.8519L29.2648 82.6987L27.4104 79.4831L25.3461 80.2631C24.9936 80.4656 24.5454 80.4188 24.2436 80.1431C23.7186 79.6613 23.1523 79.245 22.5636 78.9038C21.9767 78.5625 21.3317 78.2813 20.6492 78.0675C20.2592 77.9438 19.9929 77.5819 19.9929 77.1731V76.6875L19.6386 75H15.9261L15.5529 76.8713L15.5717 77.1844C15.5717 77.5931 15.3054 77.9569 14.9154 78.0787C13.5504 78.5081 12.3411 79.2019 11.3154 80.1413C11.0136 80.4188 10.5673 80.4675 10.2129 80.2631L9.79482 80.0231L8.15607 79.4869L6.29795 82.7025L8.00232 84.0975C8.35482 84.3019 8.53482 84.7144 8.4467 85.1138C8.14295 86.4713 8.14857 87.8662 8.45795 89.2612C8.54607 89.6606 8.36607 90.0712 8.01357 90.2756L7.5842 90.5231L6.29795 91.6763L8.15232 94.8919L10.2167 94.1119C10.3629 94.0238 10.5242 93.9844 10.6854 93.9844ZM17.7692 94.4231C16.5429 94.4231 15.3017 94.11 14.1636 93.4537C10.7061 91.4587 9.51732 87.0244 11.5142 83.5669C12.4798 81.8925 14.0417 80.6944 15.9092 80.1956C17.7729 79.6931 19.7248 79.9519 21.4011 80.9194C24.8586 82.9144 26.0473 87.3488 24.0504 90.8063C22.7079 93.1256 20.2723 94.4231 17.7692 94.4231ZM17.7879 81.8231C17.3229 81.8231 16.8542 81.885 16.3929 82.0087C15.0092 82.38 13.8523 83.2669 13.1361 84.5081C11.6586 87.0694 12.5398 90.3563 15.1011 91.8338C17.6642 93.3169 20.9454 92.4319 22.4267 89.8725C23.9042 87.3112 23.0229 84.0244 20.4617 82.5469C19.6367 82.0669 18.7179 81.8231 17.7879 81.8231Z" fill="#171921"/>
<path d="M61.8559 28.125H58.1434C57.2528 28.125 56.4803 27.4912 56.3059 26.6194L55.9328 24.7481C55.3534 24.5288 54.8003 24.2681 54.2828 23.9662C53.7616 23.6662 53.2516 23.3137 52.7659 22.9163L50.9753 23.5406C50.1372 23.8219 49.1959 23.4731 48.7478 22.7025L46.8934 19.4869C46.4472 18.7144 46.6103 17.7281 47.2816 17.1394L48.7178 15.8794C48.5191 14.6531 48.5153 13.4269 48.7122 12.2213L47.2797 10.9856C46.6103 10.4006 46.4472 9.4125 46.8916 8.64L48.7497 5.42437C49.1922 4.65375 50.1259 4.30125 50.9734 4.58437L52.7753 5.19375C53.7241 4.42312 54.7853 3.81563 55.9478 3.37875L56.3041 1.5075C56.4803 0.63375 57.2528 0 58.1434 0H61.8559C62.7466 0 63.5191 0.63375 63.6934 1.50563L64.0666 3.37687C64.6459 3.59625 65.1991 3.85687 65.7166 4.15875C66.2341 4.45687 66.7384 4.80562 67.2166 5.1975L69.0241 4.58625C69.8734 4.29938 70.8053 4.65562 71.2516 5.42437L73.1059 8.64C73.5503 9.41062 73.3872 10.3969 72.7197 10.9856L71.2816 12.2475C71.4803 13.4738 71.4841 14.7 71.2872 15.9056L72.7197 17.1413C73.3872 17.73 73.5503 18.7162 73.1078 19.4869L71.2497 22.7006C70.8053 23.4731 69.8697 23.8275 69.0222 23.5387L67.2241 22.9294C66.2753 23.7 65.2141 24.3075 64.0516 24.7444L63.6953 26.6156C63.5191 27.4912 62.7466 28.125 61.8559 28.125ZM52.9047 20.8594C53.1334 20.8594 53.3603 20.9419 53.5384 21.105C54.0672 21.5887 54.6334 22.005 55.2184 22.3425C55.8072 22.6838 56.4522 22.965 57.1328 23.1788C57.5228 23.3025 57.7891 23.6644 57.7891 24.0731V24.5625L58.1434 26.25H61.8559L62.2291 24.3787L62.2103 24.0656C62.2103 23.6569 62.4766 23.2931 62.8666 23.1712C64.2316 22.7419 65.4409 22.0481 66.4666 21.1088C66.7684 20.8313 67.2128 20.7844 67.5691 20.9869L67.9872 21.2269L69.6259 21.7631L71.4841 18.5475L69.7797 17.1525C69.4272 16.9481 69.2472 16.5356 69.3353 16.1362C69.6391 14.7787 69.6353 13.3837 69.3241 11.9888C69.2359 11.5894 69.4159 11.1788 69.7684 10.9744L70.1978 10.7269L71.4841 9.57375L69.6297 6.35813L67.5653 7.13812C67.2109 7.34062 66.7647 7.29375 66.4628 7.01813C65.9378 6.53625 65.3716 6.12 64.7828 5.77875C64.1959 5.4375 63.5509 5.15625 62.8684 4.9425C62.4784 4.81875 62.2122 4.45687 62.2122 4.04812V3.5625L61.8559 1.875H58.1434L57.7703 3.74625L57.7891 4.05937C57.7891 4.46812 57.5228 4.83187 57.1328 4.95375C55.7678 5.38312 54.5584 6.07688 53.5328 7.01625C53.2309 7.29375 52.7847 7.3425 52.4303 7.13812L52.0122 6.89625L50.3734 6.36L48.5153 9.57562L50.2197 10.9706C50.5722 11.175 50.7522 11.5875 50.6641 11.9869C50.3603 13.3444 50.3659 14.7394 50.6753 16.1344C50.7634 16.5337 50.5834 16.9444 50.2309 17.1488L49.8016 17.3962L48.5153 18.5494L50.3697 21.765L52.4341 20.985C52.5822 20.8988 52.7434 20.8594 52.9047 20.8594ZM59.9866 21.2981C58.7603 21.2981 57.5191 20.985 56.3809 20.3288C52.9234 18.3337 51.7347 13.8994 53.7316 10.4419C54.6972 8.7675 56.2591 7.56938 58.1266 7.07062C59.9903 6.56625 61.9441 6.82688 63.6184 7.79437C67.0759 9.78938 68.2647 14.2238 66.2678 17.6813C64.9272 20.0006 62.4897 21.2981 59.9866 21.2981ZM60.0072 8.69812C59.5422 8.69812 59.0734 8.76 58.6122 8.88375C57.2284 9.255 56.0716 10.1419 55.3553 11.3831C53.8778 13.9444 54.7591 17.2312 57.3203 18.7087C59.8834 20.1937 63.1666 19.3069 64.6459 16.7475C66.1234 14.1862 65.2422 10.8994 62.6809 9.42188C61.8541 8.94188 60.9372 8.69812 60.0072 8.69812Z" fill="#171921"/>
<path d="M104.075 101.25H100.363C99.4722 101.25 98.6997 100.616 98.5253 99.7425L98.1522 97.8713C97.5747 97.6538 97.0216 97.3931 96.5022 97.0913C95.9772 96.7875 95.4691 96.435 94.9872 96.0394L93.1947 96.6638C92.3547 96.945 91.4153 96.5962 90.9691 95.8256L89.1147 92.61C88.6684 91.8431 88.8297 90.855 89.4972 90.2644L90.9372 89.0006C90.7384 87.7744 90.7347 86.55 90.9316 85.3444L89.4991 84.1088C88.8278 83.5181 88.6666 82.53 89.1166 81.7594L90.9691 78.5475C91.4134 77.775 92.3453 77.4244 93.1966 77.7094L94.9947 78.3188C95.9416 77.5481 97.0047 76.9406 98.1672 76.5037L98.5234 74.6325C98.6997 73.7588 99.4722 73.125 100.361 73.125H104.073C104.964 73.125 105.737 73.7588 105.911 74.6325L106.284 76.5037C106.863 76.7231 107.417 76.9837 107.934 77.2837C108.45 77.5819 108.954 77.9306 109.434 78.3225L111.242 77.7112C112.08 77.4262 113.021 77.7788 113.467 78.5494L115.323 81.7669C115.77 82.5394 115.607 83.5256 114.935 84.1144L113.499 85.3763C113.698 86.6025 113.702 87.8269 113.505 89.0325L114.937 90.2681C115.607 90.855 115.77 91.8431 115.325 92.6138L113.467 95.8294C113.023 96.6019 112.083 96.9506 111.243 96.6694L109.442 96.0581C108.493 96.8287 107.432 97.4381 106.269 97.875L105.913 99.7463C105.738 100.616 104.964 101.25 104.075 101.25ZM95.1222 93.9844C95.3509 93.9844 95.5778 94.0669 95.7559 94.23C96.2791 94.71 96.8453 95.1281 97.4359 95.4694C98.0266 95.8106 98.6697 96.0919 99.3503 96.3037C99.7403 96.4275 100.007 96.7894 100.007 97.1981V97.6875L100.361 99.375H104.073L104.447 97.5037L104.428 97.1906C104.428 96.7819 104.694 96.4181 105.084 96.2963C106.449 95.8669 107.658 95.1731 108.684 94.2319C108.986 93.9544 109.434 93.9056 109.788 94.1119L110.207 94.3537L111.843 94.8881L113.702 91.6725L111.999 90.2794C111.645 90.075 111.465 89.6625 111.553 89.2631C111.857 87.9056 111.853 86.5106 111.542 85.1156C111.453 84.7163 111.633 84.3038 111.988 84.0994L112.417 83.8519L113.7 82.7006L111.845 79.485L109.781 80.265C109.427 80.4694 108.978 80.4225 108.68 80.145C108.15 79.6612 107.583 79.2431 106.998 78.9056C106.412 78.5663 105.767 78.285 105.084 78.0694C104.694 77.9475 104.428 77.5856 104.428 77.175V76.6875L104.075 75H100.363L99.9897 76.8713L100.008 77.1844C100.008 77.5931 99.7422 77.9569 99.3503 78.0787C97.9872 78.5081 96.7759 79.2019 95.7522 80.1413C95.4503 80.4188 95.0022 80.4675 94.6478 80.2612L94.2297 80.0194L92.5928 79.485L90.7366 82.7006L92.4372 84.0937C92.7916 84.2981 92.9716 84.7106 92.8834 85.11C92.5797 86.4675 92.5834 87.8625 92.8947 89.2575C92.9828 89.6569 92.8028 90.0675 92.4503 90.2719L92.0209 90.5194L90.7347 91.6725L92.5891 94.8881L94.6534 94.1081C94.8016 94.0238 94.9609 93.9844 95.1222 93.9844ZM102.206 94.4269C100.952 94.4269 99.7159 94.0987 98.6003 93.4537C96.9259 92.4862 95.7278 90.9263 95.2272 89.0588C94.7266 87.1913 94.9834 85.2413 95.9509 83.5669C97.9478 80.1113 102.386 78.9225 105.836 80.9175C107.51 81.885 108.708 83.445 109.209 85.3125C109.71 87.18 109.453 89.13 108.485 90.8044C107.52 92.4788 105.958 93.6769 104.09 94.1756C103.47 94.3444 102.836 94.4269 102.206 94.4269ZM102.227 81.8269C100.372 81.8269 98.5666 82.7887 97.5728 84.5062C96.8566 85.7475 96.6672 87.1913 97.0384 88.575C97.4097 89.9588 98.2966 91.1156 99.5378 91.8319C100.779 92.5481 102.23 92.7394 103.607 92.3681C104.99 91.9969 106.147 91.11 106.863 89.8688C107.58 88.6275 107.769 87.1837 107.398 85.8C107.027 84.4162 106.14 83.2612 104.898 82.545C104.057 82.0575 103.138 81.8269 102.227 81.8269Z" fill="#171921"/>
<path d="M46.101 66.2995V66.2993V49.0772L58.9877 46.6764C59.2827 46.6279 59.5837 46.6279 59.8787 46.6765L72.9339 49.0788V66.2978C72.9269 67.9768 72.4955 69.6271 71.6793 71.0961C70.8628 72.5657 69.6876 73.8065 68.2622 74.7035L68.2593 74.7053L60.0775 79.9001L60.0699 79.9049L60.0623 79.9099C59.8928 80.0227 59.6934 80.083 59.4892 80.083C59.285 80.083 59.0856 80.0227 58.9161 79.9099L58.9088 79.9051L58.9013 79.9003L50.7289 74.7056L50.7283 74.7052C49.3096 73.8051 48.1419 72.5627 47.3331 71.0934C46.5243 69.6241 46.1006 67.9752 46.101 66.2995Z" fill="#E5453D" stroke="#171921" stroke-width="1.7"/>
<path d="M58.12 69.0004C57.8634 68.9982 57.6175 68.8975 57.4335 68.7191L50.8034 62.1553C50.7124 62.0679 50.64 61.963 50.5906 61.847C50.5411 61.731 50.5156 61.6063 50.5156 61.4802C50.5156 61.3542 50.5411 61.2294 50.5906 61.1134C50.64 60.9974 50.7124 60.8926 50.8034 60.8051C50.8913 60.7129 50.997 60.6395 51.1142 60.5893C51.2315 60.5391 51.3577 60.5132 51.4853 60.5132C51.6128 60.5132 51.739 60.5391 51.8562 60.5893C51.9735 60.6395 52.0792 60.7129 52.1671 60.8051L58.12 66.7312L68.1451 56.7356C68.326 56.5553 68.5712 56.454 68.827 56.454C69.0827 56.454 69.3279 56.5553 69.5088 56.7356C69.6896 56.9159 69.7912 57.1604 69.7912 57.4154C69.7912 57.6704 69.6896 57.9149 69.5088 58.0952L58.7972 68.7378C58.7074 68.8242 58.6013 68.8919 58.4851 68.9369C58.3688 68.982 58.2447 69.0036 58.12 69.0004Z" fill="white"/>
</svg>

