<svg xmlns="http://www.w3.org/2000/svg" width="104" height="105" viewBox="0 0 104 105" fill="none">
  <g clip-path="url(#clip0_2008_97)">
    <path d="M78.0008 37.9213L52.6587 23.334L27.3008 37.9213V67.08L52.6587 81.6673L78.0008 67.08V37.9213Z" stroke="#171921" stroke-linecap="round" stroke-linejoin="round"/>
    <path d="M75.3984 39.8616L52.6565 27.2227L29.8984 39.8616V65.1393L52.6565 77.7782L75.3984 65.1393V39.8616Z" fill="#E5453D"/>
    <path d="M50.3775 60.9265C50.2296 60.9291 50.0827 60.8998 49.9455 60.8404C49.8084 60.7811 49.6837 60.6928 49.5789 60.5809L41.9002 52.3522C41.7081 52.1276 41.6016 51.834 41.6016 51.5293C41.6016 51.2247 41.7081 50.9311 41.9002 50.7065C42.1063 50.4933 42.3816 50.3741 42.6681 50.3741C42.9545 50.3741 43.2298 50.4933 43.4359 50.7065L50.3161 58.0794L61.8496 45.7034C62.0557 45.4902 62.331 45.3711 62.6174 45.3711C62.9039 45.3711 63.1792 45.4902 63.3853 45.7034C63.5879 45.9223 63.7016 46.218 63.7016 46.5263C63.7016 46.8345 63.5879 47.1303 63.3853 47.3492L51.0993 60.5151C50.9176 60.7473 50.6588 60.8949 50.3775 60.9265Z" fill="white"/>
    <path d="M65.9961 6.52148C73.8909 8.96293 81.029 13.3497 86.7399 19.2697C92.4508 25.1897 96.5472 32.4487 98.6443 40.365" stroke="#171921" stroke-width="1.2" stroke-linecap="round" stroke-linejoin="round"/>
    <path d="M5.03125 38.196C7.49067 30.3807 11.9217 23.314 17.9066 17.6625C23.8914 12.011 31.2326 7.96101 39.2379 5.89453" stroke="#171921" stroke-width="1.2" stroke-linecap="round" stroke-linejoin="round"/>
    <path d="M37.0466 98.5115C29.1474 96.0782 22.0048 91.6941 16.2927 85.7728C10.5805 79.8516 6.48709 72.5882 4.39844 64.668" stroke="#171921" stroke-width="1.2" stroke-linecap="round" stroke-linejoin="round"/>
    <path d="M98.0107 66.8359C95.5446 74.645 91.1132 81.706 85.1327 87.3562C79.1521 93.0063 71.8185 97.0602 63.8203 99.1375" stroke="#171921" stroke-width="1.2" stroke-linecap="round" stroke-linejoin="round"/>
    <path d="M52.5988 8.70583C55.0287 8.70583 56.9985 6.75696 56.9985 4.35291C56.9985 1.94887 55.0287 0 52.5988 0C50.169 0 48.1992 1.94887 48.1992 4.35291C48.1992 6.75696 50.169 8.70583 52.5988 8.70583Z" fill="#171921"/>
    <path d="M4.39963 56.8445C6.82947 56.8445 8.79925 54.8956 8.79925 52.4916C8.79925 50.0875 6.82947 48.1387 4.39963 48.1387C1.96978 48.1387 0 50.0875 0 52.4916C0 54.8956 1.96978 56.8445 4.39963 56.8445Z" fill="#171921"/>
    <path d="M99.5988 56.8445C102.029 56.8445 103.998 54.8956 103.998 52.4916C103.998 50.0875 102.029 48.1387 99.5988 48.1387C97.169 48.1387 95.1992 50.0875 95.1992 52.4916C95.1992 54.8956 97.169 56.8445 99.5988 56.8445Z" fill="#171921"/>
    <path d="M52.5988 105.001C55.0287 105.001 56.9985 103.052 56.9985 100.648C56.9985 98.2438 55.0287 96.2949 52.5988 96.2949C50.169 96.2949 48.1992 98.2438 48.1992 100.648C48.1992 103.052 50.169 105.001 52.5988 105.001Z" fill="#171921"/>
    <path d="M68.0197 12.7593L65 5.56334L72.2732 2.5918" stroke="#171921" stroke-width="1.2" stroke-linecap="round" stroke-linejoin="round"/>
    <path d="M11.8209 36.0222L4.72632 39.4275L1.30078 32.4082" stroke="#171921" stroke-width="1.2" stroke-linecap="round" stroke-linejoin="round"/>
    <path d="M34.852 92.0371L38.2776 99.0564L31.1992 102.446" stroke="#171921" stroke-width="1.2" stroke-linecap="round" stroke-linejoin="round"/>
    <path d="M91.4336 69.0361L98.512 65.6309L101.954 72.6501" stroke="#171921" stroke-width="1.2" stroke-linecap="round" stroke-linejoin="round"/>
  </g>
  <defs>
    <clipPath id="clip0_2008_97">
      <rect width="104" height="105" fill="white"/>
    </clipPath>
  </defs>
</svg>