<svg width="120" height="120" viewBox="0 0 120 120" fill="none" xmlns="http://www.w3.org/2000/svg">
<path d="M111.301 29.6265H7.97382V83.6366H111.301V29.6265Z" fill="#171921" fill-opacity="0.2"/>
<path d="M101.044 22.3755H18.2308C12.566 22.3755 7.97382 26.956 7.97382 32.6063V80.6623C7.97382 86.3127 12.566 90.8931 18.2308 90.8931H101.044C106.709 90.8931 111.301 86.3127 111.301 80.6623V32.6063C111.301 26.956 106.709 22.3755 101.044 22.3755Z" stroke="#171921" stroke-width="1.32" stroke-miterlimit="10"/>
<path d="M27.7396 72.7818V14.6007C27.7336 13.4967 27.9462 12.4025 28.3651 11.3806C28.784 10.3588 29.4011 9.42954 30.1809 8.64611C30.9607 7.86269 31.8879 7.24052 32.9093 6.81531C33.9307 6.39009 35.0262 6.17019 36.133 6.16821H82.797C85.0245 6.18419 87.1546 7.08112 88.7197 8.66209C90.2848 10.2431 91.1571 12.3789 91.145 14.6007V72.7818" fill="white"/>
<path d="M27.9543 71.9859V14.4546C27.9543 12.2462 28.8338 10.1283 30.3994 8.56676C31.9649 7.0052 34.0883 6.12793 36.3023 6.12793H82.9966C85.212 6.12793 87.3369 7.00471 88.9049 8.56584C90.4728 10.127 91.3557 12.2449 91.3597 14.4546V71.9859" stroke="#171921" stroke-width="1.32" stroke-linecap="round" stroke-linejoin="round"/>
<path d="M43.4678 57.8001H76.4678" stroke="#E5443C" stroke-width="1.32" stroke-linecap="round" stroke-linejoin="round"/>
<path d="M43.4678 62.1999H76.4678" stroke="#E5443C" stroke-width="1.32" stroke-linecap="round" stroke-linejoin="round"/>
<path d="M43.4678 66.5997H59.9678" stroke="#E5443C" stroke-width="1.32" stroke-linecap="round" stroke-linejoin="round"/>
<path d="M65.9816 95.1941V100.574" stroke="#171921" stroke-width="1.32" stroke-linecap="round" stroke-linejoin="round"/>
<path d="M52.5539 95.1941V100.574" stroke="#171921" stroke-width="1.32" stroke-linecap="round" stroke-linejoin="round"/>
<path d="M96.8117 35.5078H105.614V44.4692" stroke="#171921" stroke-width="0.88" stroke-miterlimit="10"/>
<path d="M76.4678 17.0995H43.4678V19.2995H76.4678V17.0995Z" fill="#171921"/>
<mask id="path-12-inside-1_64_7557" fill="white">
<path d="M59.5951 24.8003C63.0309 24.8003 66.3314 26.14 68.7952 28.5347C71.259 30.9294 72.692 34.1905 72.7897 37.6249C72.8874 41.0594 71.6421 44.3966 69.3184 46.9275C66.9947 49.4585 63.7758 50.9836 60.3455 51.1789C56.9152 51.3743 53.5439 50.2244 50.9479 47.9736C48.3519 45.7228 46.7359 42.5485 46.4431 39.1252C46.1503 35.7018 47.2038 32.2992 49.3799 29.6403C51.5559 26.9813 54.683 25.2756 58.0966 24.8856L58.2637 26.348C55.2307 26.6945 52.4523 28.21 50.5189 30.5724C48.5855 32.9349 47.6494 35.9581 47.9096 38.9997C48.1697 42.0414 49.6056 44.8617 51.9121 46.8615C54.2186 48.8613 57.214 49.883 60.2618 49.7095C63.3096 49.5359 66.1696 48.1808 68.2342 45.9321C70.2988 43.6834 71.4053 40.7183 71.3184 37.6668C71.2316 34.6153 69.9584 31.7179 67.7693 29.5902C65.5802 27.4625 62.6478 26.2722 59.5951 26.2722V24.8003Z"/>
</mask>
<path d="M59.5951 24.8003C63.0309 24.8003 66.3314 26.14 68.7952 28.5347C71.259 30.9294 72.692 34.1905 72.7897 37.6249C72.8874 41.0594 71.6421 44.3966 69.3184 46.9275C66.9947 49.4585 63.7758 50.9836 60.3455 51.1789C56.9152 51.3743 53.5439 50.2244 50.9479 47.9736C48.3519 45.7228 46.7359 42.5485 46.4431 39.1252C46.1503 35.7018 47.2038 32.2992 49.3799 29.6403C51.5559 26.9813 54.683 25.2756 58.0966 24.8856L58.2637 26.348C55.2307 26.6945 52.4523 28.21 50.5189 30.5724C48.5855 32.9349 47.6494 35.9581 47.9096 38.9997C48.1697 42.0414 49.6056 44.8617 51.9121 46.8615C54.2186 48.8613 57.214 49.883 60.2618 49.7095C63.3096 49.5359 66.1696 48.1808 68.2342 45.9321C70.2988 43.6834 71.4053 40.7183 71.3184 37.6668C71.2316 34.6153 69.9584 31.7179 67.7693 29.5902C65.5802 27.4625 62.6478 26.2722 59.5951 26.2722V24.8003Z" stroke="#E5453D" stroke-width="4.4" mask="url(#path-12-inside-1_64_7557)"/>
<path d="M55.274 33.6031C55.7055 33.6036 56.1335 33.6817 56.5373 33.8336C56.9672 33.9999 57.356 34.2567 57.6773 34.5866C58.0435 34.9947 58.3168 35.477 58.4784 36.0003C58.7007 36.7164 58.8048 37.4638 58.7865 38.2132C58.7911 38.968 58.7084 39.7208 58.54 40.4567C58.4004 41.0514 58.1495 41.6144 57.8005 42.1163C57.5068 42.544 57.1162 42.8966 56.6605 43.1459C56.1839 43.3883 55.6548 43.5097 55.1199 43.4993C54.5871 43.5062 54.06 43.3905 53.5793 43.1612C53.1424 42.9441 52.7665 42.622 52.4855 42.2239C52.2054 41.8098 52.0261 41.3362 51.9616 40.8409H53.4098C53.4818 41.2283 53.6826 41.5802 53.9798 41.8397C54.1325 41.9748 54.3105 42.0784 54.5035 42.1443C54.6966 42.2103 54.9009 42.2373 55.1045 42.2239C55.4367 42.2307 55.7647 42.1488 56.0545 41.9867C56.3444 41.8246 56.5855 41.5881 56.7529 41.3019C57.1943 40.5211 57.4028 39.6307 57.3538 38.7356H57.323C57.0727 39.1401 56.7206 39.4722 56.3016 39.6987C55.8826 39.9252 55.4114 40.0382 54.935 40.0264C54.3936 40.0445 53.8585 39.9057 53.3944 39.6269C52.9347 39.3586 52.5567 38.9709 52.3006 38.5051C52.0321 37.9984 51.8918 37.434 51.8918 36.8609C51.8918 36.2878 52.0321 35.7233 52.3006 35.2166C52.5705 34.7195 52.9766 34.3091 53.4714 34.0334C54.0202 33.725 54.6446 33.5759 55.274 33.6031ZM55.274 34.8171C54.9254 34.8123 54.5829 34.9084 54.288 35.0937C53.9973 35.2762 53.7586 35.5302 53.5947 35.8313C53.4247 36.1475 53.3397 36.5022 53.3482 36.8609C53.3401 37.2097 53.4252 37.5545 53.5947 37.8597C53.7429 38.1579 53.9726 38.4082 54.2572 38.582C54.5521 38.7673 54.8946 38.8634 55.2431 38.8586C55.5188 38.859 55.7914 38.8017 56.0435 38.6906C56.2956 38.5794 56.5215 38.4168 56.7067 38.2132C56.8803 38.0225 57.0209 37.8044 57.1227 37.5678C57.2269 37.3305 57.2794 37.0738 57.2767 36.8148C57.2756 36.467 57.191 36.1245 57.0302 35.8159C56.8664 35.5148 56.6276 35.2608 56.337 35.0783C56.02 34.8795 55.6472 34.7879 55.274 34.8171Z" fill="#E5443C"/>
<path d="M63.6575 33.602C64.0891 33.6025 64.5171 33.6806 64.9208 33.8325C65.3526 33.9952 65.7422 34.2525 66.0609 34.5855C66.427 34.9936 66.7003 35.4758 66.862 35.9992C67.0843 36.7153 67.1883 37.4626 67.1701 38.212C67.1823 38.9672 67.0995 39.7209 66.9236 40.4556C66.7821 41.047 66.537 41.6088 66.1995 42.1152C65.8964 42.5402 65.5016 42.892 65.0441 43.1447C64.5682 43.389 64.0386 43.5106 63.5035 43.4982C62.9707 43.5051 62.4435 43.3894 61.9629 43.1601C61.5305 42.9425 61.1597 42.6202 60.8845 42.2227C60.5913 41.8155 60.4106 41.3386 60.3606 40.8397H61.7934C61.8654 41.2272 62.0662 41.579 62.3634 41.8386C62.516 41.9737 62.694 42.0773 62.8871 42.1432C63.0802 42.2092 63.2844 42.2362 63.4881 42.2227C63.8206 42.2312 64.1492 42.15 64.4394 41.9877C64.7295 41.8255 64.9703 41.5881 65.1365 41.3007C65.5779 40.5199 65.7864 39.6295 65.7374 38.7345C65.5756 38.9957 65.3727 39.2292 65.1365 39.426C64.8873 39.613 64.6123 39.7631 64.32 39.8716C64.0075 39.9773 63.6793 40.0293 63.3494 40.0253C62.808 40.0434 62.2729 39.9046 61.8088 39.6258C61.3533 39.3522 60.9764 38.9658 60.715 38.504C60.4465 37.9973 60.3062 37.4329 60.3062 36.8598C60.3062 36.2867 60.4465 35.7222 60.715 35.2155C60.9849 34.7183 61.391 34.308 61.8858 34.0323C62.4256 33.7294 63.0386 33.5805 63.6575 33.602ZM63.6575 34.816C63.3092 34.8129 62.9672 34.9088 62.6716 35.0926C62.3809 35.2751 62.1421 35.5291 61.9783 35.8302C61.8082 36.1463 61.7233 36.5011 61.7318 36.8598C61.7237 37.2086 61.8087 37.5534 61.9783 37.8586C62.1277 38.1609 62.3636 38.4122 62.6561 38.5808C62.95 38.7687 63.2932 38.865 63.6421 38.8574C63.9078 38.8547 64.1701 38.7971 64.4124 38.6884C64.648 38.5866 64.8584 38.4345 65.0287 38.2428C65.2123 38.06 65.3542 37.8398 65.4447 37.5974C65.5489 37.3601 65.6014 37.1034 65.5987 36.8444C65.5994 36.504 65.5136 36.169 65.3492 35.8707C65.1849 35.5724 64.9474 35.3206 64.6589 35.1387C64.3674 34.9288 64.017 34.8159 63.6575 34.816Z" fill="#E5443C"/>
<path d="M77.4367 104.862H41.1206C39.7818 104.862 38.6965 105.945 38.6965 107.28V111.451C38.6965 112.786 39.7818 113.869 41.1206 113.869H77.4367C78.7755 113.869 79.8608 112.786 79.8608 111.451V107.28C79.8608 105.945 78.7755 104.862 77.4367 104.862Z" stroke="#171921" stroke-width="1.32" stroke-miterlimit="10"/>
<path d="M15.8156 109.36H33.6631" stroke="#171921" stroke-width="1.32" stroke-linecap="round" stroke-linejoin="round"/>
<path d="M10.3371 109.36H12.4885" stroke="#171921" stroke-width="1.32" stroke-linecap="round" stroke-linejoin="round"/>
<path d="M102.95 109.36H85.1027" stroke="#171921" stroke-width="1.32" stroke-linecap="round" stroke-linejoin="round"/>
<path d="M108.416 109.36H106.265" stroke="#171921" stroke-width="1.32" stroke-linecap="round" stroke-linejoin="round"/>
</svg>
