<svg xmlns="http://www.w3.org/2000/svg" width="141" height="30" viewBox="0 0 141 30" fill="none">
  <path d="M54.5587 6.10518L56.8209 1.50586H60.6317L56.7642 8.36531L60.7351 15.3403H56.8878L54.5607 10.6559L52.2337 15.3403H48.3945L52.3574 8.36531L48.5 1.50586H52.3006L54.5628 6.10518H54.5587Z" fill="black"/>
  <path d="M66.6678 10.4471H64.8618V15.3403H61.5273V1.50586H66.9719C68.6118 1.50586 69.8949 1.86869 70.8192 2.5964C71.7435 3.3241 72.2057 4.3518 72.2057 5.68153C72.2057 6.64437 72.0111 7.44099 71.6219 8.07341C71.2327 8.70589 70.6226 9.21867 69.7935 9.60994L72.682 15.1964V15.3383H69.1104L66.6678 10.4451V10.4471ZM64.8618 7.88292H66.9719C67.6044 7.88292 68.0827 7.71664 68.4009 7.38221C68.7212 7.04978 68.8814 6.58356 68.8814 5.98761C68.8814 5.39167 68.7192 4.92342 68.3969 4.58288C68.0746 4.24235 67.5983 4.0741 66.9719 4.0741H64.8618V7.88494V7.88292Z" fill="black"/>
  <path d="M77.1662 10.6477V15.3423H73.832V1.50586H79.3517C80.41 1.50586 81.346 1.70045 82.159 2.08964C82.972 2.47883 83.602 3.03423 84.0505 3.7518C84.4982 4.46937 84.7195 5.28626 84.7195 6.19842C84.7195 7.54841 84.2365 8.62684 83.2697 9.43354C82.303 10.2403 80.9792 10.6457 79.2932 10.6457H77.1647L77.1662 10.6477ZM77.1662 8.07139H79.3517C79.9982 8.07139 80.491 7.90924 80.8292 7.58697C81.1682 7.26464 81.3385 6.80856 81.3385 6.21869C81.3385 5.57207 81.1637 5.05721 80.815 4.67005C80.4662 4.28288 79.9922 4.08626 79.39 4.08018H77.1662V8.07139Z" fill="black"/>
  <path d="M89.6353 12.7761H95.441V15.3423H86.3008V1.50586H89.6353V12.7741V12.7761Z" fill="black"/>
  <path d="M109.497 9.47006H104.251V12.7761H110.445V15.3423H100.914V1.50586H110.464V4.08018H104.249V6.99707H109.495V9.46804L109.497 9.47006Z" fill="black"/>
  <path d="M117.563 11.5782L120.318 1.50586H124.044L119.388 15.3403H115.739L111.121 1.50586H114.816L117.563 11.5782Z" fill="black"/>
  <path d="M129.331 1.50586L132.419 11.1302L135.498 1.50586H139.888V15.3403H136.544V12.1092L136.866 5.49707L133.522 15.3403H131.316L127.961 5.48693L128.284 12.1092V15.3403H124.949V1.50586H129.33H129.331Z" fill="black"/>
  <path d="M23.2505 16.5241C25.8188 16.5241 28.31 17.4322 30.2073 19.212L40.8391 29.1708H35.7411L27.6796 21.6221C26.4938 20.5153 24.9127 19.9234 23.2525 19.9234C21.5924 19.9234 20.0113 20.5153 18.8255 21.6221L10.7641 29.1708H5.66609L16.2979 19.212C18.1951 17.4342 20.6843 16.5241 23.2546 16.5241H23.2505ZM23.2505 14.1545C20.6823 14.1545 18.1911 13.2464 16.2938 11.4666L5.66406 1.50586H10.762L18.8235 9.05449C20.0093 10.1613 21.5904 10.7532 23.2505 10.7532C24.9107 10.7532 26.4918 10.1613 27.6776 9.05449L35.7391 1.50586H40.837L30.2053 11.4646C28.308 13.2423 25.8188 14.1525 23.2485 14.1525L23.2505 14.1545Z" fill="black"/>
  <path d="M14.3604 15.3415L3.25426 24.7469C2.42521 25.4969 1.47656 25.1422 1.47656 24.0354V6.64553C1.47656 5.53877 2.42521 5.18405 3.25426 5.93405L14.3604 15.3395V15.3415Z" fill="black"/>
  <path d="M54.0685 26.8967C54.0685 26.5096 53.9328 26.2116 53.6611 26.0028C53.3895 25.794 52.899 25.5832 52.1915 25.3683C51.4821 25.1555 50.9206 24.9183 50.501 24.6568C49.7003 24.1541 49.299 23.4973 49.299 22.6886C49.299 21.9791 49.5868 21.3973 50.1645 20.9372C50.7422 20.4791 51.4922 20.248 52.4145 20.248C53.0267 20.248 53.572 20.3616 54.0503 20.5866C54.5287 20.8116 54.9058 21.1339 55.1794 21.5494C55.453 21.9649 55.5909 22.4271 55.5909 22.9339H54.0685C54.0685 22.4758 53.9246 22.1149 53.6368 21.8555C53.349 21.596 52.9375 21.4663 52.4023 21.4663C51.9037 21.4663 51.5165 21.5737 51.2409 21.7866C50.9652 21.9994 50.8273 22.2973 50.8273 22.6805C50.8273 23.0028 50.9753 23.2703 51.2733 23.4872C51.5713 23.7021 52.0618 23.9129 52.747 24.1156C53.4321 24.3183 53.9814 24.5494 54.3949 24.8109C54.8084 25.0703 55.1125 25.3683 55.3071 25.7048C55.5016 26.0413 55.597 26.4346 55.597 26.8846C55.597 27.6163 55.3172 28.2001 54.7537 28.6318C54.1922 29.0636 53.4301 29.2805 52.4692 29.2805C51.8328 29.2805 51.249 29.1629 50.7159 28.9278C50.1828 28.6927 49.7672 28.3663 49.4713 27.9528C49.1753 27.5392 49.0273 27.0548 49.0273 26.5035H50.5558C50.5558 27.0021 50.7199 27.3892 51.0503 27.6629C51.3808 27.9366 51.853 28.0744 52.4692 28.0744C53.0003 28.0744 53.3996 27.967 53.6672 27.7521C53.9348 27.5372 54.0685 27.2515 54.0685 26.8987V26.8967Z" fill="black"/>
  <path d="M58.4246 29.1603H56.9023V20.3691H58.4246V29.1603Z" fill="black"/>
  <path d="M60.1797 29.1603V20.3691H62.7763C63.5527 20.3691 64.2418 20.5415 64.8439 20.8881C65.4459 21.2347 65.9121 21.7252 66.2425 22.3617C66.5729 22.9982 66.7371 23.7259 66.7371 24.5469V24.9867C66.7371 25.8198 66.5709 26.5516 66.2385 27.184C65.906 27.8165 65.4337 28.3029 64.8196 28.6455C64.2054 28.9881 63.502 29.1583 62.7094 29.1583H60.1797V29.1603ZM61.708 21.6016V27.9401H62.7034C63.504 27.9401 64.1182 27.6888 64.5479 27.1881C64.9756 26.6874 65.1946 25.9678 65.2027 25.0293V24.5408C65.2027 23.586 64.9959 22.8583 64.5804 22.3557C64.1648 21.8529 63.5648 21.6016 62.7743 21.6016H61.706H61.708Z" fill="black"/>
  <path d="M73.2713 25.236H69.6612V27.9401H73.8814V29.1603H68.1328V20.3691H73.8389V21.6016H69.6612V24.0279H73.2713V25.236Z" fill="black"/>
  <path d="M81.7057 26.2985C81.6164 27.2371 81.2722 27.9689 80.6677 28.4939C80.0639 29.0189 79.2614 29.2823 78.2602 29.2823C77.5582 29.2823 76.9424 29.1161 76.4092 28.7837C75.8759 28.4513 75.4646 27.979 75.1747 27.3689C74.8848 26.7567 74.7348 26.0472 74.7227 25.2384V24.4175C74.7227 23.5884 74.8686 22.8587 75.1625 22.2263C75.4565 21.5939 75.8782 21.1073 76.4272 20.7648C76.9769 20.4222 77.6114 20.252 78.3329 20.252C79.3034 20.252 80.0842 20.5154 80.6759 21.0404C81.2677 21.5654 81.6127 22.3094 81.7079 23.2722H80.1854C80.1127 22.6398 79.9282 22.1837 79.6319 21.904C79.3364 21.6242 78.9022 21.4844 78.3307 21.4844C77.6662 21.4844 77.1569 21.7277 76.8007 22.2121C76.4437 22.6965 76.2614 23.4101 76.2532 24.3485V25.129C76.2532 26.0797 76.4234 26.8053 76.7639 27.304C77.1044 27.8027 77.6032 28.054 78.2579 28.054C78.8579 28.054 79.3079 27.9182 79.6102 27.6485C79.9117 27.379 80.1022 26.931 80.1832 26.3027H81.7057V26.2985Z" fill="black"/>
  <path d="M89.9302 29.1603H88.4085V25.2603H84.4777V29.1603H82.9492V20.3691H84.4777V24.0279H88.4085V20.3691H89.9302V29.1603Z" fill="black"/>
  <path d="M96.6396 27.1131H93.2346L92.5206 29.1603H90.9336L94.2538 20.3691H95.6241L98.9504 29.1603H97.3573L96.6396 27.1131ZM93.6643 25.8807H96.2121L94.9371 22.234L93.6643 25.8807Z" fill="black"/>
  <path d="M101.436 29.1603H99.9141V20.3691H101.436V29.1603Z" fill="black"/>
  <path d="M110.163 29.1603H108.635L104.716 22.9232V29.1603H103.188V20.3691H104.716L108.647 26.6307V20.3691H110.163V29.1603Z" fill="black"/>
</svg>