<svg width="120" height="120" viewBox="0 0 120 120" fill="none" xmlns="http://www.w3.org/2000/svg">
<path d="M76.5404 6H18.7831C12.2755 6 7 11.2448 7 17.7146V93.8684C7 100.338 12.2755 105.583 18.7831 105.583H76.5404C83.0481 105.583 88.3235 100.338 88.3235 93.8684V17.7146C88.3235 11.2448 83.0481 6 76.5404 6Z" fill="#FAFAFA" stroke="#231F20" stroke-width="1.2" stroke-miterlimit="10"/>
<path d="M83.6908 13.6575H25.9335C19.4259 13.6575 14.1504 18.9023 14.1504 25.372V101.526C14.1504 107.996 19.4259 113.24 25.9335 113.24H83.6908C90.1985 113.24 95.4739 107.996 95.4739 101.526V25.372C95.4739 18.9023 90.1985 13.6575 83.6908 13.6575Z" fill="#FAFAFA" stroke="#231F20" stroke-width="1.2" stroke-miterlimit="10"/>
<path d="M39.757 31.0923H24.0952V46.663H39.757V31.0923Z" fill="#171921"/>
<path d="M39.757 55.2341H24.0952V70.8048H39.757V55.2341Z" fill="#171921"/>
<path d="M39.757 80.2715H24.0952V95.8422H39.757V80.2715Z" fill="#171921"/>
<path d="M45.7866 34.6742H66.3197" stroke="#231F20" stroke-width="1.2" stroke-linecap="round" stroke-linejoin="round"/>
<path d="M45.7866 41.9297H81.6138" stroke="#231F20" stroke-width="1.2" stroke-linecap="round" stroke-linejoin="round"/>
<path d="M45.9521 59.3827H66.4669" stroke="#231F20" stroke-width="1.2" stroke-linecap="round" stroke-linejoin="round"/>
<path d="M45.6577 66.6381H70.382" stroke="#231F20" stroke-width="1.2" stroke-linecap="round" stroke-linejoin="round"/>
<path d="M45.7866 84.42H66.3197" stroke="#231F20" stroke-width="1.2" stroke-linecap="round" stroke-linejoin="round"/>
<path d="M45.6396 91.6754H75.4926" stroke="#231F20" stroke-width="1.2" stroke-linecap="round" stroke-linejoin="round"/>
<path d="M30.6215 42.8983C30.539 42.9014 30.4569 42.8867 30.3807 42.8551C30.3045 42.8236 30.2361 42.7759 30.1803 42.7155L25.9156 38.4756C25.8583 38.4195 25.8129 38.3527 25.7818 38.2789C25.7508 38.2052 25.7349 38.1261 25.7349 38.0462C25.7349 37.9662 25.7508 37.8871 25.7818 37.8134C25.8129 37.7397 25.8583 37.6728 25.9156 37.6167C25.9723 37.557 26.0407 37.5094 26.1165 37.4768C26.1924 37.4443 26.2742 37.4275 26.3568 37.4275C26.4394 37.4275 26.5211 37.4443 26.597 37.4768C26.6728 37.5094 26.7412 37.557 26.7979 37.6167L30.6215 41.418L37.0553 35.0216C37.1724 34.9055 37.3311 34.8403 37.4965 34.8403C37.6619 34.8403 37.8205 34.9055 37.9377 35.0216C37.9949 35.0777 38.0403 35.1445 38.0714 35.2183C38.1024 35.292 38.1184 35.3711 38.1184 35.451C38.1184 35.531 38.1024 35.6101 38.0714 35.6838C38.0403 35.7575 37.9949 35.8244 37.9377 35.8805L31.0626 42.7155C31.0054 42.7741 30.9368 42.8205 30.8609 42.8519C30.7851 42.8834 30.7036 42.8991 30.6215 42.8983Z" fill="white"/>
<path d="M30.6215 67.4969C30.4563 67.4946 30.2983 67.4291 30.1803 67.3142L25.9156 63.056C25.8583 62.9999 25.8129 62.933 25.7818 62.8593C25.7508 62.7855 25.7349 62.7064 25.7349 62.6265C25.7349 62.5466 25.7508 62.4675 25.7818 62.3937C25.8129 62.32 25.8583 62.2531 25.9156 62.197C26.0327 62.081 26.1914 62.0158 26.3568 62.0158C26.5222 62.0158 26.6808 62.081 26.7979 62.197L30.6215 65.9983L37.0553 59.6019C37.1119 59.5386 37.1809 59.4875 37.2581 59.4517C37.3352 59.4158 37.4189 59.3961 37.5041 59.3936C37.5892 59.3911 37.674 59.4059 37.7531 59.4372C37.8323 59.4684 37.9042 59.5154 37.9644 59.5753C38.0246 59.6352 38.0719 59.7067 38.1033 59.7854C38.1348 59.8641 38.1497 59.9483 38.1472 60.033C38.1447 60.1176 38.1248 60.2008 38.0888 60.2776C38.0528 60.3543 38.0013 60.4229 37.9377 60.4791L31.0626 67.3507C30.9374 67.4495 30.7812 67.5012 30.6215 67.4969Z" fill="white"/>
<path d="M30.621 92.0775C30.4558 92.0751 30.2979 92.0097 30.1799 91.8947L25.9151 87.6548C25.8093 87.5364 25.7529 87.3822 25.7576 87.2238C25.7623 87.0654 25.8277 86.9147 25.9404 86.8027C26.0531 86.6906 26.2046 86.6256 26.3639 86.6209C26.5233 86.6163 26.6783 86.6723 26.7975 86.7776L30.621 90.5789L37.0549 84.1825C37.1114 84.1192 37.1804 84.068 37.2576 84.0322C37.3348 83.9964 37.4185 83.9766 37.5036 83.9741C37.5888 83.9717 37.6735 83.9865 37.7527 84.0177C37.8318 84.049 37.9038 84.096 37.964 84.1559C38.0242 84.2157 38.0715 84.2872 38.1029 84.3659C38.1343 84.4446 38.1493 84.5289 38.1468 84.6135C38.1442 84.6982 38.1244 84.7814 38.0884 84.8581C38.0523 84.9348 38.0009 85.0034 37.9372 85.0597L31.0622 91.8947C30.9422 92.0067 30.7855 92.0716 30.621 92.0775Z" fill="white"/>
<path d="M79 56.4859V77.4693C78.9975 79.5897 79.5288 81.6764 80.5446 83.5355C81.5604 85.3947 83.0278 86.966 84.8105 88.1037L94.2842 94.1737C94.6473 94.4065 95.0691 94.5303 95.5 94.5303C95.9309 94.5303 96.3527 94.4065 96.7158 94.1737L106.189 88.1037C107.966 86.9596 109.429 85.3868 110.444 83.5291C111.459 81.6714 111.994 79.588 112 77.4693V56.4859L96.1158 53.6014C95.6628 53.5066 95.1951 53.5066 94.7421 53.6014L79 56.4859Z" fill="white" stroke="#161821" stroke-width="1.2" stroke-miterlimit="10"/>
<path d="M81 59.0543V76.9573C81.0016 78.7694 81.4706 80.552 82.3639 82.1409C83.2573 83.7299 84.5462 85.0741 86.112 86.0499L94.439 91.2232C94.7547 91.4236 95.1233 91.5303 95.5 91.5303C95.8767 91.5303 96.2452 91.4236 96.561 91.2232L104.888 86.0499C106.454 85.0741 107.743 83.7299 108.636 82.1409C109.529 80.552 109.998 78.7694 110 76.9573V59.0543L96.0466 56.5773C95.6419 56.5146 95.2295 56.5146 94.8248 56.5773L81 59.0543Z" fill="#E5453D"/>
<path d="M93.9027 79.5296C93.7685 79.532 93.6352 79.5092 93.5109 79.4627C93.3867 79.4161 93.2742 79.3469 93.1803 79.2591L86.2846 72.9463C86.102 72.7727 86 72.541 86 72.3C86 72.0589 86.102 71.8273 86.2846 71.6537C86.475 71.482 86.7315 71.3858 86.9988 71.3858C87.266 71.3858 87.5225 71.482 87.713 71.6537L93.9027 77.3202L104.295 67.7908C104.485 67.6237 104.738 67.5303 105.001 67.5303C105.265 67.5303 105.518 67.6237 105.707 67.7908C105.895 67.9652 106 68.2 106 68.4446C106 68.6893 105.895 68.9241 105.707 69.0985L94.6743 79.229C94.5778 79.328 94.4586 79.4063 94.3252 79.4583C94.1918 79.5102 94.0475 79.5346 93.9027 79.5296Z" fill="white"/>
</svg>