<svg xmlns="http://www.w3.org/2000/svg" width="172" height="30" viewBox="0 0 172 30" fill="none">
  <path d="M5.0049 4.59513L12.9659 0L20.9269 4.59513L18 6.29269L12.9659 3.39512L7.93174 6.29269L5.0049 4.59513ZM20.9269 10.3902L18 8.69269L12.9659 11.5903L7.93174 8.69269L5.0049 10.3902V13.7854L10.039 16.6829V22.478L12.9659 24.1756L15.8927 22.478V16.6829L20.9269 13.7854V10.3902ZM20.9269 19.5805V16.1854L18 17.8829V21.278L20.9269 19.5805ZM23.0049 20.7805L17.9708 23.678V27.0731L25.9317 22.478V13.2878L23.0049 14.9854V20.7805ZM20.0781 7.49269L23.0049 9.19024V12.5854L25.9317 10.8878V7.49269L23.0049 5.79513L20.0781 7.49269ZM10.039 24.9074V28.3025L12.9659 30L15.8927 28.3025V24.9074L12.9659 26.6049L10.039 24.9074ZM5.0049 19.5805L7.93174 21.278V17.8829L5.0049 16.1854V19.5805ZM10.039 7.49269L12.9659 9.19024L15.8927 7.49269L12.9659 5.79513L10.039 7.49269ZM2.92683 9.19024L5.85366 7.49269L2.92683 5.79513L0 7.49269V10.8878L2.92683 12.5854V9.19024ZM2.92683 14.9854L0 13.2878V22.478L7.96096 27.0731V23.678L2.92683 20.7805V14.9854Z" fill="#F0B90B"/>
  <path d="M49.0079 18.8273V18.7796C49.0079 16.5376 47.8153 15.4166 45.8834 14.6772C47.0759 14.0095 48.0777 12.96 48.0777 11.0757V11.028C48.0777 8.40437 45.9788 6.71094 42.568 6.71094H34.8164V23.4069H42.7589C46.5274 23.4069 49.0079 21.8803 49.0079 18.8273ZM44.4284 11.6958C44.4284 12.9361 43.4029 13.4608 41.781 13.4608H38.3942V9.93085H42.0195C43.5698 9.93085 44.4284 10.551 44.4284 11.6481V11.6958ZM45.3587 18.3742C45.3587 19.6145 44.3808 20.1869 42.7589 20.1869H38.3942V16.5139H42.6397C44.5239 16.5139 45.3587 17.2055 45.3587 18.3265V18.3742Z" fill="#F0B90B"/>
  <path d="M67.1011 23.4069V6.71094H63.4756V16.9908L55.6525 6.71094H52.2656V23.4069H55.891V12.793L63.9765 23.4069H67.1011Z" fill="#F0B90B"/>
  <path d="M85.5392 18.8273V18.7796C85.5392 16.5376 84.3465 15.4166 82.4147 14.6772C83.6072 14.0095 84.6089 12.96 84.6089 11.0757V11.028C84.6089 8.40437 82.51 6.71094 79.0993 6.71094H71.3477V23.4069H79.2902C83.0587 23.4069 85.5392 21.8803 85.5392 18.8273ZM80.9598 11.6958C80.9598 12.9361 79.9342 13.4608 78.3123 13.4608H74.9254V9.93085H78.5508C80.101 9.93085 80.9598 10.551 80.9598 11.6481V11.6958ZM81.8899 18.3742C81.8899 19.6145 80.912 20.1869 79.2902 20.1869H74.9254V16.5139H79.1709C81.0552 16.5139 81.8899 17.2055 81.8899 18.3265V18.3742Z" fill="#F0B90B"/>
  <path d="M107.675 20.4572L105.791 18.5492C104.36 19.8848 103.048 20.7195 100.997 20.7195C97.8005 20.7195 95.487 18.0483 95.487 14.7568C95.487 11.4653 97.8005 8.84167 100.997 8.84167C102.905 8.84167 104.336 9.67647 105.672 10.9167L107.556 8.74627C105.958 7.2198 104.097 6.14648 101.021 6.14648C95.964 6.14648 92.4102 10.0342 92.4102 14.8045C92.4102 19.6224 96.0357 23.4148 100.901 23.4148C104.026 23.4148 105.934 22.2699 107.675 20.4572Z" fill="#F0B90B"/>
  <path d="M121.9 16.0914V23.1275H124.834V6.43164H121.9V13.3724H113.934V6.43164H111V23.1275H113.934V16.0914H121.9Z" fill="#F0B90B"/>
  <path d="M137.991 6.3125H135.272L127.926 23.1276H130.931L132.648 19.0967H140.543L142.237 23.1276H145.337L137.991 6.3125ZM139.47 16.497H133.722L136.583 9.81864L139.47 16.497Z" fill="#F0B90B"/>
  <path d="M148.609 6.43164V23.1275H151.543V6.43164H148.609Z" fill="#F0B90B"/>
  <path d="M167.914 17.9756L158.969 6.43164H156.25V23.1275H159.136V11.2496L168.343 23.1275H170.8V6.43164H167.914V17.9756Z" fill="#F0B90B"/>
</svg>