<svg width="120" height="120" viewBox="0 0 120 120" fill="none" xmlns="http://www.w3.org/2000/svg">
<g clip-path="url(#clip0_27_406)">
<path d="M111.341 66.0232L103.618 69.5694L100.058 61.8464" stroke="#010101" stroke-width="2.45" stroke-linecap="round" stroke-linejoin="round"/>
<path d="M28.6874 33.8138L36.6767 30.8563L39.6201 38.8316" stroke="#010101" stroke-width="2.45" stroke-linecap="round" stroke-linejoin="round"/>
<path d="M45.6753 20.1619C62.1445 6.65019 86.4347 9.061 99.9464 25.5161C109.982 37.7524 111.244 54.3197 104.46 67.5651" stroke="#010101" stroke-width="2.45" stroke-linecap="round" stroke-linejoin="round"/>
<path d="M94.5781 79.7873C78.109 93.299 53.8187 90.8882 40.307 74.433C30.2713 62.1968 29.0098 45.6295 35.7937 32.3841" stroke="#010101" stroke-width="2.45" stroke-linecap="round" stroke-linejoin="round"/>
<path d="M21 57H6V105H21V57Z" stroke="#010101" stroke-width="2.45" stroke-linecap="round" stroke-linejoin="round"/>
<path d="M94.0175 96.1303C83.1969 102.339 75.3618 104.876 62.691 104.876C50.0203 104.876 40.349 97.2796 34.3641 95.892C28.3651 94.5044 20.9925 94.5044 20.9925 94.5044V65.0281H39.8164C41.9329 65.0281 43.9933 65.799 45.5911 67.2006L57.8414 77.9371H74.3105C76.6653 77.9371 78.5715 79.8433 78.5715 82.1981V86.3329C79.9311 86.1226 81.2626 85.8984 82.4961 85.59C84.8508 85.0714 86.9532 84.3846 88.7053 83.4595C90.191 82.6606 91.6347 81.8757 92.9662 81.1048C102.694 75.4842 108.847 70.6346 112.673 76.101C117.06 82.3102 104.852 89.907 94.0175 96.1303Z" fill="white" stroke="#010101" stroke-width="2.45" stroke-linecap="round" stroke-linejoin="round"/>
<path d="M46.124 85.7582C46.124 85.7582 64.6395 88.2672 78.5717 86.3189" stroke="#010101" stroke-width="2.45" stroke-linecap="round" stroke-linejoin="round"/>
<path d="M70 70C81.0457 70 90 61.0457 90 50C90 38.9543 81.0457 30 70 30C58.9543 30 50 38.9543 50 50C50 61.0457 58.9543 70 70 70Z" fill="#E5443C"/>
<path d="M79.3656 43.6232L79.4918 44.3801C79.4918 44.3801 79.6319 45.221 79.6319 46.4965C79.6319 47.7019 79.5198 49.3278 79.0713 51.1219C78.6508 52.8319 77.8799 54.8643 76.4923 56.8686C75.1046 58.8729 73.0863 60.8352 70.1569 62.4191L69.7925 62.6153L69.428 62.4191C66.4986 60.8352 64.4803 58.8729 63.0927 56.8686C61.7051 54.8643 60.9342 52.8319 60.5137 51.1219C60.0651 49.3278 59.953 47.7019 59.953 46.4965C59.953 45.2351 60.0792 44.4361 60.0932 44.3801L60.2193 43.6232C60.2614 43.3709 60.0932 43.1186 59.8269 43.0766C59.5746 43.0345 59.3223 43.2027 59.2802 43.469L59.1541 44.2259C59.1401 44.31 58.9999 45.165 58.9999 46.4965C58.9999 47.758 59.1261 49.468 59.5886 51.3462C60.0371 53.1403 60.836 55.2988 62.3078 57.4152C63.7795 59.5317 65.9099 61.6061 68.9795 63.26L69.5682 63.5684C69.7084 63.6385 69.8766 63.6385 70.0167 63.5684L70.6054 63.26C73.675 61.6061 75.8055 59.5317 77.2772 57.4152C78.7489 55.2988 79.5618 53.1543 79.9963 51.3462C80.4589 49.454 80.585 47.758 80.585 46.4965C80.585 45.165 80.4449 44.324 80.4308 44.2259L80.3047 43.469C80.2627 43.2167 80.0244 43.0345 79.7581 43.0766C79.5058 43.1186 79.3236 43.3569 79.3656 43.6232Z" fill="white"/>
<path d="M62.7701 43.1046L69.7783 40.9601L76.9406 43.1466C77.1929 43.2167 77.4592 43.0765 77.5293 42.8382C77.5994 42.5859 77.4592 42.3196 77.2209 42.2496L69.9184 40.021C69.8343 39.9929 69.7362 39.9929 69.6381 40.021L62.4898 42.2075C62.2375 42.2776 62.0973 42.5439 62.1814 42.7962C62.2515 43.0485 62.5178 43.1887 62.7701 43.1046Z" fill="white"/>
<path d="M59.3224 43.7634L69.3721 63.3722C69.4562 63.5264 69.6104 63.6245 69.7926 63.6245C69.9748 63.6245 70.129 63.5264 70.2131 63.3722L76.3382 51.9208L80.2628 43.7493C80.3749 43.5111 80.2768 43.2307 80.0385 43.1186C79.8003 43.0065 79.5199 43.1046 79.4078 43.3429L75.4972 51.4863L69.8066 62.1387L60.1774 43.3429C60.0653 43.1046 59.7709 43.0205 59.5467 43.1326C59.3084 43.2448 59.2243 43.5391 59.3364 43.7634H59.3224Z" fill="white"/>
<path d="M64.13 52.4955H75.301C75.5673 52.4955 75.7775 52.2852 75.7775 52.0189C75.7775 51.7526 75.5673 51.5424 75.301 51.5424H64.13C63.8637 51.5424 63.6534 51.7526 63.6534 52.0189C63.6534 52.2852 63.8637 52.4955 64.13 52.4955Z" fill="white"/>
</g>
<defs>
<clipPath id="clip0_27_406">
<rect width="110" height="100.889" fill="white" transform="translate(5 10)"/>
</clipPath>
</defs>
</svg>
