<svg width="400" height="300" viewBox="0 0 400 300" fill="none" xmlns="http://www.w3.org/2000/svg">
<g clip-path="url(#clip0_536_782)">
<path d="M21.8754 0.80706H377.662C389.329 0.80706 398.801 10.2794 398.801 21.9464V268.51C398.801 285.501 385.01 299.292 368.02 299.292H31.5177C14.5269 299.292 0.736084 285.501 0.736084 268.51V21.9464C0.736084 10.2794 10.2084 0.80706 21.8754 0.80706Z" fill="white"/>
<path d="M386.738 0.80706H13.1113C6.45658 0.80706 1.06201 6.20162 1.06201 12.8563V26.9162H398.801V12.8563C398.801 6.20162 393.407 0.80706 386.752 0.80706H386.738Z" fill="#F9FBFF"/>
<path d="M399.594 27.7091H0.254639V12.8563C0.254639 5.7627 6.01733 0 13.111 0H386.738C393.831 0 399.594 5.7627 399.594 12.8563V27.7091ZM1.86876 26.1091H397.994V12.8563C397.994 6.65471 392.939 1.59996 386.738 1.59996H13.111C6.90935 1.59996 1.86876 6.65471 1.86876 12.8563V26.1091Z" fill="#101C3A"/>
<path d="M355.772 11.6811C354.186 11.6811 352.898 12.9696 352.898 14.5554C352.898 16.1412 354.186 17.4297 355.772 17.4297C357.358 17.4297 358.646 16.1412 358.646 14.5554C358.646 12.9696 357.358 11.6811 355.772 11.6811Z" fill="#101C3A"/>
<path d="M367.92 11.6811C366.334 11.6811 365.032 12.9696 365.032 14.5554C365.032 16.1412 366.32 17.4297 367.92 17.4297C369.52 17.4297 370.794 16.1412 370.794 14.5554C370.794 12.9696 369.506 11.6811 367.92 11.6811Z" fill="white"/>
<path d="M380.083 11.6811C378.497 11.6811 377.209 12.9696 377.209 14.5554C377.209 16.1412 378.497 17.4297 380.083 17.4297C381.669 17.4297 382.971 16.1412 382.971 14.5554C382.971 12.9696 381.683 11.6811 380.083 11.6811Z" fill="#E5453D"/>
<path d="M386.922 0.0849556H12.6156C5.67774 0.0849556 0 5.73438 0 12.7006V281.976C0 291.915 8.09892 300 18.0385 300H381.485C391.439 300 399.523 291.915 399.523 281.976V12.7006C399.523 5.73438 393.874 0.0849556 386.922 0.0849556ZM398.079 281.976C398.079 291.122 390.646 298.556 381.485 298.556H18.0385C8.90598 298.556 1.44421 291.122 1.44421 281.976V12.7006C1.45837 6.52728 6.45648 1.51501 12.6156 1.51501H386.922C393.067 1.51501 398.079 6.52728 398.079 12.7006V281.976Z" fill="#101C3A"/>
<g opacity="0.5">
<path d="M87.7008 123.99C86.6247 123.99 85.761 123.126 85.761 122.05C85.761 120.974 86.6247 120.11 87.7008 120.11C88.7768 120.11 89.6405 120.974 89.6405 122.05C89.6405 123.126 88.7768 123.99 87.7008 123.99Z" fill="#DFE4F4"/>
<path d="M87.7008 134.085C86.6247 134.085 85.761 133.222 85.761 132.146C85.761 131.069 86.6247 130.206 87.7008 130.206C88.7768 130.206 89.6405 131.069 89.6405 132.146C89.6405 133.222 88.7768 134.085 87.7008 134.085Z" fill="#DFE4F4"/>
<path d="M87.7008 144.662C86.6247 144.662 85.761 143.798 85.761 142.722C85.761 141.646 86.6247 140.783 87.7008 140.783C88.7768 140.783 89.6405 141.646 89.6405 142.722C89.6405 143.798 88.7768 144.662 87.7008 144.662Z" fill="#DFE4F4"/>
<path d="M87.7008 154.757C86.6247 154.757 85.761 153.894 85.761 152.818C85.761 151.742 86.6247 150.878 87.7008 150.878C88.7768 150.878 89.6405 151.756 89.6405 152.818C89.6405 153.88 88.7768 154.757 87.7008 154.757Z" fill="#DFE4F4"/>
<path d="M87.7008 164.853C86.6247 164.853 85.761 163.989 85.761 162.913C85.761 161.837 86.6247 160.973 87.7008 160.973C88.7768 160.973 89.6405 161.837 89.6405 162.913C89.6405 163.989 88.7768 164.853 87.7008 164.853Z" fill="#DFE4F4"/>
<path d="M87.7008 174.934C86.6247 174.934 85.761 174.07 85.761 172.994C85.761 171.918 86.6247 171.054 87.7008 171.054C88.7768 171.054 89.6405 171.918 89.6405 172.994C89.6405 174.07 88.7768 174.934 87.7008 174.934Z" fill="#DFE4F4"/>
<path d="M87.7008 185.029C86.6247 185.029 85.761 184.166 85.761 183.089C85.761 182.013 86.6247 181.15 87.7008 181.15C88.7768 181.15 89.6405 182.013 89.6405 183.089C89.6405 184.166 88.7768 185.029 87.7008 185.029Z" fill="#DFE4F4"/>
<path d="M87.7008 195.125C86.6247 195.125 85.761 194.261 85.761 193.185C85.761 192.109 86.6247 191.245 87.7008 191.245C88.7768 191.245 89.6405 192.109 89.6405 193.185C89.6405 194.261 88.7768 195.125 87.7008 195.125Z" fill="#DFE4F4"/>
<path d="M87.7008 205.206C86.6247 205.206 85.761 204.328 85.761 203.266C85.761 202.204 86.6247 201.326 87.7008 201.326C88.7768 201.326 89.6405 202.19 89.6405 203.266C89.6405 204.342 88.7768 205.206 87.7008 205.206Z" fill="#DFE4F4"/>
<path d="M87.7008 215.301C86.6247 215.301 85.761 214.437 85.761 213.361C85.761 212.285 86.6247 211.422 87.7008 211.422C88.7768 211.422 89.6405 212.285 89.6405 213.361C89.6405 214.437 88.7768 215.301 87.7008 215.301Z" fill="#DFE4F4"/>
<path d="M87.7008 225.396C86.6247 225.396 85.761 224.519 85.761 223.457C85.761 222.395 86.6247 221.517 87.7008 221.517C88.7768 221.517 89.6405 222.381 89.6405 223.457C89.6405 224.533 88.7768 225.396 87.7008 225.396Z" fill="#DFE4F4"/>
<path d="M373.117 40.2822H320.856V45.1529H373.117V40.2822Z" fill="#DFE4F4"/>
<path d="M373.117 49.7829H320.856V54.6536H373.117V49.7829Z" fill="#DFE4F4"/>
<path d="M373.117 59.2977H320.856V64.1684H373.117V59.2977Z" fill="#DFE4F4"/>
<path d="M373.117 68.7984H278.422V73.6691H373.117V68.7984Z" fill="#DFE4F4"/>
<path d="M349.472 86.313H297.211V91.1837H349.472V86.313Z" fill="#DFE4F4"/>
<path d="M349.472 95.8137H297.211V100.684H349.472V95.8137Z" fill="#DFE4F4"/>
<path d="M195.493 95.6438H143.232V100.514H195.493V95.6438Z" fill="#DFE4F4"/>
<path d="M349.472 105.328H297.211V110.199H349.472V105.328Z" fill="#DFE4F4"/>
<path d="M314.159 40.2822H182.056V45.1529H314.159V40.2822Z" fill="#DFE4F4"/>
<path d="M314.145 49.7829H215.131V54.6536H314.145V49.7829Z" fill="#DFE4F4"/>
<path d="M208.066 49.6979H141.533V54.5686H208.066V49.6979Z" fill="#E5453D"/>
<path d="M314.145 59.2977H120.111V64.1684H314.145V59.2977Z" fill="#DFE4F4"/>
<path d="M260.765 68.7984H134.822V73.6691H260.765V68.7984Z" fill="#DFE4F4"/>
<path d="M290.499 86.313H120.677V91.1837H290.499V86.313Z" fill="#DFE4F4"/>
<path d="M290.499 95.8137H202.19V100.684H290.499V95.8137Z" fill="#DFE4F4"/>
<path d="M290.5 105.328H153.526V110.199H290.5V105.328Z" fill="#DFE4F4"/>
<path d="M320.7 116.854H268.44V121.725H320.7V116.854Z" fill="#DFE4F4"/>
<path d="M165.334 116.797H120.918V121.668H165.334V116.797Z" fill="#DFE4F4"/>
<path d="M261.558 116.797H175.231V121.668H261.558V116.797Z" fill="#DFE4F4"/>
<path d="M320.701 126.369H105.739V131.239H320.701V126.369Z" fill="#DFE4F4"/>
<path d="M320.701 135.869H197.801V140.74H320.701V135.869Z" fill="#DFE4F4"/>
<path d="M190.24 135.869H106.291V140.74H190.24V135.869Z" fill="#DFE4F4"/>
<path d="M349.146 145.384H296.885V150.255H349.146V145.384Z" fill="#E5453D"/>
<path d="M349.146 154.899H215.372V159.77H349.146V154.899Z" fill="#DFE4F4"/>
<path d="M207.627 154.772H105.739V159.642H207.627V154.772Z" fill="#DFE4F4"/>
<path d="M349.146 164.4H250.854V169.27H349.146V164.4Z" fill="#DFE4F4"/>
<path d="M349.146 173.914H231.358V178.785H349.146V173.914Z" fill="#DFE4F4"/>
<path d="M317.826 184.052H187.564V188.923H317.826V184.052Z" fill="#DFE4F4"/>
<path d="M317.826 193.553H154.318V198.424H317.826V193.553Z" fill="#DFE4F4"/>
<path d="M317.826 203.068H265.566V207.938H317.826V203.068Z" fill="#DFE4F4"/>
<path d="M131.778 212.455H111.007V217.326H131.778V212.455Z" fill="#DFE4F4"/>
<path d="M317.812 212.583H140.089V217.453H317.812V212.583Z" fill="#DFE4F4"/>
<path d="M309.189 222.083H256.928V226.954H309.189V222.083Z" fill="#DFE4F4"/>
<path d="M249.736 222.083H123.07V226.954H249.736V222.083Z" fill="#DFE4F4"/>
<path d="M104.351 40.3955H51.7085V45.2662H104.351V40.3955Z" fill="#DFE4F4"/>
<path d="M104.351 49.8962H51.7085V54.7668H104.351V49.8962Z" fill="#DFE4F4"/>
<path d="M104.338 68.9258H24.6936V73.7965H104.338V68.9258Z" fill="#DFE4F4"/>
<path d="M86.993 86.4263H24.6936V91.297H86.993V86.4263Z" fill="#DFE4F4"/>
<path d="M43.4259 40.3955H24.6936V45.2662H43.4259V40.3955Z" fill="#DFE4F4"/>
<path d="M43.4259 49.8962H24.6936V54.7668H43.4259V49.8962Z" fill="#DFE4F4"/>
<path d="M40.41 116.967H24.6936V121.838H40.41V116.967Z" fill="#DFE4F4"/>
<path d="M85.9874 105.668H70.271V110.539H85.9874V105.668Z" fill="#DFE4F4"/>
<path d="M40.41 126.482H24.6936V131.353H40.41V126.482Z" fill="#DFE4F4"/>
<path d="M60.9972 155.012H24.6936V159.883H60.9972V155.012Z" fill="#DFE4F4"/>
<path d="M60.9972 174.028H24.6936V178.898H60.9972V174.028Z" fill="#E5453D"/>
<path d="M38.3428 184.166H24.6936V189.036H38.3428V184.166Z" fill="#DFE4F4"/>
<path d="M38.3428 212.696H24.6936V217.567H38.3428V212.696Z" fill="#DFE4F4"/>
<path d="M87.1771 182.665C86.101 182.665 85.2373 181.801 85.2373 180.725C85.2373 179.649 86.101 178.785 87.1771 178.785C88.2532 178.785 89.1169 179.649 89.1169 180.725C89.1169 181.801 88.2532 182.665 87.1771 182.665Z" fill="#DFE4F4"/>
<path d="M87.1771 192.76C86.101 192.76 85.2373 191.896 85.2373 190.82C85.2373 189.744 86.101 188.88 87.1771 188.88C88.2532 188.88 89.1169 189.744 89.1169 190.82C89.1169 191.896 88.2532 192.76 87.1771 192.76Z" fill="#DFE4F4"/>
<path d="M348.636 232.589H230.848V237.46H348.636V232.589Z" fill="#DFE4F4"/>
<path d="M317.317 242.727H187.054V247.598H317.317V242.727Z" fill="#DFE4F4"/>
<path d="M317.317 252.242H153.809V257.112H317.317V252.242Z" fill="#DFE4F4"/>
<path d="M317.302 261.742H265.042V266.613H317.302V261.742Z" fill="#DFE4F4"/>
<path d="M131.268 271.13H110.497V276.001H131.268V271.13Z" fill="#DFE4F4"/>
<path d="M317.303 271.257H139.579V276.128H317.303V271.257Z" fill="#DFE4F4"/>
<path d="M308.68 280.758H256.419V285.629H308.68V280.758Z" fill="#E5453D"/>
<path d="M249.226 280.758H122.56V285.629H249.226V280.758Z" fill="#DFE4F4"/>
<path d="M60.4872 232.702H24.1836V237.573H60.4872V232.702Z" fill="#DFE4F4"/>
<path d="M37.8328 242.84H24.1836V247.711H37.8328V242.84Z" fill="#DFE4F4"/>
<path d="M37.8328 271.371H24.1836V276.241H37.8328V271.371Z" fill="#DFE4F4"/>
</g>
<path d="M122.928 200.052C122.928 200.052 122.546 199.755 121.937 199.132C121.626 198.82 121.257 198.438 120.889 197.942C120.507 197.461 120.04 196.923 119.615 196.271C118.695 194.997 117.774 193.383 116.896 191.5C116.061 189.603 115.311 187.45 114.787 185.114C114.291 182.778 114.093 180.498 114.079 178.417C114.107 176.35 114.277 174.481 114.589 172.952C114.702 172.173 114.914 171.493 115.056 170.899C115.197 170.29 115.367 169.794 115.523 169.384C115.82 168.562 116.004 168.123 116.061 168.138C116.189 168.18 115.551 169.992 115.098 173.037C114.858 174.552 114.73 176.378 114.744 178.417C114.801 180.442 115.013 182.665 115.495 184.958C116.004 187.238 116.727 189.362 117.505 191.231C118.327 193.086 119.19 194.7 120.04 195.988C121.711 198.579 123.041 199.967 122.928 200.066V200.052Z" fill="#1A2E35"/>
<path d="M135.26 201.836C135.26 201.836 134.807 201.609 134.043 201.071C133.66 200.816 133.207 200.477 132.726 200.024C132.23 199.585 131.65 199.117 131.084 198.509C129.894 197.348 128.648 195.818 127.416 194.006C126.227 192.165 125.08 190.027 124.188 187.663C123.31 185.284 122.772 182.92 122.461 180.753C122.192 178.573 122.135 176.591 122.277 174.948C122.291 174.113 122.432 173.376 122.517 172.725C122.588 172.074 122.716 171.522 122.829 171.069C123.041 170.177 123.197 169.681 123.239 169.695C123.381 169.723 122.9 171.706 122.786 174.962C122.716 176.591 122.829 178.53 123.126 180.654C123.466 182.778 124.018 185.072 124.868 187.408C125.746 189.73 126.85 191.826 127.983 193.638C129.158 195.436 130.347 196.965 131.466 198.155C133.675 200.547 135.345 201.723 135.26 201.836Z" fill="#1A2E35"/>
<path d="M266.953 186.757C266.826 186.686 267.93 184.718 269.176 181.32C269.813 179.621 270.422 177.553 270.946 175.217C271.427 172.881 271.824 170.276 271.965 167.515C272.079 164.754 271.951 162.134 271.682 159.756C271.385 157.391 270.974 155.267 270.507 153.511C269.587 150.014 268.681 147.933 268.808 147.89C268.85 147.876 269.105 148.372 269.53 149.306C269.969 150.227 270.479 151.628 271.003 153.384C271.541 155.14 272.008 157.278 272.348 159.671C272.645 162.078 272.801 164.754 272.687 167.557C272.546 170.361 272.135 172.994 271.597 175.373C271.031 177.737 270.365 179.819 269.657 181.504C268.964 183.203 268.312 184.534 267.789 185.412C267.279 186.304 266.981 186.771 266.939 186.757H266.953Z" fill="#1A2E35"/>
<path d="M278.323 183.84C278.195 183.769 279.087 182.169 280.036 179.38C280.517 177.992 280.956 176.293 281.31 174.396C281.636 172.484 281.848 170.361 281.834 168.123C281.806 165.886 281.565 163.762 281.211 161.865C280.829 159.968 280.361 158.283 279.866 156.895C278.875 154.134 277.969 152.52 278.096 152.464C278.138 152.435 278.393 152.818 278.818 153.54C279.257 154.248 279.795 155.338 280.347 156.711C280.928 158.085 281.452 159.798 281.876 161.724C282.273 163.663 282.542 165.83 282.57 168.109C282.57 170.389 282.33 172.569 281.976 174.509C281.579 176.449 281.069 178.162 280.517 179.55C279.979 180.937 279.455 182.028 279.03 182.75C278.62 183.472 278.365 183.854 278.323 183.84Z" fill="#1A2E35"/>
<path d="M271.045 223.258H123.806C120.506 223.258 117.831 225.934 117.831 229.234V258.528C117.831 261.828 120.506 264.503 123.806 264.503H271.045C274.345 264.503 277.02 261.828 277.02 258.528V229.234C277.02 225.934 274.345 223.258 271.045 223.258Z" stroke="#101C3A" stroke-width="1.4159" stroke-miterlimit="10"/>
<path d="M262.252 165.801L198.579 80.0972C195.365 75.7787 188.88 76.2035 186.275 80.9184L134.595 174.339C131.706 179.55 135.671 185.964 141.533 185.581L256.872 177.865C262.733 177.468 265.792 170.587 262.238 165.801H262.252Z" fill="#E5453D"/>
<g opacity="0.5">
<path d="M202.869 146.191L190.891 146.998L186.742 112.804L202.416 111.757L202.869 146.191ZM190.041 159.798C189.9 157.603 190.438 155.848 191.655 154.531C192.873 153.228 194.742 152.478 197.234 152.322C199.726 152.166 201.609 152.648 202.968 153.78C204.313 154.913 205.064 156.584 205.22 158.793C205.375 161.002 204.823 162.715 203.577 164.017C202.345 165.32 200.533 166.056 198.168 166.226C195.804 166.396 193.864 165.901 192.42 164.768C190.99 163.635 190.197 161.978 190.041 159.812V159.798Z" fill="white"/>
</g>
<path d="M255.739 163.239L198.282 85.9024C195.379 82.0087 189.532 82.391 187.181 86.6387L140.542 170.941C137.936 175.642 141.504 181.433 146.8 181.079L250.897 174.113C256.178 173.759 258.953 167.543 255.739 163.224V163.239Z" stroke="white" stroke-width="1.37342" stroke-miterlimit="10"/>
<path d="M133.661 121.456L126.029 69.2232C125.647 66.5896 122.716 65.2586 120.479 66.7029L76.0902 95.2615C73.6124 96.8614 73.8247 100.571 76.4725 101.775L128.492 125.434C131.14 126.638 134.085 124.358 133.661 121.441V121.456Z" fill="#101C3A"/>
<path d="M112.422 99.0136L107.028 96.5641L113.229 80.7061L120.295 83.9201L112.422 99.0136ZM103.644 101.93C104.097 100.939 104.734 100.302 105.584 100.019C106.419 99.7357 107.41 99.849 108.529 100.359C109.647 100.868 110.355 101.52 110.681 102.341C111.006 103.148 110.936 104.054 110.483 105.045C110.029 106.036 109.392 106.659 108.543 106.943C107.693 107.226 106.745 107.127 105.668 106.631C104.592 106.136 103.87 105.484 103.502 104.649C103.148 103.828 103.191 102.921 103.63 101.93H103.644Z" fill="white"/>
<path d="M131.438 118.822L124.542 71.6868C124.188 69.3081 121.555 68.1046 119.53 69.4072L79.4744 95.1765C77.2373 96.6207 77.4355 99.9764 79.8142 101.052L126.765 122.404C129.144 123.494 131.806 121.427 131.424 118.808L131.438 118.822Z" stroke="white" stroke-width="0.67963" stroke-miterlimit="10"/>
<path d="M293.388 107.325L273.013 82.7308C271.979 81.4848 270.054 81.7255 269.346 83.1697L255.385 111.898C254.606 113.498 255.895 115.353 257.636 115.141L291.972 111.006C293.713 110.794 294.52 108.684 293.388 107.311V107.325Z" fill="#101C3A"/>
<path d="M275.349 102.412L271.781 102.837L269.997 92.6845L274.67 92.1182L275.349 102.398V102.412ZM271.739 106.688C271.654 106.036 271.795 105.498 272.135 105.088C272.475 104.677 273.027 104.422 273.763 104.337C274.5 104.252 275.08 104.366 275.491 104.677C275.916 104.989 276.156 105.484 276.241 106.136C276.326 106.787 276.185 107.311 275.831 107.721C275.477 108.132 274.953 108.387 274.245 108.472C273.537 108.557 272.956 108.443 272.503 108.132C272.05 107.82 271.795 107.339 271.71 106.688H271.739Z" fill="white"/>
<path d="M291.405 106.659L273.013 84.4582C272.093 83.3396 270.337 83.552 269.714 84.8546L257.112 110.78C256.405 112.224 257.566 113.895 259.137 113.711L290.131 109.987C291.703 109.803 292.439 107.891 291.405 106.659Z" stroke="white" stroke-width="0.41061" stroke-miterlimit="10"/>
<path d="M151.405 250.481H147.025V238.124H151.441C152.684 238.124 153.754 238.372 154.651 238.866C155.548 239.357 156.238 240.063 156.721 240.984C157.207 241.905 157.451 243.008 157.451 244.291C157.451 245.578 157.207 246.684 156.721 247.609C156.238 248.534 155.544 249.244 154.639 249.739C153.738 250.234 152.66 250.481 151.405 250.481ZM149.637 248.243H151.296C152.069 248.243 152.718 248.106 153.245 247.832C153.776 247.555 154.175 247.126 154.44 246.547C154.71 245.964 154.844 245.212 154.844 244.291C154.844 243.378 154.71 242.631 154.44 242.052C154.175 241.473 153.778 241.047 153.251 240.773C152.724 240.5 152.075 240.363 151.303 240.363H149.637V248.243ZM159.386 250.481V238.124H167.713V240.278H161.999V243.223H167.284V245.377H161.999V248.327H167.737V250.481H159.386ZM169.319 240.278V238.124H179.468V240.278H175.684V250.481H173.102V240.278H169.319ZM181.139 250.481V238.124H189.465V240.278H183.751V243.223H189.037V245.377H183.751V248.327H189.489V250.481H181.139ZM202.445 242.45H199.802C199.754 242.109 199.656 241.805 199.507 241.539C199.358 241.27 199.167 241.041 198.934 240.852C198.7 240.662 198.431 240.518 198.125 240.417C197.823 240.317 197.496 240.266 197.142 240.266C196.502 240.266 195.945 240.425 195.47 240.743C194.996 241.057 194.628 241.515 194.366 242.119C194.105 242.718 193.974 243.446 193.974 244.303C193.974 245.184 194.105 245.924 194.366 246.523C194.632 247.122 195.002 247.575 195.476 247.881C195.951 248.186 196.5 248.339 197.124 248.339C197.473 248.339 197.797 248.293 198.095 248.2C198.397 248.108 198.664 247.973 198.897 247.796C199.131 247.615 199.324 247.396 199.477 247.139C199.634 246.881 199.742 246.587 199.802 246.258L202.445 246.27C202.377 246.837 202.206 247.384 201.932 247.911C201.663 248.434 201.299 248.902 200.84 249.317C200.386 249.727 199.843 250.053 199.211 250.294C198.584 250.531 197.874 250.65 197.081 250.65C195.979 250.65 194.994 250.401 194.125 249.902C193.26 249.403 192.576 248.681 192.073 247.736C191.575 246.791 191.325 245.646 191.325 244.303C191.325 242.955 191.579 241.809 192.085 240.864C192.592 239.918 193.28 239.198 194.149 238.704C195.018 238.205 195.995 237.955 197.081 237.955C197.797 237.955 198.461 238.056 199.072 238.257C199.688 238.458 200.233 238.752 200.708 239.138C201.182 239.52 201.568 239.989 201.866 240.544C202.168 241.099 202.361 241.734 202.445 242.45ZM203.848 240.278V238.124H213.997V240.278H210.214V250.481H207.631V240.278H203.848ZM218.281 238.124V250.481H215.668V238.124H218.281ZM230.766 238.124V250.481H228.509L223.133 242.704H223.043V250.481H220.43V238.124H222.723L228.057 245.896H228.165V238.124H230.766ZM241.118 242.119C241.033 241.825 240.915 241.565 240.762 241.34C240.609 241.111 240.422 240.918 240.201 240.761C239.984 240.6 239.734 240.477 239.453 240.393C239.175 240.308 238.867 240.266 238.529 240.266C237.898 240.266 237.343 240.423 236.864 240.737C236.39 241.051 236.019 241.507 235.754 242.106C235.488 242.702 235.356 243.43 235.356 244.291C235.356 245.151 235.486 245.884 235.748 246.487C236.009 247.09 236.379 247.551 236.858 247.869C237.337 248.182 237.902 248.339 238.554 248.339C239.145 248.339 239.65 248.235 240.068 248.026C240.49 247.812 240.812 247.513 241.033 247.126C241.259 246.74 241.371 246.284 241.371 245.757L241.902 245.835H238.716V243.868H243.887V245.425C243.887 246.511 243.658 247.444 243.199 248.225C242.741 249.001 242.109 249.6 241.305 250.023C240.5 250.441 239.579 250.65 238.542 250.65C237.383 250.65 236.365 250.395 235.488 249.884C234.612 249.369 233.928 248.639 233.437 247.694C232.95 246.744 232.707 245.618 232.707 244.315C232.707 243.313 232.852 242.42 233.141 241.636C233.435 240.847 233.845 240.18 234.372 239.633C234.899 239.086 235.513 238.669 236.213 238.384C236.912 238.098 237.671 237.955 238.487 237.955C239.187 237.955 239.839 238.058 240.442 238.263C241.045 238.464 241.58 238.75 242.047 239.12C242.518 239.49 242.902 239.93 243.199 240.441C243.497 240.948 243.688 241.507 243.773 242.119H241.118ZM247.304 250.638C246.906 250.638 246.564 250.497 246.278 250.216C245.997 249.93 245.856 249.588 245.856 249.19C245.856 248.796 245.997 248.458 246.278 248.176C246.564 247.895 246.906 247.754 247.304 247.754C247.69 247.754 248.028 247.895 248.318 248.176C248.607 248.458 248.752 248.796 248.752 249.19C248.752 249.455 248.684 249.699 248.547 249.92C248.414 250.137 248.239 250.312 248.022 250.445C247.805 250.574 247.565 250.638 247.304 250.638ZM252.365 250.638C251.966 250.638 251.624 250.497 251.339 250.216C251.057 249.93 250.917 249.588 250.917 249.19C250.917 248.796 251.057 248.458 251.339 248.176C251.624 247.895 251.966 247.754 252.365 247.754C252.751 247.754 253.089 247.895 253.378 248.176C253.668 248.458 253.813 248.796 253.813 249.19C253.813 249.455 253.744 249.699 253.608 249.92C253.475 250.137 253.3 250.312 253.083 250.445C252.865 250.574 252.626 250.638 252.365 250.638ZM257.425 250.638C257.027 250.638 256.685 250.497 256.4 250.216C256.118 249.93 255.977 249.588 255.977 249.19C255.977 248.796 256.118 248.458 256.4 248.176C256.685 247.895 257.027 247.754 257.425 247.754C257.811 247.754 258.149 247.895 258.439 248.176C258.729 248.458 258.873 248.796 258.873 249.19C258.873 249.455 258.805 249.699 258.668 249.92C258.536 250.137 258.361 250.312 258.143 250.445C257.926 250.574 257.687 250.638 257.425 250.638Z" fill="black"/>
</g>
<defs>
<clipPath id="clip0_536_782">
<rect width="399.594" height="300" fill="white"/>
</clipPath>
</defs>
</svg>
