<svg xmlns="http://www.w3.org/2000/svg" width="144" height="30" viewBox="0 0 144 30" fill="none">
  <g clip-path="url(#clip0_2008_411)">
    <path d="M27.1341 11.4051L28.8288 13.1064L30.5232 14.8075L23.0532 22.3029C22.2358 23.1249 21.5957 23.766 21.0724 24.2681C20.2782 25.0341 19.7587 25.479 19.3131 25.7443C18.2125 26.3973 16.9575 26.7418 15.6791 26.7418C14.4008 26.7418 13.1457 26.3973 12.0452 25.7443C11.3054 25.3034 10.1822 24.5569 8.12101 22.4928C6.05983 20.4288 5.3162 19.2959 4.8822 18.552C4.23051 17.448 3.88665 16.1884 3.88665 14.905C3.88665 13.6218 4.23051 12.3622 4.8822 11.2582C5.32137 10.5142 6.24898 9.56739 8.31016 7.50204L14.8526 0.926198H10.2729L6.01319 5.19738C3.69549 7.52935 2.72903 8.5178 2.08904 9.5999C1.14092 11.2058 0.640625 13.0383 0.640625 14.905C0.640625 16.7719 1.14092 18.6043 2.08904 20.2103C2.72903 21.2936 3.51412 22.4655 5.82922 24.7923C8.14434 27.119 9.32067 27.9033 10.3921 28.547C11.9687 29.4848 13.7649 29.986 15.5974 29.9998C17.4299 30.0134 19.2332 29.5391 20.8236 28.6251C20.8703 28.5991 20.9169 28.5744 20.9622 28.547C21.6684 28.127 22.3342 27.5651 23.3616 26.574C23.9019 26.0538 24.5419 25.4035 25.3425 24.6075L31.1179 18.8095C32.2489 17.6728 32.5754 17.3463 32.8475 16.6621C33.3256 15.458 33.3409 14.1183 32.8903 12.9034C32.6311 12.2115 32.3162 11.8773 31.206 10.7158C30.0491 9.60641 29.7161 9.28516 29.0282 9.02504C27.8186 8.5728 26.4848 8.58764 25.2855 9.06666C24.6014 9.34109 24.2763 9.66754 23.144 10.8043L15.4096 18.578L13.7137 16.8768L12.018 15.1756L19.4841 7.68021C20.3029 6.85954 20.9415 6.21704 21.4662 5.71501C22.2591 4.95026 22.7799 4.50545 23.2243 4.24013C24.3248 3.58621 25.5801 3.24121 26.8589 3.24121C28.1376 3.24121 29.393 3.58621 30.4935 4.24013C31.2319 4.67713 32.2645 5.51993 34.3244 7.58918C36.3843 9.65844 37.2211 10.6937 37.6604 11.4403C38.3128 12.5446 38.657 13.805 38.657 15.0891C38.657 16.3731 38.3128 17.6335 37.6604 18.7379C37.2211 19.4793 36.2949 20.4288 34.2336 22.4928L27.6782 29.0738H32.258L36.5176 24.7974C38.8354 22.4706 39.8019 21.4823 40.4419 20.4001C41.3903 18.794 41.8906 16.9614 41.8906 15.0943C41.8906 13.2273 41.3903 11.3946 40.4419 9.78849C39.8019 8.70639 38.93 7.6282 36.6096 5.30011C34.2894 2.97204 33.2166 2.09544 32.1388 1.45294C30.5621 0.515246 28.766 0.0139975 26.9335 0.000288935C25.101 -0.0134196 23.2976 0.460901 21.7073 1.3749L21.5686 1.45294C20.8625 1.86784 20.2031 2.42969 19.1666 3.42075C18.6251 3.94099 17.9865 4.58349 17.1859 5.38726L11.4246 11.1801C10.2923 12.3104 9.96844 12.6368 9.69379 13.3223C9.21562 14.5265 9.2004 15.8661 9.65104 17.081C9.91014 17.7716 10.2262 18.1059 11.3352 19.2686C12.4934 20.378 12.8264 20.6993 13.5156 20.9594C14.7253 21.4118 16.0592 21.3965 17.2584 20.9164C17.9411 20.642 18.2662 20.3155 19.3972 19.1789L27.1341 11.4051Z" fill="#FF9900"/>
    <path d="M139.798 25.3841C138.443 25.3841 137.308 25.1266 136.391 24.6116C135.494 24.0768 134.816 23.344 134.359 22.413C133.901 21.4622 133.671 20.3728 133.671 19.1448V6.51758H137.736V19.026C137.736 19.8381 137.956 20.4718 138.395 20.9275C138.834 21.383 139.426 21.6108 140.17 21.6108C140.59 21.6108 141.039 21.5513 141.516 21.4326C141.993 21.3137 142.403 21.1355 142.746 20.8977V24.6711C142.384 24.889 141.926 25.0573 141.373 25.1761C140.838 25.3147 140.314 25.3841 139.798 25.3841ZM142.746 13.8265H131.066V10.2612H142.746V13.8265Z" fill="#202020"/>
    <path d="M120.736 25.3553C119.362 25.3553 118.15 25.0087 117.101 24.3155C116.051 23.6023 115.221 22.6615 114.61 21.4928C114.018 20.3045 113.723 18.9971 113.723 17.571C113.723 16.1647 114.057 14.8772 114.725 13.7086C115.412 12.5201 116.328 11.5793 117.473 10.886C118.637 10.1729 119.944 9.81641 121.395 9.81641C122.864 9.81641 124.181 10.163 125.346 10.8563C126.509 11.5297 127.426 12.4508 128.094 13.6195C128.762 14.7682 129.096 16.0855 129.096 17.571V24.9691H125.231V19.6507L126.462 19.2942C126.462 20.4431 126.223 21.483 125.747 22.4138C125.269 23.3251 124.611 24.048 123.771 24.5828C122.931 25.0978 121.92 25.3553 120.736 25.3553ZM121.395 21.4037C122.101 21.4037 122.721 21.2353 123.256 20.8986C123.809 20.5421 124.239 20.0766 124.544 19.5022C124.868 18.9278 125.031 18.294 125.031 17.6007C125.031 16.9075 124.868 16.2736 124.544 15.6992C124.239 15.1248 123.809 14.6692 123.256 14.3325C122.721 13.976 122.101 13.7977 121.395 13.7977C120.708 13.7977 120.088 13.976 119.534 14.3325C119 14.6692 118.57 15.1248 118.246 15.6992C117.94 16.2736 117.788 16.9075 117.788 17.6007C117.788 18.294 117.94 18.9278 118.246 19.5022C118.57 20.0766 119 20.5421 119.534 20.8986C120.088 21.2353 120.708 21.4037 121.395 21.4037Z" fill="#202020"/>
    <path d="M104.062 25.3536C102.344 25.3536 100.817 24.9871 99.4813 24.2542C98.1645 23.5016 97.2006 22.4122 96.5898 20.986L100.082 19.1736C100.388 19.8867 100.874 20.4315 101.542 20.8077C102.23 21.1841 103.069 21.3722 104.062 21.3722C104.672 21.3722 105.207 21.2931 105.665 21.1346C106.142 20.9563 106.524 20.7087 106.81 20.3918C107.096 20.0551 107.239 19.649 107.239 19.1736C107.239 18.6191 107.087 18.2031 106.781 17.9258C106.476 17.6287 106.056 17.4108 105.522 17.2721C104.987 17.1335 104.386 17.0047 103.718 16.8858C102.993 16.7472 102.23 16.569 101.428 16.3511C100.645 16.1135 99.9012 15.7767 99.195 15.341C98.508 14.9052 97.9545 14.3208 97.5346 13.588C97.1147 12.8353 96.9047 11.9043 96.9047 10.7951C96.9047 9.6067 97.2101 8.55691 97.8208 7.64576C98.4316 6.71482 99.2713 5.98195 100.34 5.44715C101.409 4.89253 102.602 4.61523 103.919 4.61523C105.522 4.61523 106.963 4.99157 108.241 5.74426C109.52 6.47713 110.465 7.55663 111.076 8.98276L107.583 10.7951C107.278 10.1415 106.8 9.6166 106.152 9.22045C105.522 8.8243 104.72 8.62623 103.747 8.62623C103.231 8.62623 102.773 8.70546 102.373 8.86392C101.972 9.02237 101.657 9.25016 101.428 9.54727C101.199 9.84438 101.084 10.2009 101.084 10.6169C101.084 11.1517 101.247 11.5775 101.571 11.8944C101.896 12.1916 102.334 12.4193 102.888 12.5778C103.461 12.7362 104.09 12.8848 104.777 13.0235C105.503 13.1621 106.247 13.3503 107.01 13.588C107.793 13.8058 108.509 14.1327 109.157 14.5685C109.825 15.0042 110.369 15.5885 110.789 16.3213C111.209 17.0542 111.419 17.9951 111.419 19.144C111.419 20.3323 111.085 21.402 110.417 22.3527C109.768 23.2837 108.89 24.0166 107.783 24.5513C106.676 25.0861 105.436 25.3536 104.062 25.3536Z" fill="#202020"/>
    <path d="M94.3648 24.9687H89.8129L87.3796 20.8983C87.0933 20.4229 86.8738 19.9079 86.7212 19.3533C86.5876 18.7789 86.5208 18.2243 86.5208 17.6894C86.5208 17.1151 86.5876 16.5506 86.7212 15.9959C86.8738 15.4216 87.0933 14.8867 87.3796 14.3916L89.7843 10.2617H94.3648L90.9581 16.0553C90.5954 16.6694 90.4142 17.1943 90.4142 17.6301C90.4142 18.0857 90.6241 18.6699 91.0439 19.3831L94.3648 24.9687ZM82.6847 24.9687H78.1328L81.4537 19.3831C81.8736 18.6699 82.0834 18.0857 82.0834 17.6301C82.0834 17.1943 81.9022 16.6694 81.5396 16.0553L78.1328 10.2617H82.7133L85.1181 14.3916C85.4043 14.8867 85.6142 15.4216 85.7478 15.9959C85.9006 16.5506 85.9768 17.1151 85.9768 17.6894C85.9768 18.2243 85.9006 18.7789 85.7478 19.3533C85.6142 19.9079 85.4043 20.4229 85.1181 20.8983L82.6847 24.9687ZM88.8397 19.4424H84.0016V15.6692H88.8397V19.4424Z" fill="#202020"/>
    <path d="M69.6201 25.3546C68.1506 25.3546 66.8241 25.0277 65.6409 24.3741C64.4766 23.7007 63.5606 22.7796 62.8926 21.611C62.2246 20.4226 61.8906 19.046 61.8906 17.4811C61.8906 16.0749 62.196 14.7873 62.8067 13.6187C63.4365 12.4303 64.3049 11.4894 65.4119 10.7961C66.5188 10.0831 67.7975 9.72656 69.248 9.72656C70.7557 9.72656 72.0344 10.0732 73.0841 10.7664C74.1338 11.4399 74.9354 12.3411 75.4889 13.4701C76.0614 14.5992 76.3476 15.8371 76.3476 17.184V18.4319H65.1256L65.7554 17.392C65.7173 18.224 65.8507 18.9667 66.1561 19.6203C66.4806 20.274 66.9291 20.789 67.5016 21.1653C68.0934 21.5218 68.7899 21.7001 69.5915 21.7001C70.3549 21.7001 71.042 21.512 71.6528 21.1356C72.2825 20.7592 72.7596 20.2343 73.0841 19.561L76.2045 21.195C75.5938 22.5221 74.7159 23.5521 73.5708 24.285C72.4448 24.9981 71.1279 25.3546 69.6201 25.3546ZM65.9844 16.0847H72.3111C72.2539 15.5697 72.0821 15.1142 71.7959 14.718C71.5286 14.3021 71.1756 13.9851 70.7366 13.7672C70.2976 13.5296 69.7919 13.4107 69.2194 13.4107C68.6277 13.4107 68.1029 13.5296 67.6449 13.7672C67.2059 14.005 66.8433 14.3317 66.557 14.7477C66.2898 15.1439 66.0989 15.5896 65.9844 16.0847Z" fill="#202020"/>
  </g>
  <defs>
    <clipPath id="clip0_2008_411">
      <rect width="142.5" height="30" fill="white" transform="translate(0.640625)"/>
    </clipPath>
  </defs>
</svg>