<svg
    width="38"
    height="38"
    viewBox="0 0 38 38"
    fill="none"
    xmlns="http://www.w3.org/2000/svg"
  >
    <path
      d="M23.2425 14.7317H14.7673V16.1248H23.2425V14.7317Z"
      fill="#E5453C"
    />
    <path d="M19.6964 19.415H18.3036V27.8232H19.6964V19.415Z" fill="#E5453C" />
    <path
      d="M25.8403 19.4051H22.1658V20.7983H25.8403V19.4051Z"
      fill="#E5453C"
    />
    <path
      d="M15.8341 19.4051H12.1595V20.7983H15.8341V19.4051Z"
      fill="#E5453C"
    />
    <path
      d="M25.8403 16.4311H22.1658V17.8243H25.8403V16.4311Z"
      fill="#E5453C"
    />
    <path
      d="M15.8341 16.4311H12.1595V17.8243H15.8341V16.4311Z"
      fill="#E5453C"
    />
    <path
      d="M25.8403 22.3692H22.1658V23.7624H25.8403V22.3692Z"
      fill="#E5453C"
    />
    <path
      d="M15.8341 22.3692H12.1595V23.7624H15.8341V22.3692Z"
      fill="#E5453C"
    />
    <path
      d="M22.9997 10.1757L20.5551 12.6209L21.5399 13.606L23.9845 11.1608L22.9997 10.1757Z"
      fill="#E5453C"
    />
    <path
      d="M14.9928 10.1808L14.0079 11.1659L16.4526 13.6112L17.4374 12.6261L14.9928 10.1808Z"
      fill="#E5453C"
    />
    <path
      d="M18.995 26.0348C16.5552 26.0348 14.5796 24.0489 14.5796 21.6183V15.6604C14.5796 13.22 16.565 11.2439 18.995 11.2439C21.4249 11.2439 23.4104 13.2299 23.4104 15.6604V21.6183C23.4104 24.0588 21.4249 26.0348 18.995 26.0348ZM18.995 12.637C17.3256 12.637 15.9724 13.9906 15.9724 15.6604V21.6183C15.9724 23.2881 17.3256 24.6417 18.995 24.6417C20.6643 24.6417 22.0176 23.2881 22.0176 21.6183V15.6604C22.0176 13.9906 20.6643 12.637 18.995 12.637Z"
      fill="#E5453C"
    />
    <path
      d="M20.9311 2.39106V4.06084C27.6875 4.93032 33.061 10.2954 33.9303 17.0634H35.5996C34.7106 9.38638 28.6061 3.28029 20.9311 2.39106ZM35.6984 18.3775H34.0389C34.0389 18.585 34.0587 18.7925 34.0587 19C34.0587 19.2075 34.0587 19.415 34.0389 19.6225H35.6984C35.7182 19.415 35.7182 19.2075 35.7182 19C35.7182 18.7925 35.7182 18.585 35.6984 18.3775ZM2.40027 17.0634H4.06962C4.93887 10.2954 10.3124 4.93032 17.0688 4.06084V2.39106C9.39377 3.28029 3.28928 9.38638 2.40027 17.0634ZM3.96097 18.3775H2.30149C2.28174 18.585 2.28174 18.7925 2.28174 19C2.28174 19.2075 2.28174 19.415 2.30149 19.6225H3.96097C3.96097 19.415 3.94121 19.2075 3.94121 19C3.94121 18.7925 3.94121 18.585 3.96097 18.3775ZM4.06962 20.9168H2.40027C3.28928 28.5939 9.39377 34.7098 17.0787 35.6089V33.9392C10.3124 33.0697 4.93887 27.6947 4.0795 20.9267L4.06962 20.9168ZM33.9402 20.9168C33.0808 27.6849 27.7073 33.0598 20.941 33.9293V35.5991C28.6259 34.6999 34.7304 28.5939 35.6194 20.9069H33.95L33.9402 20.9168ZM18.3826 34.038V35.6979C18.59 35.7176 18.7975 35.7176 19.0049 35.7176C19.2123 35.7176 19.4198 35.7176 19.6272 35.6979V34.038C19.4198 34.038 19.2123 34.0577 19.0049 34.0577C18.7975 34.0577 18.59 34.0577 18.3826 34.038ZM19.0049 2.27249C18.7975 2.27249 18.59 2.27249 18.3826 2.29225V3.95216C18.59 3.95216 18.7975 3.9324 19.0049 3.9324C19.2123 3.9324 19.4198 3.9324 19.6272 3.95216V2.29225C19.4198 2.27249 19.2123 2.27249 19.0049 2.27249Z"
      fill="#231F20"
    />
    <path d="M19.647 0H18.3431V6.73843H19.647V0Z" fill="white" />
    <path d="M19.647 31.2616H18.3431V38H19.647V31.2616Z" fill="white" />
    <path d="M19.647 0H18.3431V6.73843H19.647V0Z" fill="#231F20" />
    <path d="M19.647 31.2616H18.3431V38H19.647V31.2616Z" fill="#231F20" />
    <path d="M6.74656 18.3479H0V19.6521H6.74656V18.3479Z" fill="white" />
    <path d="M38 18.3479H31.2534V19.6521H38V18.3479Z" fill="white" />
    <path d="M38 18.3479H31.2534V19.6521H38V18.3479Z" fill="#231F20" />
    <path d="M6.74656 18.3479H0V19.6521H6.74656V18.3479Z" fill="#231F20" />
  </svg>