<svg width="121" height="120" viewBox="0 0 121 120" fill="none" xmlns="http://www.w3.org/2000/svg">
<g clip-path="url(#clip0_1372_591)">
<path d="M60.667 90C77.2355 90 90.667 76.5685 90.667 60C90.667 43.4315 77.2355 30 60.667 30C44.0984 30 30.667 43.4315 30.667 60C30.667 76.5685 44.0984 90 60.667 90Z" fill="#E5453D" fill-opacity="0.1"/>
<path d="M60.667 91C43.573 91 29.667 77.094 29.667 60C29.667 42.906 43.575 29 60.667 29C77.761 29 91.667 42.906 91.667 60C91.667 77.094 77.763 91 60.667 91ZM60.667 31C44.677 31 31.667 44.01 31.667 60C31.667 75.99 44.677 89 60.667 89C76.659 89 89.667 75.99 89.667 60C89.667 44.01 76.659 31 60.667 31Z" fill="#171921"/>
<path d="M60.6668 46.0001C52.0188 46.0001 43.7068 44.1321 37.8648 40.8741C37.3828 40.6061 37.2088 39.9961 37.4788 39.5141C37.7468 39.0301 38.3548 38.8581 38.8388 39.1281C44.3928 42.2241 52.3488 44.0001 60.6668 44.0001C68.9848 44.0001 76.9408 42.2241 82.4968 39.1261C82.9748 38.8581 83.5848 39.0281 83.8568 39.5121C84.1268 39.9941 83.9528 40.6041 83.4708 40.8721C77.6268 44.1321 69.3148 46.0001 60.6668 46.0001Z" fill="#171921"/>
<path d="M82.9828 81C82.8168 81 82.6508 80.958 82.4968 80.874C76.9428 77.776 68.9848 76 60.6668 76C52.3488 76 44.3928 77.776 38.8388 80.874C38.3548 81.144 37.7468 80.97 37.4788 80.488C37.2088 80.006 37.3828 79.396 37.8648 79.128C43.7088 75.868 52.0188 74 60.6668 74C69.3148 74 77.6268 75.868 83.4688 79.126C83.9508 79.394 84.1248 80.004 83.8548 80.486C83.6728 80.816 83.3328 81 82.9828 81Z" fill="#171921"/>
<path d="M60.6672 91C49.8752 91 41.0952 77.094 41.0952 60C41.0952 42.906 49.8752 29 60.6672 29C71.4592 29 80.2392 42.906 80.2392 60C80.2392 77.094 71.4592 91 60.6672 91ZM60.6672 31C50.9792 31 43.0952 44.01 43.0952 60C43.0952 75.99 50.9792 89 60.6672 89C70.3552 89 78.2392 75.99 78.2392 60C78.2392 44.01 70.3572 31 60.6672 31Z" fill="#171921"/>
<path d="M60.667 91C60.115 91 59.667 90.552 59.667 90V30C59.667 29.448 60.115 29 60.667 29C61.219 29 61.667 29.448 61.667 30V90C61.667 90.552 61.221 91 60.667 91Z" fill="#171921"/>
<path d="M90.667 61H30.667C30.115 61 29.667 60.552 29.667 60C29.667 59.448 30.115 59 30.667 59H90.667C91.219 59 91.667 59.448 91.667 60C91.667 60.552 91.219 61 90.667 61Z" fill="#171921"/>
<path d="M67.0332 108.636C66.7772 108.636 66.5212 108.538 66.3252 108.344C65.9352 107.954 65.9352 107.32 66.3252 106.93L69.1532 104.102C69.5432 103.712 70.1772 103.712 70.5672 104.102C70.9572 104.492 70.9572 105.126 70.5672 105.516L67.7392 108.344C67.5432 108.538 67.2892 108.636 67.0332 108.636Z" fill="#171921"/>
<path d="M72.689 102.98C72.433 102.98 72.177 102.882 71.981 102.688C71.591 102.298 71.591 101.664 71.981 101.274L101.939 71.3159C102.329 70.9259 102.963 70.9259 103.353 71.3159C103.743 71.7059 103.743 72.3399 103.353 72.7299L73.395 102.686C73.201 102.882 72.945 102.98 72.689 102.98Z" fill="#171921"/>
<path d="M105.475 70.194C105.219 70.194 104.963 70.096 104.767 69.902C104.377 69.512 104.377 68.878 104.767 68.488L107.595 65.658C107.985 65.268 108.619 65.268 109.009 65.658C109.399 66.048 109.399 66.682 109.009 67.072L106.181 69.902C105.987 70.096 105.731 70.194 105.475 70.194Z" fill="#171921"/>
<path d="M13.0308 54.6359C12.7748 54.6359 12.5188 54.5379 12.3228 54.3439C11.9328 53.9539 11.9328 53.3199 12.3228 52.9299L15.1508 50.1019C15.5408 49.7119 16.1748 49.7119 16.5648 50.1019C16.9548 50.4919 16.9548 51.1259 16.5648 51.5159L13.7368 54.3439C13.5428 54.5379 13.2868 54.6359 13.0308 54.6359Z" fill="#171921"/>
<path d="M18.689 48.978C18.433 48.978 18.177 48.88 17.981 48.686C17.591 48.296 17.591 47.662 17.981 47.272L47.939 17.314C48.329 16.924 48.963 16.924 49.353 17.314C49.743 17.704 49.743 18.338 49.353 18.728L19.395 48.686C19.201 48.88 18.945 48.978 18.689 48.978Z" fill="#171921"/>
<path d="M51.4751 16.192C51.2191 16.192 50.9631 16.094 50.7671 15.9C50.3771 15.51 50.3771 14.876 50.7671 14.486L53.5951 11.658C53.9851 11.268 54.6191 11.268 55.0091 11.658C55.3991 12.048 55.3991 12.682 55.0091 13.072L52.1811 15.9C51.9871 16.094 51.7311 16.192 51.4751 16.192Z" fill="#171921"/>
<path d="M108.303 54.6359C108.047 54.6359 107.791 54.5379 107.595 54.3439L104.765 51.5159C104.375 51.1259 104.375 50.4919 104.765 50.1019C105.155 49.7119 105.789 49.7119 106.179 50.1019L109.009 52.9299C109.399 53.3199 109.399 53.9539 109.009 54.3439C108.815 54.5379 108.559 54.6359 108.303 54.6359Z" fill="#171921"/>
<path d="M102.645 48.978C102.389 48.978 102.133 48.88 101.937 48.686L71.981 18.728C71.591 18.338 71.591 17.704 71.981 17.314C72.371 16.924 73.005 16.924 73.395 17.314L103.353 47.272C103.743 47.662 103.743 48.296 103.353 48.686C103.157 48.88 102.901 48.978 102.645 48.978Z" fill="#171921"/>
<path d="M69.8608 16.192C69.6048 16.192 69.3488 16.094 69.1528 15.9L66.3228 13.072C65.9328 12.682 65.9328 12.048 66.3228 11.658C66.7128 11.268 67.3468 11.268 67.7368 11.658L70.5668 14.486C70.9568 14.876 70.9568 15.51 70.5668 15.9C70.3728 16.094 70.1168 16.192 69.8608 16.192Z" fill="#171921"/>
<path d="M54.3031 108.636C54.0471 108.636 53.7911 108.538 53.5951 108.344L50.7671 105.516C50.3771 105.126 50.3771 104.492 50.7671 104.102C51.1571 103.712 51.7911 103.712 52.1811 104.102L55.0091 106.93C55.3991 107.32 55.3991 107.954 55.0091 108.344C54.8151 108.538 54.5591 108.636 54.3031 108.636Z" fill="#171921"/>
<path d="M48.645 102.978C48.389 102.978 48.133 102.88 47.937 102.686L17.981 72.728C17.591 72.338 17.591 71.704 17.981 71.314C18.371 70.924 19.005 70.924 19.395 71.314L49.353 101.272C49.743 101.662 49.743 102.296 49.353 102.686C49.157 102.88 48.901 102.978 48.645 102.978Z" fill="#171921"/>
<path d="M15.8588 70.192C15.6028 70.192 15.3468 70.094 15.1508 69.9L12.3228 67.072C11.9328 66.682 11.9328 66.048 12.3228 65.658C12.7128 65.268 13.3468 65.268 13.7368 65.658L16.5648 68.486C16.9548 68.876 16.9548 69.51 16.5648 69.9C16.3708 70.094 16.1148 70.192 15.8588 70.192Z" fill="#171921"/>
<path d="M60.667 11C63.4284 11 65.667 8.76142 65.667 6C65.667 3.23858 63.4284 1 60.667 1C57.9056 1 55.667 3.23858 55.667 6C55.667 8.76142 57.9056 11 60.667 11Z" fill="#E5453D" fill-opacity="0.2"/>
<path d="M60.667 119C63.4284 119 65.667 116.761 65.667 114C65.667 111.239 63.4284 109 60.667 109C57.9056 109 55.667 111.239 55.667 114C55.667 116.761 57.9056 119 60.667 119Z" fill="#E5453D" fill-opacity="0.2"/>
<path d="M114.667 65C117.428 65 119.667 62.7614 119.667 60C119.667 57.2386 117.428 55 114.667 55C111.906 55 109.667 57.2386 109.667 60C109.667 62.7614 111.906 65 114.667 65Z" fill="#E5453D" fill-opacity="0.2"/>
<path d="M6.66699 65C9.42842 65 11.667 62.7614 11.667 60C11.667 57.2386 9.42842 55 6.66699 55C3.90557 55 1.66699 57.2386 1.66699 60C1.66699 62.7614 3.90557 65 6.66699 65Z" fill="#E5453D" fill-opacity="0.2"/>
<path d="M98.8509 99.184H22.4829C21.9309 99.184 21.4829 98.736 21.4829 98.184V21.816C21.4829 21.264 21.9309 20.816 22.4829 20.816H98.8509C99.4029 20.816 99.8509 21.264 99.8509 21.816V98.184C99.8509 98.738 99.4029 99.184 98.8509 99.184ZM23.4829 97.184H97.8509V22.816H23.4829V97.184Z" fill="#171921"/>
<path d="M102.385 25.3519C104.338 23.3993 104.338 20.2335 102.385 18.2809C100.433 16.3283 97.2669 16.3283 95.3143 18.2809C93.3617 20.2335 93.3617 23.3993 95.3143 25.3519C97.2669 27.3045 100.433 27.3045 102.385 25.3519Z" fill="#E5453D"/>
<path d="M26.0181 101.719C27.9707 99.7665 27.9707 96.6007 26.0181 94.6481C24.0655 92.6955 20.8997 92.6955 18.9471 94.6481C16.9945 96.6007 16.9945 99.7665 18.9471 101.719C20.8997 103.672 24.0655 103.672 26.0181 101.719Z" fill="#E5453D"/>
<path d="M102.385 101.719C104.338 99.7667 104.338 96.6009 102.385 94.6483C100.433 92.6957 97.2669 92.6957 95.3143 94.6483C93.3617 96.6009 93.3617 99.7667 95.3143 101.719C97.2669 103.672 100.433 103.672 102.385 101.719Z" fill="#E5453D"/>
<path d="M26.0181 25.3518C27.9707 23.3992 27.9707 20.2334 26.0181 18.2808C24.0655 16.3282 20.8997 16.3282 18.9471 18.2808C16.9945 20.2334 16.9945 23.3992 18.9471 25.3518C20.8997 27.3044 24.0655 27.3044 26.0181 25.3518Z" fill="#E5453D"/>
<path d="M49.667 50.07V64.4497C49.6667 65.9089 50.0356 67.3445 50.7397 68.6236C51.4438 69.9028 52.4603 70.9841 53.6949 71.7674L60.2497 75.9339C60.4976 76.0988 60.7889 76.1868 61.0869 76.1868C61.385 76.1868 61.6763 76.0988 61.9242 75.9339L68.4865 71.7674C69.7267 70.987 70.7494 69.9073 71.4601 68.6282C72.1707 67.3491 72.5463 65.912 72.5522 64.4497V50.07L61.5169 48.0394C61.2023 47.9869 60.8811 47.9869 60.5665 48.0394L49.667 50.07Z" fill="#E5453D"/>
<path d="M59.9889 66.6162C59.783 66.6145 59.5858 66.5337 59.4382 66.3906L54.1205 61.1261C54.0475 61.0559 53.9894 60.9718 53.9498 60.8788C53.9101 60.7857 53.8896 60.6857 53.8896 60.5846C53.8896 60.4835 53.9101 60.3834 53.9498 60.2904C53.9894 60.1973 54.0475 60.1132 54.1205 60.0431C54.191 59.9691 54.2758 59.9102 54.3698 59.87C54.4638 59.8297 54.565 59.809 54.6673 59.809C54.7697 59.809 54.8709 59.8297 54.9649 59.87C55.0589 59.9102 55.1437 59.9691 55.2142 60.0431L59.9889 64.7962L68.0296 56.7791C68.1746 56.6345 68.3714 56.5532 68.5765 56.5532C68.7816 56.5532 68.9783 56.6345 69.1233 56.7791C69.2684 56.9237 69.3498 57.1198 69.3498 57.3243C69.3498 57.5288 69.2684 57.725 69.1233 57.8696L60.532 66.4056C60.46 66.4749 60.3749 66.5292 60.2816 66.5653C60.1884 66.6015 60.0889 66.6188 59.9889 66.6162Z" fill="white"/>
</g>
<defs>
<clipPath id="clip0_1372_591">
<rect width="120" height="120" fill="white" transform="translate(0.666992)"/>
</clipPath>
</defs>
</svg>
