<svg xmlns="http://www.w3.org/2000/svg" width="111" height="30" viewBox="0 0 111 30" fill="none">
  <g clip-path="url(#clip0_2008_388)">
    <path d="M0.53125 15C0.53125 6.71573 7.24698 0 15.5312 0C23.8155 0 30.5312 6.71573 30.5312 15C30.5312 23.2843 23.8155 30 15.5312 30C7.24698 30 0.53125 23.2843 0.53125 15Z" fill="#BFF009"/>
    <path fill-rule="evenodd" clip-rule="evenodd" d="M16.149 8.72799C15.6436 8.72799 15.2319 9.13947 15.2319 9.64455C15.2319 10.1496 15.6446 10.5611 16.1499 10.5611H19.4718V18.9982H17.188V18.2377C16.0797 19.3834 14.028 19.438 12.7159 18.6121C11.2457 17.7345 10.5706 15.918 10.8145 14.2341C11.0232 12.7004 11.9198 11.4884 13.27 10.9179C13.0973 10.5289 13.0007 10.0979 13.0007 9.64455C13.0007 7.907 14.4105 6.49805 16.149 6.49805H17.7899V8.72799H16.149ZM17.2387 14.9098V12.792H15.1197C13.95 12.792 13.0007 13.7407 13.0007 14.9098C13.0007 16.0789 13.95 17.0276 15.1197 17.0276C16.2895 17.0276 17.2387 16.0799 17.2387 14.9098Z" fill="#040404"/>
    <path d="M8.90234 23.0383H12.2486C13.1636 23.0383 13.6921 23.3465 13.9862 23.5982C14.1419 23.7315 14.2458 23.8617 14.3067 23.9502C14.337 23.9941 14.3556 24.0262 14.3638 24.0412C14.3653 24.0438 14.3672 24.0473 14.3672 24.0473C14.5655 24.4673 14.9887 24.7362 15.4546 24.7362C15.9205 24.7362 16.3437 24.4673 16.5421 24.0473C16.5421 24.0473 16.5439 24.0438 16.5454 24.0412C16.5536 24.0262 16.5723 23.9941 16.6025 23.9502C16.6634 23.8617 16.7673 23.7315 16.923 23.5982C17.2171 23.3465 17.7456 23.0383 18.6606 23.0383H22.0069V20.6328H18.6606C17.1994 20.6328 16.1535 21.1263 15.4546 21.6911C14.7557 21.1263 13.7098 20.6328 12.2486 20.6328H8.90234V23.0383Z" fill="#040404"/>
    <mask id="mask0_2008_388" style="mask-type:luminance" maskUnits="userSpaceOnUse" x="42" y="4" width="69" height="22">
      <path d="M110.07 4.1543H42.5312V25.8466H110.07V4.1543Z" fill="white"/>
    </mask>
    <g mask="url(#mask0_2008_388)">
      <path d="M87.9281 11.2109H84.0195V25.4023H87.9281V11.2109Z" fill="#BFF009"/>
      <path d="M102.534 11.0625C98.5235 11.0575 95.72 13.6406 95.2196 17.304C94.8055 20.1655 95.952 23.2522 98.449 24.7435C100.678 26.1469 104.163 26.0541 106.045 24.1072V25.3996H109.924V18.4506C109.924 14.3697 106.615 11.0625 102.534 11.0625ZM102.534 22.051C100.545 22.051 98.9345 20.4389 98.9345 18.4523C98.9345 16.4656 100.547 14.8535 102.534 14.8535C104.52 14.8535 106.133 16.4656 106.133 18.4523C106.133 20.4389 104.52 22.051 102.534 22.051Z" fill="#BFF009"/>
      <path d="M68.6324 9.50501C68.6324 8.64674 69.3315 7.94753 70.1898 7.94753H72.9766V4.1582H70.1898C67.2372 4.1582 64.843 6.55242 64.843 9.50501C64.843 10.2755 65.007 11.0078 65.3003 11.6689C63.0072 12.6382 61.4845 14.6977 61.1298 17.304C60.7157 20.1655 61.8623 23.2523 64.3592 24.7435C66.5877 26.1469 70.0722 26.0541 71.9544 24.1072V25.3996H75.8332V11.0625H70.1914C69.3331 11.0625 68.6324 10.3633 68.6324 9.50501ZM72.0405 14.8535V18.4522C72.0405 20.4405 70.4283 22.0511 68.4418 22.0511C66.4551 22.0511 64.843 20.4389 64.843 18.4522C64.843 16.4657 66.4551 14.8535 68.4418 14.8535H72.0405Z" fill="#BFF009"/>
      <path d="M85.9863 4.1582C85.3583 4.1582 84.8397 4.3736 84.4288 4.80439C84.0179 5.23519 83.8125 5.75546 83.8125 6.36188C83.8125 6.9683 84.0179 7.51342 84.4288 7.93428C84.8397 8.35512 85.3583 8.56555 85.9863 8.56555C86.6143 8.56555 87.1561 8.35512 87.5587 7.93428C87.9596 7.51342 88.1618 6.98984 88.1618 6.36188C88.1618 5.73392 87.9613 5.23519 87.5587 4.80439C87.1578 4.3736 86.6325 4.1582 85.9863 4.1582Z" fill="#BFF009"/>
      <path d="M52.1412 11.21L47.2252 16.4706H46.3802V16.0348V4.1582H42.5312V25.4013H46.3802V20.1406H47.2252L52.1412 25.4013H56.8419L50.1911 18.3047L56.8419 11.21H52.1412Z" fill="#BFF009"/>
    </g>
  </g>
  <defs>
    <clipPath id="clip0_2008_388">
      <rect width="110" height="30" fill="white" transform="translate(0.53125)"/>
    </clipPath>
  </defs>
</svg>