<svg width="48" height="48" viewBox="0 0 48 48" fill="none" xmlns="http://www.w3.org/2000/svg">
<path d="M43.8816 43H4.11838C2.39884 43 1 41.5017 1 39.66V8.34004C1 6.49827 2.39884 5 4.11838 5H43.8816C45.6012 5 47 6.49827 47 8.34004V39.66C47 41.5017 45.6012 43 43.8816 43ZM4.11838 6.69236C3.26969 6.69236 2.58005 7.43242 2.58005 8.34004V39.66C2.58005 40.569 3.27099 41.3076 4.11838 41.3076H43.8816C44.7303 41.3076 45.4199 40.5676 45.4199 39.66V8.34004C45.4199 7.43103 44.729 6.69236 43.8816 6.69236H4.11838Z" fill="black"/>
<path d="M5.8239 10.4929C6.43954 10.4929 6.93871 9.95929 6.93871 9.30117C6.93871 8.64298 6.43954 8.10938 5.8239 8.10938C5.20815 8.10938 4.70898 8.64298 4.70898 9.30117C4.70898 9.95929 5.20815 10.4929 5.8239 10.4929Z" fill="#E5453D"/>
<path d="M9.84931 10.4929C10.465 10.4929 10.9642 9.95929 10.9642 9.30117C10.9642 8.64298 10.465 8.10938 9.84931 8.10938C9.23358 8.10938 8.73438 8.64298 8.73438 9.30117C8.73438 9.95929 9.23358 10.4929 9.84931 10.4929Z" fill="#E5453D"/>
<path d="M13.8766 10.4929C14.4922 10.4929 14.9914 9.95929 14.9914 9.30117C14.9914 8.64298 14.4922 8.10938 13.8766 8.10938C13.2608 8.10938 12.7617 8.64298 12.7617 9.30117C12.7617 9.95929 13.2608 10.4929 13.8766 10.4929Z" fill="#E5453D"/>
<path d="M46.21 13.2783H1.79002C1.35329 13.2783 1 12.9309 1 12.5015C1 12.072 1.35329 11.7246 1.79002 11.7246H46.21C46.6467 11.7246 47 12.072 47 12.5015C47 12.9309 46.6467 13.2783 46.21 13.2783Z" fill="black"/>
<path d="M37.5951 22.5532C36.6447 22.5532 35.7074 22.1238 35.1025 21.3149C34.0961 19.9663 34.3933 18.0627 35.7648 17.073C37.1362 16.0834 39.0722 16.3757 40.0786 17.7242C40.5662 18.378 40.7656 19.1792 40.6405 19.9804C40.4058 21.4905 39.0878 22.5532 37.5951 22.5532ZM36.3762 20.397C36.8677 21.0559 37.8128 21.1982 38.4829 20.7149C39.5702 19.9304 39.1335 18.2537 37.8207 18.0562C36.4818 17.8537 35.5914 19.3446 36.3762 20.397Z" fill="black"/>
<path d="M32.2236 41.9986C31.7869 41.9986 31.4336 41.6142 31.4336 41.139V25.5289C31.4336 24.3883 31.8951 23.3159 32.7008 22.5867L35.2364 20.2787C35.5714 19.9737 36.0694 20.0219 36.3484 20.3865C36.6287 20.7511 36.5844 21.293 36.2494 21.5966L33.7124 23.906C33.2666 24.3089 33.0123 24.9005 33.0123 25.5289V41.139C33.0136 41.6128 32.6603 41.9986 32.2236 41.9986Z" fill="black"/>
<path d="M8.5014 21.9661C7.12602 20.9739 6.83009 19.0767 7.83913 17.7242C8.84556 16.3757 10.7815 16.0834 12.153 17.073C13.5283 18.0652 13.8243 19.9625 12.8152 21.3149C11.8049 22.6699 9.87416 22.957 8.5014 21.9661ZM9.11282 18.6434C8.62003 19.3036 8.76474 20.2304 9.43613 20.7149C10.1075 21.1995 11.0501 21.0572 11.5429 20.397C12.0343 19.7381 11.8896 18.8087 11.2195 18.3254C10.5508 17.8434 9.6056 17.9832 9.11282 18.6434Z" fill="black"/>
<path d="M15.7024 41.9986C15.2657 41.9986 14.9124 41.6142 14.9124 41.139V25.5289C14.9124 24.9005 14.6581 24.3089 14.2136 23.9074L11.674 21.5966C11.339 21.2916 11.2947 20.7497 11.575 20.3865C11.8553 20.0219 12.3533 19.9737 12.687 20.2787L15.2239 22.5882C16.0283 23.3159 16.4898 24.3883 16.4898 25.5289V41.139C16.4924 41.6128 16.1391 41.9986 15.7024 41.9986Z" fill="black"/>
<path d="M41.7549 29.42C39.9115 29.42 38.5244 27.8111 38.8008 26.0408C39.0511 24.4384 40.5725 23.3411 42.2021 23.5872C43.8317 23.8334 44.9476 25.3294 44.6973 26.9318C44.576 27.706 44.1563 28.388 43.5136 28.8508C42.996 29.2238 42.3846 29.42 41.7549 29.42ZM40.3613 26.2767C40.1722 27.4907 41.5776 28.3214 42.5788 27.5984C43.2046 27.1471 43.3389 26.2844 42.88 25.6691C42.1343 24.6717 40.549 25.0755 40.3613 26.2767Z" fill="black"/>
<path d="M36.4639 41.9998C36.0271 41.9998 35.6738 41.6154 35.6738 41.1402V33.1734C35.6738 32.0329 36.1353 30.9604 36.941 30.2313L39.4766 27.9232C39.8117 27.6182 40.3097 27.6665 40.5887 28.0311C40.869 28.3956 40.8246 28.9375 40.4896 29.2411L37.9539 31.5506C37.5081 31.9534 37.2539 32.545 37.2539 33.1734V41.1402C37.2539 41.614 36.9006 41.9998 36.4639 41.9998Z" fill="black"/>
<path d="M3.22675 26.932C3.10551 26.1577 3.29845 25.3834 3.77038 24.7514C4.74553 23.4439 6.61108 23.1631 7.93952 24.122C9.26926 25.0809 9.55477 26.9153 8.57962 28.2216C8.10769 28.8536 7.41544 29.2663 6.62803 29.3855C4.99974 29.633 3.47706 28.5344 3.22675 26.932ZM5.96185 25.1232C5.59161 25.1796 5.26569 25.3731 5.04277 25.6705C4.29837 26.6666 5.16401 28.0357 6.38685 27.8511C7.61099 27.6665 8.01513 26.1038 7.00479 25.3744C6.76231 25.1988 6.32036 25.0693 5.96185 25.1232Z" fill="black"/>
<path d="M11.4661 41.9998C11.0293 41.9998 10.676 41.6154 10.676 41.1402V33.1734C10.676 32.545 10.4218 31.9534 9.97726 31.552L7.43771 29.2411C7.10267 28.9361 7.05834 28.3942 7.33863 28.0311C7.61892 27.6665 8.11693 27.6182 8.45066 27.9232L10.9876 30.2327C11.792 30.9604 12.2535 32.0329 12.2535 33.1734V41.1402C12.2548 41.614 11.9015 41.9998 11.4661 41.9998Z" fill="black"/>
<path d="M29.9427 20.6397V28.4757C29.9427 30.0804 29.1581 31.5866 27.8441 32.4529L24.8286 34.4414L24.4316 34.7072C24.2993 34.8057 24.148 34.845 23.9967 34.845C23.8455 34.845 23.6942 34.8057 23.5619 34.7072L23.1649 34.4414L20.1493 32.4529C18.8448 31.5866 18.0508 30.0804 18.0508 28.4757V20.6397C19.7523 20.3149 21.4539 19.99 23.1554 19.6651C23.3351 19.6258 23.5336 19.5963 23.7132 19.5569C23.8077 19.5372 23.8927 19.5273 23.9873 19.5273C24.0629 19.5273 24.1385 19.5273 24.2141 19.5569C24.4127 19.5963 24.6207 19.6356 24.8192 19.6651L29.9239 20.6299L29.9427 20.6397Z" fill="#E5453D"/>
<path d="M27.8224 23.6444L27.8727 23.9407C27.8727 23.9407 27.923 24.2764 27.923 24.78C27.923 25.2639 27.8727 25.9058 27.6916 26.6267C27.5205 27.3081 27.2086 28.1178 26.6451 28.9178C26.0816 29.7176 25.2665 30.4977 24.0692 31.1298L23.9282 31.2088L23.7874 31.1298C22.6 30.4977 21.7749 29.7176 21.2114 28.9178C20.6479 28.1178 20.336 27.3081 20.1649 26.6267C19.9838 25.9058 19.9335 25.2639 19.9335 24.78C19.9335 24.2764 19.9838 23.9604 19.9838 23.9407L20.0341 23.6444C20.0542 23.5457 19.9838 23.447 19.8731 23.4272C19.7725 23.4074 19.6718 23.4766 19.6518 23.5852L19.6014 23.8814C19.6014 23.8814 19.541 24.2567 19.541 24.78C19.541 25.2837 19.5913 25.9651 19.7826 26.7156C19.9637 27.4365 20.2957 28.2857 20.8894 29.135C21.4831 29.9744 22.3485 30.8039 23.5962 31.4655L23.8276 31.5939C23.888 31.6235 23.9484 31.6235 24.0087 31.5939L24.2402 31.4655C25.4879 30.8039 26.3533 29.9744 26.947 29.135C27.5406 28.2956 27.8727 27.4365 28.0539 26.7156C28.245 25.9651 28.2953 25.2837 28.2953 24.78C28.2953 24.2468 28.245 23.9111 28.235 23.8814L28.1847 23.5852C28.1645 23.4864 28.074 23.4173 27.9633 23.4272C27.8627 23.447 27.7922 23.5358 27.8023 23.6444H27.8224Z" fill="white"/>
<path d="M21.0794 23.4478L23.927 22.5985L26.835 23.4675C26.9357 23.4972 27.0463 23.4379 27.0766 23.3391C27.1068 23.2404 27.0464 23.1317 26.9458 23.1021L23.9773 22.2134C23.9773 22.2134 23.907 22.2035 23.8667 22.2134L20.9687 23.0823C20.868 23.112 20.8077 23.2206 20.8379 23.3194C20.868 23.4181 20.9788 23.4774 21.0794 23.4478Z" fill="white"/>
<path d="M19.6844 23.704L23.7596 31.5152C23.7898 31.5744 23.8602 31.6139 23.9307 31.6139C24.0011 31.6139 24.0715 31.5744 24.1017 31.5152L26.5871 26.9528L28.177 23.704C28.2273 23.615 28.177 23.4966 28.0865 23.4571C27.9959 23.4077 27.8752 23.4571 27.8349 23.5459L26.245 26.785L23.9307 31.0313L20.0164 23.536C19.9661 23.4472 19.8554 23.4077 19.7548 23.4571C19.6642 23.5064 19.6239 23.615 19.6743 23.7138L19.6844 23.704Z" fill="white"/>
<path d="M21.6345 27.18H26.1727C26.2834 27.18 26.3639 27.0911 26.3639 26.9924C26.3639 26.8936 26.2733 26.8047 26.1727 26.8047H21.6345C21.5239 26.8047 21.4434 26.8936 21.4434 26.9924C21.4434 27.0911 21.5339 27.18 21.6345 27.18Z" fill="white"/>
</svg>
