<svg width="120" height="119" viewBox="0 0 120 119" fill="none" xmlns="http://www.w3.org/2000/svg">
<g clip-path="url(#clip0_27_381)">
<path d="M43.3497 41.6929V63.8455C43.3497 68.4003 45.6748 72.6365 49.497 75.0731L59.5142 81.4752C60.2946 81.9689 61.2979 81.9689 62.0783 81.4752L72.0955 75.0731C75.9177 72.6206 78.2428 68.3843 78.2428 63.8455V41.6929L61.4412 38.6352C60.9635 38.5396 60.4698 38.5555 59.9761 38.6352L43.3337 41.6929H43.3497Z" fill="#E5453D"/>
<path d="M59.116 67.1909C58.7974 67.1909 58.5108 67.0635 58.2878 66.8405L50.1657 58.7025C49.7039 58.2406 49.7039 57.4921 50.1657 57.0303C50.6276 56.5684 51.3761 56.5684 51.8379 57.0303L59.1319 64.3402L71.3787 52.0615C71.8406 51.5996 72.5891 51.5996 73.0509 52.0615C73.5128 52.5233 73.5128 53.2718 73.0509 53.7337L59.96 66.8564C59.7371 67.0794 59.4345 67.2068 59.1319 67.2068L59.116 67.1909Z" fill="white"/>
<path d="M101.526 1.22681H118.789V18.4743" stroke="#20222A" stroke-width="2.45255" stroke-linecap="round" stroke-linejoin="round"/>
<path d="M1.22681 18.4743V1.22681H18.4743" stroke="#20222A" stroke-width="2.45255" stroke-linecap="round" stroke-linejoin="round"/>
<path d="M101.526 115.397H118.789V98.1494" stroke="#20222A" stroke-width="2.45255" stroke-linecap="round" stroke-linejoin="round"/>
<path d="M1.22681 98.1494V115.397H18.4743" stroke="#20222A" stroke-width="2.45255" stroke-linecap="round" stroke-linejoin="round"/>
<path d="M49.4178 107.212C31.374 103.231 17.0728 89.2638 12.5977 71.4111" stroke="#20222A" stroke-width="2.45255" stroke-linecap="round" stroke-linejoin="round"/>
<path d="M108.183 67.7795C104.95 86.6674 90.8718 101.86 72.5891 106.718" stroke="#20222A" stroke-width="2.45255" stroke-linecap="round" stroke-linejoin="round"/>
<path d="M72.7161 12.2791C89.7247 16.8497 103.054 30.3547 107.386 47.443" stroke="#20222A" stroke-width="2.45255" stroke-linecap="round" stroke-linejoin="round"/>
<path d="M13.186 45.3877C17.7249 30.2902 29.3665 18.2822 44.2093 13.2019" stroke="#20222A" stroke-width="2.45255" stroke-linecap="round" stroke-linejoin="round"/>
<path d="M24.1431 47.4426C29.1756 32.4565 43.3335 21.6589 60.0077 21.6589" stroke="#20222A" stroke-width="2.45255" stroke-linecap="round" stroke-linejoin="round"/>
<path d="M49.418 95.8089C33.6834 91.2382 22.1851 76.6981 22.1851 59.4824" stroke="#20222A" stroke-width="2.45255" stroke-linecap="round" stroke-linejoin="round"/>
<path d="M96.4943 69.4519C92.1147 85.505 77.4312 97.3059 60.0085 97.3059" stroke="#20222A" stroke-width="2.45255" stroke-linecap="round" stroke-linejoin="round"/>
<path d="M70.5664 23.1555C86.3169 27.7262 97.8152 42.2663 97.8152 59.482" stroke="#20222A" stroke-width="2.45255" stroke-linecap="round" stroke-linejoin="round"/>
<path d="M2.48413 59.4824H27.8378" stroke="#20222A" stroke-width="2.45255" stroke-linecap="round" stroke-linejoin="round"/>
<path d="M90.4102 59.4824H116.624" stroke="#20222A" stroke-width="2.45255" stroke-linecap="round" stroke-linejoin="round"/>
<path d="M60.0085 91.2866V117.468" stroke="#20222A" stroke-width="2.45255" stroke-linecap="round" stroke-linejoin="round"/>
<path d="M60.0085 1.22681V27.4086" stroke="#20222A" stroke-width="2.45255" stroke-linecap="round" stroke-linejoin="round"/>
</g>
<defs>
<clipPath id="clip0_27_381">
<rect width="120" height="118.694" fill="white"/>
</clipPath>
</defs>
</svg>
