<svg width="45" height="45" viewBox="0 0 45 45" fill="none" xmlns="http://www.w3.org/2000/svg">
<path d="M13.9864 25.0762C11.4031 28.1341 10.4749 31.5084 11.9529 32.9864C13.4309 34.4644 16.8052 33.5362 19.8631 30.953" fill="#E5453D" fill-opacity="0.2"/>
<path d="M13.9042 34.0341C13.0056 34.0341 12.2441 33.7746 11.7048 33.2346C10.1115 31.6413 10.9588 28.1152 13.7186 24.8491C13.843 24.7008 14.0652 24.6811 14.2143 24.807C14.3626 24.9321 14.3809 25.1536 14.2557 25.302C11.7786 28.234 10.8955 31.4304 12.2026 32.7368C13.5076 34.0432 16.7047 33.1601 19.6375 30.6837C19.7851 30.5592 20.008 30.5775 20.1332 30.7259C20.2583 30.8742 20.24 31.0957 20.0917 31.2209C17.931 33.0462 15.6578 34.0341 13.9042 34.0341Z" fill="#171921"/>
<path d="M26.6147 8.38618L14.855 21.6155C14.2369 22.3109 14.2678 23.3684 14.926 24.0265L21.034 30.1345C21.6921 30.7927 22.7489 30.8236 23.445 30.2056L36.6743 18.4458C38.8625 16.5009 40.1435 13.7348 40.211 10.8084L40.3531 4.70743L34.2521 4.84946C31.3257 4.91696 28.5589 6.19805 26.6147 8.38618Z" fill="#E5453D" fill-opacity="0.2"/>
<path d="M22.2778 31.0001C21.7357 31.0001 21.195 30.7934 20.785 30.3827L14.677 24.2747C13.8881 23.4858 13.8515 22.2152 14.5919 21.382L26.3517 8.15274C28.3542 5.89992 31.2307 4.5675 34.2436 4.49789L40.3446 4.35586C40.4374 4.35094 40.5337 4.39102 40.6012 4.45852C40.6687 4.52602 40.706 4.61953 40.7039 4.71516L40.5618 10.8162C40.4915 13.8291 39.1598 16.7055 36.907 18.7095L23.6777 30.4685C23.2776 30.8236 22.777 31.0001 22.2778 31.0001ZM26.8776 8.61961L15.1171 21.8489C14.6236 22.4044 14.6482 23.2516 15.1741 23.7776L21.2821 29.8856C21.8074 30.4116 22.6554 30.4362 23.2108 29.9426L36.4408 18.1828C38.5481 16.309 39.7947 13.6181 39.8594 10.7993L39.993 5.06672L34.2604 5.20031C31.4416 5.2657 28.7507 6.51234 26.8776 8.61961Z" fill="#171921"/>
<path d="M35.2728 17.2209C35.1758 17.2209 35.0795 17.1809 35.0099 17.1028C34.8805 16.958 34.8938 16.7358 35.0394 16.6064C36.7107 15.1207 37.6993 12.9867 37.7506 10.7508L37.8413 6.85899C37.8456 6.66493 38.0115 6.50461 38.2013 6.51586C38.3954 6.52078 38.5494 6.6811 38.5445 6.87586L38.4538 10.7677C38.3968 13.1977 37.3231 15.518 35.5063 17.133C35.4388 17.1914 35.3558 17.2209 35.2728 17.2209Z" fill="#171921"/>
<path d="M15.733 18.862C15.669 18.862 15.6043 18.8452 15.546 18.8079C14.5848 18.2025 13.5835 17.6977 12.5717 17.3088L9.58978 16.1613C9.45267 16.1086 9.36267 15.975 9.36478 15.828C9.36689 15.6804 9.46041 15.5503 9.59892 15.5011L12.8762 14.3444C14.9708 13.6055 17.2299 13.5373 19.4075 14.1441C19.5945 14.1961 19.7035 14.3902 19.6515 14.5772C19.5995 14.7642 19.4033 14.8725 19.2184 14.8212C17.1793 14.2516 15.0678 14.317 13.1103 15.0082L10.7324 15.847L12.8242 16.6521C13.8788 17.0571 14.9209 17.5823 15.9207 18.213C16.0845 18.3164 16.1345 18.5337 16.0304 18.6975C15.9643 18.8037 15.8497 18.862 15.733 18.862Z" fill="#171921"/>
<path d="M29.1064 35.5753C28.9608 35.5753 28.8307 35.486 28.778 35.3503L27.6312 32.3691C27.2614 31.4079 26.7874 30.4544 26.2221 29.5362C26.1202 29.3716 26.1722 29.1544 26.3374 29.0524C26.5034 28.9491 26.7185 29.0018 26.8212 29.1677C27.409 30.1226 27.9026 31.1154 28.2879 32.1159L29.0923 34.2077L29.9311 31.8305C30.6019 29.9306 30.6842 27.8782 30.1702 25.8954C30.1217 25.7069 30.2342 25.515 30.4219 25.4665C30.6089 25.418 30.8016 25.5312 30.8501 25.7182C31.3999 27.8381 31.3114 30.0326 30.5942 32.0639L29.4375 35.3405C29.3883 35.4797 29.2582 35.5732 29.1106 35.5753C29.1092 35.5753 29.1078 35.5753 29.1064 35.5753Z" fill="#171921"/>
<path d="M32.8346 17.0768C34.2076 15.7039 34.2076 13.4779 32.8346 12.105C31.4617 10.7321 29.2358 10.7321 27.8629 12.105C26.4899 13.4779 26.4899 15.7039 27.8629 17.0768C29.2358 18.4497 31.4617 18.4497 32.8346 17.0768Z" fill="#E5453D"/>
<path d="M30.3491 18.4563C29.3591 18.4563 28.3691 18.0795 27.6147 17.3257C26.8841 16.5952 26.4819 15.6241 26.4819 14.5905C26.4819 13.5577 26.8841 12.5859 27.6147 11.8561C28.3452 11.1255 29.3162 10.7234 30.3491 10.7234C31.382 10.7234 32.3537 11.1255 33.0836 11.8561C33.8141 12.5859 34.2163 13.5577 34.2163 14.5905C34.2163 15.6241 33.8141 16.5952 33.0836 17.3257C32.3298 18.0795 31.3398 18.4563 30.3491 18.4563ZM30.3491 11.4265C29.504 11.4265 28.7094 11.7555 28.1118 12.3532C27.5141 12.9509 27.1851 13.7447 27.1851 14.5905C27.1851 15.4364 27.5141 16.2302 28.1118 16.8286C29.3451 18.0619 31.3525 18.0605 32.5865 16.8286C33.1841 16.2302 33.5132 15.4364 33.5132 14.5905C33.5132 13.7447 33.1841 12.9509 32.5865 12.3532C31.9888 11.7555 31.1943 11.4265 30.3491 11.4265Z" fill="#171921"/>
<path d="M15.0019 26.0909C13.5085 28.0266 13.0163 30.0712 13.9423 30.9973C14.8683 31.9233 16.9137 31.4311 18.8487 29.9376" fill="#E5453D"/>
<path d="M15.2516 31.8227C14.6187 31.8227 14.0809 31.6336 13.6934 31.2469C12.6423 30.1957 13.0564 28.0378 14.7235 25.8764C14.8416 25.7238 15.0617 25.6936 15.2171 25.8131C15.3704 25.9313 15.3992 26.152 15.2804 26.306C13.884 28.1152 13.4255 29.9841 14.1905 30.7491C14.9548 31.5134 16.8245 31.0556 18.6336 29.6599C18.7883 29.5411 19.0084 29.5692 19.1272 29.7232C19.2453 29.8772 19.2172 30.098 19.0639 30.2161C17.6991 31.2694 16.3358 31.8227 15.2516 31.8227Z" fill="#171921"/>
<path d="M4.64715 28.7121C4.55715 28.7121 4.46715 28.6777 4.39824 28.6095C4.26113 28.4723 4.26113 28.2495 4.39824 28.1123L4.89535 27.6152C5.03246 27.4781 5.25535 27.4781 5.39246 27.6152C5.52957 27.7523 5.52957 27.9752 5.39246 28.1123L4.89535 28.6095C4.82715 28.6777 4.73715 28.7121 4.64715 28.7121Z" fill="#171921"/>
<path d="M6.13836 27.2208C6.04836 27.2208 5.95836 27.1863 5.88945 27.1181C5.75234 26.981 5.75234 26.7581 5.88945 26.621L11.3584 21.1521C11.4955 21.015 11.7184 21.015 11.8555 21.1521C11.9926 21.2892 11.9926 21.5121 11.8555 21.6492L6.38656 27.1181C6.31836 27.1863 6.22836 27.2208 6.13836 27.2208Z" fill="#171921"/>
<path d="M16.5798 40.6448C16.4898 40.6448 16.3998 40.6104 16.3309 40.5422C16.1938 40.4051 16.1938 40.1822 16.3309 40.0451L16.828 39.548C16.9651 39.4109 17.188 39.4109 17.3251 39.548C17.4622 39.6851 17.4622 39.908 17.3251 40.0451L16.828 40.5422C16.7591 40.6104 16.6698 40.6448 16.5798 40.6448Z" fill="#171921"/>
<path d="M18.071 39.1535C17.981 39.1535 17.891 39.1191 17.8221 39.0509C17.685 38.9137 17.685 38.6909 17.8221 38.5537L23.291 33.0848C23.4281 32.9477 23.651 32.9477 23.7881 33.0848C23.9252 33.222 23.9252 33.4448 23.7881 33.582L18.3192 39.0509C18.251 39.1191 18.161 39.1535 18.071 39.1535Z" fill="#171921"/>
<path d="M10.5469 5.27344H7.73438C7.54031 5.27344 7.38281 5.11594 7.38281 4.92188C7.38281 4.72781 7.54031 4.57031 7.73438 4.57031H10.5469C10.7409 4.57031 10.8984 4.72781 10.8984 4.92188C10.8984 5.11594 10.7409 5.27344 10.5469 5.27344Z" fill="#171921"/>
<path d="M9.14062 6.67969C8.94656 6.67969 8.78906 6.52219 8.78906 6.32812V3.51562C8.78906 3.32156 8.94656 3.16406 9.14062 3.16406C9.33469 3.16406 9.49219 3.32156 9.49219 3.51562V6.32812C9.49219 6.52219 9.33469 6.67969 9.14062 6.67969Z" fill="#171921"/>
<path d="M5.625 9.84375H2.8125C2.61844 9.84375 2.46094 9.68625 2.46094 9.49219C2.46094 9.29812 2.61844 9.14062 2.8125 9.14062H5.625C5.81906 9.14062 5.97656 9.29812 5.97656 9.49219C5.97656 9.68625 5.81906 9.84375 5.625 9.84375Z" fill="#171921"/>
<path d="M4.21875 11.25C4.02469 11.25 3.86719 11.0925 3.86719 10.8984V8.08594C3.86719 7.89187 4.02469 7.73438 4.21875 7.73438C4.41281 7.73438 4.57031 7.89187 4.57031 8.08594V10.8984C4.57031 11.0925 4.41281 11.25 4.21875 11.25Z" fill="#171921"/>
</svg>
