<svg width="95" height="95" viewBox="0 0 95 95" fill="none" xmlns="http://www.w3.org/2000/svg">
<g clip-path="url(#clip0_146_562)">
<path d="M69.2076 14.9325H28.5637C21.5187 14.9325 15.8076 20.6436 15.8076 27.6886V68.3325C15.8076 75.3775 21.5187 81.0886 28.5637 81.0886H69.2076C76.2527 81.0886 81.9638 75.3775 81.9638 68.3325V27.6886C81.9638 20.6436 76.2527 14.9325 69.2076 14.9325Z" fill="white" stroke="#231F20" stroke-width="1.5" stroke-miterlimit="10"/>
<path d="M25.0283 29.839V32.7437" stroke="#231F20" stroke-width="1.5" stroke-linecap="round" stroke-linejoin="round"/>
<path d="M25.0283 39.5439V61.4309" stroke="#231F20" stroke-width="1.5" stroke-linecap="round" stroke-linejoin="round"/>
<path d="M25.0283 64.8311V67.7358" stroke="#231F20" stroke-width="1.5" stroke-linecap="round" stroke-linejoin="round"/>
<path d="M73.1704 29.839V32.7437" stroke="#231F20" stroke-width="1.5" stroke-linecap="round" stroke-linejoin="round"/>
<path d="M73.1704 39.5439V61.4309" stroke="#231F20" stroke-width="1.5" stroke-linecap="round" stroke-linejoin="round"/>
<path d="M73.1704 64.8311V67.7358" stroke="#231F20" stroke-width="1.5" stroke-linecap="round" stroke-linejoin="round"/>
<path d="M28.2598 4.46191V14.3358" stroke="#231F20" stroke-width="1.5" stroke-linecap="round" stroke-linejoin="round"/>
<path d="M49.2349 4.46191V14.3358" stroke="#231F20" stroke-width="1.5" stroke-linecap="round" stroke-linejoin="round"/>
<path d="M38.7417 -1.33636V13.5139" stroke="#231F20" stroke-width="1.5" stroke-linecap="round" stroke-linejoin="round"/>
<path d="M59.728 -1.33636V13.5139" stroke="#231F20" stroke-width="1.5" stroke-linecap="round" stroke-linejoin="round"/>
<path d="M70.2212 4.46191V14.3358" stroke="#231F20" stroke-width="1.5" stroke-linecap="round" stroke-linejoin="round"/>
<path d="M69.8721 91.3228V81.4489" stroke="#231F20" stroke-width="1.5" stroke-linecap="round" stroke-linejoin="round"/>
<path d="M48.8857 91.3228V81.4489" stroke="#231F20" stroke-width="1.5" stroke-linecap="round" stroke-linejoin="round"/>
<path d="M59.3789 97.121V82.282" stroke="#231F20" stroke-width="1.5" stroke-linecap="round" stroke-linejoin="round"/>
<path d="M38.3926 97.121V82.282" stroke="#231F20" stroke-width="1.5" stroke-linecap="round" stroke-linejoin="round"/>
<path d="M27.9106 91.3228V81.4489" stroke="#231F20" stroke-width="1.5" stroke-linecap="round" stroke-linejoin="round"/>
<path d="M5.53955 68.9967H15.4134" stroke="#231F20" stroke-width="1.5" stroke-linecap="round" stroke-linejoin="round"/>
<path d="M5.53955 48.0105H15.4134" stroke="#231F20" stroke-width="1.5" stroke-linecap="round" stroke-linejoin="round"/>
<path d="M-0.258789 58.5036H14.5914" stroke="#231F20" stroke-width="1.5" stroke-linecap="round" stroke-linejoin="round"/>
<path d="M-0.258789 37.5174H14.5914" stroke="#231F20" stroke-width="1.5" stroke-linecap="round" stroke-linejoin="round"/>
<path d="M5.53955 27.0243H15.4134" stroke="#231F20" stroke-width="1.5" stroke-linecap="round" stroke-linejoin="round"/>
<path d="M92.2313 27.0243H82.3687" stroke="#231F20" stroke-width="1.5" stroke-linecap="round" stroke-linejoin="round"/>
<path d="M92.2313 48.0105H82.3687" stroke="#231F20" stroke-width="1.5" stroke-linecap="round" stroke-linejoin="round"/>
<path d="M98.0407 37.5174H83.1904" stroke="#231F20" stroke-width="1.5" stroke-linecap="round" stroke-linejoin="round"/>
<path d="M98.0407 58.5036H83.1904" stroke="#231F20" stroke-width="1.5" stroke-linecap="round" stroke-linejoin="round"/>
<path d="M92.2313 68.9967H82.3687" stroke="#231F20" stroke-width="1.5" stroke-linecap="round" stroke-linejoin="round"/>
<path d="M31.6425 31.6401V54.2285C31.6425 58.8676 34.0107 63.191 37.9211 65.6806L48.1709 72.2142C48.9725 72.7243 49.9926 72.7243 50.782 72.2142L61.0318 65.6806C64.9422 63.191 67.3104 58.8676 67.3104 54.2285V31.6401L50.1383 28.5311C49.6404 28.4461 49.1425 28.4461 48.6446 28.5311L31.6304 31.6401H31.6425Z" fill="#E5443C"/>
<g style="mix-blend-mode:screen" opacity="0.2">
<path d="M31.6425 31.6401V54.2285C31.6425 58.8676 34.0107 63.191 37.9211 65.6806L48.1709 72.2142C48.9725 72.7243 49.9926 72.7243 50.782 72.2142L61.0318 65.6806C64.9422 63.191 67.3104 58.8676 67.3104 54.2285V31.6401L50.1383 28.5311C49.6404 28.4461 49.1425 28.4461 48.6446 28.5311L31.6304 31.6401H31.6425Z" fill="#B3ACB1"/>
</g>
<path d="M55.4509 44.7359H43.853V56.0301H55.4509V44.7359Z" stroke="white" stroke-width="1.07866" stroke-linecap="round" stroke-linejoin="round"/>
<path d="M49.7186 38.603H49.5971C47.7148 38.603 46.1846 40.1332 46.1846 42.0156V44.7845H53.1433V42.0156C53.1433 40.1332 51.6131 38.603 49.7307 38.603H49.7186Z" stroke="white" stroke-width="1.07866" stroke-linecap="round" stroke-linejoin="round"/>
<path d="M49.646 48.6586V51.7432" stroke="white" stroke-width="1.07866" stroke-linecap="round" stroke-linejoin="round"/>
</g>
<defs>
<clipPath id="clip0_146_562">
<rect width="97" height="97.1529" fill="white"/>
</clipPath>
</defs>
</svg>
