<svg width="85" height="85" viewBox="0 0 85 85" fill="none" xmlns="http://www.w3.org/2000/svg">
    <g clip-path="url(#clip0_143_2008)">
        <path
            d="M56.0997 10.7667H78.2904C81.0557 10.7667 83.2997 13.0107 83.2997 15.776V64.6907C83.2997 67.456 81.0557 69.7 78.2904 69.7H6.70904C3.94371 69.7 1.69971 67.456 1.69971 64.6907V15.776C1.69971 13.0107 3.94371 10.7667 6.70904 10.7667H10.7664"
            stroke="#171921" stroke-width="2" stroke-linecap="round" stroke-linejoin="round" />
        <path d="M83.2997 60.6334H1.69971" stroke="#171921" stroke-width="2" stroke-linecap="round"
            stroke-linejoin="round" />
        <path d="M60.633 83.3H24.3663" stroke="#171921" stroke-width="2" stroke-linecap="round"
            stroke-linejoin="round" />
        <path d="M29.4211 82.3027L34.4078 78.7893C35.2238 78.2227 35.7225 76.9987 35.6998 75.6613V69.7" stroke="#171921"
            stroke-width="2" stroke-linecap="round" stroke-linejoin="round" />
        <path d="M49.2998 69.7V75.6613C49.2998 76.9987 49.7985 78.2 50.5918 78.7667L55.5785 82.28" stroke="#171921"
            stroke-width="2" stroke-linecap="round" stroke-linejoin="round" />
        <path d="M10.7664 51.5667H15.2997" stroke="#171921" stroke-width="2" stroke-linecap="round"
            stroke-linejoin="round" />
        <path d="M22.0999 51.5667H40.2332" stroke="#171921" stroke-width="2" stroke-linecap="round"
            stroke-linejoin="round" />
        <path
            d="M74.2329 22.1C72.7823 22.1 71.3996 21.4427 70.5156 20.264L70.1076 19.72L65.8463 21.488L65.9369 22.168C66.1409 23.6187 65.6423 25.0467 64.6223 26.0893H64.5996C63.5796 27.1547 62.1289 27.6533 60.7009 27.4267L60.0209 27.336L58.2529 31.5973L58.7969 32.0053C59.9529 32.8667 60.6329 34.2493 60.6329 35.7V35.7453C60.6329 37.196 59.9756 38.5787 58.7969 39.4627L58.2529 39.8707L60.0209 44.132L60.7009 44.0413C62.1516 43.8373 63.5796 44.336 64.6223 45.356H64.6449C65.6649 46.4213 66.1636 47.8493 65.9596 49.3L65.8689 49.98L70.1303 51.748L70.5383 51.204C71.3996 50.048 72.7823 49.368 74.2329 49.368"
            stroke="#171921" stroke-width="2" stroke-linecap="round" stroke-linejoin="round" />
        <path
            d="M74.2329 40.2333C71.7396 40.2333 69.6996 38.1933 69.6996 35.7C69.6996 33.2067 71.7396 31.1667 74.2329 31.1667"
            stroke="#171921" stroke-width="2" stroke-linecap="round" stroke-linejoin="round" />
        <path
            d="M49.5272 16.5663L49.4553 16.4225C48.7361 14.6723 48.8799 12.6825 49.8389 11.0762L50.3184 10.285L46.027 5.99362L45.2838 6.44913C43.6295 7.43208 41.6157 7.57593 39.8176 6.8567L39.7217 6.80875C37.9476 6.06554 36.629 4.55516 36.1735 2.68516L35.9577 1.82208H29.8922L29.6765 2.68516C29.197 4.53118 27.8784 6.06554 26.1283 6.80875L26.0324 6.8567C24.2583 7.5999 22.2204 7.45606 20.5662 6.44913L19.823 5.99362L15.5316 10.285L15.9871 11.0282C16.9701 12.6825 17.1139 14.6963 16.3947 16.4944L16.3467 16.6382C15.6275 18.3884 14.1171 19.683 12.2951 20.1385L11.384 20.3782V26.4437L12.2471 26.6595C14.0931 27.139 15.6275 28.4576 16.3707 30.2077L16.4186 30.3036C17.1619 32.0777 17.018 34.1155 16.0111 35.7698L15.5556 36.513L19.847 40.8044L20.5902 40.3489C22.2444 39.3659 24.2583 39.2221 26.0563 39.9413L26.1522 39.9893C27.9263 40.7325 29.2449 42.2428 29.7004 44.1128L29.9162 44.9759H35.9817L36.1975 44.1128C36.677 42.2668 37.9956 40.7325 39.7457 39.9893L39.8416 39.9413C41.6157 39.1981 43.6535 39.3419 45.3077 40.3489L46.051 40.8044L50.3424 36.513L49.8629 35.7218C48.9039 34.0916 48.7601 32.1257 49.4793 30.3755L49.5512 30.2317C50.2944 28.4576 51.8048 27.139 53.6748 26.6835L54.5379 26.4677V20.4022L53.6748 20.1864C51.8288 19.707 50.2944 18.3884 49.5512 16.6382L49.5272 16.5663Z"
            fill="#E5453D" />
        <path d="M35.3964 20.2475L37.22 22.8643" stroke="white" stroke-linecap="round" stroke-linejoin="round" />
        <path d="M29.0686 22.8643L30.8981 20.2475" stroke="white" stroke-linecap="round" stroke-linejoin="round" />
        <path d="M34.7366 29.1054H31.2629" stroke="white" stroke-linecap="round" stroke-linejoin="round" />
        <path
            d="M21.9996 28.3412C21.9996 27.8027 22.3296 27.9475 22.7349 27.9475H28.2117C28.617 27.9475 28.947 28.3817 28.947 28.9201C28.947 30.298 28.1017 31.4212 27.0596 31.4212H23.887C22.8449 31.4212 21.9996 29.7248 21.9996 28.3412Z"
            stroke="white" stroke-linecap="round" stroke-linejoin="round" />
        <path
            d="M27.2103 23.3159V24.4738C27.2103 25.4348 26.4345 26.2106 25.4734 26.2106C24.5124 26.2106 23.7366 25.4348 23.7366 24.4738V23.3159C23.7366 22.3548 24.5124 21.579 25.4734 21.579C26.4345 21.579 27.2103 22.3548 27.2103 23.3159Z"
            stroke="white" stroke-linecap="round" stroke-linejoin="round" />
        <path
            d="M37.0524 29.4991C37.0524 28.9606 37.3824 28.5264 37.7876 28.5264H43.2645C43.6697 28.5264 43.9997 28.9606 43.9997 29.4991C43.9997 30.877 43.1545 32.0001 42.1124 32.0001H38.9397C37.8976 32.0001 37.0524 30.8827 37.0524 29.4991V29.4991Z"
            stroke="white" stroke-linecap="round" stroke-linejoin="round" />
        <path
            d="M42.263 23.8949V25.0528C42.263 26.0138 41.4872 26.7896 40.5261 26.7896C39.5651 26.7896 38.7893 26.0138 38.7893 25.0528V23.8949C38.7893 22.9338 39.5651 22.158 40.5261 22.158C41.4872 22.158 42.263 22.9338 42.263 23.8949Z"
            stroke="white" stroke-linecap="round" stroke-linejoin="round" />
        <path d="M35.8945 14.0527H30.105V18.6843H35.8945V14.0527Z" stroke="white" stroke-linecap="round"
            stroke-linejoin="round" />
        <path
            d="M31.2629 14.0527V11.5748C31.2629 10.7064 31.9693 10.0001 32.8377 10.0001H33.1561C34.0245 10.0001 34.7308 10.7064 34.7308 11.5748V14.0527"
            stroke="white" stroke-linecap="round" stroke-linejoin="round" />
        <path d="M32.9995 15.7896V16.9475" stroke="white" stroke-linecap="round" stroke-linejoin="round" />
    </g>
    <defs>
        <clipPath id="clip0_143_2008">
            <rect width="85" height="85" fill="white" />
        </clipPath>
    </defs>
</svg>