<svg width="90" height="90" viewBox="0 0 90 90" fill="none" xmlns="http://www.w3.org/2000/svg">
    <path
        d="M81 39.5V58.3405C81 60.7195 79.0695 62.65 76.6905 62.65H7.3095C4.9305 62.65 3 60.7195 3 58.3405V14.3095C3 11.9305 4.9305 10 7.3095 10H43"
        stroke="#171921" stroke-width="2" stroke-linecap="round" stroke-linejoin="round" />
    <path d="M25.0001 20H43.0001" stroke="#171921" stroke-width="2" stroke-linecap="round" stroke-linejoin="round" />
    <path d="M25.0001 27H43.0001" stroke="#171921" stroke-width="2" stroke-linecap="round" stroke-linejoin="round" />
    <path d="M11.0001 35H43.0001" stroke="#171921" stroke-width="2" stroke-linecap="round" stroke-linejoin="round" />
    <path d="M10.8 43.15H38.1" stroke="#171921" stroke-width="2" stroke-linecap="round" stroke-linejoin="round" />
    <path d="M20.55 19.75H10.8V27.55H20.55V19.75Z" stroke="#171921" stroke-width="2" stroke-linecap="round"
        stroke-linejoin="round" />
    <path d="M81 52.9H3" stroke="#171921" stroke-width="2" stroke-linecap="round" stroke-linejoin="round" />
    <path d="M59.55 76.3H24.45" stroke="#171921" stroke-width="2" stroke-linecap="round" stroke-linejoin="round" />
    <path d="M30.3 76.3L35.0385 72.4195C35.7405 71.932 36.1695 70.879 36.15 69.7285V62.65" stroke="#171921"
        stroke-width="2" stroke-linecap="round" stroke-linejoin="round" />
    <path d="M47.85 62.65V69.7285C47.85 70.879 48.279 71.9125 48.9615 72.4L53.7 76.3" stroke="#171921" stroke-width="2"
        stroke-linecap="round" stroke-linejoin="round" />
    <circle cx="66" cy="20" r="19" fill="#E5453D" />
    <path
        d="M60.6075 14.4673C61.1146 14.4714 61.6217 14.5679 62.1288 14.7571C62.6359 14.9463 63.0988 15.2602 63.5173 15.6989C63.9359 16.1335 64.2719 16.7272 64.5255 17.4798C64.779 18.2324 64.9058 19.1761 64.9058 20.3111C64.9058 21.4098 64.8012 22.3858 64.5919 23.239C64.3866 24.0882 64.0888 24.8046 63.6984 25.3881C63.3121 25.9717 62.8412 26.4144 62.2858 26.7163C61.7344 27.0181 61.1106 27.169 60.4143 27.169C59.7221 27.169 59.1043 27.0322 58.561 26.7585C58.0217 26.4808 57.579 26.0965 57.2329 25.6055C56.8908 25.1104 56.6714 24.5369 56.5748 23.8849H58.0479C58.1807 24.4524 58.4443 24.9213 58.8387 25.2915C59.2371 25.6578 59.7623 25.8409 60.4143 25.8409C61.3682 25.8409 62.1208 25.4244 62.6721 24.5913C63.2275 23.7582 63.5052 22.581 63.5052 21.0597H63.4086C63.1833 21.3977 62.9156 21.6895 62.6057 21.935C62.2958 22.1805 61.9517 22.3697 61.5734 22.5025C61.1951 22.6353 60.7926 22.7017 60.366 22.7017C59.6577 22.7017 59.0077 22.5266 58.4161 22.1765C57.8285 21.8223 57.3576 21.3374 57.0035 20.7216C56.6533 20.1018 56.4782 19.3935 56.4782 18.5966C56.4782 17.84 56.6473 17.1477 56.9854 16.5199C57.3274 15.888 57.8064 15.3849 58.4221 15.0107C59.0419 14.6364 59.7704 14.4553 60.6075 14.4673ZM60.6075 15.7955C60.1004 15.7955 59.6436 15.9222 59.2371 16.1758C58.8347 16.4253 58.5147 16.7634 58.2773 17.19C58.0438 17.6126 57.9271 18.0814 57.9271 18.5966C57.9271 19.1117 58.0398 19.5806 58.2652 20.0032C58.4946 20.4218 58.8065 20.7558 59.2009 21.0053C59.5993 21.2508 60.0521 21.3736 60.5592 21.3736C60.9416 21.3736 61.2977 21.2991 61.6278 21.1502C61.9578 20.9973 62.2455 20.79 62.491 20.5284C62.7406 20.2628 62.9358 19.9629 63.0766 19.6289C63.2175 19.2908 63.2879 18.9387 63.2879 18.5724C63.2879 18.0895 63.1712 17.6367 62.9378 17.2141C62.7084 16.7915 62.3904 16.4495 61.9839 16.1879C61.5815 15.9263 61.1227 15.7955 60.6075 15.7955ZM71.2159 14.4673C71.723 14.4714 72.2301 14.5679 72.7372 14.7571C73.2443 14.9463 73.7071 15.2602 74.1257 15.6989C74.5443 16.1335 74.8803 16.7272 75.1339 17.4798C75.3874 18.2324 75.5142 19.1761 75.5142 20.3111C75.5142 21.4098 75.4096 22.3858 75.2003 23.239C74.995 24.0882 74.6972 24.8046 74.3068 25.3881C73.9205 25.9717 73.4496 26.4144 72.8942 26.7163C72.3428 27.0181 71.719 27.169 71.0227 27.169C70.3305 27.169 69.7127 27.0322 69.1694 26.7585C68.6301 26.4808 68.1874 26.0965 67.8413 25.6055C67.4992 25.1104 67.2798 24.5369 67.1832 23.8849H68.6562C68.7891 24.4524 69.0527 24.9213 69.4471 25.2915C69.8455 25.6578 70.3707 25.8409 71.0227 25.8409C71.9766 25.8409 72.7292 25.4244 73.2805 24.5913C73.8359 23.7582 74.1136 22.581 74.1136 21.0597H74.017C73.7917 21.3977 73.524 21.6895 73.2141 21.935C72.9042 22.1805 72.5601 22.3697 72.1818 22.5025C71.8035 22.6353 71.401 22.7017 70.9744 22.7017C70.2661 22.7017 69.6161 22.5266 69.0245 22.1765C68.4369 21.8223 67.966 21.3374 67.6119 20.7216C67.2617 20.1018 67.0866 19.3935 67.0866 18.5966C67.0866 17.84 67.2557 17.1477 67.5938 16.5199C67.9358 15.888 68.4148 15.3849 69.0305 15.0107C69.6503 14.6364 70.3788 14.4553 71.2159 14.4673ZM71.2159 15.7955C70.7088 15.7955 70.252 15.9222 69.8455 16.1758C69.4431 16.4253 69.1231 16.7634 68.8857 17.19C68.6522 17.6126 68.5355 18.0814 68.5355 18.5966C68.5355 19.1117 68.6482 19.5806 68.8736 20.0032C69.103 20.4218 69.4149 20.7558 69.8093 21.0053C70.2077 21.2508 70.6605 21.3736 71.1676 21.3736C71.55 21.3736 71.9061 21.2991 72.2362 21.1502C72.5662 20.9973 72.8539 20.79 73.0994 20.5284C73.349 20.2628 73.5442 19.9629 73.685 19.6289C73.8259 19.2908 73.8963 18.9387 73.8963 18.5724C73.8963 18.0895 73.7796 17.6367 73.5462 17.2141C73.3168 16.7915 72.9988 16.4495 72.5923 16.1879C72.1899 15.9263 71.7311 15.7955 71.2159 15.7955Z"
        fill="white" />
</svg>