<svg width="120" height="120" viewBox="0 0 120 120" fill="none" xmlns="http://www.w3.org/2000/svg">
<g clip-path="url(#clip0_146_8469)">
<path d="M84.8444 26.9479H29.2705C26.2038 26.9479 23.7178 29.4339 23.7178 32.5006V108.517C23.7178 111.584 26.2038 114.07 29.2705 114.07H84.8444C87.9111 114.07 90.3971 111.584 90.3971 108.517V32.5006C90.3971 29.4339 87.9111 26.9479 84.8444 26.9479Z" stroke="#171921" stroke-width="1.00818" stroke-miterlimit="10"/>
<path d="M75.9104 20.557H19.4214C16.3889 20.557 13.9307 23.0153 13.9307 26.0477V99.4276C13.9307 102.46 16.3889 104.918 19.4214 104.918H75.9104C78.9428 104.918 81.4011 102.46 81.4011 99.4276V26.0477C81.4011 23.0153 78.9428 20.557 75.9104 20.557Z" fill="white" stroke="#171921" stroke-width="1.00818" stroke-miterlimit="10"/>
<path d="M84.8449 48.5843C96.8804 48.5843 106.637 38.8276 106.637 26.7922C106.637 14.7567 96.8804 5 84.8449 5C72.8094 5 63.0527 14.7567 63.0527 26.7922C63.0527 38.8276 72.8094 48.5843 84.8449 48.5843Z" fill="#E5453D"/>
<path d="M94.6933 22.6202C94.6979 20.9902 94.2979 19.3844 93.5291 17.947C92.7603 16.5097 91.6468 15.2856 90.2884 14.3845C88.93 13.4835 87.3692 12.9337 85.7459 12.7845C84.1227 12.6352 82.4878 12.8912 80.9879 13.5294C79.488 14.1677 78.1699 15.1682 77.1519 16.4413C76.1339 17.7144 75.4478 19.2203 75.1552 20.8239C74.8625 22.4275 74.9724 24.0786 75.4751 25.6293C75.9777 27.1799 76.8573 28.5816 78.0351 29.7085C78.5661 30.2268 78.9868 30.8471 79.272 31.5321C79.5571 32.2171 79.701 32.9527 79.6947 33.6947V34.7339H89.9936V33.5861C90.0072 32.847 90.1678 32.118 90.466 31.4416C90.7643 30.7652 91.1942 30.1549 91.7308 29.6464C92.6675 28.7315 93.4121 27.6387 93.9208 26.4322C94.4295 25.2256 94.6922 23.9296 94.6933 22.6202V22.6202Z" stroke="white" stroke-width="0.930626" stroke-miterlimit="10"/>
<path d="M80.6873 34.7485H89.0009V39.2931C89.0009 39.7045 88.8375 40.099 88.5466 40.3898C88.2557 40.6807 87.8612 40.8441 87.4498 40.8441H82.2073C81.7959 40.8441 81.4014 40.6807 81.1105 40.3898C80.8197 40.099 80.6562 39.7045 80.6562 39.2931V34.7485H80.6873Z" stroke="white" stroke-width="0.930626" stroke-miterlimit="10"/>
<path d="M81.0908 37.6022H85.837" stroke="white" stroke-width="0.930626" stroke-linecap="round" stroke-linejoin="round"/>
<path d="M88.7989 26.1714L86.4103 34.7331H83.2307L80.873 26.1714L82.3 27.1175C82.3964 27.1893 82.5133 27.228 82.6335 27.228C82.7536 27.228 82.8706 27.1893 82.967 27.1175L84.8437 25.5665L86.736 27.1175C86.8324 27.1893 86.9493 27.228 87.0695 27.228C87.1896 27.228 87.3066 27.1893 87.403 27.1175L88.7989 26.1714Z" stroke="white" stroke-width="0.930626" stroke-miterlimit="10"/>
<path d="M34.73 65.9713H22.8955V77.8057H34.73V65.9713Z" fill="#E5453D"/>
<path d="M39.29 69.3217H70.5436" stroke="#171921" stroke-width="1.00818" stroke-linecap="round" stroke-linejoin="round"/>
<path d="M39.29 75.1847H70.9468" stroke="#171921" stroke-width="1.00818" stroke-linecap="round" stroke-linejoin="round"/>
<path d="M27.8121 75.4632C27.6904 75.4569 27.5749 75.4074 27.4864 75.3236L24.2602 72.0974C24.2164 72.0536 24.1816 72.0016 24.1579 71.9444C24.1342 71.8872 24.1221 71.8259 24.1221 71.7639C24.1221 71.702 24.1342 71.6407 24.1579 71.5834C24.1816 71.5262 24.2164 71.4742 24.2602 71.4304C24.304 71.3866 24.356 71.3519 24.4132 71.3282C24.4704 71.3045 24.5317 71.2923 24.5937 71.2923C24.6556 71.2923 24.7169 71.3045 24.7741 71.3282C24.8314 71.3519 24.8833 71.3866 24.9271 71.4304L27.8121 74.3309L32.6823 69.4606C32.7257 69.4161 32.7776 69.3806 32.8349 69.3565C32.8921 69.3323 32.9537 69.3198 33.0159 69.3198C33.078 69.3198 33.1395 69.3323 33.1968 69.3565C33.2541 69.3806 33.306 69.4161 33.3493 69.4606C33.4322 69.5519 33.478 69.6708 33.478 69.7941C33.478 69.9174 33.4322 70.0363 33.3493 70.1276L28.1533 75.3236C28.0587 75.4074 27.9384 75.4566 27.8121 75.4632Z" fill="white"/>
<path d="M34.73 83.9941H22.8955V95.8286H34.73V83.9941Z" fill="#E5453D"/>
<path d="M39.29 86.7248H69.7991" stroke="#171921" stroke-width="1.00818" stroke-linecap="round" stroke-linejoin="round"/>
<path d="M39.29 92.2462H70.3109" stroke="#171921" stroke-width="1.00818" stroke-linecap="round" stroke-linejoin="round"/>
<path d="M27.8121 92.8673C27.6904 92.8611 27.5749 92.8116 27.4864 92.7277L24.2602 89.5016C24.1717 89.4131 24.1221 89.2932 24.1221 89.1681C24.1221 89.043 24.1717 88.9231 24.2602 88.8346C24.3486 88.7462 24.4686 88.6965 24.5937 88.6965C24.7187 88.6965 24.8387 88.7462 24.9271 88.8346L27.8121 91.7351L32.6823 86.8493C32.7257 86.8047 32.7776 86.7693 32.8349 86.7451C32.8921 86.721 32.9537 86.7085 33.0159 86.7085C33.078 86.7085 33.1395 86.721 33.1968 86.7451C33.2541 86.7693 33.306 86.8047 33.3493 86.8493C33.4322 86.9406 33.478 87.0595 33.478 87.1828C33.478 87.306 33.4322 87.4249 33.3493 87.5162L28.1533 92.7122C28.0609 92.8017 27.9403 92.8565 27.8121 92.8673Z" fill="white"/>
<path d="M34.73 29.7542H22.8955V41.5887H34.73V29.7542Z" fill="#E5453D"/>
<path d="M39.29 33.1047H57.4528" stroke="#171921" stroke-width="1.00818" stroke-linecap="round" stroke-linejoin="round"/>
<path d="M39.29 38.6262H62.3696" stroke="#171921" stroke-width="1.00818" stroke-linecap="round" stroke-linejoin="round"/>
<path d="M27.8128 39.2473C27.7519 39.2473 27.6916 39.2349 27.6356 39.2109C27.5796 39.1869 27.5291 39.1518 27.4871 39.1077L24.2609 35.8815C24.2163 35.8382 24.1809 35.7863 24.1568 35.729C24.1326 35.6718 24.1201 35.6102 24.1201 35.5481C24.1201 35.4859 24.1326 35.4243 24.1568 35.3671C24.1809 35.3098 24.2163 35.2579 24.2609 35.2146C24.3522 35.1317 24.4711 35.0859 24.5944 35.0859C24.7176 35.0859 24.8365 35.1317 24.9278 35.2146L27.8128 38.115L32.683 33.2448C32.7715 33.1563 32.8915 33.1066 33.0166 33.1066C33.1416 33.1066 33.2616 33.1563 33.35 33.2448C33.4385 33.3332 33.4881 33.4532 33.4881 33.5782C33.4881 33.7033 33.4385 33.8233 33.35 33.9117L28.154 39.1077C28.1091 39.1523 28.0559 39.1875 27.9973 39.2115C27.9387 39.2355 27.8761 39.2476 27.8128 39.2473Z" fill="white"/>
<path d="M34.73 47.793H22.8955V59.6275H34.73V47.793Z" fill="#E5453D"/>
<path d="M39.29 50.5074H73.0873" stroke="#171921" stroke-width="1.00818" stroke-linecap="round" stroke-linejoin="round"/>
<path d="M39.29 56.3863H72.4048" stroke="#171921" stroke-width="1.00818" stroke-linecap="round" stroke-linejoin="round"/>
<path d="M27.8121 56.6488C27.7512 56.6488 27.6909 56.6365 27.6349 56.6125C27.5789 56.5885 27.5284 56.5534 27.4864 56.5092L24.2602 53.2831C24.1717 53.1946 24.1221 53.0747 24.1221 52.9496C24.1221 52.8245 24.1717 52.7046 24.2602 52.6161C24.3486 52.5277 24.4686 52.478 24.5937 52.478C24.7187 52.478 24.8387 52.5277 24.9271 52.6161L27.8121 55.5166L32.6823 50.6463C32.7257 50.6017 32.7776 50.5663 32.8349 50.5421C32.8921 50.518 32.9537 50.5055 33.0159 50.5055C33.078 50.5055 33.1395 50.518 33.1968 50.5421C33.2541 50.5663 33.306 50.6017 33.3493 50.6463C33.4322 50.7376 33.478 50.8565 33.478 50.9798C33.478 51.1031 33.4322 51.2219 33.3493 51.3132L28.1533 56.5092C28.1084 56.5538 28.0552 56.5891 27.9966 56.613C27.938 56.637 27.8754 56.6492 27.8121 56.6488Z" fill="white"/>
</g>
<defs>
<clipPath id="clip0_146_8469">
<rect width="93.6365" height="110" fill="white" transform="translate(13 5)"/>
</clipPath>
</defs>
</svg>
