<svg width="45" height="45" viewBox="0 0 45 45" fill="none" xmlns="http://www.w3.org/2000/svg">
<path d="M5 4.12415V26.2821C5 30.8328 7.32301 35.0738 11.159 37.5159L21.2134 43.925C21.9997 44.4254 23.0003 44.4254 23.7747 43.925L33.8291 37.5159C37.6651 35.0738 39.9881 30.8328 39.9881 26.2821V4.12415L23.1552 1.06254C22.6668 0.979152 22.1784 0.979152 21.6899 1.06254L5 4.12415Z" stroke="#EB5757"/>
<g style="mix-blend-mode:screen" opacity="0.2">
<g style="mix-blend-mode:screen" opacity="0.2">
<path d="M5 4.12415V26.2821C5 30.8328 7.32301 35.0738 11.159 37.5159L21.2134 43.925C21.9997 44.4254 23.0003 44.4254 23.7747 43.925L33.8291 37.5159C37.6651 35.0738 39.9881 30.8328 39.9881 26.2821V4.12415L23.1552 1.06254C22.6668 0.979152 22.1784 0.979152 21.6899 1.06254L5 4.12415Z" stroke="#E5453D"/>
</g>
</g>
<path d="M22.2131 20.3322C24.7103 20.3322 26.7393 18.2405 26.7393 15.6661C26.7393 13.0917 24.7103 11 22.2131 11C19.716 11 17.687 13.0917 17.687 15.6661C17.687 18.2405 19.716 20.3322 22.2131 20.3322Z" fill="#E5453D"/>
<path d="M31 27.5439V29.6727C31 30.1801 30.6038 30.601 30.0996 30.601H14.9004C14.4082 30.601 14 30.1801 14 29.6727V27.5439C14 24.5611 16.3531 22.1352 19.2465 22.1352H25.7535C26.3418 22.1352 26.9061 22.2342 27.4343 22.4322C27.4343 22.4322 27.4343 22.4198 27.4463 22.4322C29.5113 23.1501 31 25.1675 31 27.5439Z" fill="#E5453D"/>
</svg>
