<svg width="111" height="94" viewBox="0 0 111 94" fill="none" xmlns="http://www.w3.org/2000/svg">
<g clip-path="url(#clip0_143_751)">
<path d="M99.0184 48.6725V81.7562C99.0184 84.6358 97.8745 87.3974 95.8384 89.4335C93.8022 91.4697 91.0406 92.6135 88.1611 92.6135H11.7722C8.89265 92.6135 6.13105 91.4697 4.09491 89.4335C2.05878 87.3974 0.914886 84.6358 0.914886 81.7562V22.4598C0.914886 19.5803 2.05878 16.8187 4.09491 14.7826C6.13105 12.7464 8.89265 11.6025 11.7722 11.6025H63.8252" stroke="#171921" stroke-width="1.8" stroke-linecap="round" stroke-linejoin="round"/>
<path d="M1.58228 27.7026H63.3448" stroke="#171921" stroke-width="1.8" stroke-linecap="round" stroke-linejoin="round"/>
<path d="M27.8415 85.8667H84.2685" stroke="#171921" stroke-width="1.8" stroke-linecap="round" stroke-linejoin="round"/>
<path d="M14.0675 85.7255H16.7043" stroke="#171921" stroke-width="1.8" stroke-linecap="round" stroke-linejoin="round"/>
<path d="M21.2805 85.7255H23.9327" stroke="#171921" stroke-width="1.8" stroke-linecap="round" stroke-linejoin="round"/>
<path d="M37.1322 20.8925H26.554" stroke="#171921" stroke-width="1.8" stroke-linecap="round" stroke-linejoin="round"/>
<path d="M48.61 21.0319H46.299" stroke="#171921" stroke-width="1.8" stroke-linecap="round" stroke-linejoin="round"/>
<path d="M42.3125 21.0319H40.0015" stroke="#171921" stroke-width="1.8" stroke-linecap="round" stroke-linejoin="round"/>
<path d="M10.5937 22.5526C11.8787 22.5526 12.9203 21.511 12.9203 20.226C12.9203 18.9411 11.8787 17.8995 10.5937 17.8995C9.30882 17.8995 8.26718 18.9411 8.26718 20.226C8.26718 21.511 9.30882 22.5526 10.5937 22.5526Z" fill="#E5453D" stroke="#171921" stroke-width="1.3" stroke-miterlimit="10"/>
<path d="M19.0154 22.5526C20.3003 22.5526 21.342 21.511 21.342 20.226C21.342 18.9411 20.3003 17.8995 19.0154 17.8995C17.7305 17.8995 16.6889 18.9411 16.6889 20.226C16.6889 21.511 17.7305 22.5526 19.0154 22.5526Z" fill="#E5453D" stroke="#171921" stroke-width="1.3" stroke-miterlimit="10"/>
<path d="M105.782 31.6578C106.03 31.115 106.262 30.5721 106.448 30.1068L108.372 30.448C108.644 30.4995 108.923 30.4965 109.194 30.4391C109.465 30.3818 109.722 30.2714 109.95 30.1141C110.178 29.9569 110.372 29.756 110.522 29.5232C110.672 29.2903 110.774 29.03 110.822 28.7574L111.319 26.0586C111.414 25.51 111.291 24.946 110.974 24.4877C110.658 24.0294 110.175 23.7135 109.628 23.6079H109.256C108.787 23.5228 108.362 23.279 108.051 22.9176C107.74 22.5562 107.563 22.099 107.55 21.6226C107.467 20.7141 107.322 19.8124 107.115 18.9238C107.022 18.4755 107.08 18.009 107.279 17.5967C107.478 17.1844 107.808 16.8494 108.217 16.6437L108.573 16.4576C109.068 16.1997 109.441 15.7562 109.609 15.2242C109.778 14.6922 109.729 14.1151 109.473 13.6192L108.217 11.1996C107.961 10.7019 107.519 10.326 106.987 10.1544C106.455 9.98281 105.876 10.0296 105.378 10.2845L104.944 10.5171C104.545 10.729 104.088 10.8042 103.643 10.7314C103.197 10.6585 102.788 10.4416 102.478 10.1138C101.883 9.46742 101.245 8.86118 100.57 8.29912C100.227 8.00074 99.9904 7.5979 99.8979 7.1524C99.8055 6.70691 99.8618 6.24338 100.058 5.83296L100.275 5.38316C100.508 4.87693 100.531 4.29923 100.339 3.77616C100.147 3.2531 99.7563 2.82714 99.2516 2.59128L96.7389 1.45902C96.2304 1.22574 95.6505 1.20239 95.1249 1.39404C94.5993 1.58569 94.1705 1.97688 93.9315 2.48271L93.7299 2.93251C93.5408 3.34869 93.2189 3.69028 92.8146 3.90364C92.4104 4.117 91.9467 4.19004 91.4964 4.1113C90.722 3.97154 89.9399 3.87831 89.1543 3.83211C88.7019 3.80235 88.2721 3.62324 87.9325 3.32287C87.5928 3.02251 87.3625 2.61789 87.2776 2.1725L87.169 1.70718C87.0434 1.17366 86.7122 0.711336 86.2474 0.420845C85.7826 0.130354 85.2219 0.0352173 84.6873 0.156141L81.9575 0.605945C81.4228 0.735017 80.9603 1.06932 80.6701 1.53659C80.3798 2.00387 80.2851 2.56659 80.4064 3.10313V3.50639C80.5009 3.95292 80.4458 4.41814 80.2496 4.83022C80.0533 5.2423 79.7269 5.57833 79.3207 5.78643L78.3435 6.29827C77.9489 6.51651 77.4932 6.59833 77.0472 6.53101C76.6013 6.4637 76.1901 6.25103 75.8774 5.92602L75.5982 5.64684C75.2028 5.25282 74.6674 5.03158 74.1092 5.03158C73.551 5.03158 73.0156 5.25282 72.6202 5.64684L70.6659 7.58564C70.2719 7.98102 70.0506 8.51645 70.0506 9.07464C70.0506 9.63283 70.2719 10.1683 70.6659 10.5636L70.852 10.7653C71.1817 11.0893 71.393 11.5146 71.4521 11.973C71.5112 12.4315 71.4145 12.8965 71.1777 13.2935C70.8217 13.8816 70.4956 14.4872 70.2006 15.1082C70.0299 15.496 69.8593 15.8992 69.7042 16.287L67.8275 15.9458C67.2784 15.8461 66.7123 15.9681 66.253 16.285C65.7937 16.6018 65.4786 17.0878 65.3768 17.6364L64.896 20.3197C64.7964 20.8687 64.9183 21.4349 65.2352 21.8942C65.5521 22.3535 66.038 22.6685 66.5866 22.7704H66.7107C67.1831 22.8448 67.6154 23.0798 67.9346 23.4358C68.2539 23.7918 68.4407 24.247 68.4634 24.7247C68.5271 25.6949 68.6618 26.6591 68.8667 27.6096C68.9542 28.0512 68.8937 28.5093 68.6947 28.913C68.4956 29.3168 68.169 29.6437 67.7654 29.8431H67.6724C67.1774 30.101 66.8049 30.5445 66.6363 31.0765C66.4677 31.6085 66.5167 32.1856 66.7728 32.6815L67.9981 35.0856C68.259 35.5776 68.7025 35.9475 69.2334 36.1157C69.7642 36.284 70.3399 36.2371 70.8365 35.9852C71.245 35.7674 71.715 35.6932 72.1708 35.7748C72.6265 35.8564 73.0416 36.089 73.3492 36.4351C73.9902 37.1485 74.6794 37.817 75.4121 38.4359C75.7647 38.7309 76.0104 39.1337 76.1113 39.5822C76.2122 40.0307 76.1627 40.5 75.9704 40.9176C75.8505 41.1666 75.7815 41.4371 75.7673 41.7131C75.7532 41.9892 75.7943 42.2653 75.8882 42.5252C75.9821 42.7852 76.1269 43.0239 76.3141 43.2272C76.5013 43.4305 76.7273 43.5945 76.9786 43.7094L79.4603 44.8727C79.7118 44.9903 79.984 45.0571 80.2613 45.0693C80.5387 45.0815 80.8157 45.0388 81.0765 44.9437C81.3373 44.8486 81.5768 44.7029 81.7812 44.5151C81.9856 44.3273 82.1509 44.1009 82.2677 43.849C82.4539 43.4341 82.7731 43.093 83.1747 42.8795C83.5763 42.6661 84.0376 42.5925 84.4857 42.6702C85.3577 42.8229 86.2383 42.9213 87.1225 42.9649C87.5787 42.9933 88.0129 43.1712 88.3578 43.4713C88.7027 43.7713 88.939 44.1766 89.0302 44.6246C89.1629 45.1572 89.4979 45.6171 89.9642 45.9067C90.4304 46.1963 90.9912 46.2928 91.5274 46.1756L94.2107 45.6017C94.7401 45.469 95.1974 45.1364 95.4866 44.6736C95.7758 44.2108 95.8744 43.654 95.7618 43.12V43.027C95.6647 42.5839 95.7152 42.1213 95.9057 41.7096C96.0961 41.2979 96.416 40.9598 96.8165 40.747C97.1887 40.5608 97.561 40.3592 97.9332 40.142C98.3326 39.9156 98.7958 39.8278 99.2503 39.8924C99.7049 39.9569 100.125 40.1701 100.446 40.4988C100.641 40.6957 100.873 40.8521 101.128 40.9588C101.384 41.0656 101.658 41.1205 101.935 41.1205C102.212 41.1205 102.486 41.0656 102.742 40.9588C102.997 40.8521 103.229 40.6957 103.424 40.4988L105.533 38.6841C105.927 38.2887 106.149 37.7533 106.149 37.1951C106.149 36.6369 105.927 36.1014 105.533 35.7061L105.378 35.5354C105.057 35.2097 104.851 34.7877 104.792 34.334C104.733 33.8802 104.825 33.4196 105.053 33.0228C105.316 32.6195 105.564 32.1387 105.782 31.6578Z" fill="#E5453D"/>
<path d="M9.13568 43.4607V35.0075H17.0925" stroke="#171921" stroke-width="1.8" stroke-linecap="round" stroke-linejoin="round"/>
<path d="M97.5606 15.8056L97.6847 16.5501C97.7709 17.2342 97.8123 17.9233 97.8088 18.6129C97.8133 20.1493 97.631 21.6806 97.2659 23.173C96.6929 25.5325 95.6176 27.7406 94.1132 29.6465C92.6089 31.5523 90.7109 33.1111 88.549 34.2164L88.1923 34.4181L87.8511 34.2164C85.3767 32.9389 83.2481 31.0817 81.6469 28.8033C80.4694 27.0975 79.6175 25.1886 79.1342 23.173C78.7728 21.6957 78.5905 20.1803 78.5913 18.6595C78.5878 17.9699 78.6292 17.2808 78.7154 16.5966L78.8395 15.8521C78.8505 15.7918 78.8491 15.7299 78.8353 15.6701C78.8216 15.6104 78.7957 15.5541 78.7594 15.5047C78.7231 15.4553 78.6771 15.4139 78.6242 15.383C78.5713 15.352 78.5126 15.3322 78.4517 15.3247C78.3305 15.3069 78.2071 15.3376 78.1083 15.4102C78.0096 15.4828 77.9435 15.5914 77.9244 15.7125L77.8158 16.4415C77.7036 17.1753 77.6517 17.9171 77.6607 18.6595C77.6704 20.2276 77.863 21.7892 78.2346 23.3126C78.7499 25.4356 79.6544 27.4445 80.9024 29.2376C82.5831 31.6405 84.8175 33.6035 87.4168 34.9609L87.9751 35.2556C88.044 35.2937 88.1214 35.3136 88.2 35.3136C88.2787 35.3136 88.3561 35.2937 88.4249 35.2556L88.9833 34.9609C91.5826 33.6035 93.817 31.6405 95.4977 29.2376C96.7457 27.4445 97.6502 25.4356 98.1655 23.3126C98.5371 21.7892 98.7297 20.2276 98.7394 18.6595C98.7484 17.9171 98.6965 17.1753 98.5843 16.4415L98.4757 15.7125C98.453 15.5902 98.3837 15.4815 98.2825 15.4091C98.1812 15.3368 98.0559 15.3066 97.9328 15.3247C97.8734 15.3341 97.8164 15.3553 97.7653 15.387C97.7141 15.4188 97.6699 15.4605 97.6352 15.5097C97.6005 15.5589 97.576 15.6145 97.5632 15.6733C97.5504 15.7321 97.5495 15.7929 97.5606 15.8521V15.8056Z" fill="white"/>
<path d="M81.3525 15.3079L88.1615 13.214L95.2033 15.4165C95.3205 15.4504 95.4463 15.4368 95.5537 15.3788C95.661 15.3208 95.7413 15.2229 95.7772 15.1063C95.8071 14.9892 95.7918 14.8651 95.7343 14.7587C95.6768 14.6523 95.5813 14.5716 95.4669 14.5324L88.3321 12.3144C88.247 12.2836 88.1537 12.2836 88.0685 12.3144L81.0888 14.4393C80.9722 14.4752 80.8743 14.5555 80.8163 14.6628C80.7582 14.7702 80.7447 14.896 80.7786 15.0132C80.7945 15.0722 80.8222 15.1272 80.8601 15.1751C80.898 15.2229 80.9452 15.2626 80.9989 15.2916C81.0526 15.3206 81.1116 15.3384 81.1724 15.3439C81.2332 15.3493 81.2944 15.3424 81.3525 15.3234V15.3079Z" fill="white"/>
<path d="M77.9712 15.9454L87.7893 35.1008C87.8268 35.1755 87.8844 35.2384 87.9556 35.2822C88.0269 35.3261 88.1089 35.3492 88.1925 35.3489C88.2778 35.347 88.3611 35.3232 88.4345 35.2797C88.5078 35.2362 88.5687 35.1746 88.6113 35.1008L94.5829 23.9177L98.4139 15.9454C98.44 15.8915 98.4551 15.833 98.4583 15.7732C98.4615 15.7134 98.4527 15.6536 98.4325 15.5973C98.4123 15.541 98.381 15.4892 98.3405 15.4451C98.3001 15.401 98.2512 15.3654 98.1968 15.3405C98.0857 15.2871 97.958 15.28 97.8417 15.3208C97.7254 15.3615 97.6299 15.4466 97.5764 15.5576L93.7763 23.4834L88.1615 33.891L78.8553 15.5266C78.7989 15.4184 78.7024 15.3366 78.5863 15.2988C78.4703 15.2611 78.344 15.2705 78.2349 15.325C78.1294 15.3841 78.0501 15.4808 78.0127 15.5957C77.9754 15.7107 77.9827 15.8356 78.0332 15.9454H77.9712Z" fill="white"/>
<path d="M82.6704 24.4752H93.5277C93.6346 24.4554 93.7313 24.3988 93.8008 24.3152C93.8703 24.2317 93.9084 24.1263 93.9084 24.0176C93.9084 23.9089 93.8703 23.8036 93.8008 23.72C93.7313 23.6364 93.6346 23.5798 93.5277 23.5601H82.6704C82.6033 23.5476 82.5342 23.5502 82.4682 23.5674C82.4021 23.5847 82.3407 23.6163 82.2882 23.6599C82.2357 23.7036 82.1935 23.7583 82.1645 23.8201C82.1355 23.8819 82.1205 23.9493 82.1205 24.0176C82.1205 24.0859 82.1355 24.1533 82.1645 24.2151C82.1935 24.277 82.2357 24.3316 82.2882 24.3753C82.3407 24.419 82.4021 24.4506 82.4682 24.4678C82.5342 24.4851 82.6033 24.4876 82.6704 24.4752Z" fill="white"/>
<path d="M69.0799 63.1C67.6907 64.8321 65.8745 66.1727 63.8099 66.99" stroke="#171921" stroke-width="1.8" stroke-linecap="round" stroke-linejoin="round"/>
<path d="M45.7099 46.44L45.0499 46C43.1174 44.6943 40.8761 43.9184 38.5499 43.75" stroke="#171921" stroke-width="1.8" stroke-linecap="round" stroke-linejoin="round"/>
<path d="M62.61 67.49C62.9808 67.4515 63.3385 67.3321 63.6582 67.1403C63.9778 66.9485 64.2515 66.689 64.46 66.38L64.52 66.3C64.8948 65.7443 65.0337 65.0625 64.9062 64.4044C64.7787 63.7463 64.3952 63.1657 63.84 62.79L58.25 57.54" stroke="#171921" stroke-width="1.8" stroke-linecap="round" stroke-linejoin="round"/>
<path d="M26.0499 62.27C26.7388 63.6688 27.6737 64.9323 28.8099 66" stroke="#171921" stroke-width="1.8" stroke-linecap="round" stroke-linejoin="round"/>
<path d="M50.46 59.97L61.87 67.67C62.4252 68.0456 62.8086 68.6262 62.9361 69.2843C63.0636 69.9424 62.9247 70.6242 62.55 71.18L62.46 71.27C62.2749 71.5446 62.0375 71.78 61.7614 71.9628C61.4853 72.1456 61.1759 72.2722 60.8509 72.3353C60.5258 72.3985 60.1915 72.3969 59.8671 72.3308C59.5426 72.2647 59.2344 72.1353 58.96 71.95L47.46 64.19" stroke="#171921" stroke-width="1.8" stroke-linecap="round" stroke-linejoin="round"/>
<path d="M47.46 64.21L58.05 71.35C58.6052 71.7256 58.9886 72.3062 59.1161 72.9643C59.2436 73.6224 59.1047 74.3042 58.73 74.86L58.67 74.95C58.4849 75.2245 58.2475 75.46 57.9715 75.6428C57.6954 75.8256 57.3859 75.9521 57.0609 76.0153C56.7359 76.0785 56.4015 76.0769 56.0771 76.0108C55.7526 75.9447 55.4444 75.8153 55.17 75.63L45.72 69.27" stroke="#171921" stroke-width="1.8" stroke-linecap="round" stroke-linejoin="round"/>
<path d="M47.16 76.42L49.16 77.75C49.7158 78.1248 50.3976 78.2637 51.0557 78.1362C51.7138 78.0087 52.2944 77.6252 52.67 77.07L52.73 76.98C53.1011 76.4222 53.2369 75.7404 53.1077 75.083C52.9784 74.4255 52.5947 73.8458 52.04 73.47L45.72 69.27" stroke="#171921" stroke-width="1.8" stroke-linecap="round" stroke-linejoin="round"/>
<path d="M60.52 42.27C58.2819 42.0028 56.0124 42.3019 53.92 43.14L51.83 43.98L39.25 48.98C39.7592 50.248 40.7505 51.2622 42.0066 51.8003C43.2626 52.3383 44.6808 52.3562 45.95 51.85L50.07 50.27L52.46 54.08C53.4489 55.6247 55.0045 56.7195 56.7923 57.1291C58.5802 57.5386 60.4573 57.2301 62.02 56.27" stroke="#171921" stroke-width="1.8" stroke-linecap="round" stroke-linejoin="round"/>
<path d="M33.36 68.64L36.88 63.81C37.2811 63.2568 37.4463 62.567 37.3394 61.8921C37.2326 61.2172 36.8623 60.6122 36.31 60.21V60.21C35.7567 59.8089 35.067 59.6436 34.3921 59.7505C33.7172 59.8574 33.1122 60.2276 32.71 60.78L29.2 65.6C28.9996 65.8728 28.855 66.1826 28.7747 66.5115C28.6944 66.8403 28.6798 67.1818 28.7318 67.5164C28.7839 67.8509 28.9015 68.1718 29.0779 68.4608C29.2544 68.7497 29.4861 69.0009 29.76 69.2V69.2C30.0328 69.4004 30.3426 69.5449 30.6714 69.6252C31.0003 69.7056 31.3418 69.7202 31.6763 69.6681C32.0109 69.6161 32.3318 69.4985 32.6207 69.322C32.9097 69.1456 33.1609 68.9138 33.36 68.64Z" stroke="#171921" stroke-width="1.8" stroke-linecap="round" stroke-linejoin="round"/>
<path d="M37.53 71.6701L42.53 64.8801C42.9311 64.3268 43.0963 63.6371 42.9895 62.9622C42.8826 62.2873 42.5124 61.6823 41.96 61.28V61.28C41.4068 60.879 40.717 60.7137 40.0421 60.8206C39.3672 60.9274 38.7622 61.2977 38.36 61.8501L33.36 68.6401C32.9615 69.1942 32.7978 69.8832 32.9046 70.5573C33.0113 71.2314 33.3798 71.8362 33.93 72.2401V72.2401C34.4832 72.6411 35.1729 72.8064 35.8479 72.6995C36.5228 72.5927 37.1277 72.2224 37.53 71.6701V71.6701Z" stroke="#171921" stroke-width="1.8" stroke-linecap="round" stroke-linejoin="round"/>
<path d="M41.7 74.71L45.21 69.89C45.4109 69.6156 45.5559 69.3042 45.6365 68.9738C45.7171 68.6433 45.7318 68.3002 45.6798 67.9641C45.6278 67.6279 45.5101 67.3053 45.3334 67.0146C45.1567 66.724 44.9245 66.471 44.65 66.27V66.27C44.0968 65.8689 43.407 65.7037 42.7321 65.8106C42.0572 65.9174 41.4522 66.2877 41.05 66.84L37.53 71.67C37.3301 71.9435 37.1862 72.2538 37.1067 72.583C37.0271 72.9123 37.0134 73.254 37.0664 73.5886C37.1194 73.9231 37.238 74.2439 37.4153 74.5325C37.5927 74.8211 37.8254 75.0717 38.1 75.27C38.3728 75.4704 38.6826 75.615 39.0115 75.6953C39.3404 75.7756 39.6819 75.7902 40.0164 75.7382C40.3509 75.6861 40.6718 75.5685 40.9608 75.3921C41.2497 75.2156 41.5009 74.9839 41.7 74.71Z" stroke="#171921" stroke-width="1.8" stroke-linecap="round" stroke-linejoin="round"/>
<path d="M45.8699 77.74L47.9699 74.85C48.3737 74.3064 48.5466 73.6255 48.4511 72.9551C48.3556 72.2848 47.9994 71.6792 47.4599 71.27V71.27C47.1865 71.0701 46.8762 70.9262 46.5469 70.8467C46.2177 70.7671 45.8759 70.7534 45.5414 70.8064C45.2068 70.8594 44.886 70.978 44.5975 71.1553C44.3089 71.3327 44.0582 71.5654 43.8599 71.84L41.7499 74.73C41.3585 75.2707 41.1929 75.9426 41.2881 76.6033C41.3833 77.264 41.7318 77.8617 42.2599 78.27V78.27C42.8098 78.6758 43.4979 78.8479 44.1741 78.7486C44.8503 78.6493 45.4599 78.2868 45.8699 77.74V77.74Z" stroke="#171921" stroke-width="1.8" stroke-linecap="round" stroke-linejoin="round"/>
<path d="M32.26 39L38.72 43.5L25.68 62.82L19 57.57" stroke="#171921" stroke-width="1.8" stroke-linecap="round" stroke-linejoin="round"/>
<path d="M68.0999 39L60.5699 41.87L69.2399 63.5L77.3799 60.23" stroke="#171921" stroke-width="1.8" stroke-linecap="round" stroke-linejoin="round"/>
</g>
<defs>
<clipPath id="clip0_143_751">
<rect width="111.349" height="93.5279" fill="white"/>
</clipPath>
</defs>
</svg>
