<svg width="46" height="45" viewBox="0 0 46 45" fill="none" xmlns="http://www.w3.org/2000/svg">
<path d="M5.3335 4.12415V26.2821C5.3335 30.8328 7.65651 35.0738 11.4924 37.5159L21.5469 43.925C22.3332 44.4254 23.3338 44.4254 24.1082 43.925L34.1626 37.5159C37.9986 35.0738 40.3216 30.8328 40.3216 26.2821V4.12415L23.4887 1.06254C23.0003 0.979152 22.5119 0.979152 22.0234 1.06254L5.3335 4.12415Z" stroke="#EB5757"/>
<g style="mix-blend-mode:screen" opacity="0.2">
<g style="mix-blend-mode:screen" opacity="0.2">
<path d="M5.3335 4.12415V26.2821C5.3335 30.8328 7.65651 35.0738 11.4924 37.5159L21.5469 43.925C22.3332 44.4254 23.3338 44.4254 24.1082 43.925L34.1626 37.5159C37.9986 35.0738 40.3216 30.8328 40.3216 26.2821V4.12415L23.4887 1.06254C23.0003 0.979152 22.5119 0.979152 22.0234 1.06254L5.3335 4.12415Z" stroke="#E5453D"/>
</g>
</g>
<path d="M28.3335 17.9314H17.3335C16.2289 17.9314 15.3335 18.8268 15.3335 19.9314V30.5557C15.3335 31.6602 16.2289 32.5557 17.3335 32.5557H28.3335C29.4381 32.5557 30.3335 31.6602 30.3335 30.5557V19.9314C30.3335 18.8268 29.4381 17.9314 28.3335 17.9314Z" fill="#E5453D"/>
<path d="M22.917 10H22.7501C20.315 10 18.3252 11.9759 18.3252 14.4249V18.0009H27.328V14.4249C27.328 11.9898 25.3521 10 22.9031 10H22.917Z" stroke="#E5453D" stroke-width="1.19129" stroke-linecap="round" stroke-linejoin="round"/>
<path d="M22.8335 22.9963V27.0037" stroke="#F2F2F2" stroke-width="1.19129" stroke-linecap="round" stroke-linejoin="round"/>
</svg>
