<svg width="46" height="45" viewBox="0 0 46 45" fill="none" xmlns="http://www.w3.org/2000/svg">
<path d="M5.6665 4.12415V26.2821C5.6665 30.8328 7.98951 35.0738 11.8255 37.5159L21.8799 43.925C22.6662 44.4254 23.6668 44.4254 24.4412 43.925L34.4956 37.5159C38.3316 35.0738 40.6546 30.8328 40.6546 26.2821V4.12415L23.8217 1.06254C23.3333 0.979152 22.8449 0.979152 22.3564 1.06254L5.6665 4.12415Z" stroke="#EB5757"/>
<g style="mix-blend-mode:screen" opacity="0.2">
<g style="mix-blend-mode:screen" opacity="0.2">
<path d="M5.6665 4.12415V26.2821C5.6665 30.8328 7.98951 35.0738 11.8255 37.5159L21.8799 43.925C22.6662 44.4254 23.6668 44.4254 24.4412 43.925L34.4956 37.5159C38.3316 35.0738 40.6546 30.8328 40.6546 26.2821V4.12415L23.8217 1.06254C23.3333 0.979152 22.8449 0.979152 22.3564 1.06254L5.6665 4.12415Z" stroke="#E5453D"/>
</g>
</g>
<g clip-path="url(#clip0_60_692)">
<g style="mix-blend-mode:multiply">
<path d="M32.303 29.7709L27.4435 24.0579C28.5576 22.7779 29.2372 21.1106 29.2372 19.2774C29.2372 15.2713 25.9659 12 21.9518 12C17.9378 12 14.6665 15.2713 14.6665 19.2853C14.6665 23.2994 17.9378 26.5707 21.9518 26.5707C23.0265 26.5707 24.0458 26.3336 24.9624 25.9148L29.9483 31.7779C30.2407 32.1255 30.6674 32.3231 31.1257 32.3231C31.4892 32.3231 31.8447 32.1888 32.1292 31.9517C32.7771 31.3986 32.8561 30.4267 32.303 29.7788V29.7709ZM21.9518 14.9315C24.3539 14.9315 26.3057 16.8832 26.3057 19.2853C26.3057 21.6874 24.3539 23.6392 21.9518 23.6392C19.5497 23.6392 17.598 21.6874 17.598 19.2853C17.598 16.8832 19.5497 14.9315 21.9518 14.9315Z" fill="#E5453D"/>
</g>
</g>
<defs>
<clipPath id="clip0_60_692">
<rect width="18" height="20.3152" fill="white" transform="translate(14.6665 12)"/>
</clipPath>
</defs>
</svg>
