<svg width="87" height="87" viewBox="0 0 87 87" fill="none" xmlns="http://www.w3.org/2000/svg">
<g clip-path="url(#clip0_146_538)">
<path d="M6.41113 33.2785C9.98737 20.261 20.2609 9.98743 33.2784 6.41119" stroke="#444444" stroke-width="1.5" stroke-linecap="round" stroke-linejoin="round"/>
<path d="M53.7214 80.5888C66.7389 77.0125 77.0255 66.739 80.5887 53.7215" stroke="#444444" stroke-width="1.5" stroke-linecap="round" stroke-linejoin="round"/>
<path d="M53.7214 6.41119C66.7389 9.98743 77.0255 20.261 80.5887 33.2785" stroke="#444444" stroke-width="1.5" stroke-linecap="round" stroke-linejoin="round"/>
<path d="M6.41113 53.7215C9.98737 66.739 20.2609 77.0255 33.2784 80.5888" stroke="#444444" stroke-width="1.5" stroke-linecap="round" stroke-linejoin="round"/>
<path d="M21.0674 35.5283C23.4472 28.7919 28.792 23.4341 35.5414 21.0543" stroke="#444444" stroke-width="2.11" stroke-linecap="round" stroke-linejoin="round"/>
<path d="M51.4717 65.9457C58.208 63.5659 63.5658 58.2211 65.9457 51.4717" stroke="#444444" stroke-width="1.5" stroke-linecap="round" stroke-linejoin="round"/>
<path d="M51.4717 21.0673C58.208 23.4471 63.5658 28.7919 65.9457 35.5413" stroke="#444444" stroke-width="1.5" stroke-linecap="round" stroke-linejoin="round"/>
<path d="M21.0674 51.4717C23.4472 58.2081 28.792 63.5659 35.5414 65.9457" stroke="#444444" stroke-width="1.5" stroke-linecap="round" stroke-linejoin="round"/>
<path d="M53.8386 5.59194L51.3027 22.0816C51.0296 23.8632 49.4951 25.1897 47.6875 25.1897H39.3256C37.518 25.1897 35.9834 23.8762 35.7103 22.0816L33.1745 5.59194C32.8363 3.36817 34.5529 1.36548 36.7897 1.36548H50.2233C52.4731 1.36548 54.1897 3.36817 53.8386 5.59194V5.59194Z" stroke="#444444" stroke-width="1.5" stroke-linecap="round" stroke-linejoin="round"/>
<path d="M53.8386 81.4081L51.3027 64.9184C51.0296 63.1368 49.4951 61.8103 47.6875 61.8103H39.3256C37.518 61.8103 35.9834 63.1238 35.7103 64.9184L33.1745 81.4081C32.8363 83.6318 34.5529 85.6345 36.7897 85.6345H50.2233C52.4731 85.6345 54.1897 83.6318 53.8386 81.4081V81.4081Z" stroke="#444444" stroke-width="1.5" stroke-linecap="round" stroke-linejoin="round"/>
<path d="M81.4081 53.8386L64.9184 51.3027C63.1368 51.0296 61.8103 49.4951 61.8103 47.6875V39.3256C61.8103 37.518 63.1238 35.9834 64.9184 35.7103L81.4081 33.1745C83.6318 32.8363 85.6345 34.5529 85.6345 36.7897V50.2233C85.6345 52.4731 83.6318 54.1897 81.4081 53.8386V53.8386Z" stroke="#444444" stroke-width="1.5" stroke-linecap="round" stroke-linejoin="round"/>
<path d="M5.59194 53.8386L22.0816 51.3027C23.8632 51.0296 25.1897 49.4951 25.1897 47.6875V39.3256C25.1897 37.518 23.8762 35.9834 22.0816 35.7103L5.59194 33.1745C3.36817 32.8363 1.36548 34.5529 1.36548 36.7897V50.2233C1.36548 52.4731 3.36817 54.1897 5.59194 53.8386V53.8386Z" stroke="#444444" stroke-width="1.5" stroke-linecap="round" stroke-linejoin="round"/>
<path d="M3.19922 23.356C3.19922 12.2242 12.2243 3.1991 23.3562 3.1991" stroke="#444444" stroke-width="1.5" stroke-linecap="round" stroke-linejoin="round"/>
<path d="M83.8009 23.356C83.8009 12.2242 74.7758 3.2121 63.657 3.2121" stroke="#444444" stroke-width="1.5" stroke-linecap="round" stroke-linejoin="round"/>
<path d="M3.19922 63.6439C3.19922 74.7758 12.2243 83.7879 23.3432 83.7879" stroke="#444444" stroke-width="1.5" stroke-linecap="round" stroke-linejoin="round"/>
<path d="M83.8009 63.6439C83.8009 74.7758 74.7758 83.7879 63.657 83.7879" stroke="#444444" stroke-width="1.5" stroke-linecap="round" stroke-linejoin="round"/>
<path d="M64.0471 52.4861C61.8103 57.6229 57.6358 61.7973 52.4991 64.0471C51.8879 61.9274 49.9632 60.4319 47.6874 60.4319H39.3125C37.0367 60.4319 35.1121 61.9274 34.5009 64.0471C29.3771 61.7973 25.2027 57.6229 22.9529 52.4861C25.0726 51.8749 26.5551 49.9372 26.5551 47.6745V39.3126C26.5551 37.0758 25.0466 35.0991 22.9529 34.4879C25.2027 29.3642 29.3901 25.1897 34.5009 22.9529C35.1121 25.0727 37.0497 26.5552 39.3125 26.5552H47.6874C49.9502 26.5552 51.8879 25.0727 52.4991 22.9529C57.6228 25.1897 61.7973 29.3642 64.0471 34.4879C61.9533 35.0991 60.4318 37.0758 60.4318 39.3126V47.6745C60.4318 49.9372 61.9273 51.8749 64.0471 52.4861Z" fill="#E5443C"/>
<path d="M33.0703 42.7587L41.7703 51.4587L56.3874 36.8417" stroke="white" stroke-width="1.5" stroke-linecap="round" stroke-linejoin="round"/>
</g>
<defs>
<clipPath id="clip0_146_538">
<rect width="87" height="87" fill="white"/>
</clipPath>
</defs>
</svg>
