<svg width="120" height="120" viewBox="0 0 120 120" fill="none" xmlns="http://www.w3.org/2000/svg">
<g clip-path="url(#clip0_143_1000)">
<path d="M74.5352 11.8347C82.7298 14.3953 90.1372 18.9904 96.062 25.1885C101.987 31.3867 106.235 38.9844 108.407 47.2684" stroke="#171921" stroke-width="1.8" stroke-linecap="round" stroke-linejoin="round"/>
<path d="M11.1563 45.0157C13.7205 36.8314 18.33 29.4317 24.5515 23.5122C30.7729 17.5927 38.4019 13.3479 46.7212 11.1768" stroke="#171921" stroke-width="1.8" stroke-linecap="round" stroke-linejoin="round"/>
<path d="M44.4369 108.203C36.2275 105.647 28.8059 101.049 22.8708 94.8432C16.9357 88.6371 12.6825 81.027 10.5117 72.7295" stroke="#171921" stroke-width="1.8" stroke-linecap="round" stroke-linejoin="round"/>
<path d="M107.844 75.0256C105.288 83.2199 100.682 90.6306 94.4598 96.5599C88.2379 102.489 80.6048 106.742 72.2793 108.918" stroke="#171921" stroke-width="1.8" stroke-linecap="round" stroke-linejoin="round"/>
<path d="M60.6286 14.1131C63.1525 14.1131 65.1985 12.073 65.1985 9.55653C65.1985 7.04003 63.1525 5 60.6286 5C58.1046 5 56.0586 7.04003 56.0586 9.55653C56.0586 12.073 58.1046 14.1131 60.6286 14.1131Z" fill="#E5453D"/>
<path d="M10.57 64.6148C13.0939 64.6148 15.1399 62.5747 15.1399 60.0582C15.1399 57.5417 13.0939 55.5017 10.57 55.5017C8.04605 55.5017 6.00002 57.5417 6.00002 60.0582C6.00002 62.5747 8.04605 64.6148 10.57 64.6148Z" fill="#171921"/>
<path d="M109.506 64.6148C112.029 64.6148 114.075 62.5747 114.075 60.0582C114.075 57.5417 112.029 55.5017 109.506 55.5017C106.982 55.5017 104.936 57.5417 104.936 60.0582C104.936 62.5747 106.982 64.6148 109.506 64.6148Z" fill="#171921"/>
<path d="M58.3727 114.996C60.8966 114.996 62.9426 112.956 62.9426 110.439C62.9426 107.923 60.8966 105.883 58.3727 105.883C55.8488 105.883 53.8027 107.923 53.8027 110.439C53.8027 112.956 55.8488 114.996 58.3727 114.996Z" fill="#E5453D"/>
<circle cx="60" cy="60" r="33.1" stroke="black" stroke-width="1.8"/>
<path d="M79.6859 65.4779C78.4371 67.036 76.7759 68.3077 74.7825 69.1097" stroke="#171921" stroke-width="1.8" stroke-linecap="round" stroke-linejoin="round"/>
<path d="M57.8953 49.9427L57.2767 49.5303C55.4321 48.2815 53.3241 47.5827 51.2161 47.4337" stroke="#171921" stroke-width="1.8" stroke-linecap="round" stroke-linejoin="round"/>
<path d="M73.6596 69.5679C74.347 69.5106 74.9885 69.1554 75.401 68.5368L75.4583 68.4566C76.18 67.3796 75.9051 65.9132 74.8282 65.1914L69.6154 60.2994" stroke="#171921" stroke-width="1.8" stroke-linecap="round" stroke-linejoin="round"/>
<path d="M39.5761 64.6989C40.2062 65.982 41.0655 67.162 42.1538 68.1702" stroke="#171921" stroke-width="1.8" stroke-linecap="round" stroke-linejoin="round"/>
<path d="M62.3289 62.5565L72.9721 69.7283C74.049 70.4501 74.3355 71.9165 73.6022 72.9934L73.5449 73.0736C72.8232 74.1506 71.3567 74.437 70.2798 73.7038L59.5679 66.4746" stroke="#171921" stroke-width="1.8" stroke-linecap="round" stroke-linejoin="round"/>
<path d="M59.568 66.509L69.4436 73.1653C70.5205 73.8871 70.8069 75.3536 70.0737 76.4305L70.0164 76.5107C69.2947 77.5876 67.8282 77.874 66.7513 77.1408L57.9068 71.2063" stroke="#171921" stroke-width="1.8" stroke-linecap="round" stroke-linejoin="round"/>
<path d="M59.2586 77.8969L61.0917 79.1342C62.1686 79.856 63.635 79.581 64.3568 78.5041L64.4141 78.4239C65.1358 77.347 64.8609 75.8805 63.784 75.1587L57.9182 71.2291" stroke="#171921" stroke-width="1.8" stroke-linecap="round" stroke-linejoin="round"/>
<path d="M71.712 46.0703C69.6841 45.8297 67.5646 46.0703 65.5597 46.8723L63.6121 47.6513L51.8805 52.3486C52.8658 54.8117 55.6612 56.0147 58.1358 55.018L61.9738 53.5057L64.1735 57.0572C66.0753 60.0932 70.0737 61.0212 73.1211 59.1194" stroke="#171921" stroke-width="1.8" stroke-linecap="round" stroke-linejoin="round"/>
<path d="M46.3929 70.6333L49.6695 66.1423C50.4486 65.0654 50.2194 63.5646 49.1425 62.7855C48.0656 62.0065 46.5648 62.2356 45.7857 63.3125L42.5091 67.815C41.7301 68.8919 41.9592 70.3927 43.0361 71.1718C44.113 71.9508 45.6139 71.7217 46.3929 70.6448V70.6333Z" stroke="#171921" stroke-width="1.8" stroke-linecap="round" stroke-linejoin="round"/>
<path d="M50.2767 73.4631L54.8937 67.1276C55.6728 66.0506 55.4436 64.5498 54.3667 63.7708C53.2898 62.9917 51.789 63.2209 51.0099 64.2978L46.3929 70.6333C45.6139 71.7102 45.843 73.211 46.9199 73.9901C47.9968 74.7691 49.4976 74.54 50.2767 73.4631Z" stroke="#171921" stroke-width="1.8" stroke-linecap="round" stroke-linejoin="round"/>
<path d="M54.1605 76.2929L57.4371 71.7905C58.2162 70.7135 57.987 69.2127 56.9101 68.4337C55.8332 67.6546 54.3324 67.8838 53.5533 68.9607L50.2767 73.4631C49.4977 74.5401 49.7268 76.0409 50.8037 76.8199C51.8806 77.599 53.3815 77.3698 54.1605 76.2929Z" stroke="#171921" stroke-width="1.8" stroke-linecap="round" stroke-linejoin="round"/>
<path d="M58.0443 79.1342L60.0148 76.4419C60.7939 75.365 60.5648 73.8642 59.4878 73.0851C58.4109 72.3061 56.9101 72.5352 56.131 73.6121L54.1605 76.3044C53.3814 77.3813 53.6106 78.8822 54.6875 79.6612C55.7644 80.4403 57.2652 80.2111 58.0443 79.1342V79.1342Z" stroke="#171921" stroke-width="1.8" stroke-linecap="round" stroke-linejoin="round"/>
<path d="M45.3732 43L51.3879 47.1931L39.2324 65.2144L33 60.3224" stroke="#171921" stroke-width="1.8" stroke-linecap="round" stroke-linejoin="round"/>
<path d="M78.7807 43L71.7578 45.6809L79.8348 65.8445L87.4305 62.7971" stroke="#171921" stroke-width="1.8" stroke-linecap="round" stroke-linejoin="round"/>
<path d="M74.9083 68.1702C74.851 68.2619 74.7708 68.3421 74.7021 68.4223C74.6792 68.4337 74.6448 68.4452 74.6219 68.4566C74.5073 68.5025 74.4042 68.5827 74.3355 68.6743C74.1407 68.7889 73.9345 68.8462 73.7168 68.8691C73.5679 68.8805 73.4304 68.9378 73.3158 69.0295L62.8674 61.9836C62.5237 61.7545 62.0654 61.8462 61.8363 62.1899C61.6071 62.5336 61.6988 62.9918 62.031 63.221L72.6742 70.4043C73.4075 70.8969 73.6022 71.8936 73.0523 72.7185C72.8117 73.0737 72.4451 73.3143 72.0212 73.3945C71.6088 73.4746 71.1734 73.3944 70.8183 73.1539L60.1063 65.9247C59.923 65.7987 59.7053 65.7758 59.5106 65.8331C59.4418 65.8331 59.396 65.856 59.3387 65.8904C59.2356 65.9476 59.1325 66.0393 59.0638 66.1424C59.0294 66.1997 58.995 66.2684 58.9836 66.3257C58.869 66.635 58.9836 66.9902 59.27 67.1735L69.1456 73.8298C69.8788 74.3339 70.0736 75.3306 69.5237 76.144C69.0196 76.8887 68.0229 77.0835 67.2896 76.5794L64.5629 74.7578C64.4828 74.7005 64.4026 74.6318 64.3109 74.5745L58.743 70.8396C58.7774 70.5417 58.7774 70.2439 58.7315 69.946C58.594 69.1097 58.1472 68.3879 57.4713 67.8838C56.9787 67.5287 56.4173 67.3224 55.8215 67.2881C56.1652 66.6809 56.2913 65.982 56.1767 65.2832C56.0507 64.4468 55.6039 63.7136 54.9279 63.221C54.2405 62.7283 53.4157 62.5221 52.5793 62.6596C51.8805 62.7627 51.2503 63.0949 50.7806 63.6105C50.563 63.0606 50.1849 62.5794 49.7037 62.2242C49.0163 61.7316 48.1914 61.5368 47.3551 61.6629C46.5302 61.7889 45.797 62.2357 45.3044 62.9116L42.234 67.1277C41.581 66.4288 41.0196 65.6383 40.5728 64.7791L51.7201 48.2586C53.3698 48.4305 54.9738 48.9804 56.4058 49.8282L51.7201 51.7071C51.342 51.8674 51.1587 52.2913 51.3076 52.6809C51.8575 54.0557 52.9116 55.1326 54.2749 55.7169C55.6382 56.3012 57.1505 56.3241 58.5253 55.7742L61.779 54.491L63.6579 57.5041C64.9181 59.5319 67.0147 60.712 69.2373 60.8838L74.4386 65.7758C74.4386 65.7758 74.4958 65.8216 74.5302 65.8445C74.8854 66.0851 75.126 66.4517 75.2062 66.8756C75.2864 67.2995 75.2062 67.7234 74.9083 68.1702Z" fill="#E5453D"/>
</g>
<defs>
<clipPath id="clip0_143_1000">
<rect width="108.12" height="110" fill="white" transform="translate(6.00002 5)"/>
</clipPath>
</defs>
</svg>
