<svg width="120" height="120" viewBox="0 0 120 120" fill="none" xmlns="http://www.w3.org/2000/svg">
<g clip-path="url(#clip0_143_790)">
<path d="M40.837 60.385H26.9074C26.6778 60.385 26.4576 60.2938 26.2953 60.1315C26.1329 59.9691 26.0417 59.7489 26.0417 59.5193C26.0417 59.2897 26.1329 59.0695 26.2953 58.9071C26.4576 58.7448 26.6778 58.6536 26.9074 58.6536H40.837C41.0666 58.6536 41.2868 58.7448 41.4492 58.9071C41.6116 59.0695 41.7028 59.2897 41.7028 59.5193C41.7028 59.7489 41.6116 59.9691 41.4492 60.1315C41.2868 60.2938 41.0666 60.385 40.837 60.385Z" fill="#231F20"/>
<path d="M19.0639 68.22H10.3287C9.18063 68.22 8.07962 67.7639 7.26783 66.9522C6.45605 66.1404 6 65.0394 6 63.8913V55.1561C6 54.0081 6.45605 52.9071 7.26783 52.0953C8.07962 51.2835 9.18063 50.8275 10.3287 50.8275H19.0639C20.2119 50.8275 21.3129 51.2835 22.1247 52.0953C22.9365 52.9071 23.3925 54.0081 23.3925 55.1561V63.8654C23.396 64.436 23.2865 65.0017 23.0705 65.5299C22.8545 66.058 22.5362 66.5383 22.1339 66.943C21.7316 67.3477 21.2533 67.6689 20.7264 67.888C20.1995 68.1072 19.6345 68.22 19.0639 68.22Z" fill="#D7D8DB"/>
<path d="M93.1012 60.385H79.163C78.9334 60.385 78.7132 60.2938 78.5508 60.1315C78.3885 59.9691 78.2972 59.7489 78.2972 59.5193C78.2972 59.2897 78.3885 59.0695 78.5508 58.9071C78.7132 58.7448 78.9334 58.6536 79.163 58.6536H93.1012C93.3309 58.6536 93.5511 58.7448 93.7134 58.9071C93.8758 59.0695 93.967 59.2897 93.967 59.5193C93.967 59.7489 93.8758 59.9691 93.7134 60.1315C93.5511 60.2938 93.3309 60.385 93.1012 60.385Z" fill="#231F20"/>
<path d="M100.936 50.7927H109.645C110.793 50.7927 111.894 51.2488 112.706 52.0606C113.518 52.8723 113.974 53.9734 113.974 55.1214V63.8653C113.974 65.0133 113.518 66.1143 112.706 66.9261C111.894 67.7379 110.793 68.1939 109.645 68.1939H100.936C99.7881 68.1939 98.6871 67.7379 97.8753 66.9261C97.0635 66.1143 96.6075 65.0133 96.6075 63.8653V55.156C96.6029 54.5847 96.7115 54.018 96.927 53.4889C97.1424 52.9597 97.4606 52.4784 97.863 52.0728C98.2654 51.6672 98.7441 51.3452 99.2716 51.1255C99.799 50.9058 100.365 50.7927 100.936 50.7927Z" fill="#D7D8DB"/>
<path d="M55.6497 4.64929H64.3676C65.5156 4.64929 66.6166 5.10535 67.4284 5.91713C68.2402 6.72891 68.6963 7.82992 68.6963 8.97795V17.7132C68.6963 18.8612 68.2402 19.9622 67.4284 20.774C66.6166 21.5858 65.5156 22.0418 64.3676 22.0418H55.6497C54.5017 22.0418 53.4006 21.5858 52.5889 20.774C51.7771 19.9622 51.321 18.8612 51.321 17.7132V9.00392C51.3176 8.43329 51.427 7.86762 51.643 7.33944C51.8591 6.81126 52.1774 6.331 52.5796 5.92629C52.9819 5.52159 53.4603 5.20042 53.9872 4.98126C54.514 4.7621 55.079 4.64928 55.6497 4.64929V4.64929Z" stroke="#231F20" stroke-width="1.35" stroke-miterlimit="10"/>
<path d="M55.641 97.6028H64.359C65.507 97.6028 66.608 98.0589 67.4198 98.8707C68.2316 99.6825 68.6876 100.783 68.6876 101.932V110.641C68.6876 111.789 68.2316 112.89 67.4198 113.702C66.608 114.513 65.507 114.969 64.359 114.969H55.641C54.493 114.969 53.392 114.513 52.5802 113.702C51.7684 112.89 51.3124 111.789 51.3124 110.641V101.957C51.309 101.387 51.4184 100.821 51.6344 100.293C51.8504 99.7648 52.1687 99.2846 52.571 98.8798C52.9733 98.4751 53.4516 98.154 53.9785 97.9348C54.5054 97.7156 55.0704 97.6028 55.641 97.6028V97.6028Z" stroke="#231F20" stroke-width="1.35" stroke-miterlimit="10"/>
<path d="M60.0043 41.2264C59.7747 41.2264 59.5545 41.1352 59.3922 40.9729C59.2298 40.8105 59.1386 40.5903 59.1386 40.3607V26.4224C59.1386 26.1928 59.2298 25.9726 59.3922 25.8103C59.5545 25.6479 59.7747 25.5567 60.0043 25.5567C60.2339 25.5567 60.4541 25.6479 60.6165 25.8103C60.7788 25.9726 60.8701 26.1928 60.8701 26.4224V40.3607C60.8701 40.5903 60.7788 40.8105 60.6165 40.9729C60.4541 41.1352 60.2339 41.2264 60.0043 41.2264Z" fill="#231F20"/>
<path d="M60.0043 93.4821C59.7747 93.4821 59.5545 93.3908 59.3922 93.2285C59.2298 93.0661 59.1386 92.8459 59.1386 92.6163V78.678C59.1386 78.4484 59.2298 78.2282 59.3922 78.0659C59.5545 77.9035 59.7747 77.8123 60.0043 77.8123C60.2339 77.8123 60.4541 77.9035 60.6165 78.0659C60.7788 78.2282 60.8701 78.4484 60.8701 78.678V92.6163C60.8701 92.8459 60.7788 93.0661 60.6165 93.2285C60.4541 93.3908 60.2339 93.4821 60.0043 93.4821Z" fill="#231F20"/>
<path d="M84.6517 85.0151C84.5367 85.0178 84.4225 84.996 84.3165 84.9512C84.2106 84.9064 84.1153 84.8397 84.037 84.7554L76.6523 77.3707C76.5078 77.2072 76.4304 76.9951 76.4356 76.7769C76.4408 76.5587 76.5282 76.3506 76.6803 76.1941C76.8324 76.0376 77.038 75.9443 77.256 75.9329C77.4739 75.9216 77.6881 75.9929 77.8557 76.1327L85.2231 83.5347C85.3055 83.6154 85.3711 83.7117 85.4158 83.818C85.4605 83.9243 85.4836 84.0384 85.4836 84.1537C85.4836 84.2691 85.4605 84.3832 85.4158 84.4895C85.3711 84.5958 85.3055 84.6921 85.2231 84.7727C85.0662 84.9168 84.8644 85.0025 84.6517 85.0151Z" fill="#231F20"/>
<path d="M42.759 43.1397C42.644 43.1423 42.5297 43.1205 42.4238 43.0757C42.3178 43.0309 42.2226 42.9642 42.1443 42.8799L34.7596 35.4952C34.6301 35.3265 34.5672 35.116 34.5829 34.9038C34.5987 34.6917 34.692 34.4928 34.8451 34.3451C34.9982 34.1973 35.2003 34.1112 35.4129 34.1029C35.6254 34.0947 35.8336 34.1651 35.9976 34.3005L43.3823 41.6852C43.4647 41.7659 43.5303 41.8621 43.575 41.9684C43.6197 42.0747 43.6428 42.1889 43.6428 42.3042C43.6428 42.4195 43.6197 42.5337 43.575 42.64C43.5303 42.7463 43.4647 42.8426 43.3823 42.9232C43.2112 43.0748 42.9872 43.1526 42.759 43.1397Z" fill="#231F20"/>
<path d="M28.2258 35.1664C29.5956 35.1664 30.9347 34.7602 32.0736 33.9992C33.2126 33.2382 34.1003 32.1565 34.6245 30.891C35.1487 29.6254 35.2858 28.2329 35.0186 26.8894C34.7514 25.5459 34.0918 24.3118 33.1232 23.3432C32.1546 22.3746 30.9205 21.715 29.577 21.4478C28.2335 21.1805 26.841 21.3177 25.5754 21.8419C24.3099 22.3661 23.2282 23.2538 22.4672 24.3928C21.7062 25.5317 21.3 26.8707 21.3 28.2406C21.3 30.0774 22.0297 31.839 23.3285 33.1379C24.6274 34.4367 26.389 35.1664 28.2258 35.1664Z" fill="#171921" stroke="white" stroke-width="1.35" stroke-miterlimit="10"/>
<path d="M91.0581 97.6029C92.4383 97.6115 93.7899 97.21 94.9417 96.4495C96.0934 95.6889 96.9934 94.6035 97.5275 93.3308C98.0617 92.0582 98.2059 90.6556 97.9419 89.3009C97.6779 87.9461 97.0176 86.7003 96.0447 85.7213C95.0718 84.7423 93.8301 84.0743 92.477 83.8018C91.124 83.5294 89.7205 83.6649 88.4445 84.1911C87.1686 84.7172 86.0776 85.6104 85.3099 86.7574C84.5421 87.9044 84.1323 89.2535 84.1323 90.6337C84.1322 92.4746 84.8605 94.2407 86.1582 95.5464C87.4558 96.8522 89.2173 97.5914 91.0581 97.6029Z" fill="#171921" stroke="white" stroke-width="1.35" stroke-miterlimit="10"/>
<path d="M35.3656 85.0325C35.2521 85.0339 35.1395 85.0115 35.0351 84.9667C34.9307 84.922 34.8369 84.8559 34.7596 84.7728C34.6771 84.6921 34.6116 84.5958 34.5669 84.4895C34.5222 84.3832 34.4991 84.2691 34.4991 84.1538C34.4991 84.0384 34.5222 83.9243 34.5669 83.818C34.6116 83.7117 34.6771 83.6154 34.7596 83.5348L42.1443 76.1501C42.3084 75.9859 42.5311 75.8937 42.7633 75.8937C42.9954 75.8937 43.2181 75.9859 43.3823 76.1501C43.5464 76.3142 43.6387 76.5369 43.6387 76.7691C43.6387 77.0012 43.5464 77.2239 43.3823 77.3881L35.9803 84.7728C35.902 84.857 35.8067 84.9237 35.7008 84.9685C35.5948 85.0133 35.4806 85.0351 35.3656 85.0325Z" fill="#231F20"/>
<path d="M77.241 43.1397C77.1275 43.1411 77.0149 43.1187 76.9105 43.074C76.8062 43.0292 76.7123 42.9632 76.635 42.88C76.5526 42.7994 76.487 42.7031 76.4423 42.5968C76.3976 42.4905 76.3745 42.3763 76.3745 42.261C76.3745 42.1457 76.3976 42.0315 76.4423 41.9252C76.487 41.8189 76.5526 41.7226 76.635 41.642L84.0197 34.3006C84.1839 34.1364 84.4065 34.0442 84.6387 34.0442C84.7537 34.0442 84.8675 34.0668 84.9737 34.1108C85.0799 34.1548 85.1764 34.2193 85.2577 34.3006C85.339 34.3819 85.4035 34.4784 85.4475 34.5846C85.4915 34.6908 85.5141 34.8046 85.5141 34.9196C85.5141 35.0345 85.4915 35.1484 85.4475 35.2546C85.4035 35.3608 85.339 35.4573 85.2577 35.5386L77.8557 42.88C77.7755 42.9618 77.6799 43.0269 77.5744 43.0714C77.4689 43.116 77.3556 43.1392 77.241 43.1397Z" fill="#231F20"/>
<path d="M92.0277 35.8516C93.3957 35.843 94.7304 35.4296 95.8637 34.6634C96.9969 33.8972 97.8779 32.8125 98.3954 31.5463C98.913 30.28 99.044 28.8888 98.7719 27.5482C98.4998 26.2076 97.8368 24.9776 96.8665 24.0133C95.8962 23.049 94.6621 22.3937 93.3198 22.1299C91.9775 21.8662 90.5871 22.0059 89.3241 22.5313C88.0611 23.0568 86.982 23.9445 86.2229 25.0825C85.4637 26.2205 85.0586 27.5578 85.0586 28.9257C85.07 30.7665 85.8093 32.5281 87.115 33.8257C88.4208 35.1233 90.1869 35.8516 92.0277 35.8516Z" fill="#171921" stroke="white" stroke-width="1.35" stroke-miterlimit="10"/>
<path d="M28.2259 97.6375C29.5957 97.6375 30.9347 97.2313 32.0737 96.4703C33.2126 95.7092 34.1003 94.6276 34.6245 93.362C35.1487 92.0965 35.2859 90.7039 35.0186 89.3604C34.7514 88.017 34.0918 86.7829 33.1232 85.8143C32.1546 84.8457 30.9205 84.1861 29.577 83.9188C28.2335 83.6516 26.841 83.7888 25.5754 84.313C24.3099 84.8372 23.2282 85.7249 22.4672 86.8638C21.7062 88.0028 21.3 89.3418 21.3 90.7116C21.3136 92.5443 22.0476 94.298 23.3436 95.5939C24.6395 96.8898 26.3932 97.6239 28.2259 97.6375Z" fill="#171921" stroke="white" stroke-width="1.35" stroke-miterlimit="10"/>
<path d="M66.0558 75.1372L60.1948 79.1282C60.1369 79.1662 60.0692 79.1864 60 79.1864C59.9308 79.1864 59.8631 79.1662 59.8052 79.1282L53.9442 75.1372C50.9004 73.053 48.4119 70.2568 46.6949 66.9918C44.9778 63.7267 44.0844 60.0917 44.0922 56.4028V43.9449C44.0904 43.8799 44.1074 43.8158 44.1412 43.7602C44.1749 43.7046 44.224 43.66 44.2825 43.6317C44.341 43.6033 44.4065 43.5925 44.471 43.6004C44.5355 43.6084 44.5964 43.6348 44.6463 43.6765L45.9189 44.6894C47.6034 46.0453 49.7344 46.7217 51.8925 46.5855C54.0506 46.4493 56.0796 45.5104 57.5803 43.9535L59.7533 41.7199C59.7855 41.6872 59.8239 41.6612 59.8663 41.6435C59.9086 41.6258 59.9541 41.6166 60 41.6166C60.0459 41.6166 60.0914 41.6258 60.1338 41.6435C60.1761 41.6612 60.2145 41.6872 60.2467 41.7199L62.4371 43.9535C63.9378 45.5104 65.9668 46.4493 68.1249 46.5855C70.283 46.7217 72.4139 46.0453 74.0985 44.6894L75.3278 43.7198C75.3777 43.6781 75.4385 43.6517 75.5031 43.6437C75.5676 43.6358 75.633 43.6466 75.6915 43.675C75.75 43.7033 75.7991 43.7479 75.8329 43.8035C75.8667 43.8591 75.8837 43.9232 75.8819 43.9882V56.4028C75.8925 60.0894 75.0031 63.7229 73.2907 66.9878C71.5783 70.2526 69.0948 73.0501 66.0558 75.1372Z" fill="#E5453D" stroke="#231F20" stroke-width="1.35" stroke-miterlimit="10"/>
<path d="M59.8216 58.7232C62.5038 58.7232 64.6831 56.5438 64.6831 53.8616C64.6831 51.1793 62.5038 49 59.8216 49C57.1393 49 54.96 51.1793 54.96 53.8616C54.96 56.5438 57.1393 58.7232 59.8216 58.7232Z" fill="white"/>
<path d="M69.26 66.2371V68.4551C69.26 68.9838 68.8344 69.4223 68.2928 69.4223H51.9672C51.4384 69.4223 51 68.9838 51 68.4551V66.2371C51 63.1293 53.5275 60.6018 56.6353 60.6018H63.6246C64.2565 60.6018 64.8626 60.705 65.43 60.9113C65.43 60.9113 65.43 60.8984 65.4429 60.9113C67.6609 61.6592 69.26 63.7612 69.26 66.2371Z" fill="white"/>
</g>
<defs>
<clipPath id="clip0_143_790">
<rect width="108" height="111.671" fill="white" transform="translate(6 4)"/>
</clipPath>
</defs>
</svg>
