<svg width="108" height="85" viewBox="0 0 108 85" fill="none" xmlns="http://www.w3.org/2000/svg">
<g clip-path="url(#clip0_308_2945)">
<path d="M73.7941 77.8312H7.29165C3.83352 77.8312 1.03259 75.0303 1.03259 71.5722V7.29165C1.03259 3.83352 3.83352 1.03259 7.29165 1.03259H100.708C104.166 1.03259 106.967 3.83352 106.967 7.29165V71.5722C106.967 75.0303 104.166 77.8312 100.708 77.8312H95.2627" stroke="#231F20" stroke-width="2.04984" stroke-linecap="round" stroke-linejoin="round"/>
<path d="M2.33154 16.2891H105.982" stroke="#231F20" stroke-width="1.79948" stroke-linecap="round" stroke-linejoin="round"/>
<path d="M37.21 8.96606H26.5383" stroke="#231F20" stroke-width="1.56476" stroke-linecap="round" stroke-linejoin="round"/>
<path d="M48.7893 8.96606H46.4578" stroke="#1A1B26" stroke-width="1.56476" stroke-linecap="round" stroke-linejoin="round"/>
<path d="M43.2342 8.95038H40.9027" stroke="#1A1B26" stroke-width="1.56476" stroke-linecap="round" stroke-linejoin="round"/>
<path d="M9.43552 11.2976C10.7318 11.2976 11.7827 10.2467 11.7827 8.95042C11.7827 7.65412 10.7318 6.60327 9.43552 6.60327C8.13923 6.60327 7.08838 7.65412 7.08838 8.95042C7.08838 10.2467 8.13923 11.2976 9.43552 11.2976Z" stroke="#231F20" stroke-width="1.56476" stroke-miterlimit="10"/>
<path d="M17.9321 11.2976C19.2284 11.2976 20.2793 10.2467 20.2793 8.95042C20.2793 7.65412 19.2284 6.60327 17.9321 6.60327C16.6358 6.60327 15.585 7.65412 15.585 8.95042C15.585 10.2467 16.6358 11.2976 17.9321 11.2976Z" stroke="#231F20" stroke-width="1.56476" stroke-miterlimit="10"/>
<path d="M7.55798 32.3593V23.847H15.5696" stroke="#010101" stroke-width="1.56476" stroke-linecap="round" stroke-linejoin="round"/>
<path d="M40.1362 60.7912C47.8348 68.4898 60.3216 68.4898 68.0203 60.7912C75.7189 53.0925 75.7189 40.6057 68.0203 32.9071C60.3216 25.2085 47.8348 25.2085 40.1362 32.9071C32.4375 40.6057 32.4375 53.0925 40.1362 60.7912Z" fill="#E5443C"/>
<path d="M54.0781 70.1328C66.946 70.1328 77.3775 59.7013 77.3775 46.8335C77.3775 33.9656 66.946 23.5341 54.0781 23.5341C41.2103 23.5341 30.7788 33.9656 30.7788 46.8335C30.7788 59.7013 41.2103 70.1328 54.0781 70.1328Z" stroke="#231F20" stroke-width="1.79948" stroke-linecap="round" stroke-linejoin="round"/>
<path d="M70.5549 63.3102L73.9192 66.6745" stroke="#231F20" stroke-width="1.79948" stroke-linecap="round" stroke-linejoin="round"/>
<path d="M85.7802 83.4488L90.6936 78.5355L78.8327 66.6746C77.4713 65.3132 75.2807 65.3132 73.9193 66.6746C72.558 68.0359 72.558 70.2266 73.9193 71.5879L85.7802 83.4488Z" stroke="#231F20" stroke-width="1.79948" stroke-linecap="round" stroke-linejoin="round"/>
<path d="M88.0177 75.8597L83.1044 80.773" stroke="#231F20" stroke-width="1.79948" stroke-linecap="round" stroke-linejoin="round"/>
<path d="M7.55798 48.68H24.0193" stroke="#231F20" stroke-width="1.79948" stroke-linecap="round" stroke-linejoin="round"/>
<path d="M7.55798 57.2079H24.0193" stroke="#231F20" stroke-width="1.79948" stroke-linecap="round" stroke-linejoin="round"/>
<path d="M7.55798 65.7201H30.7791" stroke="#231F20" stroke-width="1.79948" stroke-linecap="round" stroke-linejoin="round"/>
<path d="M100.458 52.2164H81.7903" stroke="#231F20" stroke-width="1.79948" stroke-linecap="round" stroke-linejoin="round"/>
<path d="M100.458 43.6881H83.9965" stroke="#231F20" stroke-width="1.79948" stroke-linecap="round" stroke-linejoin="round"/>
<path d="M100.458 35.1602H83.9965" stroke="#231F20" stroke-width="1.79948" stroke-linecap="round" stroke-linejoin="round"/>
<path d="M100.458 26.6479H82.0405" stroke="#231F20" stroke-width="1.79948" stroke-linecap="round" stroke-linejoin="round"/>
<path d="M64.5307 39.0879L64.6716 39.9016C64.6716 39.9016 64.8124 40.8092 64.8124 42.1862C64.8124 43.4849 64.6872 45.2531 64.2021 47.1934C63.7483 49.0398 62.919 51.2461 61.4012 53.4212C59.899 55.5962 57.7084 57.7243 54.5319 59.4299L54.1407 59.6333L53.7495 59.4299C50.573 57.7243 48.398 55.5805 46.8802 53.4212C45.378 51.2461 44.533 49.0398 44.0793 47.1934C43.5942 45.2374 43.469 43.4849 43.469 42.1862C43.469 40.8092 43.6098 39.9485 43.6098 39.9016L43.7507 39.0879C43.7976 38.8063 43.6098 38.5403 43.3282 38.509C43.0465 38.462 42.7805 38.6498 42.7492 38.9314L42.6084 39.7451C42.6084 39.839 42.4519 40.7622 42.4519 42.2018C42.4519 43.5788 42.5771 45.4096 43.0935 47.4594C43.5785 49.4154 44.4548 51.7312 46.0352 54.0314C47.6313 56.316 49.9315 58.5692 53.2488 60.3531L53.8747 60.6973C54.0312 60.7756 54.2033 60.7756 54.3598 60.6973L54.9857 60.3531C58.303 58.5692 60.6188 56.316 62.1992 54.0314C63.7953 51.7469 64.6716 49.4154 65.141 47.4594C65.6417 45.4096 65.7825 43.5788 65.7825 42.2018C65.7825 40.7622 65.6417 39.839 65.6261 39.7451L65.4852 38.9314C65.4383 38.6498 65.1723 38.462 64.9063 38.509C64.6246 38.5559 64.4368 38.8219 64.4838 39.0879H64.5307Z" fill="white"/>
<path d="M46.5671 38.5247L54.1562 36.2088L61.9174 38.5716C62.1835 38.6498 62.4651 38.509 62.559 38.2274C62.6372 37.9613 62.4964 37.6797 62.2147 37.5858L54.3127 35.1761C54.2188 35.1448 54.1093 35.1448 54.0154 35.1761L46.2854 37.5389C46.0194 37.6171 45.863 37.8987 45.9412 38.1804C46.0194 38.4464 46.3011 38.6029 46.5828 38.5247H46.5671Z" fill="white"/>
<path d="M42.8276 39.2286L53.7027 60.4468C53.7966 60.619 53.9687 60.7285 54.1565 60.7285C54.3442 60.7285 54.5164 60.619 54.6102 60.4625L61.2448 48.0539L65.4853 39.213C65.6105 38.9626 65.4853 38.6497 65.2506 38.5245C65.0003 38.3993 64.6873 38.5245 64.5621 38.7592L60.3216 47.5688L54.1565 59.1012L43.7195 38.7436C43.5943 38.4932 43.2813 38.3993 43.031 38.5245C42.7806 38.6497 42.6867 38.9626 42.8119 39.213L42.8276 39.2286Z" fill="white"/>
<path d="M48.0381 48.6801H60.1337C60.4154 48.6801 60.6501 48.4454 60.6501 48.1637C60.6501 47.8821 60.4154 47.6473 60.1337 47.6473H48.0381C47.7564 47.6473 47.5217 47.8821 47.5217 48.1637C47.5217 48.4454 47.7564 48.6801 48.0381 48.6801Z" fill="white"/>
</g>
<defs>
<clipPath id="clip0_308_2945">
<rect width="108" height="84.3408" fill="white"/>
</clipPath>
</defs>
</svg>
