<svg width="20" height="20" viewBox="0 0 20 20" fill="none" xmlns="http://www.w3.org/2000/svg">
<g clip-path="url(#clip0_139_1111)">
<path d="M20 9.43323C20 4.28587 15.8124 0.0982666 10.6651 0.0982666C6.69847 0.0982666 3.30223 2.58546 1.95264 6.08193C2.27921 6.08991 2.59498 6.20863 2.84512 6.42018L3.33756 6.83678C4.40864 3.82329 7.28863 1.65927 10.6651 1.65927C14.9516 1.65927 18.439 5.14657 18.439 9.43323C18.439 12.3517 16.8221 14.8992 14.4375 16.2284L14.701 16.4513C15.0465 16.7436 15.2184 17.1652 15.2076 17.5858C18.0643 15.9878 20 12.9325 20 9.43323Z" fill="white"/>
<path d="M14.2976 16.928L12.2983 15.2364C12.2032 15.156 12.0776 15.0497 11.8137 15.0497C11.5317 15.0497 11.0921 15.1709 10.3632 15.5742C10.1813 15.6751 9.98109 15.7303 9.78269 15.7303C9.61017 15.7303 9.43897 15.6885 9.28227 15.5982C7.4899 14.5663 5.89815 13.2196 4.58374 11.6227C4.33656 11.3225 4.29901 10.9195 4.42837 10.5527C4.96486 9.0316 4.63756 8.7547 4.44108 8.58853L2.44189 6.89699C2.28948 6.76793 2.10305 6.70496 1.91782 6.70496C1.68719 6.70496 1.45819 6.80268 1.29764 6.99235L0.443299 8.00207C0.0491682 8.46775 -0.444309 9.8478 0.757007 11.763C3.14116 14.9629 6.22709 17.5739 9.77767 19.3954C10.5766 19.7657 11.2216 19.9018 11.7402 19.9018C12.747 19.9018 13.2784 19.3893 13.5385 19.0819L14.3928 18.0722C14.6823 17.73 14.6397 17.2177 14.2973 16.9281L14.2976 16.928Z" fill="white"/>
<path d="M7.76625 10.113C8.12224 9.81196 8.3709 9.58059 8.52628 9.4057C8.68594 9.22608 8.80258 9.05045 8.87325 8.88369C8.94539 8.71354 8.98191 8.53731 8.98191 8.36006C8.98191 8.00865 8.85492 7.70973 8.60448 7.47156C8.35612 7.23547 8.01935 7.11572 7.60334 7.11572C7.18733 7.11572 6.85898 7.2263 6.60958 7.44451C6.35841 7.66434 6.21205 7.98308 6.1745 8.39184C6.16681 8.47508 6.22772 8.54899 6.31081 8.55757L6.80724 8.60857C6.89668 8.61774 6.97474 8.54796 6.97533 8.45793C6.97681 8.25081 7.03151 8.09617 7.14253 7.98515C7.25326 7.87442 7.40051 7.8206 7.59254 7.8206C7.77335 7.8206 7.91364 7.87117 8.02201 7.97524C8.1286 8.07754 8.18034 8.19995 8.18034 8.34941C8.18034 8.49888 8.11455 8.66283 7.98461 8.83993C7.84268 9.03345 7.56002 9.30444 7.14445 9.64505C6.86312 9.87523 6.64388 10.0821 6.49294 10.2599C6.33638 10.4444 6.22048 10.6356 6.14893 10.8271C6.10073 10.953 6.07826 11.0857 6.08255 11.2219C6.08506 11.3044 6.15262 11.3697 6.23497 11.3697H8.83466C8.91893 11.3697 8.98723 11.3014 8.98723 11.2171V10.7529C8.98723 10.6687 8.91893 10.6004 8.83466 10.6004H7.2166C7.29229 10.5195 7.47708 10.3555 7.7661 10.113H7.76625Z" fill="white"/>
<path d="M11.3832 7.13171H10.9888C10.9391 7.13171 10.8927 7.15581 10.864 7.19647L9.0693 9.74501C9.05126 9.77074 9.0415 9.80134 9.0415 9.83283V10.2756C9.0415 10.3599 9.1098 10.4282 9.19407 10.4282H10.7477V11.2172C10.7477 11.3014 10.816 11.3697 10.9002 11.3697H11.3832C11.4675 11.3697 11.5358 11.3014 11.5358 11.2172V10.4282H11.9144C11.9987 10.4282 12.067 10.3599 12.067 10.2756V9.83283C12.067 9.74856 11.9987 9.68026 11.9144 9.68026H11.5358V7.28428C11.5358 7.20001 11.4675 7.13171 11.3832 7.13171ZM9.96075 9.68026L10.7477 8.54695V9.68026H9.96075Z" fill="white"/>
<path d="M12.3045 11.4367H12.6936C12.7621 11.4367 12.8221 11.3911 12.8406 11.3252L13.978 7.25824C14.0052 7.16096 13.9321 7.06458 13.8311 7.06458H13.4446C13.3762 7.06458 13.3162 7.11011 13.2977 7.1759L12.1576 11.2429C12.1304 11.3401 12.2034 11.4365 12.3045 11.4365V11.4367Z" fill="white"/>
<path d="M14.3135 7.33531V7.79951C14.3135 7.88378 14.3818 7.95208 14.466 7.95208H16.0717C15.8947 8.18655 15.7247 8.4559 15.5642 8.75631C15.3423 9.17173 15.1697 9.60917 15.051 10.0565C14.9322 10.5045 14.869 10.894 14.8636 11.2144C14.8621 11.2997 14.9308 11.3696 15.0161 11.3696H15.5126C15.5927 11.3696 15.6592 11.3075 15.6647 11.2275C15.6906 10.8488 15.7509 10.4959 15.8442 10.178C15.9746 9.72448 16.1619 9.27684 16.4009 8.84737C16.6395 8.41865 16.8826 8.07138 17.1232 7.81533L17.1646 7.77128V7.33531C17.1646 7.25104 17.0963 7.18274 17.0121 7.18274H14.4662C14.3819 7.18274 14.3136 7.25104 14.3136 7.33531H14.3135Z" fill="white"/>
</g>
<defs>
<clipPath id="clip0_139_1111">
<rect width="20" height="19.8034" fill="white" transform="translate(0 0.0982666)"/>
</clipPath>
</defs>
</svg>
