<svg xmlns="http://www.w3.org/2000/svg" width="120" height="120" viewBox="0 0 120 120" fill="none">
  <path d="M83.7787 18.9316H34.8463L10.3867 61.3036L34.8463 103.689H83.7787L108.252 61.3036L83.7787 18.9316Z" stroke="#20222A" stroke-width="2.178" stroke-linecap="round" stroke-linejoin="round"/>
  <path d="M33.9766 19.5137L83.6482 103.69" stroke="#20222A" stroke-width="2.178" stroke-linecap="round" stroke-linejoin="round"/>
  <path d="M83.6482 19.5137L33.9766 103.69" stroke="#20222A" stroke-width="2.178" stroke-linecap="round" stroke-linejoin="round"/>
  <path d="M10.5312 61.3047H108.251" stroke="#20222A" stroke-width="2.178" stroke-linecap="round" stroke-linejoin="round"/>
  <path d="M10.5316 70.6355C15.6858 70.6355 19.864 66.4572 19.864 61.3031C19.864 56.149 15.6858 51.9707 10.5316 51.9707C5.37748 51.9707 1.19922 56.149 1.19922 61.3031C1.19922 66.4572 5.37748 70.6355 10.5316 70.6355Z" fill="white" stroke="#20222A" stroke-width="2.178" stroke-miterlimit="10"/>
  <path d="M108.25 70.6355C113.405 70.6355 117.583 66.4572 117.583 61.3031C117.583 56.149 113.405 51.9707 108.25 51.9707C103.096 51.9707 98.918 56.149 98.918 61.3031C98.918 66.4572 103.096 70.6355 108.25 70.6355Z" fill="white" stroke="#20222A" stroke-width="2.178" stroke-miterlimit="10"/>
  <path d="M83.6449 28.2644C88.799 28.2644 92.9773 24.0862 92.9773 18.932C92.9773 13.7779 88.799 9.59961 83.6449 9.59961C78.4908 9.59961 74.3125 13.7779 74.3125 18.932C74.3125 24.0862 78.4908 28.2644 83.6449 28.2644Z" fill="white" stroke="#20222A" stroke-width="2.178" stroke-miterlimit="10"/>
  <path d="M33.973 28.8445C39.1272 28.8445 43.3054 24.6662 43.3054 19.5121C43.3054 14.3579 39.1272 10.1797 33.973 10.1797C28.8189 10.1797 24.6406 14.3579 24.6406 19.5121C24.6406 24.6662 28.8189 28.8445 33.973 28.8445Z" fill="white" stroke="#20222A" stroke-width="2.178" stroke-miterlimit="10"/>
  <path d="M35.8246 113.022C40.9787 113.022 45.157 108.844 45.157 103.69C45.157 98.5357 40.9787 94.3574 35.8246 94.3574C30.6704 94.3574 26.4922 98.5357 26.4922 103.69C26.4922 108.844 30.6704 113.022 35.8246 113.022Z" fill="white" stroke="#20222A" stroke-width="2.178" stroke-miterlimit="10"/>
  <path d="M83.6449 113.022C88.799 113.022 92.9773 108.844 92.9773 103.69C92.9773 98.5357 88.799 94.3574 83.6449 94.3574C78.4908 94.3574 74.3125 98.5357 74.3125 103.69C74.3125 108.844 78.4908 113.022 83.6449 113.022Z" fill="white" stroke="#20222A" stroke-width="2.178" stroke-miterlimit="10"/>
  <path d="M59.3193 86.8457C73.4258 86.8457 84.8613 75.4102 84.8613 61.3037C84.8613 47.1973 73.4258 35.7617 59.3193 35.7617C45.2129 35.7617 33.7773 47.1973 33.7773 61.3037C33.7773 75.4102 45.2129 86.8457 59.3193 86.8457Z" fill="#E5453D"/>
  <path d="M69.3368 54.4201L69.4688 55.2253C69.4688 55.2253 69.614 56.1361 69.614 57.4957C69.614 58.7893 69.4952 60.5449 69.0068 62.4721C68.558 64.3069 67.7264 66.5113 66.2216 68.6629C64.7168 70.8145 62.552 72.9397 59.3972 74.6425L59.0144 74.8537L58.6316 74.6425C55.4768 72.9397 53.312 70.8145 51.8072 68.6629C50.3156 66.5113 49.484 64.3201 49.022 62.4721C48.5468 60.5317 48.4148 58.7893 48.4148 57.4957C48.4148 56.1361 48.5468 55.2649 48.56 55.2253L48.692 54.4201C48.7316 54.1429 48.5468 53.8789 48.2696 53.8393C47.9924 53.7997 47.7284 53.9845 47.6888 54.2617L47.5568 55.0669C47.5436 55.1593 47.3984 56.0701 47.3984 57.5089C47.3984 58.8685 47.5304 60.7033 48.032 62.7361C48.5072 64.6765 49.3784 66.9865 50.9624 69.2569C52.5464 71.5273 54.8432 73.7713 58.13 75.5533L58.7504 75.8965C58.8956 75.9757 59.0804 75.9757 59.2256 75.8965L59.846 75.5533C63.146 73.7713 65.4428 71.5405 67.0136 69.2569C68.5976 66.9865 69.4688 64.6633 69.944 62.7361C70.4456 60.7033 70.5776 58.8685 70.5776 57.5089C70.5776 56.0833 70.4324 55.1593 70.4192 55.0669L70.2872 54.2617C70.2476 53.9845 69.9836 53.7997 69.7064 53.8393C69.4292 53.8789 69.2444 54.1429 69.284 54.4201H69.3368Z" fill="white"/>
  <path d="M51.49 53.8657L59.0272 51.5689L66.736 53.9185C67 53.9977 67.2904 53.8525 67.3696 53.5753C67.4488 53.3113 67.3036 53.0209 67.0264 52.9417L59.1724 50.5393C59.08 50.5129 58.9744 50.5129 58.882 50.5393L51.1996 52.8889C50.9356 52.9681 50.7772 53.2585 50.8564 53.5225C50.9356 53.7865 51.226 53.9449 51.49 53.8657Z" fill="white"/>
  <path d="M47.7677 54.5652L58.5785 75.6588C58.6709 75.8304 58.8425 75.936 59.0273 75.936C59.2121 75.936 59.3837 75.8304 59.4761 75.672L66.0629 63.3432L70.2869 54.552C70.4057 54.3012 70.3001 53.9976 70.0493 53.8788C69.7985 53.76 69.4949 53.8656 69.3761 54.1164L65.1653 62.8812L59.0405 74.352L48.6653 54.1164C48.5333 53.8656 48.2297 53.7732 47.9789 53.892C47.7281 54.024 47.6357 54.3276 47.7545 54.5784L47.7677 54.5652Z" fill="white"/>
  <path d="M52.943 63.9641H64.9682C65.2454 63.9641 65.4698 63.7397 65.4698 63.4625C65.4698 63.1853 65.2454 62.9609 64.9682 62.9609H52.943C52.6658 62.9609 52.4414 63.1853 52.4414 63.4625C52.4414 63.7397 52.6658 63.9641 52.943 63.9641Z" fill="white"/>
</svg>