<svg xmlns="http://www.w3.org/2000/svg" width="113" height="90" viewBox="0 0 113 90" fill="none">
  <g clip-path="url(#clip0_2008_141)">
    <path d="M25.2461 54.7289V42.5566H78.2935V54.7289" stroke="#231F20" stroke-width="2.33483" stroke-linecap="round" stroke-linejoin="round"/>
    <path d="M51.7695 36.0957V47.2718" stroke="#231F20" stroke-width="2.33483" stroke-linecap="round" stroke-linejoin="round"/>
    <path d="M25.247 65.3906C27.3704 65.3906 29.0917 63.6692 29.0917 61.5459C29.0917 59.4225 27.3704 57.7012 25.247 57.7012C23.1237 57.7012 21.4023 59.4225 21.4023 61.5459C21.4023 63.6692 23.1237 65.3906 25.247 65.3906Z" stroke="#231F20" stroke-width="2.33483" stroke-linecap="round" stroke-linejoin="round"/>
    <path d="M78.2939 65.3906C80.4173 65.3906 82.1386 63.6692 82.1386 61.5459C82.1386 59.4225 80.4173 57.7012 78.2939 57.7012C76.1705 57.7012 74.4492 59.4225 74.4492 61.5459C74.4492 63.6692 76.1705 65.3906 78.2939 65.3906Z" stroke="#231F20" stroke-width="2.33483" stroke-linecap="round" stroke-linejoin="round"/>
    <path d="M51.7705 55.3671C53.8938 55.3671 55.6152 53.6458 55.6152 51.5224C55.6152 49.3991 53.8938 47.6777 51.7705 47.6777C49.6471 47.6777 47.9258 49.3991 47.9258 51.5224C47.9258 53.6458 49.6471 55.3671 51.7705 55.3671Z" stroke="#231F20" stroke-width="2.33483" stroke-linecap="round" stroke-linejoin="round"/>
    <path d="M56.3789 28.0488H47.1797V37.2481H56.3789V28.0488Z" fill="#231F20"/>
    <path d="M12.0334 5.75977H91.262C94.9044 5.75977 97.8618 8.71722 97.8618 12.3596V75.151H5.43359V12.3751C5.43359 8.73279 8.39105 5.77533 12.0334 5.77533V5.75977Z" stroke="#231F20" stroke-width="2.33483" stroke-linecap="round" stroke-linejoin="round"/>
    <path d="M1.16797 75.166H102.142V81.8281C102.142 85.6883 99.013 88.817 95.1528 88.817H8.1569C4.29664 88.817 1.16797 85.6883 1.16797 81.8281V75.166Z" stroke="#231F20" stroke-width="2.33483" stroke-linecap="round" stroke-linejoin="round"/>
    <path d="M45.4062 82H63.4312" stroke="#231F20" stroke-width="2.33483" stroke-linecap="round" stroke-linejoin="round"/>
    <path d="M39.8633 82H42.0425" stroke="#231F20" stroke-width="2.33483" stroke-linecap="round" stroke-linejoin="round"/>
    <path d="M7.05078 18.2734H96.506" stroke="#231F20" stroke-width="2.33483" stroke-linecap="round" stroke-linejoin="round"/>
    <path d="M12.4849 14.3506C13.5423 14.3506 14.3994 13.4934 14.3994 12.436C14.3994 11.3787 13.5423 10.5215 12.4849 10.5215C11.4275 10.5215 10.5703 11.3787 10.5703 12.436C10.5703 13.4934 11.4275 14.3506 12.4849 14.3506Z" fill="#E5443C"/>
    <path d="M20.6099 14.3506C21.6673 14.3506 22.5244 13.4934 22.5244 12.436C22.5244 11.3787 21.6673 10.5215 20.6099 10.5215C19.5525 10.5215 18.6953 11.3787 18.6953 12.436C18.6953 13.4934 19.5525 14.3506 20.6099 14.3506Z" fill="#E5443C"/>
    <path d="M92.8157 37.9479C103.08 37.9479 111.401 29.627 111.401 19.3626C111.401 9.09825 103.08 0.777344 92.8157 0.777344C82.5514 0.777344 74.2305 9.09825 74.2305 19.3626C74.2305 29.627 82.5514 37.9479 92.8157 37.9479Z" fill="white" stroke="#231F20" stroke-width="1.55655" stroke-miterlimit="10"/>
    <path d="M92.8139 35.3486C101.643 35.3486 108.8 28.1915 108.8 19.3628C108.8 10.534 101.643 3.37695 92.8139 3.37695C83.9852 3.37695 76.8281 10.534 76.8281 19.3628C76.8281 28.1915 83.9852 35.3486 92.8139 35.3486Z" fill="#E5443C"/>
  </g>
  <defs>
    <clipPath id="clip0_2008_141">
      <rect width="112.181" height="90" fill="white"/>
    </clipPath>
  </defs>
</svg>