<svg
    width="38"
    height="38"
    viewBox="0 0 38 38"
    fill="none"
    xmlns="http://www.w3.org/2000/svg"
  >
    <g clipPath="url(#clip0_311_1057)">
      <path
        d="M28.9296 27.7081L27.6992 28.9385L35.4067 36.6459L36.637 35.4156L28.9296 27.7081Z"
        fill="#231F20"
      />
      <path
        d="M35.4 37.34L26.99 28.93L28.93 26.99L37.34 35.4L35.4 37.34ZM28.4 28.93L35.4 35.93L35.93 35.4L28.93 28.4L28.4 28.93Z"
        fill="#231F20"
      />
      <path
        d="M17.03 34.06C7.64 34.06 0 26.42 0 17.03C0 7.64 7.64 0 17.03 0C26.42 0 34.06 7.64 34.06 17.03C34.06 26.42 26.42 34.06 17.03 34.06ZM17.03 1.89C8.68 1.89 1.89 8.69 1.89 17.03C1.89 25.37 8.68 32.17 17.03 32.17C25.38 32.17 32.17 25.38 32.17 17.03C32.17 8.68 25.38 1.89 17.03 1.89Z"
        fill="#231F20"
      />
      <path
        d="M27 11.3649L26.4419 13.4928L24.314 12.9348"
        stroke="#010101"
        strokeWidth="1.02723"
        strokeLinecap="round"
        strokeLinejoin="round"
      />
      <path
        d="M7 22.6081L7.71688 20.5255L9.79948 21.2469"
        stroke="#010101"
        strokeWidth="1.02723"
        strokeLinecap="round"
        strokeLinejoin="round"
      />
      <path
        d="M7.05444 16.9728C7.05444 11.4646 11.5191 7 17.0273 7C21.1199 7 24.6408 9.46826 26.1744 12.9937"
        stroke="#010101"
        strokeWidth="1.02723"
        strokeLinecap="round"
        strokeLinejoin="round"
      />
      <path
        d="M27 16.9729C27 22.4811 22.5354 26.9458 17.0272 26.9458C12.9346 26.9458 9.41371 24.4775 7.88013 20.9521"
        stroke="#010101"
        strokeWidth="1.02723"
        strokeLinecap="round"
        strokeLinejoin="round"
      />
      <g clipPath="url(#clip1_311_1057)">
        <path
          d="M19.6679 16.873C19.3455 16.6532 18.7717 16.4188 17.9414 16.1697V12.9096C18.3712 12.9951 18.6984 13.2125 18.9182 13.5641C19.0672 13.8059 19.1575 14.0916 19.1868 14.4261H20.337C20.315 13.6838 20.0708 13.0855 19.6044 12.6313C19.2015 12.2405 18.6471 11.9963 17.9414 11.8962V11H16.696V11.8889C15.9463 11.9475 15.3529 12.2137 14.9158 12.6899C14.4274 13.2247 14.1832 13.8254 14.1832 14.4921C14.1832 15.2369 14.4103 15.8205 14.8645 16.2405C15.2723 16.619 15.8852 16.8999 16.6984 17.083V20.6899C16.105 20.5873 15.6874 20.3211 15.4505 19.8889C15.2967 19.6129 15.2015 19.1734 15.1648 18.5726H14C14 19.3272 14.1245 19.9255 14.3736 20.3675C14.7961 21.127 15.5702 21.569 16.696 21.696V22.9976H17.9414V21.6764C18.5665 21.5788 19.0598 21.4151 19.4188 21.1832C20.1783 20.6923 20.5568 19.8645 20.5568 18.6972C20.5568 17.8913 20.2613 17.2808 19.6703 16.8681L19.6679 16.873ZM15.8022 15.4322C15.5116 15.1856 15.3675 14.8462 15.3675 14.4139C15.3675 14.0549 15.4896 13.7106 15.7363 13.381C15.9414 13.1074 16.2613 12.9414 16.6984 12.8803V15.8791C16.3346 15.779 16.0366 15.63 15.8022 15.4322ZM19.1502 19.9377C18.9109 20.3675 18.5079 20.6264 17.9438 20.7216V17.4029C18.3126 17.5226 18.5885 17.6447 18.7692 17.7741C19.1722 18.0598 19.3748 18.475 19.3748 19.0244C19.3748 19.3712 19.2991 19.6764 19.1502 19.9377Z"
          fill="#E5453D"
        />
      </g>
    </g>
    <defs>
      <clipPath id="clip0_311_1057">
        <rect width="37.34" height="37.34" fill="white" />
      </clipPath>
      <clipPath id="clip1_311_1057">
        <rect
          width="6.55678"
          height="12"
          fill="white"
          transform="translate(14 11)"
        />
      </clipPath>
    </defs>
  </svg>