<svg width="120" height="120" viewBox="0 0 120 120" fill="none" xmlns="http://www.w3.org/2000/svg">
<g clip-path="url(#clip0_64_7629)">
<path d="M74.5044 11.8347C82.699 14.3953 90.1064 18.9904 96.0313 25.1885C101.956 31.3867 106.204 38.9844 108.376 47.2684" stroke="#171921" stroke-width="1.41026" stroke-linecap="round" stroke-linejoin="round"/>
<path d="M11.1255 45.0157C13.6897 36.8314 18.2993 29.4317 24.5207 23.5122C30.7421 17.5927 38.3711 13.3479 46.6905 11.1768" stroke="#171921" stroke-width="1.41026" stroke-linecap="round" stroke-linejoin="round"/>
<path d="M44.4061 108.203C36.1968 105.647 28.7751 101.049 22.84 94.8432C16.9049 88.6371 12.6517 81.027 10.481 72.7295" stroke="#171921" stroke-width="1.41026" stroke-linecap="round" stroke-linejoin="round"/>
<path d="M107.813 75.0256C105.257 83.2199 100.651 90.6306 94.4291 96.5599C88.2071 102.489 80.574 106.742 72.2485 108.918" stroke="#171921" stroke-width="1.41026" stroke-linecap="round" stroke-linejoin="round"/>
<path d="M60.5978 14.1131C63.1217 14.1131 65.1677 12.073 65.1677 9.55653C65.1677 7.04003 63.1217 5 60.5978 5C58.0739 5 56.0278 7.04003 56.0278 9.55653C56.0278 12.073 58.0739 14.1131 60.5978 14.1131Z" fill="#171921"/>
<path d="M10.5392 64.6148C13.0631 64.6148 15.1091 62.5747 15.1091 60.0582C15.1091 57.5417 13.0631 55.5017 10.5392 55.5017C8.01527 55.5017 5.96924 57.5417 5.96924 60.0582C5.96924 62.5747 8.01527 64.6148 10.5392 64.6148Z" fill="#171921"/>
<path d="M109.475 64.6148C111.999 64.6148 114.045 62.5747 114.045 60.0582C114.045 57.5417 111.999 55.5017 109.475 55.5017C106.951 55.5017 104.905 57.5417 104.905 60.0582C104.905 62.5747 106.951 64.6148 109.475 64.6148Z" fill="#171921"/>
<path d="M58.3419 114.996C60.8658 114.996 62.9119 112.956 62.9119 110.439C62.9119 107.923 60.8658 105.883 58.3419 105.883C55.818 105.883 53.772 107.923 53.772 110.439C53.772 112.956 55.818 114.996 58.3419 114.996Z" fill="#171921"/>
<path d="M43.3611 44.7596V65.3667C43.3606 67.4577 43.8894 69.515 44.8984 71.3481C45.9074 73.1812 47.364 74.7308 49.1333 75.8534L58.5268 81.8243C58.8821 82.0607 59.2996 82.1868 59.7267 82.1868C60.1537 82.1868 60.5713 82.0607 60.9265 81.8243L70.3308 75.8534C72.1081 74.735 73.5737 73.1877 74.5921 71.3547C75.6105 69.5217 76.1488 67.4621 76.1571 65.3667V44.7596L60.3428 41.8496C59.8919 41.7742 59.4317 41.7742 58.9808 41.8496L43.3611 44.7596Z" fill="#E5453D"/>
<path d="M40.7739 41.9575V65.9057C40.7743 68.3269 41.3866 70.709 42.5541 72.8319C43.7217 74.9549 45.4069 76.7502 47.4542 78.0523L58.3502 84.9824C58.7652 85.2462 59.2471 85.3864 59.7392 85.3864C60.2314 85.3864 60.7133 85.2462 61.1283 84.9824L72.0242 78.0523C74.0715 76.7502 75.7568 74.9549 76.9243 72.8319C78.0919 70.709 78.7042 68.3269 78.7045 65.9057V41.9575L60.4473 38.6595C59.9221 38.5617 59.3834 38.5617 58.8583 38.6595L40.7739 41.9575Z" stroke="#171921" stroke-width="0.940171" stroke-miterlimit="10"/>
<path d="M58.1531 68.4713C57.8581 68.4689 57.5755 68.353 57.364 68.148L49.7433 60.6036C49.6387 60.503 49.5554 60.3825 49.4986 60.2492C49.4418 60.1158 49.4125 59.9724 49.4125 59.8276C49.4125 59.6827 49.4418 59.5393 49.4986 59.406C49.5554 59.2726 49.6387 59.1521 49.7433 59.0516C49.8443 58.9456 49.9658 58.8612 50.1005 58.8035C50.2353 58.7458 50.3804 58.7161 50.527 58.7161C50.6736 58.7161 50.8187 58.7458 50.9534 58.8035C51.0881 58.8612 51.2097 58.9456 51.3107 59.0516L58.1531 65.8631L69.676 54.374C69.8839 54.1668 70.1658 54.0504 70.4597 54.0504C70.7537 54.0504 71.0356 54.1668 71.2434 54.374C71.4513 54.5812 71.568 54.8623 71.568 55.1554C71.568 55.4485 71.4513 55.7296 71.2434 55.9368L58.9314 68.1696C58.8282 68.2688 58.7063 68.3466 58.5726 68.3984C58.439 68.4502 58.2964 68.475 58.1531 68.4713Z" fill="white"/>
</g>
<defs>
<clipPath id="clip0_64_7629">
<rect width="108.12" height="110" fill="white" transform="translate(5.96924 5)"/>
</clipPath>
</defs>
</svg>
