<svg
    width="38"
    height="38"
    viewBox="0 0 38 38"
    fill="none"
    xmlns="http://www.w3.org/2000/svg"
  >
    <path
      d="M20.9311 2.39106V4.06084C27.6875 4.93032 33.061 10.2954 33.9303 17.0634H35.5996C34.7106 9.38638 28.6061 3.28029 20.9311 2.39106ZM35.6984 18.3775H34.0389C34.0389 18.585 34.0587 18.7925 34.0587 19C34.0587 19.2075 34.0587 19.415 34.0389 19.6225H35.6984C35.7182 19.415 35.7182 19.2075 35.7182 19C35.7182 18.7925 35.7182 18.585 35.6984 18.3775ZM2.40027 17.0634H4.06962C4.93887 10.2954 10.3124 4.93032 17.0688 4.06084V2.39106C9.39377 3.28029 3.28928 9.38638 2.40027 17.0634ZM3.96097 18.3775H2.30149C2.28174 18.585 2.28174 18.7925 2.28174 19C2.28174 19.2075 2.28174 19.415 2.30149 19.6225H3.96097C3.96097 19.415 3.94121 19.2075 3.94121 19C3.94121 18.7925 3.94121 18.585 3.96097 18.3775ZM4.06962 20.9168H2.40027C3.28928 28.5939 9.39377 34.7098 17.0787 35.6089V33.9392C10.3124 33.0697 4.93887 27.6947 4.0795 20.9267L4.06962 20.9168ZM33.9402 20.9168C33.0808 27.6849 27.7073 33.0598 20.941 33.9293V35.5991C28.6259 34.6999 34.7304 28.5939 35.6194 20.9069H33.95L33.9402 20.9168ZM18.3826 34.038V35.6979C18.59 35.7176 18.7975 35.7176 19.0049 35.7176C19.2123 35.7176 19.4198 35.7176 19.6272 35.6979V34.038C19.4198 34.038 19.2123 34.0577 19.0049 34.0577C18.7975 34.0577 18.59 34.0577 18.3826 34.038ZM19.0049 2.27249C18.7975 2.27249 18.59 2.27249 18.3826 2.29225V3.95216C18.59 3.95216 18.7975 3.9324 19.0049 3.9324C19.2123 3.9324 19.4198 3.9324 19.6272 3.95216V2.29225C19.4198 2.27249 19.2123 2.27249 19.0049 2.27249Z"
      fill="#231F20"
    />
    <path d="M19.647 0H18.3431V6.73843H19.647V0Z" fill="white" />
    <path d="M19.647 31.2616H18.3431V38H19.647V31.2616Z" fill="white" />
    <path d="M19.647 0H18.3431V6.73843H19.647V0Z" fill="#231F20" />
    <path d="M19.647 31.2616H18.3431V38H19.647V31.2616Z" fill="#231F20" />
    <path d="M6.74656 18.3479H0V19.6521H6.74656V18.3479Z" fill="white" />
    <path d="M38 18.3479H31.2534V19.6521H38V18.3479Z" fill="white" />
    <path d="M38 18.3479H31.2534V19.6521H38V18.3479Z" fill="#231F20" />
    <path d="M6.74656 18.3479H0V19.6521H6.74656V18.3479Z" fill="#231F20" />
    <path
      d="M12.4559 12.0541V20.3536C12.4559 22.0629 13.3252 23.6438 14.7575 24.5627L18.511 26.9636C18.8074 27.1513 19.1728 27.1513 19.4692 26.9636L23.2228 24.5627C24.655 23.6438 25.5243 22.053 25.5243 20.3536V12.0541L19.2321 10.908C19.0543 10.8783 18.8666 10.8783 18.6888 10.908L12.446 12.0541H12.4559Z"
      fill="#E5453C"
    />
    <path
      d="M18.3628 21.6183C18.2443 21.6183 18.1356 21.5689 18.0467 21.4899L15.0044 18.4368C14.8364 18.259 14.8364 17.9823 15.0044 17.8144C15.1723 17.6464 15.4587 17.6464 15.6267 17.8144L18.3628 20.5512L22.956 15.947C23.1239 15.779 23.4104 15.779 23.5783 15.947C23.7462 16.1248 23.7462 16.4015 23.5783 16.5694L18.669 21.4899C18.59 21.5689 18.4715 21.6183 18.3529 21.6183H18.3628Z"
      fill="white"
    />
    <path
      d="M23.7956 15.7296C23.519 15.4529 23.0252 15.4529 22.7585 15.7296L18.3727 20.1264L15.844 17.597C15.5674 17.3203 15.0933 17.3203 14.8068 17.597C14.5302 17.8934 14.5302 18.3578 14.8068 18.6344L17.8492 21.6875C17.9875 21.8159 18.1751 21.895 18.3727 21.895C18.5604 21.895 18.7481 21.8258 18.8863 21.6875L23.7956 16.767C23.9339 16.6287 24.0031 16.4509 24.0031 16.2533C24.0031 16.0556 23.9339 15.8679 23.7956 15.7296ZM23.3709 16.3619L18.4715 21.2725C18.4122 21.3318 18.3233 21.3318 18.264 21.2725L15.2217 18.2293C15.1525 18.17 15.1525 18.0614 15.2118 18.012C15.2513 17.9922 15.2809 17.9724 15.3303 17.9724C15.3698 17.9724 15.4093 17.9823 15.439 18.012L18.3826 20.9662L23.1733 16.1643C23.2523 16.0853 23.3116 16.0853 23.3808 16.1643C23.4301 16.2038 23.4301 16.2434 23.4301 16.273C23.4301 16.3125 23.4203 16.3422 23.3808 16.3817L23.3709 16.3619Z"
      fill="white"
    />
  </svg>