<svg width="120" height="120" viewBox="0 0 120 120" fill="none" xmlns="http://www.w3.org/2000/svg">
<g clip-path="url(#clip0_64_7586)">
<path d="M14.2108 34.1348C13.7285 34.1471 13.2608 33.9695 12.9097 33.6405C12.5586 33.3115 12.3525 32.8579 12.3365 32.3786V9.47144H10.4468C9.97235 9.47117 9.51643 9.65423 9.17528 9.98194C8.83414 10.3096 8.63447 10.7563 8.61852 11.2277V35.8452C8.63458 36.3245 8.84064 36.7781 9.19174 37.1071C9.54284 37.4361 10.0105 37.6137 10.4929 37.6014H31.1105C31.5928 37.6137 32.0605 37.4361 32.4116 37.1071C32.7627 36.7781 32.9688 36.3245 32.9848 35.8452V34.1348H14.2108Z" fill="#E5453D" fill-opacity="0.3"/>
<path d="M33.7494 5H14.6835C13.0544 5 11.7338 6.31275 11.7338 7.93211V31.3585C11.7338 32.9778 13.0544 34.2906 14.6835 34.2906H33.7494C35.3786 34.2906 36.6992 32.9778 36.6992 31.3585V7.93211C36.6992 6.31275 35.3786 5 33.7494 5Z" fill="#E5443C"/>
<path d="M30.7409 15.5724H18.5424C18.4166 15.589 18.2887 15.5786 18.1673 15.542C18.0459 15.5055 17.9337 15.4436 17.8383 15.3604C17.7428 15.2773 17.6664 15.1749 17.6141 15.06C17.5617 14.9451 17.5345 14.8205 17.5345 14.6943C17.5345 14.5682 17.5617 14.4436 17.6141 14.3287C17.6664 14.2138 17.7428 14.1114 17.8383 14.0283C17.9337 13.9451 18.0459 13.8832 18.1673 13.8466C18.2887 13.8101 18.4166 13.7997 18.5424 13.8162H30.7409C30.8667 13.7997 30.9945 13.8101 31.116 13.8466C31.2374 13.8832 31.3496 13.9451 31.445 14.0283C31.5404 14.1114 31.6168 14.2138 31.6692 14.3287C31.7216 14.4436 31.7487 14.5682 31.7487 14.6943C31.7487 14.8205 31.7216 14.9451 31.6692 15.06C31.6168 15.1749 31.5404 15.2773 31.445 15.3604C31.3496 15.4436 31.2374 15.5055 31.116 15.542C30.9945 15.5786 30.8667 15.589 30.7409 15.5724Z" fill="white"/>
<path d="M30.7315 20.8706H18.533C18.2967 20.8706 18.07 20.7773 17.9029 20.6112C17.7358 20.4451 17.642 20.2198 17.642 19.9849C17.642 19.7499 17.7358 19.5247 17.9029 19.3585C18.07 19.1924 18.2967 19.0991 18.533 19.0991H30.7315C30.9678 19.0991 31.1945 19.1924 31.3616 19.3585C31.5287 19.5247 31.6226 19.7499 31.6226 19.9849C31.6226 20.2198 31.5287 20.4451 31.3616 20.6112C31.1945 20.7773 30.9678 20.8706 30.7315 20.8706Z" fill="white"/>
<path d="M30.6702 26.1482H18.4717C18.3514 26.1523 18.2315 26.1325 18.1189 26.09C18.0064 26.0475 17.9035 25.9832 17.8162 25.9007C17.729 25.8182 17.6591 25.7193 17.6108 25.6098C17.5624 25.5002 17.5365 25.3821 17.5345 25.2625C17.5365 25.1428 17.5624 25.0248 17.6108 24.9152C17.6591 24.8056 17.729 24.7067 17.8162 24.6243C17.9035 24.5418 18.0064 24.4775 18.1189 24.435C18.2315 24.3925 18.3514 24.3727 18.4717 24.3767H30.6702C30.7905 24.3727 30.9104 24.3925 31.023 24.435C31.1355 24.4775 31.2384 24.5418 31.3256 24.6243C31.4129 24.7067 31.4827 24.8056 31.5311 24.9152C31.5795 25.0248 31.6054 25.1428 31.6073 25.2625C31.6075 25.3828 31.583 25.5018 31.5354 25.6124C31.4878 25.7229 31.418 25.8227 31.3303 25.9056C31.2426 25.9884 31.1388 26.0527 31.0253 26.0944C30.9119 26.1361 30.791 26.1544 30.6702 26.1482Z" fill="white"/>
<path d="M87.9483 111.468C87.4619 111.48 86.9903 111.301 86.6363 110.969C86.2823 110.637 86.0747 110.179 86.0586 109.696V86.7889H84.1843C83.7019 86.7766 83.2342 86.9542 82.8831 87.2832C82.532 87.6122 82.326 88.0658 82.3099 88.5451V113.224C82.3159 113.462 82.3692 113.698 82.4666 113.916C82.5641 114.134 82.7038 114.331 82.8778 114.496C83.0519 114.66 83.2569 114.789 83.481 114.875C83.7052 114.96 83.9442 115.001 84.1843 114.995H104.848C105.088 115.001 105.327 114.96 105.551 114.875C105.775 114.789 105.98 114.66 106.154 114.496C106.328 114.331 106.468 114.134 106.566 113.916C106.663 113.698 106.716 113.462 106.722 113.224V111.468H87.9483Z" fill="#E5453D" fill-opacity="0.3"/>
<path d="M107.441 82.384H88.3749C86.7458 82.384 85.4252 83.6968 85.4252 85.3161V108.742C85.4252 110.362 86.7458 111.675 88.3749 111.675H107.441C109.07 111.675 110.391 110.362 110.391 108.742V85.3161C110.391 83.6968 109.07 82.384 107.441 82.384Z" fill="#E5443C"/>
<path d="M104.316 92.9641H92.117C91.8807 92.9641 91.654 92.8708 91.4869 92.7047C91.3198 92.5386 91.2259 92.3133 91.2259 92.0784C91.2259 91.8435 91.3198 91.6182 91.4869 91.4521C91.654 91.2859 91.8807 91.1926 92.117 91.1926H104.316C104.552 91.1926 104.778 91.2859 104.946 91.4521C105.113 91.6182 105.207 91.8435 105.207 92.0784C105.207 92.3133 105.113 92.5386 104.946 92.7047C104.778 92.8708 104.552 92.9641 104.316 92.9641Z" fill="white"/>
<path d="M104.316 98.2815H92.117C91.8807 98.2815 91.654 98.1882 91.4869 98.0221C91.3198 97.856 91.2259 97.6307 91.2259 97.3958C91.2259 97.1608 91.3198 96.9356 91.4869 96.7694C91.654 96.6033 91.8807 96.51 92.117 96.51H104.316C104.552 96.51 104.778 96.6033 104.946 96.7694C105.113 96.9356 105.207 97.1608 105.207 97.3958C105.207 97.6307 105.113 97.856 104.946 98.0221C104.778 98.1882 104.552 98.2815 104.316 98.2815Z" fill="white"/>
<path d="M104.325 103.538H92.1263C92.0005 103.554 91.8727 103.544 91.7512 103.507C91.6298 103.471 91.5177 103.409 91.4222 103.326C91.3268 103.242 91.2504 103.14 91.198 103.025C91.1456 102.91 91.1185 102.786 91.1185 102.659C91.1185 102.533 91.1456 102.409 91.198 102.294C91.2504 102.179 91.3268 102.076 91.4222 101.993C91.5177 101.91 91.6298 101.848 91.7512 101.812C91.8727 101.775 92.0005 101.765 92.1263 101.781H104.325C104.451 101.765 104.579 101.775 104.7 101.812C104.821 101.848 104.934 101.91 105.029 101.993C105.124 102.076 105.201 102.179 105.253 102.294C105.306 102.409 105.333 102.533 105.333 102.659C105.333 102.786 105.306 102.91 105.253 103.025C105.201 103.14 105.124 103.242 105.029 103.326C104.934 103.409 104.821 103.471 104.7 103.507C104.579 103.544 104.451 103.554 104.325 103.538Z" fill="white"/>
<path d="M16.7684 48.7433C16.6327 48.7494 16.4971 48.7284 16.3698 48.6815C16.2424 48.6345 16.1258 48.5627 16.027 48.4701C15.9281 48.3775 15.8489 48.2661 15.7942 48.1425C15.7395 48.0189 15.7103 47.8857 15.7084 47.7506V45.7806C15.7395 45.525 15.8638 45.2895 16.0577 45.1186C16.2516 44.9478 16.5017 44.8535 16.7608 44.8535C17.0198 44.8535 17.2699 44.9478 17.4638 45.1186C17.6577 45.2895 17.782 45.525 17.8131 45.7806V47.7506C17.8112 47.8843 17.7825 48.0163 17.7287 48.1388C17.6749 48.2614 17.5971 48.372 17.4999 48.4644C17.4027 48.5568 17.288 48.629 17.1624 48.6769C17.0368 48.7248 16.9029 48.7473 16.7684 48.7433Z" fill="#171921"/>
<path d="M16.7684 77.4041C16.6327 77.4102 16.4971 77.3892 16.3698 77.3423C16.2424 77.2953 16.1258 77.2234 16.027 77.1308C15.9281 77.0382 15.8489 76.9268 15.7942 76.8033C15.7395 76.6797 15.7103 76.5464 15.7084 76.4114V51.7023C15.7395 51.4466 15.8638 51.2111 16.0577 51.0403C16.2516 50.8695 16.5017 50.7751 16.7608 50.7751C17.0198 50.7751 17.2699 50.8695 17.4638 51.0403C17.6577 51.2111 17.782 51.4466 17.8131 51.7023V76.4114C17.8112 76.5451 17.7825 76.677 17.7287 76.7996C17.6749 76.9221 17.5971 77.0328 17.4999 77.1252C17.4027 77.2176 17.288 77.2898 17.1624 77.3377C17.0368 77.3855 16.9029 77.4081 16.7684 77.4041Z" fill="#171921"/>
<path d="M16.698 77.3963C16.5607 77.3976 16.4245 77.3713 16.2977 77.3188C16.171 77.2663 16.0562 77.1887 15.9605 77.0908L9.58473 71.1655C9.48373 71.0781 9.40275 70.9701 9.34726 70.849C9.29177 70.7278 9.26305 70.5962 9.26305 70.463C9.26305 70.3299 9.29177 70.1983 9.34726 70.0771C9.40275 69.9559 9.48373 69.848 9.58473 69.7606C9.68487 69.659 9.80438 69.5783 9.93628 69.5232C10.0682 69.4681 10.2098 69.4397 10.3529 69.4397C10.496 69.4397 10.6376 69.4681 10.7695 69.5232C10.9014 69.5783 11.0209 69.659 11.1211 69.7606L16.698 74.9987L22.2749 69.7606C22.4792 69.5591 22.7553 69.4461 23.043 69.4461C23.3308 69.4461 23.6069 69.5591 23.8112 69.7606C23.91 69.8493 23.989 69.9577 24.0431 70.0787C24.0971 70.1997 24.1251 70.3306 24.1251 70.463C24.1251 70.5954 24.0971 70.7264 24.0431 70.8474C23.989 70.9684 23.91 71.0768 23.8112 71.1655L17.4815 77.0908C17.2676 77.2859 16.9883 77.3948 16.698 77.3963Z" fill="#171921"/>
<path d="M37.7793 105.719H35.7206C35.5895 105.719 35.4596 105.694 35.3385 105.644C35.2173 105.594 35.1072 105.521 35.0145 105.429C34.9218 105.336 34.8482 105.227 34.798 105.107C34.7479 104.986 34.722 104.857 34.722 104.727C34.722 104.596 34.7479 104.467 34.798 104.347C34.8482 104.226 34.9218 104.117 35.0145 104.025C35.1072 103.933 35.2173 103.86 35.3385 103.81C35.4596 103.76 35.5895 103.734 35.7206 103.734H37.8408C37.9719 103.734 38.1018 103.76 38.223 103.81C38.3441 103.86 38.4542 103.933 38.5469 104.025C38.6397 104.117 38.7132 104.226 38.7634 104.347C38.8136 104.467 38.8394 104.596 38.8394 104.727C38.8394 104.857 38.8136 104.986 38.7634 105.107C38.7132 105.227 38.6397 105.336 38.5469 105.429C38.4542 105.521 38.3441 105.594 38.223 105.644C38.1018 105.694 37.9719 105.719 37.8408 105.719H37.7793Z" fill="#171921"/>
<path d="M43.5188 105.719H41.4141C41.2829 105.719 41.153 105.694 41.0319 105.644C40.9107 105.594 40.8006 105.521 40.7079 105.429C40.6152 105.336 40.5416 105.227 40.4914 105.107C40.4413 104.986 40.4154 104.857 40.4154 104.727C40.4154 104.596 40.4413 104.467 40.4914 104.347C40.5416 104.226 40.6152 104.117 40.7079 104.025C40.8006 103.933 40.9107 103.86 41.0319 103.81C41.153 103.76 41.2829 103.734 41.4141 103.734H43.5188C43.65 103.734 43.7798 103.76 43.901 103.81C44.0221 103.86 44.1322 103.933 44.225 104.025C44.3177 104.117 44.3912 104.226 44.4414 104.347C44.4916 104.467 44.5174 104.596 44.5174 104.727C44.5174 104.857 44.4916 104.986 44.4414 105.107C44.3912 105.227 44.3177 105.336 44.225 105.429C44.1322 105.521 44.0221 105.594 43.901 105.644C43.7798 105.694 43.65 105.719 43.5188 105.719Z" fill="#171921"/>
<path d="M31.5172 105.622H18.8578C18.4479 105.632 18.0401 105.561 17.6584 105.412C17.2767 105.263 16.9288 105.04 16.6353 104.755C16.3418 104.47 16.1086 104.13 15.9494 103.755C15.7902 103.379 15.7082 102.975 15.7084 102.568V84.8529C15.7103 84.7199 15.739 84.5887 15.793 84.4669C15.847 84.3452 15.925 84.2355 16.0225 84.1443C16.1199 84.0531 16.2348 83.9824 16.3603 83.9362C16.4858 83.89 16.6194 83.8694 16.7531 83.8756C16.8875 83.8694 17.0218 83.89 17.1482 83.936C17.2745 83.9819 17.3904 84.0525 17.4891 84.1435C17.5878 84.2344 17.6673 84.344 17.7229 84.4658C17.7785 84.5876 17.8092 84.7192 17.8131 84.8529V102.644C17.8151 102.778 17.8438 102.91 17.8976 103.032C17.9514 103.155 18.0292 103.266 18.1264 103.358C18.2236 103.45 18.3383 103.523 18.4639 103.57C18.5895 103.618 18.7234 103.641 18.8578 103.637H31.5019C31.7667 103.637 32.0207 103.741 32.208 103.928C32.3953 104.114 32.5005 104.366 32.5005 104.629C32.5005 104.893 32.3953 105.145 32.208 105.331C32.0207 105.517 31.7667 105.622 31.5019 105.622H31.5172Z" fill="#171921"/>
<path d="M23.0277 91.7737C22.753 91.7771 22.4881 91.6728 22.2902 91.4835L16.7134 86.2607L11.1211 91.4988C11.0209 91.6004 10.9014 91.6811 10.7695 91.7362C10.6376 91.7913 10.496 91.8197 10.3529 91.8197C10.2098 91.8197 10.0682 91.7913 9.93628 91.7362C9.80438 91.6811 9.68487 91.6004 9.58473 91.4988C9.48373 91.4113 9.40275 91.3034 9.34726 91.1822C9.29177 91.061 9.26305 90.9294 9.26305 90.7963C9.26305 90.6632 9.29177 90.5316 9.34726 90.4104C9.40275 90.2892 9.48373 90.1813 9.58473 90.0938L15.8991 84.1685C15.9992 84.0669 16.1187 83.9862 16.2506 83.9311C16.3825 83.876 16.5241 83.8477 16.6672 83.8477C16.8103 83.8477 16.9519 83.876 17.0838 83.9311C17.2157 83.9862 17.3353 84.0669 17.4354 84.1685L23.7498 90.0938C23.8508 90.1813 23.9317 90.2892 23.9872 90.4104C24.0427 90.5316 24.0714 90.6632 24.0714 90.7963C24.0714 90.9294 24.0427 91.061 23.9872 91.1822C23.9317 91.3034 23.8508 91.4113 23.7498 91.4988C23.5533 91.6788 23.2949 91.7772 23.0277 91.7737Z" fill="#171921"/>
<path d="M103.243 68.6754C103.377 68.6692 103.512 68.6898 103.638 68.7358C103.765 68.7817 103.88 68.8523 103.979 68.9432C104.078 69.0342 104.157 69.1438 104.213 69.2656C104.268 69.3874 104.299 69.519 104.303 69.6527V71.638C104.303 71.9175 104.191 72.1855 103.993 72.3831C103.794 72.5807 103.524 72.6918 103.243 72.6918C102.962 72.6918 102.692 72.5807 102.493 72.3831C102.295 72.1855 102.183 71.9175 102.183 71.638V69.6527C102.187 69.519 102.218 69.3874 102.273 69.2656C102.329 69.1438 102.408 69.0342 102.507 68.9432C102.606 68.8523 102.722 68.7817 102.848 68.7358C102.974 68.6898 103.109 68.6692 103.243 68.6754Z" fill="#171921"/>
<path d="M103.243 40.0206C103.377 40.0145 103.512 40.035 103.638 40.081C103.765 40.127 103.88 40.1975 103.979 40.2885C104.078 40.3794 104.157 40.489 104.213 40.6108C104.268 40.7327 104.299 40.8642 104.303 40.998V65.7071C104.303 65.9866 104.191 66.2546 103.993 66.4522C103.794 66.6498 103.524 66.7608 103.243 66.7608C102.962 66.7608 102.692 66.6498 102.493 66.4522C102.295 66.2546 102.183 65.9866 102.183 65.7071V40.998C102.187 40.8642 102.218 40.7327 102.273 40.6108C102.329 40.489 102.408 40.3794 102.507 40.2885C102.606 40.1975 102.722 40.127 102.848 40.081C102.974 40.035 103.109 40.0145 103.243 40.0206Z" fill="#171921"/>
<path d="M103.242 40.0221C103.378 40.0179 103.514 40.0414 103.64 40.0913C103.767 40.1412 103.883 40.2164 103.979 40.3123L110.293 46.2376C110.394 46.325 110.475 46.433 110.531 46.5542C110.586 46.6753 110.615 46.8069 110.615 46.9401C110.615 47.0732 110.586 47.2048 110.531 47.326C110.475 47.4472 110.394 47.5551 110.293 47.6426C110.193 47.7441 110.074 47.8249 109.942 47.88C109.81 47.935 109.668 47.9634 109.525 47.9634C109.382 47.9634 109.24 47.935 109.109 47.88C108.977 47.8249 108.857 47.7441 108.757 47.6426L103.18 42.4045L97.5878 47.6426C97.4877 47.7441 97.3682 47.8249 97.2363 47.88C97.1044 47.935 96.9628 47.9634 96.8197 47.9634C96.6766 47.9634 96.535 47.935 96.4031 47.88C96.2712 47.8249 96.1516 47.7441 96.0515 47.6426C95.9527 47.5538 95.8737 47.4454 95.8197 47.3244C95.7656 47.2034 95.7377 47.0725 95.7377 46.9401C95.7377 46.8077 95.7656 46.6768 95.8197 46.5557C95.8737 46.4347 95.9527 46.3264 96.0515 46.2376L102.458 40.2512C102.684 40.0848 102.961 40.0036 103.242 40.0221Z" fill="#171921"/>
<path d="M82.173 11.7015H84.2778C84.4122 11.6954 84.5465 11.7159 84.6729 11.7619C84.7993 11.8079 84.9152 11.8784 85.0139 11.9694C85.1125 12.0604 85.192 12.1699 85.2476 12.2917C85.3033 12.4136 85.3339 12.5452 85.3378 12.6789C85.3359 12.8139 85.3068 12.9471 85.252 13.0707C85.1973 13.1943 85.1181 13.3057 85.0192 13.3983C84.9204 13.4909 84.8038 13.5628 84.6764 13.6097C84.5491 13.6566 84.4135 13.6777 84.2778 13.6715H82.173C82.0385 13.6756 81.9046 13.653 81.7791 13.6051C81.6535 13.5573 81.5388 13.485 81.4415 13.3927C81.3443 13.3003 81.2666 13.1896 81.2128 13.067C81.159 12.9445 81.1303 12.8126 81.1283 12.6789C81.1302 12.5459 81.159 12.4146 81.213 12.2929C81.2669 12.1711 81.3449 12.0614 81.4424 11.9702C81.5398 11.8791 81.6547 11.8083 81.7802 11.7621C81.9057 11.716 82.0393 11.6953 82.173 11.7015Z" fill="#171921"/>
<path d="M76.3722 11.7015H78.477C78.6114 11.6954 78.7458 11.7159 78.8721 11.7619C78.9985 11.8079 79.1144 11.8784 79.2131 11.9694C79.3117 12.0604 79.3912 12.1699 79.4468 12.2917C79.5024 12.4136 79.5331 12.5452 79.5371 12.6789C79.5351 12.8139 79.5059 12.9471 79.4512 13.0707C79.3965 13.1943 79.3173 13.3057 79.2185 13.3983C79.1196 13.4909 79.003 13.5628 78.8756 13.6097C78.7482 13.6566 78.6127 13.6777 78.477 13.6715H76.3722C76.2378 13.6756 76.1039 13.653 75.9783 13.6051C75.8527 13.5573 75.7379 13.485 75.6407 13.3927C75.5435 13.3003 75.4657 13.1896 75.4119 13.067C75.3582 12.9445 75.3295 12.8126 75.3275 12.6789C75.3294 12.5459 75.3582 12.4146 75.4121 12.2929C75.4661 12.1711 75.5441 12.0614 75.6416 11.9702C75.739 11.8791 75.8539 11.8083 75.9794 11.7621C76.105 11.716 76.2385 11.6953 76.3722 11.7015Z" fill="#171921"/>
<path d="M88.4504 11.8021H101.094C101.894 11.8017 102.662 12.1109 103.235 12.664C103.809 13.2171 104.143 13.9707 104.167 14.7647V32.617C104.136 32.8727 104.012 33.1082 103.818 33.279C103.624 33.4498 103.374 33.5441 103.115 33.5441C102.856 33.5441 102.605 33.4498 102.412 33.279C102.218 33.1082 102.093 32.8727 102.062 32.617V14.7647C102.06 14.631 102.032 14.4991 101.978 14.3765C101.924 14.254 101.846 14.1433 101.749 14.0509C101.652 13.9586 101.537 13.8863 101.412 13.8385C101.286 13.7906 101.152 13.768 101.018 13.7721H88.3736C88.2331 13.7895 88.0904 13.777 87.9552 13.7355C87.8199 13.694 87.6951 13.6243 87.589 13.5312C87.4828 13.438 87.3978 13.3235 87.3396 13.1952C87.2814 13.0669 87.2513 12.9278 87.2513 12.7871C87.2513 12.6463 87.2814 12.5072 87.3396 12.3789C87.3978 12.2507 87.4828 12.1361 87.589 12.043C87.6951 11.9498 87.8199 11.8802 87.9552 11.8387C88.0904 11.7971 88.2331 11.7846 88.3736 11.8021H88.4504Z" fill="#171921"/>
<path d="M96.8964 25.6381C97.0328 25.6338 97.1686 25.6573 97.2954 25.7072C97.4222 25.7572 97.5374 25.8324 97.6339 25.9282L103.226 31.09L108.803 25.8519C108.903 25.7503 109.023 25.6696 109.155 25.6145C109.286 25.5594 109.428 25.531 109.571 25.531C109.714 25.531 109.856 25.5594 109.988 25.6145C110.12 25.6696 110.239 25.7503 110.339 25.8519C110.44 25.9393 110.521 26.0473 110.577 26.1684C110.632 26.2896 110.661 26.4212 110.661 26.5543C110.661 26.6875 110.632 26.8191 110.577 26.9403C110.521 27.0614 110.44 27.1694 110.339 27.2568L104.025 33.1821C103.925 33.2837 103.805 33.3644 103.673 33.4195C103.542 33.4746 103.4 33.503 103.257 33.503C103.114 33.503 102.972 33.4746 102.84 33.4195C102.708 33.3644 102.589 33.2837 102.489 33.1821L96.159 27.2568C96.0602 27.1681 95.9812 27.0597 95.9271 26.9387C95.873 26.8177 95.8451 26.6867 95.8451 26.5543C95.8451 26.4219 95.873 26.291 95.9271 26.17C95.9812 26.049 96.0602 25.9406 96.159 25.8519C96.3712 25.6953 96.6328 25.6195 96.8964 25.6381Z" fill="#171921"/>
<path d="M78.3011 37.8308H42.9807C41.7419 37.8308 40.7377 38.829 40.7377 40.0604V45.8941C40.7377 47.1255 41.7419 48.1237 42.9807 48.1237H78.3011C79.5399 48.1237 80.5441 47.1255 80.5441 45.8941V40.0604C80.5441 38.829 79.5399 37.8308 78.3011 37.8308Z" stroke="#171921" stroke-width="1.34146" stroke-miterlimit="10"/>
<path d="M78.3011 51.6211H42.9807C41.7419 51.6211 40.7377 52.6193 40.7377 53.8507V59.6844C40.7377 60.9158 41.7419 61.914 42.9807 61.914H78.3011C79.5399 61.914 80.5441 60.9158 80.5441 59.6844V53.8507C80.5441 52.6193 79.5399 51.6211 78.3011 51.6211Z" stroke="#171921" stroke-width="1.34146" stroke-miterlimit="10"/>
<path d="M78.3011 65.4114H42.9807C41.7419 65.4114 40.7377 66.4096 40.7377 67.641V73.4747C40.7377 74.7061 41.7419 75.7043 42.9807 75.7043H78.3011C79.5399 75.7043 80.5441 74.7061 80.5441 73.4747V67.641C80.5441 66.4096 79.5399 65.4114 78.3011 65.4114Z" stroke="#171921" stroke-width="1.34146" stroke-miterlimit="10"/>
<path d="M45.388 42.9776C45.388 43.3607 45.0748 43.6758 44.6829 43.6758C44.2909 43.6758 43.9778 43.3607 43.9778 42.9776C43.9778 42.5946 44.2909 42.2794 44.6829 42.2794C45.0748 42.2794 45.388 42.5946 45.388 42.9776Z" fill="#E5443C" stroke="#171921" stroke-width="0.894309"/>
<path d="M50.222 42.9776C50.222 43.3607 49.9088 43.6758 49.5169 43.6758C49.1249 43.6758 48.8118 43.3607 48.8118 42.9776C48.8118 42.5946 49.1249 42.2794 49.5169 42.2794C49.9088 42.2794 50.222 42.5946 50.222 42.9776Z" fill="#E5443C" stroke="#171921" stroke-width="0.894309"/>
<path d="M45.388 57.117C45.388 57.5001 45.0748 57.8152 44.6829 57.8152C44.2909 57.8152 43.9778 57.5001 43.9778 57.117C43.9778 56.734 44.2909 56.4188 44.6829 56.4188C45.0748 56.4188 45.388 56.734 45.388 57.117Z" fill="#E5443C" stroke="#171921" stroke-width="0.894309"/>
<path d="M50.222 57.117C50.222 57.5001 49.9088 57.8152 49.5169 57.8152C49.1249 57.8152 48.8118 57.5001 48.8118 57.117C48.8118 56.734 49.1249 56.4188 49.5169 56.4188C49.9088 56.4188 50.222 56.734 50.222 57.117Z" fill="#E5443C" stroke="#171921" stroke-width="0.894309"/>
<path d="M45.388 70.5582C45.388 70.9413 45.0748 71.2564 44.6829 71.2564C44.2909 71.2564 43.9778 70.9413 43.9778 70.5582C43.9778 70.1751 44.2909 69.86 44.6829 69.86C45.0748 69.86 45.388 70.1751 45.388 70.5582Z" fill="#E5443C" stroke="#171921" stroke-width="0.894309"/>
<path d="M50.222 70.5582C50.222 70.9413 49.9088 71.2564 49.5169 71.2564C49.1249 71.2564 48.8118 70.9413 48.8118 70.5582C48.8118 70.1751 49.1249 69.86 49.5169 69.86C49.9088 69.86 50.222 70.1751 50.222 70.5582Z" fill="#E5443C" stroke="#171921" stroke-width="0.894309"/>
<path d="M60.6107 75.7104V82.6895" stroke="#171921" stroke-width="1.34146" stroke-linecap="round" stroke-linejoin="round"/>
<path d="M46.7533 82.6794H74.4841" stroke="#171921" stroke-width="1.34146" stroke-linecap="round" stroke-linejoin="round"/>
</g>
<defs>
<clipPath id="clip0_64_7586">
<rect width="101.951" height="110" fill="white" transform="translate(8.61852 5)"/>
</clipPath>
</defs>
</svg>
