<svg
    width="34"
    height="35"
    viewBox="0 0 34 35"
    fill="none"
    xmlns="http://www.w3.org/2000/svg"
  >
    <g clipPath="url(#clip0_243_11057)">
      <path
        d="M24.64 0H3.03C1.36 0 0 1.18 0 2.63V31.67C0 33.13 1.36 34.3 3.03 34.3H24.62C26.29 34.3 27.65 33.13 27.65 31.67V27.22C27.37 27.34 27.07 27.41 26.77 27.41C26.47 27.41 26.17 27.35 25.89 27.22V31.68C25.89 32.14 25.3 32.55 24.63 32.55H3.03C2.36 32.55 1.77 32.14 1.77 31.68V2.63C1.77 2.17 2.36 1.76 3.03 1.76H24.64C25.32 1.76 25.88 2.16 25.88 2.62V9.3L26.23 9.24C26.41 9.21 26.58 9.2 26.76 9.2C26.92 9.2 27.07 9.22 27.23 9.24L27.64 9.32V2.62C27.64 1.17 26.29 0 24.63 0H24.64ZM26.77 10.52C26.67 10.52 26.58 10.52 26.48 10.55C26.29 10.59 26.08 10.62 25.89 10.66V25.67L26.31 25.94C26.45 26.04 26.61 26.08 26.77 26.08C26.93 26.08 27.09 26.04 27.23 25.94L27.65 25.67V10.66C27.44 10.62 27.22 10.58 27.01 10.55C26.93 10.53 26.85 10.52 26.77 10.52Z"
        fill="#171921"
      />
      <path
        d="M33.05 11.64V19.6C33.05 21.23 32.22 22.76 30.83 23.64L27.64 25.66L27.22 25.93C27.08 26.03 26.92 26.07 26.76 26.07C26.6 26.07 26.44 26.03 26.3 25.93L25.88 25.66L22.69 23.64C21.31 22.76 20.47 21.23 20.47 19.6V11.64C22.27 11.31 24.07 10.98 25.87 10.65C26.06 10.61 26.27 10.58 26.46 10.54C26.56 10.52 26.65 10.51 26.75 10.51C26.83 10.51 26.91 10.51 26.99 10.54C27.2 10.58 27.42 10.62 27.63 10.65L33.03 11.63L33.05 11.64Z"
        fill="#E5453D"
      />
      <path
        d="M30.69 14.68L30.74 14.98C30.74 14.98 30.79 15.32 30.79 15.83C30.79 16.32 30.74 16.97 30.56 17.7C30.39 18.39 30.08 19.21 29.52 20.02C28.96 20.83 28.15 21.62 26.96 22.26L26.82 22.34L26.68 22.26C25.5 21.62 24.68 20.83 24.12 20.02C23.56 19.21 23.25 18.39 23.08 17.7C22.9 16.97 22.85 16.32 22.85 15.83C22.85 15.32 22.9 15 22.9 14.98L22.95 14.68C22.97 14.58 22.9 14.48 22.79 14.46C22.69 14.44 22.59 14.51 22.57 14.62L22.52 14.92C22.52 14.92 22.46 15.3 22.46 15.83C22.46 16.34 22.51 17.03 22.7 17.79C22.88 18.52 23.21 19.38 23.8 20.24C24.39 21.09 25.25 21.93 26.49 22.6L26.72 22.73C26.78 22.76 26.84 22.76 26.9 22.73L27.13 22.6C28.37 21.93 29.23 21.09 29.82 20.24C30.41 19.39 30.74 18.52 30.92 17.79C31.11 17.03 31.16 16.34 31.16 15.83C31.16 15.29 31.11 14.95 31.1 14.92L31.05 14.62C31.03 14.52 30.94 14.45 30.83 14.46C30.73 14.48 30.66 14.57 30.67 14.68H30.69Z"
        fill="white"
      />
      <path
        d="M23.9899 14.48L26.8199 13.62L29.7099 14.5C29.8099 14.53 29.9199 14.47 29.9499 14.37C29.9799 14.27 29.9199 14.16 29.8199 14.13L26.8699 13.23C26.8699 13.23 26.7999 13.22 26.7599 13.23L23.8799 14.11C23.7799 14.14 23.7199 14.25 23.7499 14.35C23.7799 14.45 23.8899 14.51 23.9899 14.48Z"
        fill="white"
      />
      <path
        d="M22.6 14.74L26.65 22.65C26.68 22.71 26.75 22.75 26.82 22.75C26.89 22.75 26.96 22.71 26.99 22.65L29.46 18.03L31.04 14.74C31.09 14.65 31.04 14.53 30.95 14.49C30.86 14.44 30.74 14.49 30.7 14.58L29.12 17.86L26.82 22.16L22.93 14.57C22.88 14.48 22.77 14.44 22.67 14.49C22.58 14.54 22.54 14.65 22.59 14.75L22.6 14.74Z"
        fill="white"
      />
      <path
        d="M24.54 18.26H29.05C29.16 18.26 29.24 18.17 29.24 18.07C29.24 17.97 29.15 17.88 29.05 17.88H24.54C24.43 17.88 24.35 17.97 24.35 18.07C24.35 18.17 24.44 18.26 24.54 18.26Z"
        fill="white"
      />
      <path
        d="M5.96995 9.27L14.8099 9.27C14.9535 9.27 15.0699 9.1536 15.0699 9.01V7.9C15.0699 7.75641 14.9535 7.64 14.8099 7.64L5.96995 7.64C5.82635 7.64 5.70995 7.75641 5.70995 7.9V9.01C5.70995 9.1536 5.82635 9.27 5.96995 9.27Z"
        fill="#171921"
      />
      <path
        d="M5.96994 13.61L16.5499 13.61C16.6935 13.61 16.8099 13.4936 16.8099 13.35V12.24C16.8099 12.0964 16.6935 11.98 16.5499 11.98L5.96994 11.98C5.82634 11.98 5.70994 12.0964 5.70994 12.24V13.35C5.70994 13.4936 5.82634 13.61 5.96994 13.61Z"
        fill="#171921"
      />
      <path
        d="M5.96994 17.97H16.5499C16.6935 17.97 16.8099 17.8536 16.8099 17.71V16.6C16.8099 16.4564 16.6935 16.34 16.5499 16.34H5.96994C5.82634 16.34 5.70994 16.4564 5.70994 16.6V17.71C5.70994 17.8536 5.82634 17.97 5.96994 17.97Z"
        fill="#171921"
      />
      <path
        d="M5.96994 22.32H16.5499C16.6935 22.32 16.8099 22.2036 16.8099 22.06V20.95C16.8099 20.8064 16.6935 20.69 16.5499 20.69H5.96994C5.82634 20.69 5.70994 20.8064 5.70994 20.95V22.06C5.70994 22.2036 5.82634 22.32 5.96994 22.32Z"
        fill="#171921"
      />
      <path
        d="M5.96994 26.67H16.5499C16.6935 26.67 16.8099 26.5536 16.8099 26.41V25.3C16.8099 25.1564 16.6935 25.04 16.5499 25.04H5.96994C5.82634 25.04 5.70994 25.1564 5.70994 25.3V26.41C5.70994 26.5536 5.82634 26.67 5.96994 26.67Z"
        fill="#171921"
      />
    </g>
    <defs>
      <clipPath id="clip0_243_11057">
        <rect width="33.05" height="34.3" fill="white" />
      </clipPath>
    </defs>
  </svg>