<svg width="120" height="120" viewBox="0 0 120 120" fill="none" xmlns="http://www.w3.org/2000/svg">
<g clip-path="url(#clip0_76_7265)">
<path d="M86.0001 45.9206L60.658 31.3333L35.3 45.9206V75.0794L60.658 89.6666L86.0001 75.0794V45.9206Z" stroke="#171921" stroke-linecap="round" stroke-linejoin="round"/>
<path d="M83.3999 47.8611L60.658 35.2222L37.8999 47.8611V73.1389L60.658 85.7778L83.3999 73.1389V47.8611Z" fill="#E5453D"/>
<path d="M58.376 68.9258C58.2281 68.9283 58.0812 68.8991 57.9441 68.8397C57.8069 68.7803 57.6822 68.6921 57.5775 68.5802L49.8987 60.3515C49.7066 60.1269 49.6001 59.8333 49.6001 59.5286C49.6001 59.2239 49.7066 58.9303 49.8987 58.7057C50.1049 58.4925 50.3801 58.3734 50.6666 58.3734C50.9531 58.3734 51.2284 58.4925 51.4345 58.7057L58.3147 66.0786L69.8481 53.7027C70.0542 53.4895 70.3295 53.3704 70.616 53.3704C70.9024 53.3704 71.1777 53.4895 71.3838 53.7027C71.5864 53.9215 71.7001 54.2173 71.7001 54.5255C71.7001 54.8338 71.5864 55.1296 71.3838 55.3484L59.0979 68.5143C58.9162 68.7466 58.6573 68.8941 58.376 68.9258Z" fill="white"/>
<path d="M73.9944 14.5211C81.8892 16.9626 89.0273 21.3493 94.7382 27.2693C100.449 33.1893 104.545 40.4483 106.643 48.3646" stroke="#171921" stroke-width="1.2" stroke-linecap="round" stroke-linejoin="round"/>
<path d="M13.0327 46.1965C15.4921 38.3812 19.9232 31.3145 25.908 25.663C31.8928 20.0115 39.2341 15.9615 47.2394 13.895" stroke="#171921" stroke-width="1.2" stroke-linecap="round" stroke-linejoin="round"/>
<path d="M45.0478 106.511C37.1486 104.077 30.006 99.6933 24.2939 93.772C18.5817 87.8507 14.4883 80.5874 12.3997 72.6671" stroke="#171921" stroke-width="1.2" stroke-linecap="round" stroke-linejoin="round"/>
<path d="M106.009 74.8357C103.543 82.6448 99.1117 89.7058 93.1312 95.3559C87.1507 101.006 79.8171 105.06 71.8188 107.137" stroke="#171921" stroke-width="1.2" stroke-linecap="round" stroke-linejoin="round"/>
<path d="M60.6006 16.7058C63.0304 16.7058 65.0002 14.757 65.0002 12.3529C65.0002 9.94887 63.0304 8 60.6006 8C58.1707 8 56.2009 9.94887 56.2009 12.3529C56.2009 14.757 58.1707 16.7058 60.6006 16.7058Z" fill="#171921"/>
<path d="M12.3996 64.8448C14.8295 64.8448 16.7993 62.8959 16.7993 60.4919C16.7993 58.0878 14.8295 56.139 12.3996 56.139C9.96978 56.139 8 58.0878 8 60.4919C8 62.8959 9.96978 64.8448 12.3996 64.8448Z" fill="#171921"/>
<path d="M107.6 64.8448C110.03 64.8448 112 62.8959 112 60.4919C112 58.0878 110.03 56.139 107.6 56.139C105.17 56.139 103.201 58.0878 103.201 60.4919C103.201 62.8959 105.17 64.8448 107.6 64.8448Z" fill="#171921"/>
<path d="M60.6006 113C63.0304 113 65.0002 111.051 65.0002 108.647C65.0002 106.243 63.0304 104.294 60.6006 104.294C58.1707 104.294 56.2009 106.243 56.2009 108.647C56.2009 111.051 58.1707 113 60.6006 113Z" fill="#171921"/>
<path d="M76.0197 20.7601L73 13.5641L80.2732 10.5926" stroke="#171921" stroke-width="1.2" stroke-linecap="round" stroke-linejoin="round"/>
<path d="M19.8202 44.0215L12.7256 47.4267L9.30005 40.4074" stroke="#171921" stroke-width="1.2" stroke-linecap="round" stroke-linejoin="round"/>
<path d="M42.8528 100.037L46.2783 107.056L39.2 110.445" stroke="#171921" stroke-width="1.2" stroke-linecap="round" stroke-linejoin="round"/>
<path d="M99.4343 77.0364L106.513 73.6312L109.954 80.6505" stroke="#171921" stroke-width="1.2" stroke-linecap="round" stroke-linejoin="round"/>
</g>
<defs>
<clipPath id="clip0_76_7265">
<rect width="104" height="105" fill="white" transform="translate(8 8)"/>
</clipPath>
</defs>
</svg>
