<svg width="40" height="36" viewBox="0 0 40 36" fill="none" xmlns="http://www.w3.org/2000/svg">
<path d="M27.963 4.16309H11.9862L4 17.9979L11.9862 31.837H27.963L35.9535 17.9979L27.963 4.16309Z" stroke="#171921" stroke-width="0.711132" stroke-linecap="round" stroke-linejoin="round"/>
<path d="M11.7012 4.35278L27.9193 31.837" stroke="#171921" stroke-width="0.711132" stroke-linecap="round" stroke-linejoin="round"/>
<path d="M27.9193 4.35278L11.7012 31.837" stroke="#171921" stroke-width="0.711132" stroke-linecap="round" stroke-linejoin="round"/>
<path d="M4.04688 17.9973H35.9529" stroke="#171921" stroke-width="0.711132" stroke-linecap="round" stroke-linejoin="round"/>
<path d="M4.04709 21.0451C5.72995 21.0451 7.09418 19.6809 7.09418 17.998C7.09418 16.3152 5.72995 14.9509 4.04709 14.9509C2.36423 14.9509 1 16.3152 1 17.998C1 19.6809 2.36423 21.0451 4.04709 21.0451Z" fill="white" stroke="#171921" stroke-width="0.711132" stroke-miterlimit="10"/>
<path d="M35.9533 21.0451C37.6362 21.0451 39.0004 19.6809 39.0004 17.998C39.0004 16.3152 37.6362 14.9509 35.9533 14.9509C34.2705 14.9509 32.9062 16.3152 32.9062 17.998C32.9062 19.6809 34.2705 21.0451 35.9533 21.0451Z" fill="white" stroke="#171921" stroke-width="0.711132" stroke-miterlimit="10"/>
<path d="M27.9182 7.21041C29.601 7.21041 30.9653 5.84618 30.9653 4.16331C30.9653 2.48044 29.601 1.11621 27.9182 1.11621C26.2353 1.11621 24.8711 2.48044 24.8711 4.16331C24.8711 5.84618 26.2353 7.21041 27.9182 7.21041Z" fill="white" stroke="#171921" stroke-width="0.711132" stroke-miterlimit="10"/>
<path d="M11.7014 7.40035C13.3842 7.40035 14.7485 6.03612 14.7485 4.35325C14.7485 2.67039 13.3842 1.30615 11.7014 1.30615C10.0185 1.30615 8.6543 2.67039 8.6543 4.35325C8.6543 6.03612 10.0185 7.40035 11.7014 7.40035Z" fill="white" stroke="#171921" stroke-width="0.711132" stroke-miterlimit="10"/>
<path d="M12.3049 34.8838C13.9878 34.8838 15.352 33.5195 15.352 31.8367C15.352 30.1538 13.9878 28.7896 12.3049 28.7896C10.622 28.7896 9.25781 30.1538 9.25781 31.8367C9.25781 33.5195 10.622 34.8838 12.3049 34.8838Z" fill="white" stroke="#171921" stroke-width="0.711132" stroke-miterlimit="10"/>
<path d="M27.9182 34.8838C29.601 34.8838 30.9653 33.5195 30.9653 31.8367C30.9653 30.1538 29.601 28.7896 27.9182 28.7896C26.2353 28.7896 24.8711 30.1538 24.8711 31.8367C24.8711 33.5195 26.2353 34.8838 27.9182 34.8838Z" fill="white" stroke="#171921" stroke-width="0.711132" stroke-miterlimit="10"/>
<path d="M19.9763 26.3373C24.5822 26.3373 28.316 22.6035 28.316 17.9976C28.316 13.3918 24.5822 9.65796 19.9763 9.65796C15.3705 9.65796 11.6367 13.3918 11.6367 17.9976C11.6367 22.6035 15.3705 26.3373 19.9763 26.3373Z" fill="#E5453D"/>
<path d="M23.249 15.7495L23.2921 16.0124C23.2921 16.0124 23.3395 16.3098 23.3395 16.7537C23.3395 17.1761 23.3007 17.7493 23.1412 18.3785C22.9947 18.9776 22.7232 19.6974 22.2318 20.3999C21.7405 21.1024 21.0337 21.7963 20.0036 22.3523L19.8786 22.4212L19.7536 22.3523C18.7236 21.7963 18.0168 21.1024 17.5254 20.3999C17.0384 19.6974 16.7669 18.9819 16.6161 18.3785C16.4609 17.745 16.4178 17.1761 16.4178 16.7537C16.4178 16.3098 16.4609 16.0253 16.4652 16.0124L16.5083 15.7495C16.5212 15.659 16.4609 15.5728 16.3704 15.5598C16.2799 15.5469 16.1937 15.6073 16.1808 15.6978L16.1377 15.9607C16.1333 15.9908 16.0859 16.2882 16.0859 16.758C16.0859 17.2019 16.129 17.801 16.2928 18.4647C16.448 19.0983 16.7324 19.8525 17.2496 20.5938C17.7668 21.3351 18.5167 22.0678 19.5899 22.6496L19.7924 22.7617C19.8398 22.7876 19.9002 22.7876 19.9476 22.7617L20.1502 22.6496C21.2276 22.0678 21.9775 21.3394 22.4904 20.5938C23.0076 19.8525 23.2921 19.094 23.4472 18.4647C23.611 17.801 23.6541 17.2019 23.6541 16.758C23.6541 16.2925 23.6067 15.9908 23.6024 15.9607L23.5593 15.6978C23.5463 15.6073 23.4601 15.5469 23.3696 15.5598C23.2791 15.5728 23.2188 15.659 23.2317 15.7495H23.249Z" fill="white" stroke="white" stroke-width="0.205407"/>
<path d="M17.4225 15.5686L19.8835 14.8187L22.4005 15.5859C22.4867 15.6117 22.5815 15.5643 22.6073 15.4738C22.6332 15.3876 22.5858 15.2928 22.4953 15.2669L19.9309 14.4825C19.9007 14.4739 19.8662 14.4739 19.8361 14.4825L17.3277 15.2497C17.2415 15.2756 17.1898 15.3704 17.2157 15.4566C17.2415 15.5428 17.3363 15.5945 17.4225 15.5686Z" fill="white" stroke="white" stroke-width="0.205407"/>
<path d="M16.2066 15.7972L19.7364 22.6844C19.7666 22.7404 19.8226 22.7749 19.883 22.7749C19.9433 22.7749 19.9993 22.7404 20.0295 22.6887L22.1801 18.6632L23.5593 15.7929C23.5981 15.711 23.5636 15.6118 23.4817 15.573C23.3998 15.5343 23.3007 15.5687 23.2619 15.6506L21.8871 18.5124L19.8873 22.2577L16.4997 15.6506C16.4566 15.5687 16.3575 15.5386 16.2756 15.5774C16.1937 15.6205 16.1635 15.7196 16.2023 15.8015L16.2066 15.7972Z" fill="white" stroke="white" stroke-width="0.205407"/>
<path d="M17.8962 18.8661H21.8225C21.913 18.8661 21.9863 18.7929 21.9863 18.7024C21.9863 18.6118 21.913 18.5386 21.8225 18.5386H17.8962C17.8057 18.5386 17.7324 18.6118 17.7324 18.7024C17.7324 18.7929 17.8057 18.8661 17.8962 18.8661Z" fill="white" stroke="white" stroke-width="0.205407"/>
</svg>
