<svg width="48" height="48" viewBox="0 0 48 48" fill="none" xmlns="http://www.w3.org/2000/svg">
<path d="M32.9083 19.9375V30.7141C32.9083 32.9209 31.7846 34.9923 29.9028 36.1837L25.584 38.9185L25.0154 39.284C24.8259 39.4194 24.6093 39.4735 24.3926 39.4735C24.176 39.4735 23.9594 39.4194 23.7699 39.284L23.2013 38.9185L18.8825 36.1837C17.0142 34.9923 15.877 32.9209 15.877 30.7141V19.9375C18.3139 19.4908 20.7508 19.044 23.1877 18.5972C23.445 18.5431 23.7293 18.5025 23.9865 18.4483C24.1219 18.4212 24.2437 18.4077 24.3791 18.4077C24.4874 18.4077 24.5957 18.4077 24.704 18.4483C24.9883 18.5025 25.2862 18.5566 25.5705 18.5972L32.8813 19.924L32.9083 19.9375Z" fill="#E5453D"/>
<path d="M29.7132 24.0532L29.7809 24.4594C29.7809 24.4594 29.8486 24.9197 29.8486 25.6101C29.8486 26.2735 29.7809 27.1535 29.5372 28.1418C29.307 29.076 28.8874 30.1861 28.1292 31.2828C27.371 32.3794 26.2744 33.4489 24.6634 34.3154L24.4738 34.4237L24.2843 34.3154C22.6867 33.4489 21.5766 32.3794 20.8184 31.2828C20.0603 30.1861 19.6406 29.076 19.4104 28.1418C19.1667 27.1535 19.099 26.2735 19.099 25.6101C19.099 24.9197 19.1667 24.4864 19.1667 24.4594L19.2344 24.0532C19.2615 23.9178 19.1667 23.7825 19.0178 23.7554C18.8824 23.7283 18.747 23.8231 18.72 23.972L18.6523 24.3781C18.6523 24.3781 18.571 24.8926 18.571 25.6101C18.571 26.3006 18.6387 27.2348 18.896 28.2637C19.1397 29.252 19.5864 30.4163 20.3852 31.5806C21.184 32.7314 22.3483 33.8686 24.027 34.7757L24.3384 34.9517C24.4197 34.9923 24.5009 34.9923 24.5821 34.9517L24.8935 34.7757C26.5723 33.8686 27.7366 32.7314 28.5354 31.5806C29.3341 30.4298 29.7809 29.252 30.0246 28.2637C30.2818 27.2348 30.3495 26.3006 30.3495 25.6101C30.3495 24.8791 30.2818 24.4188 30.2683 24.3781L30.2006 23.972C30.1735 23.8366 30.0517 23.7418 29.9027 23.7554C29.7674 23.7825 29.6726 23.9043 29.6861 24.0532H29.7132Z" fill="white"/>
<path d="M20.6425 23.7825L24.4739 22.6182L28.3865 23.8095C28.5219 23.8502 28.6708 23.7689 28.7115 23.6335C28.7521 23.4982 28.6709 23.3492 28.5355 23.3086L24.5416 22.0902C24.5416 22.0902 24.4469 22.0766 24.3927 22.0902L20.4936 23.2815C20.3582 23.3222 20.277 23.4711 20.3176 23.6065C20.3582 23.7418 20.5072 23.8231 20.6425 23.7825Z" fill="white"/>
<path d="M18.7606 24.1345L24.2436 34.8434C24.2842 34.9246 24.379 34.9788 24.4738 34.9788C24.5686 34.9788 24.6633 34.9246 24.7039 34.8434L28.0479 28.5886L30.187 24.1345C30.2547 24.0126 30.187 23.8502 30.0652 23.796C29.9433 23.7283 29.7809 23.796 29.7267 23.9178L27.5876 28.3585L24.4738 34.18L19.2073 23.9043C19.1396 23.7825 18.9907 23.7283 18.8553 23.796C18.7335 23.8637 18.6793 24.0126 18.747 24.148L18.7606 24.1345Z" fill="white"/>
<path d="M21.3871 28.9H27.493C27.6419 28.9 27.7502 28.7781 27.7502 28.6428C27.7502 28.5074 27.6283 28.3855 27.493 28.3855H21.3871C21.2382 28.3855 21.1299 28.5074 21.1299 28.6428C21.1299 28.7781 21.2517 28.9 21.3871 28.9Z" fill="white"/>
<path d="M41.6 5.88461H6.4C3.96995 5.88461 2 7.85456 2 10.2846V38.7154C2 41.1454 3.96995 43.1154 6.4 43.1154H41.6C44.0301 43.1154 46 41.1454 46 38.7154V10.2846C46 7.85456 44.0301 5.88461 41.6 5.88461Z" stroke="black" stroke-width="1.35385"/>
<path d="M2.33838 14.3462H45.3384" stroke="black" stroke-width="1.35385"/>
<path d="M6.34732 11.533C7.06581 11.533 7.64837 10.9504 7.64837 10.2319C7.64837 9.51332 7.06581 8.93076 6.34732 8.93076C5.6287 8.93076 5.04614 9.51332 5.04614 10.2319C5.04614 10.9504 5.6287 11.533 6.34732 11.533Z" fill="#E5453D"/>
<path d="M11.7626 11.533C12.4811 11.533 13.0637 10.9504 13.0637 10.2319C13.0637 9.51332 12.4811 8.93076 11.7626 8.93076C11.044 8.93076 10.4614 9.51332 10.4614 10.2319C10.4614 10.9504 11.044 11.533 11.7626 11.533Z" fill="#E5453D"/>
<path d="M17.1781 11.533C17.8966 11.533 18.4792 10.9504 18.4792 10.2319C18.4792 9.51332 17.8966 8.93076 17.1781 8.93076C16.4595 8.93076 15.877 9.51332 15.877 10.2319C15.877 10.9504 16.4595 11.533 17.1781 11.533Z" fill="#E5453D"/>
</svg>
